<?xml version="1.0" encoding="utf-8"?>
<!-- Generator: Adobe Illustrator 16.0.0, SVG Export Plug-In . SVG Version: 6.00 Build 0)  -->
<!DOCTYPE svg PUBLIC "-//W3C//DTD SVG 1.1//EN" "http://www.w3.org/Graphics/SVG/1.1/DTD/svg11.dtd">
<svg version="1.1" id="Layer_1" xmlns="http://www.w3.org/2000/svg" xmlns:xlink="http://www.w3.org/1999/xlink" x="0px" y="0px"
	 width="599px" height="446.508px" viewBox="54.31 0 599 446.508" enable-background="new 54.31 0 599 446.508"
	 xml:space="preserve">

<text transform="matrix(0.6149 -0.7886 0.7886 0.6149 67.5374 50.8252)" fill="#A7A9AB" font-family="'MyriadPro-Regular'" font-size="9.3903">1</text>
<text transform="matrix(0.6149 -0.7886 0.7886 0.6149 102.5735 78.1396)" fill="#A7A9AB" font-family="'MyriadPro-Regular'" font-size="9.3903">2</text>
<text transform="matrix(0.6149 -0.7886 0.7886 0.6149 137.6086 105.4561)" fill="#A7A9AB" font-family="'MyriadPro-Regular'" font-size="9.3903">3</text>
<text transform="matrix(0.6149 -0.7886 0.7886 0.6149 172.6438 132.7725)" fill="#A7A9AB" font-family="'MyriadPro-Regular'" font-size="9.3903">4</text>
<text transform="matrix(0.6149 -0.7886 0.7886 0.6149 207.679 160.0889)" fill="#A7A9AB" font-family="'MyriadPro-Regular'" font-size="9.3903">5</text>
<text transform="matrix(0.6149 -0.7886 0.7886 0.6149 242.7151 187.4033)" fill="#A7A9AB" font-family="'MyriadPro-Regular'" font-size="9.3903">6</text>
<text transform="matrix(0.6149 -0.7886 0.7886 0.6149 277.7502 214.7197)" fill="#A7A9AB" font-family="'MyriadPro-Regular'" font-size="9.3903">7</text>
<text transform="matrix(0.6149 -0.7886 0.7886 0.6149 312.7854 242.0361)" fill="#A7A9AB" font-family="'MyriadPro-Regular'" font-size="9.3903">8</text>
<text transform="matrix(0.6149 -0.7886 0.7886 0.6149 347.8206 269.3506)" fill="#A7A9AB" font-family="'MyriadPro-Regular'" font-size="9.3903">9</text>
<text transform="matrix(0.6149 -0.7886 0.7886 0.6149 381.4133 298.5186)" fill="#A7A9AB" font-family="'MyriadPro-Regular'" font-size="9.3903">1</text>
<text transform="matrix(0.6149 -0.7886 0.7886 0.6149 384.3 294.8154)" fill="#A7A9AB" font-family="'MyriadPro-Regular'" font-size="9.3903">0</text>
<text transform="matrix(0.6149 -0.7886 0.7886 0.6149 416.4485 325.835)" fill="#A7A9AB" font-family="'MyriadPro-Regular'" font-size="9.3903">1</text>
<text transform="matrix(0.6149 -0.7886 0.7886 0.6149 419.3352 322.1318)" fill="#A7A9AB" font-family="'MyriadPro-Regular'" font-size="9.3903">1</text>
<text transform="matrix(0.6149 -0.7886 0.7886 0.6149 451.4836 353.1494)" fill="#A7A9AB" font-family="'MyriadPro-Regular'" font-size="9.3903">1</text>
<text transform="matrix(0.6149 -0.7886 0.7886 0.6149 454.3704 349.4463)" fill="#A7A9AB" font-family="'MyriadPro-Regular'" font-size="9.3903">2</text>
<text transform="matrix(0.6149 -0.7886 0.7886 0.6149 486.5188 380.4658)" fill="#A7A9AB" font-family="'MyriadPro-Regular'" font-size="9.3903">1</text>
<text transform="matrix(0.6149 -0.7886 0.7886 0.6149 489.4065 376.7627)" fill="#A7A9AB" font-family="'MyriadPro-Regular'" font-size="9.3903">3</text>
<text transform="matrix(0.6149 -0.7886 0.7886 0.6149 521.5549 407.7822)" fill="#A7A9AB" font-family="'MyriadPro-Regular'" font-size="9.3903">1</text>
<text transform="matrix(0.6149 -0.7886 0.7886 0.6149 524.4417 404.0791)" fill="#A7A9AB" font-family="'MyriadPro-Regular'" font-size="9.3903">4</text>
<text transform="matrix(0.6149 -0.7886 0.7886 0.6149 556.5901 435.0967)" fill="#A7A9AB" font-family="'MyriadPro-Regular'" font-size="9.3903">1</text>
<text transform="matrix(0.6149 -0.7886 0.7886 0.6149 559.4768 431.3955)" fill="#A7A9AB" font-family="'MyriadPro-Regular'" font-size="9.3903">5</text>
<text transform="matrix(1 0 0 1 624.5637 341.8672)" fill="#1D1D1B" font-family="'MyriadPro-Regular'" font-size="12.3042">1</text>
<text transform="matrix(1 0 0 1 606.55 365.5645)" fill="#1D1D1B" font-family="'MyriadPro-Regular'" font-size="12.3042">2</text>
<text transform="matrix(1 0 0 1 589.1145 390)" fill="#1D1D1B" font-family="'MyriadPro-Regular'" font-size="12.3042">3</text>
<text transform="matrix(1 0 0 1 570.8059 338.7783)" fill="#1D1D1B" font-family="'MyriadPro-Regular'" font-size="12.3042">1</text>
<text transform="matrix(1 0 0 1 552.7922 362.4766)" fill="#1D1D1B" font-family="'MyriadPro-Regular'" font-size="12.3042">2</text>
<text transform="matrix(1 0 0 1 535.3586 386.9248)" fill="#1D1D1B" font-family="'MyriadPro-Regular'" font-size="12.3042">3</text>
<text transform="matrix(1 0 0 1 537.1047 310.9834)" fill="#1D1D1B" font-family="'MyriadPro-Regular'" font-size="12.3042">1</text>
<text transform="matrix(1 0 0 1 519.0911 334.6816)" fill="#1D1D1B" font-family="'MyriadPro-Regular'" font-size="12.3042">2</text>
<text transform="matrix(1 0 0 1 501.6575 359.1172)" fill="#1D1D1B" font-family="'MyriadPro-Regular'" font-size="12.3042">3</text>
<text transform="matrix(1 0 0 1 501.9153 283.2734)" fill="#1D1D1B" font-family="'MyriadPro-Regular'" font-size="12.3042">1</text>
<text transform="matrix(1 0 0 1 483.9016 306.9717)" fill="#1D1D1B" font-family="'MyriadPro-Regular'" font-size="12.3042">2</text>
<text transform="matrix(1 0 0 1 466.4661 331.4082)" fill="#1D1D1B" font-family="'MyriadPro-Regular'" font-size="12.3042">3</text>
<text transform="matrix(1 0 0 1 466.7981 256.1914)" fill="#1D1D1B" font-family="'MyriadPro-Regular'" font-size="12.3042">1</text>
<text transform="matrix(1 0 0 1 448.7844 279.8906)" fill="#1D1D1B" font-family="'MyriadPro-Regular'" font-size="12.3042">2</text>
<text transform="matrix(1 0 0 1 431.3508 304.3262)" fill="#1D1D1B" font-family="'MyriadPro-Regular'" font-size="12.3042">3</text>
<text transform="matrix(1 0 0 1 431.5344 228.7539)" fill="#1D1D1B" font-family="'MyriadPro-Regular'" font-size="12.3042">1</text>
<text transform="matrix(1 0 0 1 413.5208 252.4521)" fill="#1D1D1B" font-family="'MyriadPro-Regular'" font-size="12.3042">2</text>
<text transform="matrix(1 0 0 1 396.0872 276.9004)" fill="#1D1D1B" font-family="'MyriadPro-Regular'" font-size="12.3042">3</text>
<text transform="matrix(1 0 0 1 396.6653 201.4268)" fill="#1D1D1B" font-family="'MyriadPro-Regular'" font-size="12.3042">1</text>
<text transform="matrix(1 0 0 1 378.6516 225.124)" fill="#1D1D1B" font-family="'MyriadPro-Regular'" font-size="12.3042">2</text>
<text transform="matrix(1 0 0 1 343.6204 198.1904)" fill="#1D1D1B" font-family="'MyriadPro-Regular'" font-size="12.3042">1</text>
<text transform="matrix(1 0 0 1 325.6086 221.8877)" fill="#1D1D1B" font-family="'MyriadPro-Regular'" font-size="12.3042">2</text>
<text transform="matrix(1 0 0 1 308.1726 170.5791)" fill="#1D1D1B" font-family="'MyriadPro-Regular'" font-size="12.3042">1</text>
<text transform="matrix(1 0 0 1 290.1589 194.2773)" fill="#1D1D1B" font-family="'MyriadPro-Regular'" font-size="12.3042">2</text>
<text transform="matrix(1 0 0 1 273.3757 143.3877)" fill="#1D1D1B" font-family="'MyriadPro-Regular'" font-size="12.3042">1</text>
<text transform="matrix(1 0 0 1 255.3621 167.085)" fill="#1D1D1B" font-family="'MyriadPro-Regular'" font-size="12.3042">2</text>
<text transform="matrix(1 0 0 1 238.8386 116.2568)" fill="#1D1D1B" font-family="'MyriadPro-Regular'" font-size="12.3042">1</text>
<text transform="matrix(1 0 0 1 220.825 139.9541)" fill="#1D1D1B" font-family="'MyriadPro-Regular'" font-size="12.3042">2</text>
<text transform="matrix(1 0 0 1 203.3406 88.5107)" fill="#1D1D1B" font-family="'MyriadPro-Regular'" font-size="12.3042">1</text>
<text transform="matrix(1 0 0 1 185.3269 112.208)" fill="#1D1D1B" font-family="'MyriadPro-Regular'" font-size="12.3042">2</text>
<text transform="matrix(1 0 0 1 168.2234 61.4541)" fill="#1D1D1B" font-family="'MyriadPro-Regular'" font-size="12.3042">1</text>
<text transform="matrix(1 0 0 1 115.0691 57.7998)" fill="#1D1D1B" font-family="'MyriadPro-Regular'" font-size="12.3042">1</text>
<text transform="matrix(1 0 0 1 80.4832 30.46)" fill="#1D1D1B" font-family="'MyriadPro-Regular'" font-size="12.3042">1</text>
<text transform="matrix(1 0 0 1 150.2097 85.1514)" fill="#1D1D1B" font-family="'MyriadPro-Regular'" font-size="12.3042">2</text>
<text transform="matrix(1 0 0 1 361.2395 249.5977)" fill="#1D1D1B" font-family="'MyriadPro-Regular'" font-size="12.3042">3</text>
<text transform="matrix(1 0 0 1 570.8176 414.166)" fill="#1D1D1B" font-family="'MyriadPro-Regular'" font-size="12.3042">4</text>
<g opacity="0.8">
	<path fill="#C9C9C9" d="M590.269,405.016l-3.402-0.593l-15.459-9.711c-1.283-0.808-2.994-0.484-3.896,0.729l-9.445,12.704
		c-0.904,1.217-0.719,2.949,0.422,3.947l13.752,12.006l1.547,3.086c0.332,0.662,0.969,1.094,1.705,1.16
		c0.736,0.063,1.439-0.25,1.879-0.845l14.234-19.145c0.439-0.594,0.539-1.355,0.266-2.043
		C591.593,405.628,590.997,405.143,590.269,405.016z"/>
	<path fill="#C9C9C9" d="M608.284,380.782l-3.4-0.593l-15.459-9.712c-1.283-0.805-2.996-0.482-3.898,0.73l-9.447,12.705
		c-0.902,1.216-0.717,2.945,0.424,3.942l13.752,12.008l1.551,3.087c0.33,0.661,0.969,1.096,1.701,1.157
		c0.736,0.065,1.439-0.25,1.883-0.843l14.23-19.144c0.441-0.595,0.539-1.356,0.268-2.044
		C609.611,381.395,609.011,380.909,608.284,380.782z"/>
	<path fill="#C9C9C9" d="M626.3,356.552l-3.402-0.594l-15.459-9.711c-1.283-0.807-2.994-0.483-3.898,0.73l-9.443,12.704
		c-0.902,1.216-0.721,2.947,0.424,3.942l13.752,12.009l1.549,3.086c0.33,0.661,0.967,1.095,1.703,1.157
		c0.736,0.064,1.438-0.25,1.881-0.843l14.23-19.143c0.439-0.594,0.541-1.357,0.268-2.044
		C627.628,357.162,627.029,356.678,626.3,356.552z"/>
	<path fill="#C9C9C9" d="M645.915,333.618c-0.271-0.688-0.871-1.174-1.6-1.301l-3.402-0.593l-15.459-9.711
		c-1.283-0.807-2.994-0.484-3.896,0.73l-9.445,12.703c-0.904,1.217-0.719,2.947,0.422,3.943l13.752,12.008l1.549,3.086
		c0.328,0.662,0.967,1.097,1.703,1.16c0.736,0.064,1.439-0.25,1.879-0.844l14.234-19.144
		C646.091,335.067,646.191,334.306,645.915,333.618z"/>
	<path fill="#C9C9C9" d="M554.818,377.978l-3.402-0.593l-15.459-9.711c-1.281-0.808-2.996-0.484-3.896,0.729l-9.445,12.704
		c-0.904,1.217-0.719,2.948,0.422,3.946l13.752,12.006l1.547,3.087c0.332,0.661,0.971,1.096,1.705,1.159
		c0.736,0.064,1.439-0.25,1.879-0.845l14.234-19.144c0.439-0.594,0.539-1.354,0.266-2.043
		C556.144,378.59,555.548,378.104,554.818,377.978z"/>
	<path fill="#C9C9C9" d="M559.935,376.229l14.23-19.143c0.441-0.595,0.539-1.357,0.268-2.045c-0.273-0.688-0.871-1.171-1.602-1.298
		l-3.402-0.593l-15.459-9.713c-1.281-0.805-2.996-0.481-3.896,0.731l-9.445,12.704c-0.902,1.216-0.719,2.946,0.424,3.942
		l13.752,12.01l1.547,3.086c0.332,0.661,0.969,1.095,1.705,1.158C558.792,377.139,559.493,376.823,559.935,376.229z"/>
	<path fill="#C9C9C9" d="M559.066,336.589l13.754,12.009l1.547,3.086c0.332,0.661,0.969,1.094,1.705,1.158
		c0.736,0.063,1.438-0.25,1.879-0.845l14.23-19.143c0.439-0.593,0.541-1.357,0.27-2.044c-0.273-0.688-0.873-1.172-1.604-1.298
		l-3.4-0.594l-15.459-9.711c-1.283-0.808-2.996-0.483-3.898,0.729l-9.443,12.704C557.74,333.861,557.925,335.594,559.066,336.589z"
		/>
	<path fill="#C9C9C9" d="M522.271,351.482c-0.273-0.688-0.871-1.172-1.602-1.299l-3.402-0.594l-15.459-9.711
		c-1.281-0.808-2.992-0.483-3.896,0.729l-9.445,12.704c-0.902,1.216-0.719,2.948,0.424,3.946l13.752,12.006l1.547,3.087
		c0.332,0.661,0.969,1.095,1.705,1.159c0.736,0.063,1.438-0.25,1.879-0.846l14.232-19.144
		C522.447,352.934,522.546,352.17,522.271,351.482z"/>
	<path fill="#C9C9C9" d="M538.687,325.951l-3.402-0.593l-15.459-9.712c-1.283-0.806-2.996-0.482-3.896,0.729l-9.447,12.705
		c-0.902,1.216-0.717,2.946,0.424,3.943l13.752,12.009l1.547,3.086c0.332,0.66,0.969,1.095,1.705,1.157
		c0.736,0.064,1.439-0.25,1.881-0.843l14.232-19.145c0.441-0.595,0.539-1.355,0.266-2.044
		C540.011,326.563,539.415,326.078,538.687,325.951z"/>
	<path fill="#C9C9C9" d="M538.673,320.804l1.549,3.086c0.33,0.661,0.967,1.095,1.703,1.158c0.736,0.063,1.438-0.25,1.881-0.844
		l14.23-19.144c0.441-0.593,0.541-1.356,0.268-2.044s-0.871-1.172-1.602-1.298l-3.4-0.593l-15.461-9.712
		c-1.281-0.807-2.994-0.483-3.898,0.729l-9.443,12.704c-0.902,1.216-0.721,2.948,0.424,3.943L538.673,320.804z"/>
	<path fill="#C9C9C9" d="M485.507,322.426l-3.402-0.594l-15.459-9.711c-1.283-0.807-2.996-0.483-3.898,0.729l-9.443,12.704
		c-0.902,1.217-0.721,2.948,0.42,3.945l13.754,12.007l1.549,3.087c0.332,0.661,0.969,1.094,1.705,1.158
		c0.734,0.064,1.438-0.25,1.879-0.844l14.23-19.145c0.441-0.594,0.541-1.354,0.27-2.043
		C486.831,323.037,486.234,322.553,485.507,322.426z"/>
	<path fill="#C9C9C9" d="M490.622,320.679l14.234-19.144c0.438-0.595,0.539-1.356,0.266-2.044s-0.873-1.171-1.6-1.299l-3.404-0.593
		l-15.459-9.712c-1.283-0.806-2.996-0.481-3.896,0.73l-9.445,12.705c-0.904,1.215-0.719,2.945,0.422,3.942l13.752,12.01l1.547,3.086
		c0.332,0.66,0.971,1.094,1.705,1.156C489.48,321.587,490.183,321.271,490.622,320.679z"/>
	<path fill="#C9C9C9" d="M503.509,293.046l1.547,3.086c0.332,0.659,0.969,1.094,1.705,1.156c0.736,0.064,1.438-0.25,1.879-0.844
		l14.23-19.142c0.441-0.595,0.541-1.358,0.27-2.044c-0.275-0.688-0.873-1.172-1.604-1.299l-3.4-0.594l-15.459-9.711
		c-1.283-0.807-2.996-0.482-3.898,0.73l-9.445,12.704c-0.902,1.216-0.719,2.946,0.424,3.942L503.509,293.046z"/>
	<path fill="#C9C9C9" d="M450.384,295.374l-3.4-0.594l-15.459-9.711c-1.283-0.806-2.994-0.482-3.898,0.731l-9.443,12.703
		c-0.904,1.217-0.721,2.947,0.422,3.945l13.752,12.006l1.547,3.089c0.332,0.659,0.969,1.094,1.705,1.157
		c0.736,0.064,1.439-0.25,1.879-0.845l14.234-19.144c0.439-0.595,0.539-1.355,0.266-2.043
		C451.714,295.986,451.115,295.501,450.384,295.374z"/>
	<path fill="#C9C9C9" d="M455.505,293.628l14.23-19.145c0.439-0.594,0.541-1.355,0.268-2.043s-0.871-1.172-1.602-1.299l-3.402-0.593
		l-15.459-9.712c-1.281-0.806-2.994-0.482-3.896,0.73l-9.447,12.704c-0.902,1.216-0.717,2.947,0.424,3.943l13.752,12.009
		l1.549,3.087c0.33,0.66,0.971,1.094,1.703,1.156C454.361,294.535,455.062,294.221,455.505,293.628z"/>
	<path fill="#C9C9C9" d="M468.386,265.994l1.549,3.086c0.332,0.661,0.969,1.095,1.705,1.157c0.734,0.064,1.438-0.25,1.879-0.844
		l14.23-19.143c0.439-0.593,0.541-1.357,0.27-2.044c-0.273-0.688-0.873-1.172-1.604-1.298l-3.402-0.595l-15.459-9.711
		c-1.281-0.806-2.992-0.482-3.896,0.731l-9.445,12.703c-0.902,1.217-0.719,2.947,0.424,3.942L468.386,265.994z"/>
	<path fill="#C9C9C9" d="M415.072,268.07l-3.402-0.593l-15.459-9.712c-1.281-0.806-2.996-0.482-3.896,0.73l-9.445,12.704
		c-0.904,1.217-0.719,2.947,0.422,3.945l13.754,12.006l1.545,3.088c0.332,0.66,0.971,1.094,1.705,1.158
		c0.736,0.064,1.439-0.25,1.881-0.845l14.232-19.144c0.441-0.593,0.539-1.355,0.266-2.043
		C416.398,268.683,415.8,268.197,415.072,268.07z"/>
	<path fill="#C9C9C9" d="M420.189,266.323l14.23-19.145c0.441-0.594,0.541-1.355,0.27-2.044c-0.275-0.687-0.873-1.171-1.604-1.298
		l-3.402-0.593l-15.459-9.712c-1.281-0.807-2.996-0.482-3.896,0.729l-9.445,12.705c-0.902,1.215-0.719,2.946,0.424,3.943
		l13.752,12.009l1.547,3.086c0.332,0.66,0.969,1.094,1.705,1.157C419.048,267.23,419.747,266.917,420.189,266.323z"/>
	<path fill="#C9C9C9" d="M433.073,238.688l1.547,3.087c0.332,0.661,0.969,1.095,1.705,1.158c0.736,0.064,1.438-0.25,1.879-0.843
		l14.232-19.145c0.438-0.593,0.541-1.355,0.268-2.044c-0.273-0.687-0.873-1.173-1.602-1.298l-3.402-0.593l-15.459-9.711
		c-1.283-0.807-2.996-0.484-3.896,0.729l-9.447,12.707c-0.904,1.216-0.719,2.947,0.422,3.943L433.073,238.688z"/>
	<path fill="#C9C9C9" d="M380.251,240.766l-3.4-0.593l-15.461-9.711c-1.281-0.807-2.994-0.484-3.898,0.729l-9.443,12.703
		c-0.902,1.218-0.721,2.948,0.424,3.946l13.754,12.006l1.547,3.088c0.33,0.66,0.967,1.094,1.703,1.158
		c0.734,0.064,1.438-0.25,1.881-0.845l14.23-19.145c0.439-0.593,0.539-1.354,0.268-2.043
		C381.577,241.378,380.98,240.893,380.251,240.766z"/>
	<path fill="#C9C9C9" d="M385.368,239.019l14.23-19.143c0.439-0.595,0.541-1.357,0.268-2.045c-0.271-0.688-0.871-1.171-1.602-1.298
		l-3.4-0.594l-15.459-9.712c-1.283-0.805-2.996-0.481-3.896,0.731l-9.447,12.704c-0.902,1.216-0.717,2.947,0.424,3.942l13.752,12.01
		l1.547,3.086c0.332,0.661,0.969,1.095,1.705,1.156C384.226,239.927,384.925,239.61,385.368,239.019z"/>
	<path fill="#C9C9C9" d="M398.251,211.386l1.549,3.086c0.332,0.661,0.969,1.094,1.705,1.157s1.438-0.25,1.881-0.844l14.23-19.143
		c0.439-0.593,0.541-1.357,0.268-2.044c-0.273-0.688-0.871-1.172-1.602-1.298l-3.402-0.595l-15.459-9.711
		c-1.281-0.807-2.994-0.482-3.898,0.73l-9.445,12.704c-0.902,1.216-0.719,2.948,0.424,3.942L398.251,211.386z"/>
	<path fill="#C9C9C9" d="M345.343,213.059l-3.4-0.594l-15.461-9.711c-1.281-0.808-2.994-0.483-3.898,0.729l-9.443,12.704
		c-0.905,1.216-0.721,2.948,0.422,3.945l13.754,12.007l1.547,3.088c0.33,0.66,0.967,1.094,1.703,1.158
		c0.738,0.063,1.439-0.25,1.881-0.846l14.232-19.144c0.439-0.593,0.541-1.354,0.266-2.043
		C346.671,213.67,346.072,213.186,345.343,213.059z"/>
	<path fill="#C9C9C9" d="M350.46,211.311l14.234-19.144c0.438-0.595,0.539-1.356,0.266-2.045c-0.273-0.687-0.873-1.171-1.6-1.298
		l-3.404-0.593l-15.459-9.712c-1.283-0.806-2.994-0.482-3.896,0.729l-9.445,12.705c-0.904,1.216-0.719,2.947,0.422,3.943
		l13.752,12.009l1.549,3.086c0.33,0.661,0.969,1.095,1.703,1.158C349.318,212.219,350.021,211.904,350.46,211.311z"/>
	<path fill="#C9C9C9" d="M310.134,185.719l-3.402-0.593l-15.459-9.712c-1.28-0.807-2.996-0.483-3.897,0.73l-9.443,12.703
		c-0.903,1.217-0.721,2.948,0.42,3.946l13.757,12.006l1.545,3.088c0.332,0.66,0.969,1.094,1.705,1.158
		c0.735,0.063,1.438-0.25,1.881-0.845l14.229-19.145c0.441-0.593,0.541-1.354,0.269-2.043
		C311.46,186.33,310.862,185.846,310.134,185.719z"/>
	<path fill="#C9C9C9" d="M315.251,183.972l14.232-19.144c0.439-0.595,0.541-1.356,0.268-2.044s-0.873-1.172-1.602-1.299
		l-3.402-0.593l-15.459-9.712c-1.283-0.805-2.996-0.481-3.896,0.73l-9.445,12.705c-0.903,1.215-0.719,2.946,0.423,3.942
		l13.752,12.01l1.547,3.086c0.332,0.66,0.97,1.094,1.705,1.156C314.109,184.88,314.81,184.563,315.251,183.972z"/>
	<path fill="#C9C9C9" d="M275.147,158.498l-3.402-0.593l-15.459-9.713c-1.283-0.806-2.994-0.481-3.896,0.731l-9.445,12.704
		c-0.903,1.216-0.719,2.947,0.423,3.945l13.752,12.005l1.547,3.089c0.332,0.66,0.969,1.094,1.705,1.158
		c0.736,0.063,1.438-0.25,1.879-0.846l14.233-19.143c0.439-0.594,0.539-1.356,0.267-2.043
		C276.473,159.109,275.876,158.626,275.147,158.498z"/>
	<path fill="#C9C9C9" d="M280.263,156.752l14.232-19.146c0.44-0.594,0.539-1.354,0.266-2.044c-0.272-0.686-0.871-1.171-1.6-1.298
		l-3.402-0.592l-15.459-9.712c-1.283-0.807-2.994-0.483-3.897,0.729l-9.445,12.705c-0.902,1.216-0.719,2.947,0.424,3.944
		l13.752,12.008l1.549,3.086c0.33,0.661,0.967,1.095,1.703,1.158C279.122,157.658,279.823,157.345,280.263,156.752z"/>
	<path fill="#C9C9C9" d="M240.219,130.894l-3.399-0.593l-15.461-9.712c-1.281-0.807-2.994-0.483-3.896,0.73l-9.445,12.703
		c-0.903,1.217-0.719,2.948,0.423,3.946l13.754,12.005l1.545,3.088c0.332,0.661,0.969,1.095,1.705,1.159
		c0.737,0.063,1.438-0.25,1.881-0.845l14.231-19.145c0.439-0.593,0.541-1.354,0.267-2.043
		C241.548,131.506,240.948,131.021,240.219,130.894z"/>
	<path fill="#C9C9C9" d="M245.339,129.146l14.23-19.144c0.44-0.595,0.541-1.356,0.268-2.045c-0.272-0.687-0.871-1.171-1.602-1.298
		l-3.402-0.593l-15.459-9.712c-1.281-0.806-2.996-0.482-3.896,0.73l-9.444,12.704c-0.904,1.216-0.72,2.947,0.422,3.944l13.752,12.01
		l1.547,3.086c0.332,0.661,0.97,1.095,1.705,1.158C244.195,130.053,244.895,129.74,245.339,129.146z"/>
	<path fill="#C9C9C9" d="M205.016,103.448l-3.402-0.594l-15.461-9.711c-1.279-0.807-2.992-0.483-3.896,0.729l-9.445,12.704
		c-0.901,1.217-0.719,2.947,0.425,3.945l13.752,12.005l1.547,3.089c0.332,0.66,0.969,1.095,1.705,1.158
		c0.736,0.065,1.438-0.25,1.879-0.844l14.231-19.145c0.441-0.594,0.541-1.354,0.269-2.043
		C206.342,104.061,205.745,103.575,205.016,103.448z"/>
	<path fill="#C9C9C9" d="M210.134,101.701l14.232-19.145c0.438-0.594,0.539-1.355,0.266-2.044c-0.272-0.687-0.871-1.172-1.6-1.299
		l-3.404-0.592l-15.459-9.712c-1.281-0.806-2.994-0.483-3.896,0.73l-9.446,12.704c-0.902,1.216-0.718,2.946,0.424,3.943
		l13.752,12.009l1.549,3.086c0.332,0.661,0.97,1.095,1.705,1.157C208.989,102.609,209.692,102.295,210.134,101.701z"/>
	<path fill="#C9C9C9" d="M169.852,76.25l-3.402-0.593l-15.459-9.711c-1.283-0.808-2.996-0.484-3.898,0.729l-9.443,12.704
		c-0.903,1.217-0.721,2.948,0.42,3.946l13.754,12.006l1.548,3.089c0.332,0.659,0.969,1.093,1.705,1.157
		c0.735,0.063,1.438-0.25,1.879-0.845l14.231-19.145c0.441-0.593,0.539-1.354,0.269-2.043
		C171.177,76.863,170.581,76.377,169.852,76.25z"/>
	<path fill="#C9C9C9" d="M174.969,74.503l14.23-19.145c0.44-0.594,0.541-1.355,0.268-2.044c-0.272-0.687-0.871-1.172-1.6-1.298
		l-3.404-0.593l-15.459-9.712c-1.281-0.805-2.996-0.482-3.896,0.729l-9.445,12.705c-0.904,1.217-0.719,2.946,0.422,3.943
		l13.752,12.008l1.549,3.087c0.332,0.661,0.969,1.096,1.705,1.157C173.827,75.411,174.528,75.097,174.969,74.503z"/>
	<path fill="#C9C9C9" d="M135.095,48.643l-3.401-0.594l-15.461-9.712c-1.281-0.806-2.994-0.482-3.898,0.73l-9.443,12.704
		c-0.904,1.217-0.721,2.948,0.422,3.946l13.754,12.006l1.545,3.088c0.332,0.66,0.97,1.094,1.705,1.158
		c0.736,0.063,1.438-0.25,1.882-0.846L136.43,51.98c0.439-0.593,0.539-1.355,0.267-2.043
		C136.423,49.253,135.823,48.769,135.095,48.643z"/>
	<path fill="#C9C9C9" d="M100.194,21.375l-3.402-0.593l-15.459-9.711c-1.281-0.807-2.992-0.484-3.896,0.73l-9.444,12.703
		c-0.904,1.217-0.72,2.947,0.422,3.945l13.752,12.006l1.549,3.088c0.33,0.66,0.968,1.095,1.703,1.158
		c0.735,0.064,1.438-0.25,1.881-0.845l14.232-19.144c0.44-0.594,0.539-1.355,0.266-2.043
		C101.52,21.988,100.925,21.502,100.194,21.375z"/>
</g>
</svg>
