<?xml version="1.0" encoding="utf-8"?>
<!-- Generator: Adobe Illustrator 16.0.0, SVG Export Plug-In . SVG Version: 6.00 Build 0)  -->
<!DOCTYPE svg PUBLIC "-//W3C//DTD SVG 1.1//EN" "http://www.w3.org/Graphics/SVG/1.1/DTD/svg11.dtd">
<svg version="1.1" id="Layer_1" xmlns="http://www.w3.org/2000/svg" xmlns:xlink="http://www.w3.org/1999/xlink" x="0px" y="0px"
	 width="1066.31px" height="568px" viewBox="-11 -34.16 1066.31 568" enable-background="new -11 -34.16 1066.31 568"
	 xml:space="preserve">

<text transform="matrix(0.9869 -0.1614 0.1614 0.9869 823.5735 312.9063)" fill="#D948FF" font-family="'MyriadPro-Regular'" font-size="14.9479">P</text>
<text transform="matrix(0.9861 -0.1659 0.1659 0.9861 832.1194 311.5068)" fill="#D948FF" font-family="'MyriadPro-Regular'" font-size="14.9466">L</text>
<text transform="matrix(0.9854 -0.1705 0.1705 0.9854 840.2405 310.1406)" fill="#D948FF" font-family="'MyriadPro-Regular'" font-size="14.9491">A</text>
<text transform="matrix(0.9846 -0.1746 0.1746 0.9846 848.4153 308.7256)" fill="#D948FF" font-family="'MyriadPro-Regular'" font-size="14.9467">T</text>
<text transform="matrix(0.9841 -0.1778 0.1778 0.9841 856.51 307.2871)" fill="#D948FF" font-family="'MyriadPro-Regular'" font-size="14.9488">I</text>
<text transform="matrix(0.9834 -0.1815 0.1815 0.9834 860.4231 306.584)" fill="#D948FF" font-family="'MyriadPro-Regular'" font-size="14.9479">N</text>
<text transform="matrix(0.9824 -0.1866 0.1866 0.9824 870.1536 304.7881)" fill="#D948FF" font-family="'MyriadPro-Regular'" font-size="14.9468">U</text>
<text transform="matrix(0.9814 -0.1921 0.1921 0.9814 879.4368 303.0244)" fill="#D948FF" font-family="'MyriadPro-Regular'" font-size="14.9478">M</text>
<text transform="matrix(0.9806 -0.1961 0.1961 0.9806 890.5588 300.8389)" fill="#D948FF" font-family="'MyriadPro-Regular'" font-size="14.9478"> </text>
<text transform="matrix(0.98 -0.1991 0.1991 0.98 894.2795 300.0967)" fill="#D948FF" font-family="'MyriadPro-Regular'" font-size="14.9478">5</text>
<text transform="matrix(0.9791 -0.2035 0.2035 0.9791 901.8899 298.5518)" fill="#D948FF" font-family="'MyriadPro-Regular'" font-size="14.9478">B</text>
<text transform="matrix(0.9998 0.0216 -0.0216 0.9998 478.0081 336.3936)" fill="#D948FF" font-family="'MyriadPro-Regular'" font-size="14.9488">P</text>
<text transform="matrix(0.9999 0.0171 -0.0171 0.9999 486.679 336.5811)" fill="#D948FF" font-family="'MyriadPro-Regular'" font-size="14.9492">L</text>
<text transform="matrix(0.9999 0.0125 -0.0125 0.9999 494.9084 336.7188)" fill="#D948FF" font-family="'MyriadPro-Regular'" font-size="14.9479">A</text>
<text transform="matrix(1 0.0084 -0.0084 1 503.2141 336.8242)" fill="#D948FF" font-family="'MyriadPro-Regular'" font-size="14.9488">T</text>
<text transform="matrix(1 0.0052 -0.0052 1 511.427 336.8887)" fill="#D948FF" font-family="'MyriadPro-Regular'" font-size="14.9478">I</text>
<text transform="matrix(1 0.0015 -0.0015 1 515.4309 336.9131)" fill="#D948FF" font-family="'MyriadPro-Regular'" font-size="14.9478">N</text>
<text transform="matrix(1 -0.0036 0.0036 1 525.3059 336.9268)" fill="#D948FF" font-family="'MyriadPro-Regular'" font-size="14.9478">U</text>
<text transform="matrix(1 -0.0091 0.0091 1 534.7424 336.8945)" fill="#D948FF" font-family="'MyriadPro-Regular'" font-size="14.949">M</text>
<text transform="matrix(0.9999 -0.0131 0.0131 0.9999 546.0784 336.7822)" fill="#D948FF" font-family="'MyriadPro-Regular'" font-size="14.9478"> </text>
<text transform="matrix(0.9999 -0.0161 0.0161 0.9999 549.8889 336.7344)" fill="#D948FF" font-family="'MyriadPro-Regular'" font-size="14.9478">5</text>
<text transform="matrix(0.9998 -0.0206 0.0206 0.9998 557.6594 336.6094)" fill="#D948FF" font-family="'MyriadPro-Regular'" font-size="14.9479">A</text>
<text transform="matrix(0.9795 0.2012 -0.2012 0.9795 140.1018 297.7354)" fill="#D948FF" font-family="'MyriadPro-Regular'" font-size="14.9465">P</text>
<text transform="matrix(0.9804 0.1968 -0.1968 0.9804 148.5828 299.4766)" fill="#D948FF" font-family="'MyriadPro-Regular'" font-size="14.9467">L</text>
<text transform="matrix(0.9814 0.1922 -0.1922 0.9814 156.6672 301.0986)" fill="#D948FF" font-family="'MyriadPro-Regular'" font-size="14.9491">A</text>
<text transform="matrix(0.9822 0.1881 -0.1881 0.9822 164.8298 302.6973)" fill="#D948FF" font-family="'MyriadPro-Regular'" font-size="14.9492">T</text>
<text transform="matrix(0.9828 0.1849 -0.1849 0.9828 172.8967 304.2363)" fill="#D948FF" font-family="'MyriadPro-Regular'" font-size="14.949">I</text>
<text transform="matrix(0.9834 0.1812 -0.1812 0.9834 176.8201 304.9795)" fill="#D948FF" font-family="'MyriadPro-Regular'" font-size="14.9464">N</text>
<text transform="matrix(0.9844 0.1761 -0.1761 0.9844 186.5374 306.7695)" fill="#D948FF" font-family="'MyriadPro-Regular'" font-size="14.9478">U</text>
<text transform="matrix(0.9853 0.1706 -0.1706 0.9853 195.843 308.4336)" fill="#D948FF" font-family="'MyriadPro-Regular'" font-size="14.9467">M</text>
<text transform="matrix(0.986 0.1666 -0.1666 0.986 206.9988 310.3584)" fill="#D948FF" font-family="'MyriadPro-Regular'" font-size="14.9479"> </text>
<text transform="matrix(0.9865 0.1636 -0.1636 0.9865 210.7688 310.9971)" fill="#D948FF" font-family="'MyriadPro-Regular'" font-size="14.9478">4</text>
<path fill="none" stroke="#702283" stroke-width="0.5" stroke-miterlimit="10" d="M671.103,169.383l16.52,189.154
	c121.107-10.387,238.967-32.125,352.521-64.142c7.563-2.133,11.895-10.073,9.657-17.604l-46.028-154.981
	c-2.191-7.377-9.896-11.673-17.302-9.595C884.855,140.727,779.421,160.1,671.103,169.383z"/>
<path fill="none" stroke="#702283" stroke-width="0.5" stroke-miterlimit="10" d="M42.253,121.832l-46.03,154.983
	c-2.236,7.533,2.096,15.474,9.659,17.604c113.609,32.025,231.527,53.766,352.695,64.141l16.277-189.174
	c-108.297-9.28-213.708-28.646-315.304-57.147C52.144,110.161,44.444,114.455,42.253,121.832z"/>
<path fill="none" stroke="#702283" stroke-width="0.5" stroke-miterlimit="10" d="M522.969,175.729
	c-49.9,0-99.296-2.159-148.113-6.344L358.58,358.561c54.183,4.64,109.006,7.033,164.391,7.033c55.475,0,110.385-2.401,164.654-7.057
	l-16.521-189.154C622.279,173.569,572.878,175.729,522.969,175.729z"/>
<text transform="matrix(1 0 0 1 520.7532 211.2305)" fill="#A7A9AB" font-family="'MyriadPro-Regular'" font-size="9.3903">1</text>
<text transform="matrix(1 0 0 1 560.6165 254.4922)" fill="#A7A9AB" font-family="'MyriadPro-Regular'" font-size="9.3903">2</text>
<text transform="matrix(1 0 0 1 481.3889 254.4922)" fill="#A7A9AB" font-family="'MyriadPro-Regular'" font-size="9.3903">2</text>
<text transform="matrix(0.997 -0.0768 0.0768 0.997 662.5706 205.3398)" fill="#A7A9AB" font-family="'MyriadPro-Regular'" font-size="9.3895">1</text>
<text transform="matrix(0.997 -0.0768 0.0768 0.997 665.9836 249.6338)" fill="#A7A9AB" font-family="'MyriadPro-Regular'" font-size="9.3895">2</text>
<text transform="matrix(0.9961 -0.0882 0.0882 0.9961 681.2063 203.8115)" fill="#A7A9AB" font-family="'MyriadPro-Regular'" font-size="9.3903">1</text>
<text transform="matrix(0.9961 -0.0882 0.0882 0.9961 685.1252 248.0645)" fill="#A7A9AB" font-family="'MyriadPro-Regular'" font-size="9.3903">2</text>
<text transform="matrix(0.9959 0.0901 -0.0901 0.9959 360.6106 203.0439)" fill="#A7A9AB" font-family="'MyriadPro-Regular'" font-size="9.3897">1</text>
<text transform="matrix(0.9959 0.0901 -0.0901 0.9959 356.6077 247.2881)" fill="#A7A9AB" font-family="'MyriadPro-Regular'" font-size="9.3897">2</text>
<text transform="matrix(0.9969 0.0787 -0.0787 0.9969 379.2825 204.6025)" fill="#A7A9AB" font-family="'MyriadPro-Regular'" font-size="9.3903">1</text>
<text transform="matrix(0.9969 0.0787 -0.0787 0.9969 375.7854 248.8906)" fill="#A7A9AB" font-family="'MyriadPro-Regular'" font-size="9.3903">2</text>
<text transform="matrix(0.9584 -0.2856 0.2856 0.9584 997.1418 144.7607)" fill="#A7A9AB" font-family="'MyriadPro-Regular'" font-size="9.3913">1</text>
<text transform="matrix(0.9584 -0.2856 0.2856 0.9584 1009.8293 187.3369)" fill="#A7A9AB" font-family="'MyriadPro-Regular'" font-size="9.3913">2</text>
<text transform="matrix(0.9822 0.1878 -0.1878 0.9822 202.071 180.1641)" fill="#A7A9AB" font-family="'MyriadPro-Regular'" font-size="9.3904">1</text>
<text transform="matrix(0.9822 0.1878 -0.1878 0.9822 193.7297 223.7998)" fill="#A7A9AB" font-family="'MyriadPro-Regular'" font-size="9.3904">2</text>
<text transform="matrix(0.9589 0.2838 -0.2838 0.9589 44.9465 143.3418)" fill="#A7A9AB" font-family="'MyriadPro-Regular'" font-size="9.3904">1</text>
<text transform="matrix(0.9589 0.2838 -0.2838 0.9589 32.3386 185.9414)" fill="#A7A9AB" font-family="'MyriadPro-Regular'" font-size="9.3904">2</text>
<text transform="matrix(0.9846 -0.1748 0.1748 0.9846 840.1946 181.8359)" fill="#A7A9AB" font-family="'MyriadPro-Regular'" font-size="9.3903">1</text>
<text transform="matrix(0.9846 -0.1748 0.1748 0.9846 847.9583 225.5781)" fill="#A7A9AB" font-family="'MyriadPro-Regular'" font-size="9.3903">2</text>
<g>
	<path fill="#D948FF" d="M191.381,162.639l-15.487-3.274c-1.481-0.313-2.979,0.58-3.406,2.032l-5.165,17.511l-2.16,2.694
		c-0.461,0.574-0.59,1.336-0.341,2.031c0.249,0.697,0.829,1.203,1.554,1.354l23.337,4.937c0.725,0.154,1.46-0.076,1.969-0.609
		c0.511-0.534,0.701-1.282,0.513-1.995l-0.886-3.341l2.367-18.104C193.87,164.375,192.863,162.953,191.381,162.639z"/>
	<path fill="#D948FF" d="M136.149,177.403c0.236,0.698,0.811,1.215,1.528,1.379l23.248,5.301c0.723,0.164,1.46-0.053,1.979-0.58
		s0.722-1.271,0.543-1.986l-0.831-3.354l2.649-18.055c0.221-1.498-0.765-2.938-2.239-3.271l-15.431-3.518
		c-1.477-0.336-2.984,0.53-3.438,1.977l-5.438,17.422l-2.202,2.66C136.048,175.946,135.909,176.703,136.149,177.403z"/>
	<path fill="#D948FF" d="M107.644,170.713c0.229,0.703,0.791,1.229,1.509,1.404l23.159,5.664c0.718,0.176,1.46-0.029,1.985-0.552
		c0.525-0.52,0.739-1.258,0.573-1.979l-0.778-3.363l2.935-18.01c0.244-1.494-0.719-2.947-2.188-3.305l-15.37-3.761
		c-1.471-0.358-2.992,0.482-3.467,1.922l-5.711,17.332l-2.242,2.625C107.569,169.254,107.418,170.01,107.644,170.713z"/>
	<path fill="#D948FF" d="M79.319,163.567c0.216,0.707,0.771,1.239,1.484,1.428l23.069,6.029c0.716,0.186,1.461-0.007,1.994-0.521
		c0.534-0.51,0.761-1.246,0.604-1.969l-0.726-3.375l3.218-17.965c0.269-1.49-0.672-2.957-2.136-3.341l-15.313-4.002
		c-1.464-0.383-3,0.438-3.495,1.867l-5.982,17.242l-2.284,2.59C79.265,162.108,79.103,162.86,79.319,163.567z"/>
	<path fill="#D948FF" d="M52.638,157.412l22.979,6.393c0.712,0.197,1.462,0.019,2.003-0.485c0.543-0.502,0.78-1.234,0.637-1.959
		l-0.673-3.39l3.501-17.918c0.291-1.485-0.626-2.969-2.084-3.375l-15.252-4.242c-1.459-0.405-3.009,0.392-3.527,1.813l-6.256,17.15
		l-2.324,2.557c-0.497,0.545-0.674,1.295-0.469,2.006C51.379,156.67,51.925,157.213,52.638,157.412z"/>
	<path fill="#D948FF" d="M353.909,207.512l0.448-18.252c0.036-1.514-1.114-2.819-2.62-2.977l-15.746-1.627
		c-1.508-0.156-2.9,0.889-3.175,2.379l-3.292,17.957l-1.864,2.907c-0.397,0.621-0.444,1.392-0.124,2.058s0.951,1.108,1.688,1.186
		l23.729,2.451c0.734,0.074,1.441-0.229,1.894-0.815c0.449-0.586,0.563-1.349,0.298-2.037L353.909,207.512z"/>
	<path fill="#D948FF" d="M300.297,207.661l23.679,2.819c0.733,0.087,1.445-0.207,1.904-0.786c0.459-0.578,0.582-1.339,0.33-2.031
		l-1.182-3.246l0.73-18.234c0.062-1.514-1.068-2.84-2.572-3.018l-15.714-1.871c-1.503-0.18-2.913,0.844-3.209,2.328l-3.569,17.897
		l-1.91,2.877c-0.406,0.615-0.466,1.384-0.154,2.054C298.94,207.121,299.563,207.573,300.297,207.661z"/>
	<path fill="#D948FF" d="M271.495,203.705l23.629,3.188c0.73,0.101,1.447-0.184,1.917-0.756c0.468-0.572,0.604-1.33,0.36-2.026
		l-1.129-3.265l1.016-18.219c0.084-1.512-1.024-2.854-2.524-3.058l-15.681-2.114c-1.5-0.203-2.927,0.797-3.245,2.276l-3.849,17.838
		l-1.954,2.849c-0.417,0.606-0.487,1.375-0.188,2.051C270.149,203.143,270.763,203.605,271.495,203.705z"/>
	<path fill="#D948FF" d="M242.781,199.284l23.578,3.555c0.73,0.111,1.451-0.16,1.929-0.725c0.478-0.565,0.623-1.32,0.395-2.021
		l-1.078-3.281l1.3-18.202c0.108-1.511-0.979-2.869-2.479-3.097l-15.646-2.358c-1.496-0.226-2.938,0.754-3.279,2.229l-4.127,17.777
		l-1.998,2.813c-0.428,0.604-0.51,1.369-0.221,2.049C241.443,198.702,242.05,199.172,242.781,199.284z"/>
	<path fill="#D948FF" d="M214.126,194.407l23.527,3.924c0.729,0.123,1.454-0.137,1.939-0.695c0.484-0.557,0.646-1.311,0.426-2.016
		l-1.028-3.297l1.585-18.189c0.133-1.508-0.937-2.885-2.43-3.135l-15.615-2.604c-1.494-0.25-2.949,0.707-3.314,2.179l-4.404,17.717
		l-2.043,2.785c-0.436,0.596-0.53,1.358-0.252,2.045C212.796,193.803,213.397,194.286,214.126,194.407z"/>
	<path fill="#D948FF" d="M349.318,251.453l0.379-18.252c0.032-1.517-1.124-2.818-2.631-2.97l-15.753-1.565
		c-1.507-0.148-2.896,0.899-3.165,2.393l-3.225,17.97l-1.854,2.913c-0.396,0.623-0.438,1.394-0.116,2.058
		c0.322,0.666,0.954,1.106,1.69,1.182l23.735,2.359c0.734,0.074,1.44-0.232,1.89-0.822c0.448-0.588,0.558-1.352,0.291-2.039
		L349.318,251.453z"/>
	<path fill="#D948FF" d="M319.7,248.284l0.678-18.238c0.057-1.512-1.078-2.834-2.582-3.008l-15.721-1.824
		c-1.502-0.174-2.908,0.855-3.201,2.34l-3.516,17.906l-1.9,2.885c-0.405,0.615-0.462,1.385-0.149,2.055
		c0.313,0.671,0.938,1.121,1.671,1.205l23.687,2.748c0.733,0.084,1.444-0.213,1.902-0.793c0.457-0.58,0.577-1.34,0.323-2.032
		L319.7,248.284z"/>
	<path fill="#D948FF" d="M290.209,244.627l0.974-18.221c0.08-1.513-1.031-2.853-2.532-3.052l-15.686-2.078
		c-1.5-0.198-2.923,0.806-3.239,2.285l-3.807,17.847l-1.947,2.85c-0.416,0.611-0.484,1.379-0.184,2.053
		c0.302,0.677,0.918,1.138,1.65,1.232l23.635,3.131c0.73,0.1,1.447-0.187,1.914-0.76c0.469-0.572,0.602-1.33,0.356-2.027
		L290.209,244.627z"/>
	<path fill="#D948FF" d="M259.614,219.198l-15.651-2.334c-1.497-0.226-2.938,0.758-3.275,2.231l-4.099,17.781l-1.993,2.82
		c-0.426,0.604-0.508,1.368-0.217,2.049c0.29,0.68,0.899,1.147,1.631,1.26l23.583,3.518c0.73,0.107,1.451-0.163,1.927-0.729
		c0.478-0.564,0.622-1.32,0.392-2.021l-1.084-3.276l1.271-18.205C262.2,220.778,261.112,219.42,259.614,219.198z"/>
	<path fill="#D948FF" d="M230.616,214.573L215,211.983c-1.493-0.248-2.949,0.709-3.313,2.18l-4.39,17.721l-2.04,2.787
		c-0.438,0.598-0.528,1.361-0.25,2.045c0.278,0.688,0.881,1.166,1.61,1.287l23.53,3.902c0.729,0.121,1.454-0.14,1.939-0.697
		c0.485-0.557,0.645-1.312,0.423-2.016l-1.029-3.3l1.566-18.188C233.18,216.196,232.112,214.821,230.616,214.573z"/>
	<path fill="#D948FF" d="M474.07,258.987l-1.057-18.228c-0.087-1.512-1.342-2.721-2.855-2.75l-15.828-0.326
		c-1.514-0.03-2.814,1.125-2.967,2.631l-1.803,18.168l-1.619,3.052c-0.347,0.653-0.33,1.424,0.045,2.063
		c0.375,0.637,1.039,1.025,1.777,1.041l23.85,0.49c0.738,0.016,1.419-0.348,1.818-0.969c0.401-0.621,0.449-1.392,0.131-2.058
		L474.07,258.987z"/>
	<path fill="#D948FF" d="M443.364,257.957l-0.602-18.246c-0.05-1.514-1.272-2.754-2.786-2.822l-15.813-0.721
		c-1.514-0.068-2.846,1.055-3.032,2.557l-2.257,18.115l-1.694,3.012c-0.361,0.644-0.364,1.414-0.007,2.062
		c0.359,0.646,1.015,1.053,1.752,1.086l23.827,1.086c0.739,0.033,1.428-0.313,1.844-0.922c0.416-0.611,0.483-1.379,0.184-2.053
		L443.364,257.957z"/>
	<path fill="#D948FF" d="M412.806,256.434l-0.094-18.256c-0.007-1.516-1.196-2.787-2.707-2.897l-15.787-1.16
		c-1.511-0.109-2.873,0.977-3.104,2.473l-2.76,18.047l-1.777,2.963c-0.38,0.634-0.401,1.402-0.063,2.06
		c0.341,0.657,0.983,1.082,1.722,1.135l23.789,1.746c0.737,0.057,1.438-0.271,1.868-0.871c0.433-0.598,0.521-1.361,0.237-2.045
		L412.806,256.434z"/>
	<path fill="#D948FF" d="M182.585,205.953l-15.514-3.164c-1.481-0.303-2.975,0.6-3.393,2.057l-5.039,17.547l-2.141,2.712
		c-0.458,0.577-0.58,1.34-0.326,2.032c0.254,0.695,0.838,1.197,1.563,1.347l23.372,4.77c0.725,0.146,1.458-0.086,1.964-0.627
		c0.506-0.537,0.69-1.285,0.497-1.998l-0.907-3.334l2.237-18.117C185.086,207.67,184.068,206.254,182.585,205.953z"/>
	<path fill="#D948FF" d="M153.513,200.004l-15.449-3.42c-1.479-0.328-2.98,0.551-3.424,1.998l-5.327,17.455l-2.186,2.674
		c-0.468,0.572-0.602,1.33-0.358,2.026c0.241,0.699,0.816,1.212,1.538,1.371l23.28,5.15c0.723,0.16,1.459-0.061,1.973-0.592
		c0.517-0.531,0.714-1.275,0.531-1.99l-0.854-3.346l2.536-18.072C155.987,201.762,154.991,200.332,153.513,200.004z"/>
	<path fill="#D948FF" d="M123.99,214.907l2.835-18.025c0.234-1.494-0.734-2.941-2.206-3.293l-15.392-3.674
		c-1.472-0.353-2.989,0.5-3.455,1.941l-5.614,17.358l-2.229,2.64c-0.478,0.563-0.624,1.317-0.394,2.02
		c0.229,0.703,0.797,1.225,1.517,1.396l23.188,5.536c0.72,0.173,1.46-0.036,1.981-0.561c0.522-0.521,0.733-1.262,0.563-1.98
		L123.99,214.907z"/>
	<path fill="#D948FF" d="M94.923,208.008l3.133-17.977c0.261-1.492-0.686-2.955-2.149-3.33l-15.328-3.931
		c-1.467-0.375-3,0.451-3.488,1.886l-5.902,17.268l-2.271,2.603c-0.485,0.555-0.646,1.309-0.427,2.014
		c0.22,0.707,0.775,1.238,1.492,1.42l23.097,5.922c0.718,0.187,1.462-0.014,1.992-0.527c0.53-0.512,0.754-1.25,0.596-1.971
		L94.923,208.008z"/>
	<path fill="#D948FF" d="M66.044,200.641l3.434-17.932c0.283-1.486-0.638-2.967-2.099-3.365l-15.269-4.186
		c-1.461-0.4-3.008,0.401-3.521,1.825l-6.188,17.177l-2.315,2.563c-0.495,0.547-0.668,1.299-0.46,2.008
		c0.207,0.709,0.756,1.25,1.471,1.445l23.004,6.305c0.715,0.195,1.462,0.011,2.002-0.493c0.541-0.505,0.774-1.238,0.629-1.964
		L66.044,200.641z"/>
	<path fill="#D948FF" d="M881.118,183.633c0.248-0.694,0.121-1.457-0.342-2.031l-2.16-2.694l-5.164-17.51
		c-0.428-1.453-1.926-2.347-3.406-2.033l-15.488,3.276c-1.479,0.313-2.487,1.732-2.291,3.234l2.365,18.104l-0.885,3.34
		c-0.188,0.713,0.002,1.461,0.512,1.996c0.512,0.534,1.246,0.764,1.971,0.608l23.336-4.936
		C880.288,184.836,880.868,184.33,881.118,183.633z"/>
	<path fill="#D948FF" d="M883.325,178.164l-0.832,3.352c-0.178,0.718,0.022,1.459,0.543,1.986c0.518,0.526,1.256,0.744,1.977,0.58
		l23.248-5.302c0.724-0.163,1.293-0.68,1.531-1.379c0.238-0.698,0.098-1.457-0.373-2.024l-2.201-2.66l-5.438-17.422
		c-0.451-1.443-1.961-2.313-3.438-1.978l-15.43,3.519c-1.476,0.336-2.459,1.772-2.24,3.271L883.325,178.164z"/>
	<path fill="#D948FF" d="M911.846,171.891l-0.778,3.363c-0.166,0.721,0.049,1.459,0.573,1.979c0.523,0.52,1.269,0.725,1.984,0.549
		l23.158-5.664c0.719-0.176,1.282-0.699,1.51-1.402s0.074-1.459-0.402-2.021l-2.243-2.625l-5.712-17.33
		c-0.475-1.438-1.995-2.281-3.467-1.922l-15.369,3.76c-1.471,0.358-2.432,1.811-2.188,3.307L911.846,171.891z"/>
	<path fill="#D948FF" d="M940.193,165.161l-0.728,3.377c-0.155,0.721,0.07,1.457,0.604,1.969c0.535,0.512,1.279,0.705,1.996,0.518
		l23.067-6.028c0.715-0.188,1.271-0.72,1.486-1.427c0.215-0.707,0.053-1.461-0.438-2.014l-2.282-2.59l-5.982-17.24
		c-0.496-1.432-2.033-2.252-3.498-1.869l-15.312,4.002c-1.465,0.383-2.401,1.851-2.137,3.34L940.193,165.161z"/>
	<path fill="#D948FF" d="M968.353,157.971l-0.673,3.39c-0.145,0.723,0.095,1.457,0.638,1.959c0.543,0.504,1.291,0.684,2.004,0.485
		l22.979-6.395c0.713-0.197,1.26-0.74,1.465-1.451c0.205-0.709,0.029-1.459-0.469-2.006l-2.324-2.556l-6.256-17.149
		c-0.52-1.425-2.067-2.22-3.526-1.814l-15.252,4.244c-1.459,0.404-2.375,1.889-2.084,3.375L968.353,157.971z"/>
	<path fill="#D948FF" d="M718.503,209.84c0.314-0.668,0.262-1.438-0.143-2.055l-1.892-2.894l-3.446-17.93
		c-0.285-1.486-1.688-2.521-3.193-2.35l-15.732,1.762c-1.504,0.17-2.645,1.485-2.594,3l0.605,18.248l-1.203,3.238
		c-0.256,0.69-0.14,1.45,0.315,2.034c0.455,0.582,1.164,0.882,1.898,0.8l23.705-2.656
		C717.562,210.959,718.187,210.51,718.503,209.84z"/>
	<path fill="#D948FF" d="M722.087,210.59l23.646-3.047c0.733-0.094,1.354-0.553,1.655-1.228c0.303-0.674,0.238-1.438-0.176-2.051
		l-1.938-2.859l-3.74-17.86c-0.313-1.48-1.73-2.49-3.23-2.297l-15.694,2.021c-1.502,0.191-2.619,1.527-2.545,3.041l0.907,18.228
		l-1.149,3.256c-0.244,0.697-0.113,1.455,0.352,2.031C720.637,210.399,721.353,210.686,722.087,210.59z"/>
	<path fill="#D948FF" d="M748.601,204.252c-0.232,0.701-0.091,1.457,0.385,2.022c0.475,0.566,1.19,0.843,1.924,0.736l23.592-3.436
		c0.732-0.107,1.342-0.576,1.635-1.255c0.293-0.678,0.215-1.444-0.209-2.049l-1.981-2.826l-4.035-17.795
		c-0.334-1.479-1.771-2.461-3.271-2.244l-15.655,2.281c-1.498,0.217-2.595,1.57-2.492,3.082l1.207,18.207L748.601,204.252z"/>
	<path fill="#D948FF" d="M777.411,200.248c-0.223,0.705-0.066,1.459,0.416,2.02c0.484,0.56,1.207,0.82,1.938,0.703l23.535-3.823
		c0.729-0.119,1.334-0.599,1.615-1.281c0.279-0.683,0.189-1.447-0.244-2.043l-2.029-2.795l-4.327-17.729
		c-0.359-1.471-1.812-2.434-3.306-2.188l-15.621,2.539c-1.494,0.241-2.565,1.612-2.44,3.123l1.506,18.186L777.411,200.248z"/>
	<path fill="#D948FF" d="M807.058,192.477l-0.988,3.312c-0.211,0.707-0.043,1.459,0.451,2.01c0.491,0.553,1.221,0.803,1.946,0.674
		l23.479-4.215c0.729-0.131,1.324-0.617,1.594-1.309c0.271-0.688,0.166-1.449-0.275-2.041l-2.075-2.76l-4.623-17.662
		c-0.384-1.465-1.853-2.402-3.343-2.138l-15.582,2.798c-1.489,0.268-2.541,1.657-2.393,3.163L807.058,192.477z"/>
	<path fill="#D948FF" d="M721.085,248.909l-3.426-17.933c-0.285-1.487-1.688-2.521-3.191-2.354l-15.731,1.744
		c-1.507,0.166-2.646,1.481-2.601,2.996l0.584,18.248l-1.207,3.235c-0.258,0.691-0.141,1.453,0.314,2.035
		c0.453,0.584,1.164,0.883,1.897,0.803l23.707-2.629c0.734-0.08,1.363-0.528,1.681-1.196c0.313-0.668,0.262-1.438-0.142-2.058
		L721.085,248.909z"/>
	<path fill="#D948FF" d="M750.616,245.321l-3.738-17.859c-0.313-1.48-1.729-2.49-3.232-2.297l-15.692,2.021
		c-1.5,0.191-2.617,1.527-2.543,3.039l0.906,18.228l-1.148,3.256c-0.244,0.695-0.115,1.455,0.351,2.029
		c0.465,0.576,1.18,0.86,1.913,0.768l23.646-3.045c0.734-0.096,1.354-0.553,1.656-1.229c0.307-0.672,0.237-1.438-0.177-2.051
		L750.616,245.321z"/>
	<path fill="#D948FF" d="M780.019,241.252l-4.058-17.789c-0.338-1.478-1.772-2.459-3.271-2.238l-15.652,2.297
		c-1.496,0.222-2.592,1.576-2.488,3.087l1.229,18.202l-1.093,3.275c-0.231,0.699-0.09,1.455,0.386,2.021
		c0.477,0.566,1.192,0.843,1.926,0.732l23.586-3.463c0.73-0.105,1.342-0.576,1.633-1.256c0.293-0.678,0.214-1.443-0.211-2.047
		L780.019,241.252z"/>
	<path fill="#D948FF" d="M809.447,236.705l-4.371-17.718c-0.361-1.471-1.814-2.43-3.309-2.182l-15.613,2.574
		c-1.494,0.246-2.563,1.621-2.435,3.129l1.552,18.182l-1.033,3.297c-0.221,0.703-0.063,1.457,0.422,2.017
		c0.485,0.559,1.209,0.817,1.938,0.699l23.523-3.882c0.729-0.12,1.33-0.602,1.611-1.284c0.278-0.685,0.188-1.447-0.248-2.046
		L809.447,236.705z"/>
	<path fill="#D948FF" d="M838.721,231.688l-4.688-17.646c-0.39-1.463-1.859-2.396-3.351-2.123l-15.571,2.854
		c-1.488,0.271-2.535,1.668-2.379,3.174l1.873,18.16l-0.976,3.313c-0.207,0.709-0.037,1.459,0.457,2.01s1.226,0.799,1.951,0.666
		l23.463-4.301c0.728-0.133,1.32-0.623,1.59-1.313c0.269-0.688,0.16-1.451-0.285-2.041L838.721,231.688z"/>
	<path fill="#D948FF" d="M506.795,215.254l-1.394-18.203c-0.113-1.512-1.393-2.694-2.904-2.697l-15.832-0.032
		c-1.516-0.004-2.796,1.176-2.918,2.686l-1.469,18.197l-1.563,3.082c-0.334,0.658-0.304,1.428,0.083,2.059
		c0.386,0.631,1.058,1.008,1.797,1.01l23.854,0.05c0.738,0.002,1.411-0.373,1.802-1.002c0.389-0.627,0.423-1.396,0.092-2.058
		L506.795,215.254z"/>
	<path fill="#D948FF" d="M476.452,215.182l-0.901-18.231c-0.073-1.515-1.317-2.732-2.832-2.775l-15.821-0.459
		c-1.515-0.043-2.827,1.102-2.989,2.607l-1.956,18.147l-1.646,3.037c-0.352,0.647-0.341,1.42,0.027,2.062
		c0.369,0.641,1.03,1.034,1.771,1.057l23.841,0.691c0.738,0.021,1.423-0.334,1.827-0.953c0.406-0.617,0.462-1.388,0.147-2.056
		L476.452,215.182z"/>
	<path fill="#D948FF" d="M446.128,214.088l-0.263-18.252c-0.021-1.514-1.224-2.775-2.733-2.873l-15.797-1.012
		c-1.512-0.099-2.864,1-3.078,2.5l-2.591,18.069l-1.75,2.979c-0.374,0.637-0.392,1.406-0.044,2.061s0.992,1.068,1.729,1.117
		l23.803,1.525c0.737,0.047,1.434-0.285,1.858-0.89c0.427-0.604,0.51-1.369,0.221-2.049L446.128,214.088z"/>
	<path fill="#D948FF" d="M417.165,215.521l-1.293-3.204l0.092-18.257c0.008-1.516-1.169-2.801-2.679-2.926l-15.774-1.317
		c-1.509-0.127-2.883,0.942-3.127,2.438l-2.941,18.02l-1.809,2.943c-0.386,0.629-0.418,1.398-0.084,2.059
		c0.334,0.661,0.973,1.091,1.709,1.152l23.771,1.986c0.738,0.063,1.438-0.256,1.879-0.853
		C417.344,216.969,417.442,216.205,417.165,215.521z"/>
	<path fill="#D948FF" d="M565.48,215.612l-1.588-18.188c-0.132-1.508-1.423-2.68-2.937-2.666l-15.832,0.14
		c-1.514,0.014-2.781,1.207-2.887,2.717l-1.271,18.215l-1.528,3.096c-0.326,0.662-0.287,1.434,0.104,2.059
		c0.393,0.627,1.068,0.996,1.809,0.99l23.854-0.209c0.738-0.008,1.408-0.389,1.791-1.021s0.406-1.402,0.068-2.06L565.48,215.612z"/>
	<path fill="#D948FF" d="M597.232,219.573c0.371-0.64,0.385-1.41,0.035-2.062l-1.636-3.043l-1.895-18.158
		c-0.156-1.508-1.465-2.655-2.979-2.616l-15.826,0.403c-1.514,0.037-2.764,1.252-2.842,2.765l-0.967,18.229l-1.478,3.123
		c-0.315,0.668-0.264,1.438,0.14,2.058c0.404,0.621,1.086,0.979,1.826,0.959l23.844-0.607
		C596.197,220.604,596.861,220.211,597.232,219.573z"/>
	<path fill="#D948FF" d="M627.546,218.17c0.363-0.646,0.365-1.414,0.008-2.062l-1.674-3.021l-2.129-18.131
		c-0.178-1.506-1.502-2.64-3.016-2.578l-15.818,0.609c-1.514,0.059-2.746,1.288-2.807,2.803l-0.729,18.24l-1.436,3.143
		c-0.31,0.672-0.246,1.438,0.166,2.055c0.412,0.613,1.1,0.966,1.838,0.937l23.834-0.918
		C626.525,219.215,627.18,218.814,627.546,218.17z"/>
	<path fill="#D948FF" d="M657.691,216.118c0.352-0.65,0.336-1.422-0.035-2.062l-1.738-2.983l-2.521-18.08
		c-0.209-1.502-1.557-2.605-3.067-2.515l-15.803,0.951c-1.513,0.093-2.718,1.351-2.746,2.861l-0.332,18.254l-1.367,3.172
		c-0.293,0.681-0.213,1.445,0.211,2.051c0.426,0.605,1.119,0.939,1.855,0.896l23.813-1.434
		C656.693,217.186,657.342,216.77,657.691,216.118z"/>
	<path fill="#D948FF" d="M598.169,258.76l-1.916-18.154c-0.158-1.508-1.471-2.655-2.982-2.614l-15.825,0.424
		c-1.515,0.041-2.761,1.258-2.839,2.771l-0.942,18.23l-1.474,3.125c-0.313,0.668-0.262,1.438,0.144,2.055
		c0.404,0.619,1.088,0.979,1.824,0.957l23.846-0.637c0.738-0.021,1.399-0.414,1.771-1.056c0.371-0.639,0.384-1.409,0.033-2.061
		L598.169,258.76z"/>
	<path fill="#D948FF" d="M628.609,257.252l-2.191-18.125c-0.182-1.504-1.51-2.633-3.021-2.566l-15.815,0.662
		c-1.515,0.063-2.742,1.299-2.797,2.813l-0.666,18.244l-1.427,3.146c-0.305,0.674-0.239,1.438,0.175,2.055
		c0.413,0.611,1.102,0.959,1.84,0.929l23.832-1c0.739-0.031,1.396-0.435,1.756-1.08s0.36-1.414,0.002-2.06L628.609,257.252z"/>
	<path fill="#D948FF" d="M658.915,255.213l-2.49-18.086c-0.205-1.502-1.553-2.605-3.063-2.521l-15.806,0.924
		c-1.512,0.091-2.721,1.345-2.75,2.857l-0.364,18.254l-1.373,3.17c-0.295,0.679-0.218,1.443,0.207,2.049
		c0.424,0.606,1.114,0.941,1.854,0.898l23.813-1.391c0.735-0.043,1.387-0.457,1.735-1.109c0.353-0.65,0.338-1.422-0.032-2.061
		L658.915,255.213z"/>
	<path fill="#D948FF" d="M887.298,222.391l-5.039-17.547c-0.418-1.455-1.907-2.356-3.393-2.057l-15.512,3.164
		c-1.482,0.303-2.502,1.719-2.314,3.221l2.236,18.119l-0.906,3.334c-0.193,0.711-0.01,1.459,0.496,1.998
		c0.506,0.541,1.24,0.772,1.965,0.627l23.371-4.771c0.727-0.147,1.309-0.649,1.563-1.346c0.255-0.693,0.134-1.455-0.325-2.033
		L887.298,222.391z"/>
	<path fill="#D948FF" d="M916.628,216.037l-5.328-17.453c-0.44-1.447-1.944-2.326-3.424-2l-15.449,3.42
		c-1.479,0.328-2.473,1.758-2.262,3.258l2.535,18.072l-0.852,3.346c-0.185,0.718,0.014,1.461,0.528,1.99
		c0.515,0.531,1.252,0.752,1.974,0.594l23.28-5.151c0.722-0.16,1.298-0.672,1.539-1.371c0.24-0.697,0.105-1.455-0.358-2.027
		L916.628,216.037z"/>
	<path fill="#D948FF" d="M945.781,209.215l-5.615-17.359c-0.467-1.44-1.982-2.293-3.455-1.94l-15.391,3.674
		c-1.474,0.354-2.441,1.799-2.207,3.295l2.836,18.023l-0.797,3.358c-0.17,0.719,0.039,1.459,0.563,1.98
		c0.524,0.521,1.265,0.729,1.982,0.561l23.188-5.537c0.72-0.172,1.285-0.692,1.517-1.396c0.229-0.701,0.084-1.457-0.394-2.021
		L945.781,209.215z"/>
	<path fill="#D948FF" d="M974.753,201.924l-5.902-17.268c-0.487-1.435-2.021-2.261-3.485-1.886l-15.33,3.931
		c-1.467,0.375-2.41,1.838-2.15,3.33l3.134,17.979l-0.74,3.373c-0.16,0.721,0.063,1.457,0.596,1.971
		c0.532,0.515,1.275,0.712,1.992,0.527l23.096-5.922c0.717-0.185,1.273-0.715,1.494-1.42c0.219-0.707,0.059-1.459-0.428-2.017
		L974.753,201.924z"/>
	<path fill="#D948FF" d="M1003.538,194.162l-6.189-17.177c-0.512-1.424-2.061-2.229-3.521-1.825l-15.268,4.184
		c-1.459,0.4-2.382,1.879-2.097,3.367l3.433,17.932l-0.688,3.387c-0.146,0.724,0.09,1.457,0.629,1.962
		c0.541,0.506,1.289,0.688,2.002,0.493l23.004-6.305c0.713-0.195,1.265-0.734,1.472-1.445c0.207-0.709,0.034-1.461-0.459-2.008
		L1003.538,194.162z"/>
</g>
<text transform="matrix(1 0 0 1 975.2297 151.5313)" fill="#1D1D1B" font-family="'MyriadPro-Regular'" font-size="12.3042">1</text>
<text transform="matrix(1 0 0 1 986.6223 194.1777)" fill="#1D1D1B" font-family="'MyriadPro-Regular'" font-size="12.3042">1</text>
<text transform="matrix(1 0 0 1 947.2864 158.5078)" fill="#1D1D1B" font-family="'MyriadPro-Regular'" font-size="12.3042">2</text>
<text transform="matrix(1 0 0 1 958.052 202.0645)" fill="#1D1D1B" font-family="'MyriadPro-Regular'" font-size="12.3042">2</text>
<text transform="matrix(1 0 0 1 919.5032 165.8535)" fill="#1D1D1B" font-family="'MyriadPro-Regular'" font-size="12.3042">3</text>
<text transform="matrix(1 0 0 1 929.47 209.0039)" fill="#1D1D1B" font-family="'MyriadPro-Regular'" font-size="12.3042">3</text>
<text transform="matrix(1 0 0 1 890.4036 172.4355)" fill="#1D1D1B" font-family="'MyriadPro-Regular'" font-size="12.3042">4</text>
<text transform="matrix(1 0 0 1 899.6204 215.4883)" fill="#1D1D1B" font-family="'MyriadPro-Regular'" font-size="12.3042">4</text>
<text transform="matrix(1 0 0 1 862.0793 178.7969)" fill="#1D1D1B" font-family="'MyriadPro-Regular'" font-size="12.3042">5</text>
<text transform="matrix(1 0 0 1 870.8782 221.9238)" fill="#1D1D1B" font-family="'MyriadPro-Regular'" font-size="12.3042">5</text>
<text transform="matrix(1 0 0 1 814.845 187.2129)" fill="#1D1D1B" font-family="'MyriadPro-Regular'" font-size="12.3042">6</text>
<text transform="matrix(1 0 0 1 822.4602 231.0039)" fill="#1D1D1B" font-family="'MyriadPro-Regular'" font-size="12.3042">6</text>
<text transform="matrix(1 0 0 1 786.5813 192.418)" fill="#1D1D1B" font-family="'MyriadPro-Regular'" font-size="12.3042">7</text>
<text transform="matrix(1 0 0 1 793.6692 236.1465)" fill="#1D1D1B" font-family="'MyriadPro-Regular'" font-size="12.3042">7</text>
<text transform="matrix(1 0 0 1 757.8137 196.0234)" fill="#1D1D1B" font-family="'MyriadPro-Regular'" font-size="12.3042">8</text>
<text transform="matrix(1 0 0 1 640.1008 208.4375)" fill="#1D1D1B" font-family="'MyriadPro-Regular'" font-size="12.3042">1</text>
<text transform="matrix(1 0 0 1 643.2629 252.5371)" fill="#1D1D1B" font-family="'MyriadPro-Regular'" font-size="12.3042">1</text>
<text transform="matrix(1 0 0 1 610.4719 210)" fill="#1D1D1B" font-family="'MyriadPro-Regular'" font-size="12.3042">2</text>
<text transform="matrix(1 0 0 1 613.2161 254.2598)" fill="#1D1D1B" font-family="'MyriadPro-Regular'" font-size="12.3042">2</text>
<text transform="matrix(1 0 0 1 580.4622 211.3047)" fill="#1D1D1B" font-family="'MyriadPro-Regular'" font-size="12.3042">3</text>
<text transform="matrix(1 0 0 1 583.3782 256.2656)" fill="#1D1D1B" font-family="'MyriadPro-Regular'" font-size="12.3042">3</text>
<text transform="matrix(1 0 0 1 549.8235 212.1543)" fill="#1D1D1B" font-family="'MyriadPro-Regular'" font-size="12.3042">4</text>
<text transform="matrix(1 0 0 1 459.179 255.5137)" fill="#1D1D1B" font-family="'MyriadPro-Regular'" font-size="12.3042">4</text>
<text transform="matrix(1 0 0 1 491.8586 212.1543)" fill="#1D1D1B" font-family="'MyriadPro-Regular'" font-size="12.3042">5</text>
<text transform="matrix(1 0 0 1 428.9602 254.5664)" fill="#1D1D1B" font-family="'MyriadPro-Regular'" font-size="12.3042">5</text>
<text transform="matrix(1 0 0 1 461.4309 211.6621)" fill="#1D1D1B" font-family="'MyriadPro-Regular'" font-size="12.3042">6</text>
<text transform="matrix(1 0 0 1 398.2366 252.5371)" fill="#1D1D1B" font-family="'MyriadPro-Regular'" font-size="12.3042">6</text>
<text transform="matrix(1 0 0 1 431.5188 210)" fill="#1D1D1B" font-family="'MyriadPro-Regular'" font-size="12.3042">7</text>
<text transform="matrix(1 0 0 1 401.4719 207.9336)" fill="#1D1D1B" font-family="'MyriadPro-Regular'" font-size="12.3042">8</text>
<text transform="matrix(1 0 0 1 764.052 239.9863)" fill="#1D1D1B" font-family="'MyriadPro-Regular'" font-size="12.3042">8</text>
<text transform="matrix(1 0 0 1 729.22 199.7383)" fill="#1D1D1B" font-family="'MyriadPro-Regular'" font-size="12.3042">9</text>
<text transform="matrix(1 0 0 1 734.511 243.875)" fill="#1D1D1B" font-family="'MyriadPro-Regular'" font-size="12.3042">9</text>
<text transform="matrix(1 0 0 1 697.179 203.3926)" fill="#1D1D1B" font-family="'MyriadPro-Regular'" font-size="12.3042">1</text>
<text transform="matrix(1 0 0 1 703.3313 203.3926)" fill="#1D1D1B" font-family="'MyriadPro-Regular'" font-size="12.3042">0</text>
<text transform="matrix(1 0 0 1 339.385 203.6758)" fill="#1D1D1B" font-family="'MyriadPro-Regular'" font-size="12.3042">1</text>
<text transform="matrix(1 0 0 1 335.0422 246.8398)" fill="#1D1D1B" font-family="'MyriadPro-Regular'" font-size="12.3042">1</text>
<text transform="matrix(1 0 0 1 310.8391 199.7383)" fill="#1D1D1B" font-family="'MyriadPro-Regular'" font-size="12.3042">2</text>
<text transform="matrix(1 0 0 1 305.635 243.875)" fill="#1D1D1B" font-family="'MyriadPro-Regular'" font-size="12.3042">2</text>
<text transform="matrix(1 0 0 1 282.7122 196.0352)" fill="#1D1D1B" font-family="'MyriadPro-Regular'" font-size="12.3042">3</text>
<text transform="matrix(1 0 0 1 276.4983 240.3555)" fill="#1D1D1B" font-family="'MyriadPro-Regular'" font-size="12.3042">3</text>
<text transform="matrix(1 0 0 1 253.2805 191.582)" fill="#1D1D1B" font-family="'MyriadPro-Regular'" font-size="12.3042">4</text>
<text transform="matrix(1 0 0 1 246.4885 235.6191)" fill="#1D1D1B" font-family="'MyriadPro-Regular'" font-size="12.3042">4</text>
<text transform="matrix(1 0 0 1 225.2141 187.2266)" fill="#1D1D1B" font-family="'MyriadPro-Regular'" font-size="12.3042">5</text>
<text transform="matrix(1 0 0 1 218.0286 231.2129)" fill="#1D1D1B" font-family="'MyriadPro-Regular'" font-size="12.3042">5</text>
<text transform="matrix(1 0 0 1 177.8069 178.748)" fill="#1D1D1B" font-family="'MyriadPro-Regular'" font-size="12.3042">6</text>
<text transform="matrix(1 0 0 1 169.3293 221.9355)" fill="#1D1D1B" font-family="'MyriadPro-Regular'" font-size="12.3042">6</text>
<text transform="matrix(1 0 0 1 149.7903 172.6816)" fill="#1D1D1B" font-family="'MyriadPro-Regular'" font-size="12.3042">7</text>
<text transform="matrix(1 0 0 1 140.6721 216.3867)" fill="#1D1D1B" font-family="'MyriadPro-Regular'" font-size="12.3042">7</text>
<text transform="matrix(1 0 0 1 121.0598 165.9141)" fill="#1D1D1B" font-family="'MyriadPro-Regular'" font-size="12.3042">8</text>
<text transform="matrix(1 0 0 1 111.1672 209.0664)" fill="#1D1D1B" font-family="'MyriadPro-Regular'" font-size="12.3042">8</text>
<text transform="matrix(1 0 0 1 92.9446 159.1836)" fill="#1D1D1B" font-family="'MyriadPro-Regular'" font-size="12.3042">9</text>
<text transform="matrix(1 0 0 1 82.0305 202.1133)" fill="#1D1D1B" font-family="'MyriadPro-Regular'" font-size="12.3042">9</text>
<text transform="matrix(1 0 0 1 61.2737 152.0723)" fill="#1D1D1B" font-family="'MyriadPro-Regular'" font-size="12.3042">1</text>
<text transform="matrix(1 0 0 1 67.425 152.0723)" fill="#1D1D1B" font-family="'MyriadPro-Regular'" font-size="12.3042">0</text>
<text transform="matrix(1 0 0 1 50.1135 195.1621)" fill="#1D1D1B" font-family="'MyriadPro-Regular'" font-size="12.3042">1</text>
<text transform="matrix(1 0 0 1 56.2659 195.1621)" fill="#1D1D1B" font-family="'MyriadPro-Regular'" font-size="12.3042">0</text>
<text transform="matrix(1 0 0 1 701.6711 247.5898)" fill="#1D1D1B" font-family="'MyriadPro-Regular'" font-size="12.3042">1</text>
<text transform="matrix(1 0 0 1 707.8235 247.5898)" fill="#1D1D1B" font-family="'MyriadPro-Regular'" font-size="12.3042">0</text>
</svg>
