<?xml version="1.0" encoding="utf-8"?>
<!-- Generator: Adobe Illustrator 16.0.0, SVG Export Plug-In . SVG Version: 6.00 Build 0)  -->
<!DOCTYPE svg PUBLIC "-//W3C//DTD SVG 1.1//EN" "http://www.w3.org/Graphics/SVG/1.1/DTD/svg11.dtd">
<svg version="1.1" id="Layer_1" xmlns="http://www.w3.org/2000/svg" xmlns:xlink="http://www.w3.org/1999/xlink" x="0px" y="0px"
	 width="821.31px" height="568px" viewBox="-11 -34.16 821.31 568" enable-background="new -11 -34.16 821.31 568"
	 xml:space="preserve">

<text transform="matrix(0.8572 0.515 -0.515 0.8572 349.1096 316.6289)" fill="#D948FF" font-family="'MyriadPro-Regular'" font-size="14.9479">S</text>
<text transform="matrix(0.8589 0.5121 -0.5121 0.8589 356.512 321.0703)" fill="#D948FF" font-family="'MyriadPro-Regular'" font-size="14.9478">I</text>
<text transform="matrix(0.8606 0.5093 -0.5093 0.8606 359.9436 323.1211)" fill="#D948FF" font-family="'MyriadPro-Regular'" font-size="14.9479">L</text>
<text transform="matrix(0.8625 0.5061 -0.5061 0.8625 365.7668 326.5713)" fill="#D948FF" font-family="'MyriadPro-Regular'" font-size="14.9478">V</text>
<text transform="matrix(0.8648 0.5021 -0.5021 0.8648 373.342 331.0137)" fill="#D948FF" font-family="'MyriadPro-Regular'" font-size="14.9479">E</text>
<text transform="matrix(0.8672 0.498 -0.498 0.8672 380.7883 335.3359)" fill="#D948FF" font-family="'MyriadPro-Regular'" font-size="14.9478">R</text>
<text transform="matrix(0.8689 0.4951 -0.4951 0.8689 388.5266 339.7734)" fill="#D948FF" font-family="'MyriadPro-Regular'" font-size="14.9494"> </text>
<text transform="matrix(0.8704 0.4924 -0.4924 0.8704 391.8577 341.6738)" fill="#D948FF" font-family="'MyriadPro-Regular'" font-size="14.9478">2</text>
<text transform="matrix(0.758 0.6523 -0.6523 0.758 91.4763 129.5454)" fill="#D948FF" font-family="'MyriadPro-Regular'" font-size="14.9478">S</text>
<text transform="matrix(0.7602 0.6497 -0.6497 0.7602 98.0427 135.189)" fill="#D948FF" font-family="'MyriadPro-Regular'" font-size="14.9479">I</text>
<text transform="matrix(0.7623 0.6472 -0.6472 0.7623 101.074 137.7832)" fill="#D948FF" font-family="'MyriadPro-Regular'" font-size="14.9478">L</text>
<text transform="matrix(0.7647 0.6444 -0.6444 0.7647 106.2161 142.1533)" fill="#D948FF" font-family="'MyriadPro-Regular'" font-size="14.9478">V</text>
<text transform="matrix(0.7677 0.6409 -0.6409 0.7677 112.9324 147.8096)" fill="#D948FF" font-family="'MyriadPro-Regular'" font-size="14.9497">E</text>
<text transform="matrix(0.7706 0.6373 -0.6373 0.7706 119.5608 153.3442)" fill="#D948FF" font-family="'MyriadPro-Regular'" font-size="14.9478">R</text>
<text transform="matrix(0.7728 0.6347 -0.6347 0.7728 126.4324 159.02)" fill="#D948FF" font-family="'MyriadPro-Regular'" font-size="14.9488"> </text>
<text transform="matrix(0.7747 0.6323 -0.6323 0.7747 129.384 161.4458)" fill="#D948FF" font-family="'MyriadPro-Regular'" font-size="14.9478">1</text>
<text transform="matrix(0.93 0.3675 -0.3675 0.93 624.0696 453.1865)" fill="#D948FF" font-family="'MyriadPro-Regular'" font-size="14.9478">S</text>
<text transform="matrix(0.9313 0.3643 -0.3643 0.9313 632.0979 456.3555)" fill="#D948FF" font-family="'MyriadPro-Regular'" font-size="14.9478">I</text>
<text transform="matrix(0.9325 0.3613 -0.3613 0.9325 635.804 457.8076)" fill="#D948FF" font-family="'MyriadPro-Regular'" font-size="14.9492">L</text>
<text transform="matrix(0.9338 0.3578 -0.3578 0.9338 642.1116 460.2529)" fill="#D948FF" font-family="'MyriadPro-Regular'" font-size="14.9478">V</text>
<text transform="matrix(0.9355 0.3534 -0.3534 0.9355 650.3196 463.3975)" fill="#D948FF" font-family="'MyriadPro-Regular'" font-size="14.9478">E</text>
<text transform="matrix(0.9371 0.349 -0.349 0.9371 658.3723 466.4375)" fill="#D948FF" font-family="'MyriadPro-Regular'" font-size="14.9478">R</text>
<text transform="matrix(0.9383 0.3458 -0.3458 0.9383 666.7375 469.5469)" fill="#D948FF" font-family="'MyriadPro-Regular'" font-size="14.9478"> </text>
<text transform="matrix(0.9394 0.3428 -0.3428 0.9394 670.3333 470.875)" fill="#D948FF" font-family="'MyriadPro-Regular'" font-size="14.9479">3</text>
<path fill="none" stroke="#702283" stroke-width="0.5" stroke-miterlimit="10" d="M84.551-24.931L-1.76,63.603
	c-5.46,5.604-5.35,14.594,0.291,20.012c65.488,62.912,135.485,121.162,209.436,174.257l88.491-123.462
	C228.69,85.756,164.529,32.392,104.48-25.224C98.869-30.61,89.98-30.5,84.551-24.931z"/>
<path fill="none" stroke="#702283" stroke-width="0.5" stroke-miterlimit="10" d="M582.523,301.243l-63.665,137.939
	c75.071,34.701,152.786,64.651,232.764,89.469c7.494,2.324,15.441-1.963,17.677-9.483l35.217-118.572
	c2.192-7.39-1.935-15.199-9.294-17.488C722.151,360.362,651.137,332.961,582.523,301.243z"/>
<path fill="none" stroke="#702283" stroke-width="0.5" stroke-miterlimit="10" d="M296.458,134.409l-88.49,123.462
	c97.185,69.772,201.213,130.612,310.892,181.313l63.665-137.939C481.603,254.593,385.88,198.612,296.458,134.409z"/>
<text transform="matrix(0.8978 0.4404 -0.4404 0.8978 560.2209 324.8057)" fill="#A7A9AB" font-family="'MyriadPro-Regular'" font-size="9.3903">1</text>
<text transform="matrix(0.8978 0.4404 -0.4404 0.8978 543.5432 358.8066)" fill="#A7A9AB" font-family="'MyriadPro-Regular'" font-size="9.3903">2</text>
<text transform="matrix(0.9051 0.4251 -0.4251 0.9051 576.2883 332.6563)" fill="#A7A9AB" font-family="'MyriadPro-Regular'" font-size="9.3895">1</text>
<text transform="matrix(0.9051 0.4251 -0.4251 0.9051 560.1887 366.9355)" fill="#A7A9AB" font-family="'MyriadPro-Regular'" font-size="9.3895">2</text>
<text transform="matrix(0.953 0.3031 -0.3031 0.953 789.5872 414.0557)" fill="#A7A9AB" font-family="'MyriadPro-Regular'" font-size="9.391">1</text>
<text transform="matrix(0.953 0.3031 -0.3031 0.953 778.1106 450.1455)" fill="#A7A9AB" font-family="'MyriadPro-Regular'" font-size="9.391">2</text>
<text transform="matrix(0.8107 0.5854 -0.5854 0.8107 269.6404 152.9561)" fill="#A7A9AB" font-family="'MyriadPro-Regular'" font-size="9.3896">1</text>
<text transform="matrix(0.8107 0.5854 -0.5854 0.8107 247.4695 183.6592)" fill="#A7A9AB" font-family="'MyriadPro-Regular'" font-size="9.3896">2</text>
<text transform="matrix(0.7257 0.688 -0.688 0.7257 77.1404 -8.1548)" fill="#A7A9AB" font-family="'MyriadPro-Regular'" font-size="9.3903">1</text>
<text transform="matrix(0.7257 0.688 -0.688 0.7257 51.0857 19.3286)" fill="#A7A9AB" font-family="'MyriadPro-Regular'" font-size="9.3903">2</text>
<text transform="matrix(0.8205 0.5716 -0.5716 0.8205 284.1321 163.5259)" fill="#A7A9AB" font-family="'MyriadPro-Regular'" font-size="9.3903">1</text>
<text transform="matrix(0.8205 0.5716 -0.5716 0.8205 262.4836 194.5986)" fill="#A7A9AB" font-family="'MyriadPro-Regular'" font-size="9.3903">2</text>
<text transform="matrix(1 0 0 1 771.8987 411.9209)" fill="#1D1D1B" font-family="'MyriadPro-Regular'" font-size="12.3042">1</text>
<text transform="matrix(1 0 0 1 760.554 447.874)" fill="#1D1D1B" font-family="'MyriadPro-Regular'" font-size="12.3042">1</text>
<text transform="matrix(1 0 0 1 745.9622 402.9033)" fill="#1D1D1B" font-family="'MyriadPro-Regular'" font-size="12.3042">2</text>
<text transform="matrix(1 0 0 1 733.8547 438.917)" fill="#1D1D1B" font-family="'MyriadPro-Regular'" font-size="12.3042">2</text>
<text transform="matrix(1 0 0 1 720.4797 394.1182)" fill="#1D1D1B" font-family="'MyriadPro-Regular'" font-size="12.3042">3</text>
<text transform="matrix(1 0 0 1 707.8557 429.665)" fill="#1D1D1B" font-family="'MyriadPro-Regular'" font-size="12.3042">3</text>
<text transform="matrix(1 0 0 1 694.0129 384.4834)" fill="#1D1D1B" font-family="'MyriadPro-Regular'" font-size="12.3042">4</text>
<text transform="matrix(1 0 0 1 543.385 320.7236)" fill="#1D1D1B" font-family="'MyriadPro-Regular'" font-size="12.3042">1</text>
<text transform="matrix(1 0 0 1 527.3899 355.0771)" fill="#1D1D1B" font-family="'MyriadPro-Regular'" font-size="12.3042">1</text>
<text transform="matrix(1 0 0 1 520.4006 308.8486)" fill="#1D1D1B" font-family="'MyriadPro-Regular'" font-size="12.3042">2</text>
<text transform="matrix(1 0 0 1 503.9749 342.8467)" fill="#1D1D1B" font-family="'MyriadPro-Regular'" font-size="12.3042">2</text>
<text transform="matrix(1 0 0 1 497.9338 297.3701)" fill="#1D1D1B" font-family="'MyriadPro-Regular'" font-size="12.3042">3</text>
<text transform="matrix(1 0 0 1 480.8313 330.96)" fill="#1D1D1B" font-family="'MyriadPro-Regular'" font-size="12.3042">3</text>
<text transform="matrix(1 0 0 1 256.0325 147.0015)" fill="#1D1D1B" font-family="'MyriadPro-Regular'" font-size="12.3042">1</text>
<text transform="matrix(1 0 0 1 233.5413 177.3057)" fill="#1D1D1B" font-family="'MyriadPro-Regular'" font-size="12.3042">1</text>
<text transform="matrix(1 0 0 1 234.4275 130.4502)" fill="#1D1D1B" font-family="'MyriadPro-Regular'" font-size="12.3042">2</text>
<text transform="matrix(1 0 0 1 211.6399 160.4482)" fill="#1D1D1B" font-family="'MyriadPro-Regular'" font-size="12.3042">2</text>
<text transform="matrix(1 0 0 1 213.8538 114.2959)" fill="#1D1D1B" font-family="'MyriadPro-Regular'" font-size="12.3042">3</text>
<text transform="matrix(1 0 0 1 190.5374 143.7021)" fill="#1D1D1B" font-family="'MyriadPro-Regular'" font-size="12.3042">3</text>
<text transform="matrix(1 0 0 1 474.3342 285.2998)" fill="#1D1D1B" font-family="'MyriadPro-Regular'" font-size="12.3042">4</text>
<text transform="matrix(1 0 0 1 456.9114 318.4834)" fill="#1D1D1B" font-family="'MyriadPro-Regular'" font-size="12.3042">4</text>
<text transform="matrix(1 0 0 1 680.8723 419.833)" fill="#1D1D1B" font-family="'MyriadPro-Regular'" font-size="12.3042">4</text>
<text transform="matrix(1 0 0 1 669.0969 375.1943)" fill="#1D1D1B" font-family="'MyriadPro-Regular'" font-size="12.3042">5</text>
<text transform="matrix(1 0 0 1 655.6243 410.4092)" fill="#1D1D1B" font-family="'MyriadPro-Regular'" font-size="12.3042">5</text>
<text transform="matrix(1 0 0 1 643.5413 365.1045)" fill="#1D1D1B" font-family="'MyriadPro-Regular'" font-size="12.3042">6</text>
<text transform="matrix(1 0 0 1 629.6125 399.7783)" fill="#1D1D1B" font-family="'MyriadPro-Regular'" font-size="12.3042">6</text>
<text transform="matrix(1 0 0 1 618.5647 354.6826)" fill="#1D1D1B" font-family="'MyriadPro-Regular'" font-size="12.3042">7</text>
<text transform="matrix(1 0 0 1 604.3645 389.6768)" fill="#1D1D1B" font-family="'MyriadPro-Regular'" font-size="12.3042">7</text>
<text transform="matrix(1 0 0 1 593.303 343.6943)" fill="#1D1D1B" font-family="'MyriadPro-Regular'" font-size="12.3042">8</text>
<text transform="matrix(1 0 0 1 452.26 273.7939)" fill="#1D1D1B" font-family="'MyriadPro-Regular'" font-size="12.3042">5</text>
<text transform="matrix(1 0 0 1 434.469 306.8311)" fill="#1D1D1B" font-family="'MyriadPro-Regular'" font-size="12.3042">5</text>
<text transform="matrix(1 0 0 1 429.7932 260.4326)" fill="#1D1D1B" font-family="'MyriadPro-Regular'" font-size="12.3042">6</text>
<text transform="matrix(1 0 0 1 411.3372 293.7275)" fill="#1D1D1B" font-family="'MyriadPro-Regular'" font-size="12.3042">6</text>
<text transform="matrix(1 0 0 1 191.9407 96.9097)" fill="#1D1D1B" font-family="'MyriadPro-Regular'" font-size="12.3042">4</text>
<text transform="matrix(1 0 0 1 167.8489 125.96)" fill="#1D1D1B" font-family="'MyriadPro-Regular'" font-size="12.3042">4</text>
<text transform="matrix(1 0 0 1 171.5154 80.4834)" fill="#1D1D1B" font-family="'MyriadPro-Regular'" font-size="12.3042">5</text>
<text transform="matrix(1 0 0 1 147.2146 109.3994)" fill="#1D1D1B" font-family="'MyriadPro-Regular'" font-size="12.3042">5</text>
<text transform="matrix(1 0 0 1 151.1277 62.9131)" fill="#1D1D1B" font-family="'MyriadPro-Regular'" font-size="12.3042">6</text>
<text transform="matrix(1 0 0 1 126.3958 91.3604)" fill="#1D1D1B" font-family="'MyriadPro-Regular'" font-size="12.3042">6</text>
<text transform="matrix(1 0 0 1 408.1624 248.165)" fill="#1D1D1B" font-family="'MyriadPro-Regular'" font-size="12.3042">7</text>
<text transform="matrix(1 0 0 1 389.1282 280.9072)" fill="#1D1D1B" font-family="'MyriadPro-Regular'" font-size="12.3042">7</text>
<text transform="matrix(1 0 0 1 385.6458 234.5576)" fill="#1D1D1B" font-family="'MyriadPro-Regular'" font-size="12.3042">8</text>
<text transform="matrix(1 0 0 1 366.4758 266.6826)" fill="#1D1D1B" font-family="'MyriadPro-Regular'" font-size="12.3042">8</text>
<text transform="matrix(1 0 0 1 364.1125 220.96)" fill="#1D1D1B" font-family="'MyriadPro-Regular'" font-size="12.3042">9</text>
<text transform="matrix(1 0 0 1 344.217 252.8662)" fill="#1D1D1B" font-family="'MyriadPro-Regular'" font-size="12.3042">9</text>
<text transform="matrix(1 0 0 1 131.3293 45.4058)" fill="#1D1D1B" font-family="'MyriadPro-Regular'" font-size="12.3042">7</text>
<text transform="matrix(1 0 0 1 106.0081 74.2222)" fill="#1D1D1B" font-family="'MyriadPro-Regular'" font-size="12.3042">7</text>
<text transform="matrix(1 0 0 1 110.8689 26.874)" fill="#1D1D1B" font-family="'MyriadPro-Regular'" font-size="12.3042">8</text>
<text transform="matrix(1 0 0 1 85.7434 54.7554)" fill="#1D1D1B" font-family="'MyriadPro-Regular'" font-size="12.3042">8</text>
<text transform="matrix(1 0 0 1 91.157 8.8115)" fill="#1D1D1B" font-family="'MyriadPro-Regular'" font-size="12.3042">9</text>
<text transform="matrix(1 0 0 1 65.6379 36.2256)" fill="#1D1D1B" font-family="'MyriadPro-Regular'" font-size="12.3042">9</text>
<text transform="matrix(1 0 0 1 339.0491 207.1064)" fill="#1D1D1B" font-family="'MyriadPro-Regular'" font-size="12.3042">1</text>
<text transform="matrix(1 0 0 1 345.2024 207.1064)" fill="#1D1D1B" font-family="'MyriadPro-Regular'" font-size="12.3042">0</text>
<text transform="matrix(1 0 0 1 318.2795 239.1826)" fill="#1D1D1B" font-family="'MyriadPro-Regular'" font-size="12.3042">1</text>
<text transform="matrix(1 0 0 1 324.4329 239.1826)" fill="#1D1D1B" font-family="'MyriadPro-Regular'" font-size="12.3042">0</text>
<text transform="matrix(1 0 0 1 318.2795 193.1045)" fill="#1D1D1B" font-family="'MyriadPro-Regular'" font-size="12.3042">1</text>
<text transform="matrix(1 0 0 1 324.4329 193.1045)" fill="#1D1D1B" font-family="'MyriadPro-Regular'" font-size="12.3042">1</text>
<text transform="matrix(1 0 0 1 297.2649 224.5283)" fill="#1D1D1B" font-family="'MyriadPro-Regular'" font-size="12.3042">1</text>
<text transform="matrix(1 0 0 1 303.4163 224.5283)" fill="#1D1D1B" font-family="'MyriadPro-Regular'" font-size="12.3042">1</text>
<text transform="matrix(1 0 0 1 296.4158 178.4736)" fill="#1D1D1B" font-family="'MyriadPro-Regular'" font-size="12.3042">1</text>
<text transform="matrix(1 0 0 1 302.5676 178.4736)" fill="#1D1D1B" font-family="'MyriadPro-Regular'" font-size="12.3042">2</text>
<text transform="matrix(1 0 0 1 275.4124 209.4814)" fill="#1D1D1B" font-family="'MyriadPro-Regular'" font-size="12.3042">1</text>
<text transform="matrix(1 0 0 1 281.5647 209.4814)" fill="#1D1D1B" font-family="'MyriadPro-Regular'" font-size="12.3042">2</text>
<text transform="matrix(1 0 0 1 578.2307 378.0361)" fill="#1D1D1B" font-family="'MyriadPro-Regular'" font-size="12.3042">8</text>
<g opacity="0.8">
	<path fill="#D948FF" d="M582.331,345.799l18.406,8.19c0.581,0.259,1.241,0.195,1.767-0.161c0.524-0.359,0.818-0.951,0.788-1.587
		l-0.143-2.907l5.146-14.529c0.433-1.221-0.156-2.592-1.341-3.117l-12.218-5.438c-1.184-0.525-2.596-0.047-3.213,1.094
		l-7.352,13.547l-2.252,1.842c-0.492,0.402-0.736,1.021-0.651,1.648S581.75,345.541,582.331,345.799z"/>
	<path fill="#D948FF" d="M606.289,355.452c0.093,0.63,0.497,1.15,1.081,1.4l18.522,7.928c0.585,0.25,1.244,0.181,1.764-0.188
		c0.521-0.367,0.806-0.965,0.765-1.599l-0.183-2.905l4.936-14.601c0.414-1.229-0.192-2.59-1.386-3.102l-12.293-5.26
		c-1.191-0.511-2.597-0.011-3.197,1.139l-7.153,13.652l-2.228,1.873C606.43,354.205,606.195,354.823,606.289,355.452z"/>
	<path fill="#D948FF" d="M631.512,366.164c0.102,0.627,0.513,1.145,1.102,1.387l18.638,7.656c0.588,0.241,1.246,0.161,1.76-0.212
		c0.515-0.375,0.791-0.979,0.741-1.608l-0.226-2.902l4.725-14.672c0.396-1.232-0.231-2.586-1.433-3.078l-12.367-5.08
		c-1.197-0.492-2.597,0.025-3.181,1.185l-6.957,13.754l-2.197,1.905C631.635,364.914,631.408,365.536,631.512,366.164z"/>
	<path fill="#D948FF" d="M656.933,376.508c0.11,0.625,0.529,1.137,1.122,1.369l18.745,7.385c0.591,0.232,1.249,0.145,1.757-0.238
		c0.51-0.381,0.777-0.986,0.718-1.619l-0.267-2.897l4.509-14.738c0.378-1.238-0.271-2.582-1.476-3.057l-12.44-4.9
		c-1.206-0.475-2.597,0.063-3.163,1.229l-6.755,13.854l-2.171,1.938C657.036,375.256,656.82,375.881,656.933,376.508z"/>
	<path fill="#D948FF" d="M682.546,386.474c0.12,0.623,0.548,1.129,1.143,1.354l18.854,7.107c0.596,0.225,1.251,0.125,1.753-0.264
		c0.505-0.39,0.764-0.998,0.695-1.632l-0.313-2.895l4.291-14.803c0.36-1.246-0.308-2.578-1.52-3.035l-12.514-4.719
		c-1.213-0.455-2.595,0.104-3.145,1.276l-6.552,13.953l-2.142,1.969C682.632,385.22,682.424,385.849,682.546,386.474z"/>
	<path fill="#D948FF" d="M708.35,396.058c0.13,0.623,0.563,1.121,1.162,1.336l18.955,6.826c0.599,0.215,1.254,0.107,1.75-0.289
		c0.496-0.395,0.746-1.01,0.67-1.641l-0.354-2.89l4.069-14.864c0.342-1.25-0.345-2.574-1.564-3.015l-12.58-4.529
		c-1.221-0.438-2.594,0.144-3.125,1.324l-6.343,14.047l-2.11,2.002C708.416,394.804,708.219,395.435,708.35,396.058z"/>
	<path fill="#D948FF" d="M734.334,405.256c0.141,0.619,0.58,1.11,1.184,1.317l19.057,6.541c0.603,0.205,1.254,0.089,1.743-0.313
		c0.492-0.404,0.733-1.021,0.646-1.65l-0.396-2.885l3.847-14.926c0.322-1.256-0.385-2.566-1.608-2.988l-12.646-4.34
		c-1.227-0.42-2.591,0.182-3.104,1.371l-6.131,14.141l-2.082,2.033C734.385,404,734.195,404.634,734.334,405.256z"/>
	<path fill="#D948FF" d="M784.74,398.78l-12.713-4.146c-1.231-0.402-2.586,0.219-3.083,1.416l-5.916,14.231l-2.05,2.064
		c-0.449,0.451-0.631,1.088-0.479,1.707c0.147,0.617,0.597,1.104,1.201,1.301l19.152,6.25c0.604,0.197,1.256,0.07,1.738-0.342
		c0.486-0.412,0.719-1.031,0.62-1.66l-0.438-2.877l3.62-14.979C786.699,400.485,785.972,399.183,784.74,398.78z"/>
	<path fill="#D948FF" d="M557.412,309.032l-12.073-5.748c-1.17-0.559-2.593-0.114-3.237,1.009l-7.697,13.354l-2.299,1.785
		c-0.503,0.389-0.765,0.998-0.693,1.631c0.067,0.631,0.449,1.172,1.023,1.443l18.189,8.662c0.574,0.271,1.235,0.229,1.771-0.115
		c0.534-0.346,0.845-0.932,0.829-1.566l-0.065-2.908l5.515-14.395C559.135,310.972,558.582,309.59,557.412,309.032z"/>
	<path fill="#D948FF" d="M508.911,307.849c-0.511,0.381-0.778,0.985-0.721,1.621c0.06,0.631,0.434,1.178,1.002,1.459l18.058,8.938
		c0.568,0.281,1.23,0.25,1.771-0.088s0.857-0.918,0.854-1.555l-0.021-2.91l5.736-14.307c0.479-1.203-0.052-2.597-1.213-3.171
		l-11.982-5.934c-1.161-0.574-2.591-0.152-3.255,0.959l-7.899,13.234L508.911,307.849z"/>
	<path fill="#D948FF" d="M485.918,295.948c-0.516,0.373-0.793,0.976-0.744,1.609c0.048,0.633,0.414,1.184,0.979,1.475l17.918,9.216
		c0.563,0.291,1.229,0.268,1.771-0.063c0.545-0.328,0.872-0.902,0.876-1.539l0.022-2.912l5.955-14.215
		c0.498-1.194-0.012-2.598-1.164-3.188l-11.893-6.113c-1.15-0.594-2.588-0.193-3.269,0.908l-8.104,13.11L485.918,295.948z"/>
	<path fill="#D948FF" d="M463.126,283.728c-0.521,0.365-0.809,0.963-0.769,1.6c0.038,0.634,0.396,1.188,0.956,1.488l17.773,9.486
		c0.562,0.299,1.225,0.287,1.771-0.033c0.55-0.32,0.887-0.891,0.898-1.525l0.067-2.909l6.171-14.123
		c0.519-1.189,0.028-2.599-1.114-3.207l-11.796-6.298c-1.144-0.608-2.586-0.231-3.283,0.859l-8.301,12.986L463.126,283.728z"/>
	<path fill="#D948FF" d="M440.537,271.192c-0.524,0.357-0.821,0.949-0.792,1.586c0.028,0.634,0.378,1.195,0.936,1.504l17.628,9.759
		c0.557,0.307,1.219,0.305,1.771-0.009c0.557-0.313,0.898-0.879,0.924-1.514l0.111-2.908l6.385-14.026
		c0.536-1.181,0.068-2.597-1.063-3.224l-11.698-6.477c-1.135-0.627-2.582-0.271-3.296,0.811l-8.499,12.857L440.537,271.192z"/>
	<path fill="#D948FF" d="M418.153,258.343c-0.53,0.35-0.836,0.938-0.815,1.571c0.021,0.636,0.359,1.203,0.911,1.521l17.479,10.022
		c0.552,0.316,1.215,0.324,1.771,0.021c0.562-0.303,0.913-0.863,0.945-1.498l0.156-2.906l6.598-13.93
		c0.555-1.17,0.108-2.594-1.016-3.238l-11.601-6.651c-1.124-0.646-2.577-0.312-3.308,0.76l-8.692,12.729L418.153,258.343z"/>
	<path fill="#D948FF" d="M395.975,245.181c-0.535,0.344-0.852,0.926-0.841,1.563c0.012,0.636,0.342,1.207,0.89,1.531l17.322,10.287
		c0.546,0.326,1.209,0.344,1.771,0.049c0.563-0.297,0.925-0.852,0.968-1.483l0.2-2.904l6.809-13.826
		c0.572-1.164,0.147-2.592-0.967-3.254l-11.496-6.828c-1.114-0.662-2.572-0.353-3.317,0.709l-8.886,12.596L395.975,245.181z"/>
	<path fill="#D948FF" d="M374.003,231.713c-0.542,0.334-0.864,0.912-0.863,1.549c0,0.635,0.322,1.211,0.864,1.545l17.165,10.549
		c0.541,0.332,1.204,0.361,1.771,0.074c0.567-0.287,0.938-0.836,0.989-1.469l0.245-2.902l7.018-13.721
		c0.591-1.154,0.188-2.593-0.918-3.271l-11.393-7.002c-1.104-0.678-2.565-0.389-3.328,0.658l-9.074,12.459L374.003,231.713z"/>
	<path fill="#D948FF" d="M352.239,217.935c-0.547,0.326-0.878,0.9-0.887,1.535c-0.011,0.637,0.305,1.219,0.841,1.561l17.004,10.808
		c0.537,0.34,1.199,0.379,1.771,0.1c0.572-0.275,0.95-0.82,1.013-1.451l0.288-2.897l7.225-13.615
		c0.606-1.146,0.228-2.586-0.867-3.279l-11.284-7.174c-1.094-0.692-2.563-0.428-3.339,0.607l-9.263,12.319L352.239,217.935z"/>
	<path fill="#D948FF" d="M330.686,203.858c-0.554,0.316-0.894,0.885-0.91,1.521c-0.021,0.635,0.286,1.221,0.816,1.569l16.841,11.063
		c0.529,0.35,1.191,0.396,1.769,0.127c0.576-0.27,0.963-0.808,1.033-1.438l0.332-2.893l7.429-13.506
		c0.624-1.136,0.264-2.582-0.818-3.293l-11.176-7.343c-1.084-0.711-2.555-0.467-3.349,0.558l-9.445,12.182L330.686,203.858z"/>
	<path fill="#D948FF" d="M309.341,189.478c-0.557,0.312-0.904,0.871-0.935,1.508c-0.027,0.636,0.27,1.228,0.795,1.584l16.671,11.313
		c0.525,0.354,1.188,0.414,1.768,0.151c0.581-0.262,0.976-0.793,1.056-1.422l0.375-2.889l7.631-13.392
		c0.643-1.127,0.303-2.577-0.77-3.307l-11.063-7.51c-1.073-0.728-2.548-0.504-3.354,0.508l-9.629,12.035L309.341,189.478z"/>
	<path fill="#D948FF" d="M288.023,177.888l16.5,11.563c0.521,0.363,1.183,0.433,1.766,0.181c0.584-0.252,0.985-0.777,1.075-1.408
		l0.418-2.879l7.829-13.275c0.658-1.116,0.344-2.573-0.719-3.317l-10.951-7.672c-1.062-0.744-2.538-0.543-3.36,0.457l-9.809,11.889
		l-2.563,1.379c-0.563,0.301-0.918,0.857-0.955,1.492C287.215,176.929,287.503,177.522,288.023,177.888z"/>
	<path fill="#D948FF" d="M92.856,19.364c0.463,0.438,1.104,0.603,1.72,0.438c0.614-0.162,1.091-0.623,1.271-1.232l0.839-2.785
		l9.705-11.977c0.814-1.006,0.719-2.494-0.223-3.387l-9.696-9.207c-0.938-0.894-2.431-0.912-3.394-0.045L81.622,1.48l-2.739,0.984
		c-0.6,0.215-1.033,0.713-1.165,1.336c-0.131,0.621,0.064,1.254,0.526,1.69L92.856,19.364z"/>
	<path fill="#D948FF" d="M98.517,21.009c-0.597,0.225-1.021,0.729-1.145,1.354c-0.121,0.623,0.085,1.252,0.553,1.683l14.829,13.641
		c0.469,0.432,1.113,0.584,1.725,0.41c0.612-0.172,1.081-0.642,1.255-1.252l0.795-2.801l9.514-12.125
		c0.799-1.021,0.68-2.507-0.274-3.386l-9.841-9.051c-0.954-0.877-2.445-0.873-3.395,0.01l-11.291,10.49L98.517,21.009z"/>
	<path fill="#D948FF" d="M118.431,39.259c-0.593,0.231-1.013,0.744-1.123,1.373c-0.111,0.625,0.104,1.25,0.58,1.672l15.043,13.401
		c0.475,0.425,1.122,0.566,1.729,0.386c0.608-0.183,1.069-0.658,1.231-1.271l0.751-2.813l9.32-12.275
		c0.783-1.031,0.639-2.516-0.329-3.379l-9.982-8.896c-0.968-0.86-2.459-0.836-3.393,0.063l-11.124,10.668L118.431,39.259z"/>
	<path fill="#D948FF" d="M138.621,57.213c-0.59,0.242-1,0.762-1.103,1.391c-0.103,0.627,0.125,1.248,0.605,1.664l15.253,13.162
		c0.479,0.416,1.131,0.549,1.735,0.356c0.606-0.19,1.061-0.676,1.214-1.293l0.705-2.823l9.127-12.42
		c0.766-1.045,0.599-2.525-0.383-3.373l-10.123-8.736c-0.98-0.846-2.472-0.795-3.392,0.117l-10.954,10.844L138.621,57.213z"/>
	<path fill="#D948FF" d="M159.083,74.864c-0.585,0.252-0.987,0.777-1.079,1.406s0.146,1.246,0.633,1.654l15.459,12.922
		c0.486,0.408,1.14,0.531,1.74,0.328c0.604-0.201,1.051-0.689,1.192-1.312l0.661-2.834l8.93-12.563
		c0.75-1.058,0.56-2.535-0.436-3.367l-10.262-8.574c-0.993-0.83-2.481-0.756-3.39,0.17l-10.78,11.015L159.083,74.864z"/>
	<path fill="#D948FF" d="M179.812,92.215c-0.58,0.26-0.976,0.793-1.057,1.424c-0.082,0.629,0.164,1.244,0.658,1.645l15.659,12.677
		c0.495,0.399,1.147,0.514,1.747,0.301c0.602-0.211,1.037-0.707,1.173-1.328l0.614-2.846l8.729-12.701
		c0.732-1.068,0.52-2.545-0.487-3.359l-10.395-8.412c-1.008-0.813-2.495-0.719-3.387,0.226l-10.605,11.182L179.812,92.215z"/>
	<path fill="#D948FF" d="M200.804,109.256c-0.575,0.27-0.964,0.807-1.033,1.438c-0.071,0.631,0.184,1.24,0.685,1.633l15.857,12.429
		c0.5,0.393,1.154,0.496,1.751,0.272c0.598-0.221,1.025-0.725,1.149-1.348l0.572-2.854l8.527-12.838
		c0.716-1.08,0.479-2.553-0.541-3.352l-10.524-8.248c-1.021-0.799-2.506-0.678-3.382,0.277l-10.43,11.348L200.804,109.256z"/>
	<path fill="#D948FF" d="M222.054,125.983c-0.572,0.277-0.95,0.82-1.013,1.455c-0.063,0.633,0.203,1.236,0.71,1.621l16.053,12.178
		c0.507,0.386,1.163,0.478,1.756,0.246c0.593-0.229,1.016-0.74,1.129-1.365l0.526-2.862l8.324-12.972
		c0.698-1.09,0.438-2.559-0.595-3.342l-10.652-8.08c-1.032-0.785-2.518-0.641-3.377,0.328l-10.249,11.512L222.054,125.983z"/>
	<path fill="#D948FF" d="M270.365,136.933l-10.778-7.912c-1.044-0.768-2.525-0.6-3.371,0.385l-10.066,11.67l-2.593,1.32
		c-0.566,0.287-0.938,0.84-0.988,1.473c-0.052,0.634,0.224,1.234,0.735,1.609l16.241,11.924c0.513,0.377,1.17,0.459,1.759,0.22
		c0.59-0.238,1.004-0.757,1.106-1.384l0.481-2.871l8.12-13.102C271.694,139.164,271.41,137.7,270.365,136.933z"/>
	<path fill="#D948FF" d="M773.143,434.42l-12.764-3.992c-1.234-0.387-2.584,0.252-3.063,1.455l-5.739,14.303l-2.024,2.09
		c-0.443,0.457-0.614,1.098-0.457,1.715c0.154,0.615,0.609,1.096,1.217,1.285l19.229,6.016c0.605,0.188,1.256,0.054,1.733-0.362
		c0.479-0.418,0.705-1.041,0.601-1.668l-0.476-2.871l3.436-15.023C775.122,436.097,774.378,434.806,773.143,434.42z"/>
	<path fill="#D948FF" d="M746.695,425.847l-12.686-4.232c-1.229-0.41-2.588,0.203-3.092,1.396l-6.011,14.19l-2.063,2.052
		c-0.452,0.448-0.636,1.084-0.489,1.704c0.146,0.617,0.591,1.107,1.192,1.31l19.11,6.377c0.604,0.201,1.255,0.078,1.741-0.33
		c0.486-0.406,0.725-1.025,0.631-1.654l-0.42-2.881l3.72-14.957C748.642,427.562,747.923,426.258,746.695,425.847z"/>
	<path fill="#D948FF" d="M720.43,416.886l-12.601-4.474c-1.223-0.434-2.594,0.154-3.118,1.338l-6.277,14.076l-2.104,2.013
		c-0.46,0.438-0.656,1.071-0.521,1.692c0.132,0.621,0.568,1.117,1.168,1.332l18.985,6.736c0.6,0.213,1.253,0.104,1.747-0.297
		c0.496-0.396,0.743-1.015,0.662-1.644l-0.365-2.889l4.002-14.883C722.344,418.64,721.65,417.319,720.43,416.886z"/>
	<path fill="#D948FF" d="M695.871,410.573c0.358-1.245-0.31-2.577-1.521-3.034l-12.515-4.712c-1.213-0.454-2.595,0.105-3.145,1.279
		l-6.543,13.953l-2.142,1.971c-0.47,0.433-0.677,1.062-0.555,1.687c0.12,0.623,0.548,1.129,1.143,1.354l18.854,7.099
		c0.597,0.225,1.251,0.125,1.752-0.265c0.505-0.391,0.765-1,0.693-1.633l-0.311-2.893L695.871,410.573z"/>
	<path fill="#D948FF" d="M669.919,400.868c0.384-1.235-0.261-2.582-1.464-3.063l-12.422-4.947c-1.203-0.479-2.596,0.056-3.166,1.219
		l-6.809,13.826l-2.179,1.931c-0.478,0.422-0.695,1.047-0.586,1.674c0.108,0.627,0.525,1.141,1.116,1.375l18.717,7.453
		c0.591,0.235,1.248,0.149,1.757-0.229c0.512-0.381,0.781-0.983,0.726-1.617l-0.257-2.899L669.919,400.868z"/>
	<path fill="#D948FF" d="M644.155,390.78c0.406-1.231-0.21-2.588-1.403-3.09l-12.326-5.186c-1.192-0.502-2.596,0.006-3.188,1.157
		l-7.068,13.695l-2.214,1.889c-0.484,0.412-0.716,1.033-0.618,1.662c0.098,0.627,0.505,1.148,1.091,1.396l18.57,7.811
		c0.586,0.246,1.246,0.172,1.763-0.196c0.52-0.371,0.8-0.97,0.755-1.604l-0.201-2.902L644.155,390.78z"/>
	<path fill="#D948FF" d="M618.58,380.306c0.432-1.221-0.16-2.59-1.347-3.113l-12.226-5.416c-1.186-0.524-2.595-0.043-3.211,1.096
		l-7.327,13.56l-2.25,1.848c-0.492,0.4-0.735,1.018-0.649,1.648c0.085,0.629,0.482,1.157,1.063,1.416l18.421,8.16
		c0.581,0.258,1.241,0.196,1.765-0.164c0.525-0.357,0.818-0.953,0.786-1.588l-0.146-2.906L618.58,380.306z"/>
	<path fill="#D948FF" d="M593.196,369.452c0.453-1.215-0.111-2.594-1.286-3.143l-12.119-5.646c-1.175-0.55-2.596-0.095-3.23,1.034
		l-7.585,13.418l-2.285,1.804c-0.5,0.393-0.754,1.006-0.681,1.637c0.072,0.631,0.461,1.168,1.035,1.438l18.264,8.511
		c0.576,0.268,1.236,0.221,1.769-0.13c0.531-0.352,0.836-0.938,0.815-1.573l-0.091-2.91L593.196,369.452z"/>
	<path fill="#D948FF" d="M541.256,343.011l-12.117-5.65c-1.176-0.549-2.596-0.094-3.23,1.035l-7.589,13.416l-2.283,1.803
		c-0.5,0.394-0.756,1.006-0.682,1.638c0.073,0.631,0.46,1.168,1.036,1.438l18.261,8.514c0.576,0.269,1.238,0.22,1.769-0.131
		c0.531-0.352,0.836-0.938,0.814-1.572l-0.089-2.909l5.396-14.438C542.997,344.937,542.433,343.558,541.256,343.011z"/>
	<path fill="#D948FF" d="M518.963,334.724c0.471-1.207-0.074-2.596-1.241-3.16l-12.038-5.815c-1.167-0.564-2.594-0.132-3.246,0.987
		l-7.775,13.31l-2.31,1.77c-0.506,0.387-0.77,0.994-0.704,1.627c0.063,0.633,0.442,1.176,1.018,1.451l18.14,8.77
		c0.571,0.275,1.234,0.236,1.77-0.104c0.536-0.342,0.851-0.926,0.839-1.562l-0.051-2.909L518.963,334.724z"/>
	<path fill="#D948FF" d="M495.577,322.97c0.487-1.199-0.038-2.596-1.196-3.176l-11.955-5.986c-1.158-0.582-2.592-0.166-3.26,0.943
		l-7.962,13.196l-2.334,1.736c-0.512,0.379-0.783,0.982-0.728,1.617c0.055,0.633,0.427,1.18,0.995,1.463l18.015,9.022
		c0.568,0.285,1.23,0.257,1.771-0.079c0.542-0.334,0.862-0.914,0.859-1.55l-0.009-2.909L495.577,322.97z"/>
	<path fill="#D948FF" d="M471.236,307.698l-11.868-6.153c-1.151-0.599-2.59-0.201-3.271,0.896l-8.146,13.086l-2.357,1.703
		c-0.518,0.373-0.796,0.974-0.748,1.607c0.046,0.633,0.409,1.186,0.975,1.479l17.888,9.275c0.563,0.293,1.228,0.271,1.771-0.058
		c0.546-0.325,0.875-0.899,0.881-1.536l0.033-2.91l6.003-14.195C472.894,309.698,472.388,308.297,471.236,307.698z"/>
	<path fill="#D948FF" d="M448.293,295.282l-11.783-6.319c-1.143-0.613-2.585-0.238-3.284,0.854l-8.328,12.967l-2.382,1.673
		c-0.521,0.364-0.811,0.961-0.771,1.598c0.036,0.635,0.394,1.188,0.953,1.49l17.755,9.524c0.561,0.302,1.223,0.289,1.771-0.03
		c0.551-0.318,0.888-0.89,0.902-1.523l0.073-2.91l6.199-14.108C449.92,297.304,449.435,295.894,448.293,295.282z"/>
	<path fill="#D948FF" d="M425.549,282.547l-11.693-6.486c-1.133-0.627-2.581-0.273-3.296,0.809l-8.51,12.853l-2.404,1.639
		c-0.525,0.355-0.822,0.947-0.794,1.584c0.027,0.636,0.377,1.197,0.935,1.506l17.618,9.771c0.557,0.309,1.22,0.307,1.771-0.006
		c0.556-0.313,0.9-0.877,0.925-1.513l0.114-2.909l6.396-14.021C427.148,284.592,426.683,283.175,425.549,282.547z"/>
	<path fill="#D948FF" d="M403.01,269.493l-11.602-6.647c-1.125-0.646-2.578-0.312-3.309,0.762l-8.688,12.729l-2.429,1.604
		c-0.53,0.35-0.837,0.938-0.815,1.572c0.021,0.637,0.359,1.201,0.912,1.52l17.479,10.017c0.552,0.315,1.216,0.323,1.771,0.021
		c0.56-0.305,0.912-0.865,0.944-1.5l0.154-2.906l6.594-13.932C404.581,271.558,404.135,270.136,403.01,269.493z"/>
	<path fill="#D948FF" d="M380.675,256.127l-11.507-6.812c-1.115-0.66-2.572-0.348-3.316,0.715l-8.864,12.607l-2.449,1.569
		c-0.536,0.343-0.851,0.927-0.839,1.563c0.012,0.635,0.344,1.207,0.891,1.529l17.341,10.26c0.548,0.324,1.211,0.342,1.771,0.045
		c0.563-0.297,0.924-0.852,0.966-1.483l0.194-2.904l6.787-13.838C382.219,258.215,381.792,256.784,380.675,256.127z"/>
	<path fill="#D948FF" d="M358.55,242.446l-11.411-6.969c-1.104-0.678-2.567-0.385-3.327,0.668l-9.039,12.482l-2.473,1.536
		c-0.541,0.334-0.861,0.914-0.857,1.55c0.002,0.635,0.325,1.211,0.868,1.543l17.194,10.5c0.543,0.332,1.206,0.356,1.771,0.069
		c0.567-0.289,0.937-0.84,0.986-1.473l0.235-2.902l6.979-13.742C360.063,244.556,359.656,243.123,358.55,242.446z"/>
	<path fill="#D948FF" d="M336.635,228.459l-11.313-7.127c-1.098-0.689-2.563-0.418-3.336,0.621l-9.212,12.356l-2.492,1.502
		c-0.547,0.326-0.875,0.9-0.882,1.537c-0.008,0.637,0.311,1.217,0.849,1.557l17.047,10.736c0.538,0.34,1.2,0.375,1.771,0.094
		c0.571-0.278,0.947-0.823,1.008-1.457l0.274-2.897l7.169-13.646C338.119,230.59,337.732,229.147,336.635,228.459z"/>
	<path fill="#D948FF" d="M314.932,214.164l-11.215-7.283c-1.087-0.705-2.557-0.453-3.344,0.576l-9.383,12.227l-2.515,1.469
		c-0.551,0.318-0.888,0.892-0.901,1.525c-0.017,0.635,0.293,1.221,0.826,1.566l16.896,10.973c0.533,0.348,1.194,0.393,1.77,0.119
		s0.959-0.813,1.025-1.445l0.316-2.893l7.356-13.543C316.385,216.313,316.019,214.868,314.932,214.164z"/>
	<path fill="#D948FF" d="M293.442,199.563l-11.11-7.438c-1.077-0.722-2.551-0.488-3.353,0.528l-9.551,12.099l-2.534,1.432
		c-0.555,0.313-0.898,0.877-0.923,1.515c-0.025,0.635,0.275,1.225,0.804,1.577l16.744,11.205c0.527,0.354,1.188,0.406,1.768,0.144
		c0.579-0.264,0.97-0.797,1.047-1.429l0.355-2.891l7.544-13.438C294.865,201.735,294.52,200.286,293.442,199.563z"/>
	<path fill="#D948FF" d="M80.911,28.22l-9.669-9.232c-0.938-0.896-2.429-0.922-3.394-0.057L56.362,29.207l-2.741,0.976
		c-0.6,0.213-1.036,0.709-1.169,1.332c-0.134,0.621,0.063,1.254,0.521,1.692L67.54,47.123c0.46,0.438,1.104,0.604,1.717,0.441
		c0.615-0.158,1.094-0.619,1.276-1.229l0.847-2.785l9.741-11.943C81.941,30.603,81.849,29.116,80.911,28.22z"/>
	<path fill="#D948FF" d="M100.901,46.674l-9.851-9.041c-0.954-0.877-2.445-0.871-3.395,0.012L76.377,48.146l-2.723,1.029
		c-0.596,0.225-1.021,0.729-1.143,1.354c-0.121,0.623,0.086,1.25,0.555,1.683l14.842,13.623c0.47,0.43,1.113,0.582,1.727,0.407
		c0.61-0.172,1.079-0.643,1.252-1.254l0.792-2.801l9.5-12.135C101.978,49.034,101.855,47.549,100.901,46.674z"/>
	<path fill="#D948FF" d="M121.154,64.823l-10.025-8.844c-0.974-0.854-2.462-0.82-3.394,0.08L96.669,66.784l-2.701,1.084
		c-0.59,0.234-1.007,0.75-1.114,1.377c-0.106,0.625,0.11,1.25,0.588,1.671l15.108,13.323c0.478,0.42,1.125,0.562,1.73,0.375
		c0.609-0.186,1.067-0.664,1.229-1.276l0.736-2.816l9.256-12.32C122.278,67.164,122.126,65.681,121.154,64.823z"/>
	<path fill="#D948FF" d="M141.672,82.674l-10.201-8.642c-0.989-0.838-2.479-0.771-3.392,0.146l-10.85,10.942l-2.68,1.138
		c-0.585,0.248-0.991,0.771-1.087,1.399c-0.097,0.627,0.137,1.246,0.621,1.656l15.373,13.021c0.483,0.409,1.136,0.537,1.737,0.34
		c0.604-0.197,1.055-0.687,1.2-1.303l0.681-2.83l9.008-12.504C142.842,84.987,142.661,83.509,141.672,82.674z"/>
	<path fill="#D948FF" d="M162.453,100.215l-10.373-8.433c-1.006-0.817-2.492-0.725-3.387,0.216l-10.627,11.159l-2.654,1.189
		c-0.581,0.258-0.978,0.789-1.06,1.42c-0.083,0.629,0.161,1.244,0.654,1.646l15.631,12.707c0.493,0.398,1.146,0.515,1.745,0.306
		c0.602-0.211,1.039-0.707,1.175-1.328l0.623-2.842l8.753-12.683C163.67,102.508,163.459,101.032,162.453,100.215z"/>
	<path fill="#D948FF" d="M183.5,117.446l-10.542-8.223c-1.021-0.797-2.508-0.672-3.382,0.285l-10.399,11.371l-2.63,1.243
		c-0.574,0.271-0.96,0.81-1.029,1.441c-0.07,0.631,0.187,1.24,0.688,1.631l15.885,12.389c0.501,0.392,1.156,0.492,1.752,0.271
		c0.597-0.223,1.024-0.729,1.146-1.352l0.565-2.854l8.495-12.854C184.762,119.715,184.521,118.241,183.5,117.446z"/>
	<path fill="#D948FF" d="M204.809,134.366l-10.707-8.008c-1.038-0.774-2.521-0.621-3.375,0.354l-10.167,11.58l-2.604,1.299
		c-0.569,0.283-0.943,0.828-1.001,1.463c-0.06,0.631,0.211,1.236,0.722,1.617l16.133,12.063c0.509,0.381,1.166,0.469,1.757,0.234
		c0.591-0.235,1.012-0.748,1.119-1.373l0.507-2.865l8.234-13.024C206.115,136.604,205.847,135.14,204.809,134.366z"/>
	<path fill="#D948FF" d="M226.381,150.968l-10.868-7.787c-1.054-0.754-2.533-0.568-3.367,0.422l-9.931,11.785l-2.576,1.354
		c-0.563,0.293-0.928,0.849-0.972,1.48c-0.045,0.635,0.236,1.231,0.753,1.604l16.377,11.732c0.519,0.369,1.177,0.443,1.762,0.197
		c0.589-0.246,0.994-0.767,1.093-1.396l0.447-2.875l7.968-13.192C227.736,153.183,227.435,151.722,226.381,150.968z"/>
	<path fill="#D948FF" d="M248.219,167.252l-11.027-7.564c-1.066-0.729-2.544-0.518-3.355,0.49l-9.688,11.988l-2.55,1.401
		c-0.56,0.308-0.909,0.867-0.939,1.504c-0.031,0.636,0.263,1.228,0.785,1.589l16.615,11.395c0.522,0.359,1.186,0.42,1.766,0.162
		c0.582-0.258,0.979-0.787,1.063-1.418l0.389-2.883l7.697-13.355C249.617,169.437,249.287,167.983,248.219,167.252z"/>
</g>
</svg>
