<?xml version="1.0" encoding="utf-8"?>
<!-- Generator: Adobe Illustrator 16.0.0, SVG Export Plug-In . SVG Version: 6.00 Build 0)  -->
<!DOCTYPE svg PUBLIC "-//W3C//DTD SVG 1.1//EN" "http://www.w3.org/Graphics/SVG/1.1/DTD/svg11.dtd">
<svg version="1.1" id="Layer_1" xmlns="http://www.w3.org/2000/svg" xmlns:xlink="http://www.w3.org/1999/xlink" x="0px" y="0px"
	 width="539.309px" height="446.508px" viewBox="84.31 0 539.309 446.508" enable-background="new 84.31 0 539.309 446.508"
	 xml:space="preserve">

<style type="text/css">
	<![CDATA[
	@font-face { font-family:"Arial";font-variant:normal;font-style:normal;font-weight:normal;src:url("#FontID0") format(svg)}
	.buttBuy {fill:#8655FF;}
	.fil0 {fill:#BFFF2F; fill-opacity:0.1;}
	.fil3 {fill:#BFFF2F; fill-opacity:0.6;}
	.opa03 {fill-opacity:0.3;}
	.fil1 {fill:#000000; font-family:'Arial'; font-size:7pt; } 
	.fil2 {fill:#A7A9AB; font-family:'Arial'; font-size:6pt;}
	.seatSel {fill:#44FF00; fill-opacity:0.6;}
	.seatOcup {fill:#555555; fill-opacity:0.9;}
	.fnt0 {font-weight:normal;font-size:100px;font-family:'Arial'}
	.fnt1 {font-weight:normal;font-size:215.155px;font-family:'Arial'}
	]]>
</style>
<g>
	<path class="fil3" d="M169.677,429.939l-2.132-1.643l-7.153-12.318c-0.605-1.043-1.935-1.451-3.021-0.93
		l-11.144,5.352c-1.088,0.521-1.598,1.813-1.164,2.938l5.144,13.285l-0.053,2.688c-0.013,0.592,0.278,1.137,0.778,1.459
		c0.498,0.318,1.115,0.357,1.648,0.103l16.791-8.063c0.535-0.258,0.893-0.764,0.953-1.354
		C170.39,430.867,170.146,430.301,169.677,429.939z"/>
	<path class="fil3" d="M191.664,419.128l-2.157-1.604l-7.361-12.197c-0.623-1.03-1.955-1.418-3.033-0.877
		l-11.053,5.537c-1.078,0.541-1.564,1.838-1.111,2.957l5.365,13.195l-0.008,2.688c0,0.593,0.299,1.134,0.803,1.445
		c0.504,0.313,1.123,0.34,1.652,0.074l16.649-8.346c0.531-0.267,0.879-0.777,0.932-1.367
		C192.394,420.046,192.14,419.48,191.664,419.128z"/>
	<path class="fil3" d="M213.437,407.949l-2.185-1.565l-7.565-12.072c-0.642-1.021-1.979-1.385-3.049-0.824
		l-10.957,5.724c-1.068,0.559-1.535,1.864-1.063,2.975l5.588,13.105l0.037,2.688c0.01,0.592,0.315,1.127,0.828,1.433
		c0.51,0.303,1.127,0.319,1.651,0.047l16.511-8.625c0.524-0.273,0.862-0.791,0.903-1.384
		C214.181,408.854,213.919,408.296,213.437,407.949z"/>
	<path class="fil3" d="M234.988,396.411l-2.211-1.531l-7.766-11.941c-0.658-1.012-2.004-1.352-3.063-0.774
		l-10.858,5.907c-1.06,0.576-1.504,1.89-1.015,2.99l5.81,13.01l0.084,2.688c0.02,0.592,0.336,1.123,0.852,1.418
		c0.517,0.295,1.133,0.303,1.652,0.02l16.361-8.899c0.521-0.285,0.852-0.808,0.883-1.398
		C235.748,397.305,235.476,396.747,234.988,396.411z"/>
	<path class="fil3" d="M256.316,384.51l-2.236-1.49l-7.967-11.813c-0.674-1-2.023-1.316-3.074-0.724l-10.758,6.088
		c-1.049,0.595-1.473,1.916-0.963,3.009l6.023,12.909l0.129,2.687c0.028,0.594,0.354,1.117,0.875,1.401
		c0.52,0.287,1.139,0.285,1.653-0.008l16.209-9.174c0.519-0.293,0.838-0.822,0.859-1.414
		C257.089,385.389,256.808,384.84,256.316,384.51z"/>
	<path class="fil3" d="M277.412,372.258l-2.262-1.455l-8.162-11.676c-0.69-0.988-2.047-1.283-3.086-0.673
		l-10.654,6.271c-1.039,0.609-1.44,1.938-0.912,3.023l6.238,12.807l0.176,2.684c0.037,0.593,0.373,1.109,0.896,1.39
		c0.522,0.276,1.143,0.264,1.653-0.037l16.054-9.443c0.512-0.303,0.823-0.836,0.836-1.43
		C278.204,373.124,277.911,372.579,277.412,372.258z"/>
	<path class="fil3" d="M298.281,359.654l-2.283-1.418l-8.356-11.534c-0.709-0.979-2.068-1.25-3.099-0.621
		l-10.549,6.444c-1.029,0.629-1.406,1.966-0.861,3.037l6.453,12.701l0.219,2.682c0.05,0.591,0.394,1.104,0.923,1.373
		c0.528,0.27,1.145,0.244,1.651-0.063l15.894-9.711c0.508-0.312,0.812-0.851,0.813-1.443
		C299.082,360.508,298.784,359.967,298.281,359.654z"/>
	<path class="fil3" d="M318.911,346.708l-2.309-1.379l-8.549-11.396c-0.726-0.965-2.091-1.215-3.107-0.568
		l-10.438,6.621c-1.021,0.646-1.375,1.984-0.812,3.053l6.664,12.593l0.264,2.676c0.058,0.588,0.408,1.098,0.941,1.356
		c0.532,0.26,1.149,0.226,1.651-0.094l15.729-9.975c0.5-0.318,0.795-0.863,0.787-1.455
		C319.728,347.546,319.419,347.01,318.911,346.708z"/>
	<path class="fil3" d="M339.3,333.417l-2.33-1.341l-8.738-11.252c-0.74-0.952-2.107-1.182-3.115-0.518L314.79,327.1
		c-1.008,0.662-1.342,2.01-0.76,3.064l6.873,12.479l0.307,2.672c0.068,0.588,0.43,1.09,0.967,1.342s1.154,0.207,1.648-0.118
		l15.563-10.236c0.496-0.326,0.781-0.875,0.765-1.469C340.132,334.24,339.814,333.712,339.3,333.417z"/>
	<path class="fil3" d="M359.447,319.788l-2.354-1.302l-8.923-11.104c-0.758-0.938-2.129-1.145-3.125-0.465
		l-10.213,6.965c-0.996,0.68-1.309,2.031-0.709,3.078l7.08,12.361l0.353,2.666c0.078,0.588,0.447,1.084,0.988,1.326
		c0.543,0.24,1.157,0.188,1.647-0.147l15.389-10.492c0.488-0.334,0.767-0.89,0.738-1.479
		C360.289,320.598,359.964,320.074,359.447,319.788z"/>
	<path class="fil3" d="M379.345,305.825l-2.375-1.264l-9.105-10.953c-0.771-0.93-2.146-1.108-3.133-0.413
		l-10.096,7.134c-0.984,0.695-1.273,2.052-0.656,3.089l7.283,12.243l0.396,2.659c0.086,0.585,0.465,1.074,1.01,1.309
		c0.548,0.233,1.16,0.168,1.646-0.175l15.213-10.747c0.483-0.344,0.75-0.899,0.715-1.492
		C380.204,306.624,379.868,306.103,379.345,305.825z"/>
	<path class="fil3" d="M398.991,291.534l-2.396-1.224l-9.285-10.803c-0.787-0.914-2.166-1.073-3.139-0.36
		l-9.978,7.3c-0.975,0.712-1.24,2.073-0.604,3.102l7.483,12.119l0.441,2.652c0.098,0.584,0.481,1.066,1.029,1.292
		c0.551,0.224,1.164,0.147,1.645-0.201l15.031-10.998c0.479-0.353,0.733-0.912,0.688-1.504
		C399.863,292.317,399.519,291.804,398.991,291.534z"/>
	<path class="fil3" d="M418.38,276.919l-2.414-1.185l-9.466-10.646c-0.803-0.9-2.184-1.037-3.145-0.31l-9.854,7.464
		c-0.961,0.729-1.205,2.094-0.555,3.108l7.686,11.995l0.482,2.646c0.107,0.582,0.5,1.061,1.055,1.273
		c0.553,0.215,1.164,0.131,1.639-0.229l14.849-11.244c0.473-0.358,0.721-0.925,0.664-1.517
		C419.265,277.686,418.911,277.179,418.38,276.919z"/>
	<path class="fil3" d="M437.511,261.98l-2.437-1.144l-9.639-10.489c-0.816-0.889-2.199-1-3.146-0.257l-9.729,7.626
		c-0.949,0.743-1.17,2.112-0.502,3.117l7.881,11.866l0.529,2.637c0.115,0.581,0.518,1.052,1.074,1.258
		c0.555,0.206,1.166,0.109,1.635-0.256l14.658-11.489c0.467-0.365,0.707-0.937,0.639-1.525
		C438.409,262.734,438.046,262.232,437.511,261.98z"/>
	<path class="fil3" d="M456.375,246.727l-2.45-1.104l-9.813-10.329c-0.83-0.874-2.215-0.964-3.152-0.205
		l-9.602,7.785c-0.937,0.76-1.136,2.132-0.451,3.126l8.076,11.734l0.571,2.627c0.125,0.579,0.535,1.043,1.095,1.238
		c0.561,0.196,1.17,0.093,1.631-0.281l14.469-11.729c0.461-0.374,0.689-0.947,0.613-1.536
		C457.286,247.466,456.916,246.969,456.375,246.727z"/>
	<path class="fil3" d="M474.976,231.158l-2.471-1.063l-9.98-10.167c-0.844-0.858-2.229-0.927-3.152-0.15
		l-9.475,7.94c-0.924,0.774-1.101,2.149-0.398,3.134l8.271,11.602l0.614,2.616c0.136,0.577,0.554,1.034,1.115,1.222
		c0.563,0.188,1.17,0.071,1.625-0.311l14.271-11.968c0.455-0.381,0.674-0.959,0.588-1.546S475.521,231.393,474.976,231.158z"/>
	<path class="fil3" d="M493.302,215.281l-2.486-1.021l-10.146-10c-0.858-0.847-2.246-0.891-3.156-0.102l-9.34,8.098
		c-0.912,0.79-1.063,2.168-0.35,3.14l8.461,11.462l0.656,2.606c0.145,0.575,0.567,1.022,1.135,1.203
		c0.565,0.177,1.172,0.052,1.621-0.337l14.072-12.2c0.446-0.39,0.657-0.97,0.563-1.557
		C494.236,215.991,493.851,215.508,493.302,215.281z"/>
	<path class="fil3" d="M511.355,199.101l-2.504-0.979l-10.312-9.832c-0.873-0.832-2.26-0.854-3.157-0.05
		l-9.205,8.25c-0.898,0.806-1.027,2.187-0.298,3.146l8.648,11.321l0.698,2.596c0.154,0.572,0.586,1.016,1.154,1.185
		s1.172,0.032,1.613-0.362l13.871-12.432c0.441-0.396,0.643-0.979,0.537-1.563C512.298,199.796,511.906,199.316,511.355,199.101z"/>
	<path class="fil3" d="M529.125,182.621l-2.52-0.938l-10.472-9.661c-0.887-0.816-2.271-0.813-3.157,0.004
		l-9.068,8.4c-0.885,0.818-0.992,2.202-0.244,3.147l8.832,11.179l0.744,2.584c0.164,0.567,0.603,1.005,1.174,1.165
		c0.572,0.158,1.173,0.013,1.607-0.393l13.664-12.656c0.436-0.401,0.625-0.989,0.512-1.571
		C530.082,183.299,529.683,182.827,529.125,182.621z"/>
	<path class="fil3" d="M546.638,165.819l-2.533-0.896l-10.629-9.487c-0.898-0.803-2.287-0.776-3.156,0.058
		l-8.93,8.548c-0.871,0.834-0.957,2.219-0.193,3.151l9.019,11.03l0.784,2.571c0.173,0.564,0.619,0.995,1.191,1.146
		c0.574,0.149,1.172-0.006,1.602-0.416l13.455-12.881c0.429-0.41,0.607-1.001,0.482-1.582
		C547.605,166.48,547.197,166.016,546.638,165.819z"/>
	<path class="fil3" d="M563.808,148.781l-2.549-0.854l-10.781-9.312c-0.914-0.788-2.301-0.74-3.158,0.105
		l-8.787,8.694c-0.855,0.848-0.92,2.233-0.141,3.154l9.194,10.881l0.828,2.559c0.182,0.563,0.635,0.984,1.211,1.126
		s1.172-0.023,1.596-0.441l13.238-13.101c0.424-0.418,0.594-1.011,0.459-1.589C564.786,149.427,564.37,148.97,563.808,148.781z"/>
	<path class="fil3" d="M580.687,131.456l-2.563-0.813l-10.934-9.133c-0.929-0.771-2.313-0.703-3.154,0.159
		l-8.646,8.838c-0.844,0.861-0.883,2.248-0.09,3.157l9.375,10.728l0.867,2.545c0.193,0.563,0.652,0.975,1.23,1.105
		c0.58,0.13,1.172-0.044,1.588-0.47l13.021-13.314c0.414-0.424,0.576-1.021,0.435-1.597
		C581.675,132.086,581.25,131.635,580.687,131.456z"/>
	<path class="fil3" d="M597.343,113.771l-2.576-0.771l-11.082-8.953c-0.938-0.757-2.324-0.665-3.15,0.211
		l-8.498,8.979c-0.828,0.876-0.846,2.264-0.037,3.158l9.549,10.572l0.912,2.529c0.199,0.557,0.666,0.963,1.246,1.085
		c0.582,0.121,1.173-0.063,1.58-0.494l12.804-13.526c0.407-0.433,0.561-1.03,0.405-1.604
		C598.341,114.385,597.911,113.941,597.343,113.771z"/>
	<path class="fil3" d="M614.829,97.017c-0.162-0.569-0.602-1.008-1.172-1.167l-2.588-0.729l-11.229-8.771
		c-0.951-0.741-2.332-0.627-3.146,0.263l-8.35,9.117c-0.813,0.89-0.81,2.274,0.016,3.157l9.721,10.415l0.953,2.515
		c0.209,0.555,0.684,0.951,1.266,1.063c0.584,0.111,1.17-0.082,1.57-0.521l12.578-13.735
		C614.851,98.189,614.993,97.588,614.829,97.017z"/>
	<path class="fil3" d="M155.173,397.801c0.057-0.59-0.191-1.154-0.664-1.514l-2.144-1.625l-7.24-12.269
		c-0.614-1.039-1.942-1.438-3.026-0.908l-11.104,5.431c-1.082,0.53-1.584,1.823-1.144,2.944l5.238,13.25l-0.035,2.688
		c-0.006,0.594,0.289,1.137,0.789,1.453c0.502,0.317,1.119,0.354,1.652,0.09l16.732-8.183
		C154.763,398.9,155.116,398.391,155.173,397.801z"/>
	<path class="fil3" d="M157.509,392.462l0.014,2.688c0.004,0.594,0.307,1.131,0.813,1.439
		c0.507,0.308,1.123,0.332,1.652,0.063l16.586-8.473c0.529-0.271,0.873-0.785,0.92-1.377c0.047-0.59-0.211-1.152-0.688-1.502
		l-2.17-1.586l-7.455-12.144c-0.631-1.026-1.969-1.401-3.041-0.854l-11.01,5.623c-1.072,0.547-1.553,1.85-1.09,2.963
		L157.509,392.462z"/>
	<path class="fil3" d="M179.765,384.107c0.014,0.592,0.328,1.125,0.84,1.427c0.512,0.299,1.129,0.313,1.654,0.03
		l16.438-8.76c0.523-0.277,0.857-0.799,0.896-1.391c0.038-0.593-0.23-1.15-0.716-1.49l-2.196-1.551l-7.664-12.009
		c-0.648-1.018-1.992-1.368-3.056-0.803l-10.909,5.814c-1.063,0.565-1.521,1.877-1.039,2.981l5.694,13.06L179.765,384.107z"/>
	<path class="fil3" d="M201.781,372.68c0.023,0.594,0.348,1.119,0.863,1.41c0.515,0.291,1.135,0.293,1.654,0.004
		l16.28-9.043c0.521-0.287,0.847-0.813,0.871-1.406c0.025-0.592-0.25-1.146-0.739-1.479l-2.226-1.511l-7.873-11.875
		c-0.666-1.006-2.014-1.334-3.065-0.748l-10.81,6.002c-1.053,0.586-1.483,1.902-0.983,3l5.92,12.957L201.781,372.68z"/>
	<path class="fil3" d="M223.562,360.874c0.035,0.59,0.365,1.112,0.887,1.395c0.523,0.281,1.143,0.273,1.654-0.022
		l16.125-9.324c0.514-0.297,0.83-0.828,0.846-1.422c0.018-0.593-0.271-1.142-0.766-1.466l-2.25-1.471l-8.076-11.736
		c-0.685-0.993-2.037-1.299-3.082-0.694l-10.701,6.188c-1.043,0.604-1.451,1.931-0.934,3.019l6.143,12.854L223.562,360.874z"/>
	<path class="fil3" d="M245.107,348.686c0.045,0.592,0.387,1.107,0.912,1.381c0.527,0.271,1.145,0.254,1.652-0.053
		l15.961-9.602c0.51-0.308,0.813-0.845,0.822-1.438c0.004-0.592-0.291-1.135-0.793-1.449l-2.275-1.434l-8.275-11.596
		c-0.7-0.982-2.061-1.265-3.094-0.644l-10.592,6.371c-1.033,0.623-1.422,1.953-0.883,3.033l6.365,12.746L245.107,348.686z"/>
	<path class="fil3" d="M266.411,336.13c0.055,0.59,0.402,1.102,0.935,1.365c0.532,0.262,1.149,0.231,1.653-0.082
		l15.791-9.875c0.504-0.314,0.802-0.855,0.798-1.449s-0.312-1.131-0.816-1.438l-2.299-1.395l-8.478-11.45
		c-0.719-0.97-2.08-1.229-3.104-0.589l-10.48,6.555c-1.022,0.641-1.387,1.979-0.83,3.048l6.584,12.633L266.411,336.13z"/>
	<path class="fil3" d="M287.468,323.204c0.063,0.59,0.424,1.094,0.959,1.348c0.537,0.254,1.153,0.213,1.649-0.107
		l15.619-10.146c0.498-0.323,0.787-0.87,0.772-1.463c-0.018-0.594-0.33-1.126-0.842-1.424l-2.322-1.354l-8.672-11.303
		c-0.734-0.957-2.104-1.19-3.113-0.535l-10.367,6.733c-1.012,0.656-1.352,2.001-0.776,3.061l6.801,12.52L287.468,323.204z"/>
	<path class="fil3" d="M308.277,309.915c0.074,0.588,0.441,1.086,0.982,1.331c0.541,0.244,1.155,0.19,1.647-0.14
		l15.44-10.412c0.492-0.331,0.771-0.884,0.746-1.477c-0.022-0.593-0.35-1.12-0.862-1.409l-2.349-1.313l-8.862-11.152
		c-0.752-0.943-2.121-1.155-3.121-0.479l-10.25,6.909c-1,0.675-1.318,2.023-0.726,3.073l7.014,12.4L308.277,309.915z"/>
	<path class="fil3" d="M328.83,296.266c0.084,0.586,0.461,1.078,1.004,1.313c0.545,0.234,1.158,0.174,1.646-0.166
		l15.262-10.677c0.486-0.341,0.754-0.896,0.723-1.487c-0.034-0.594-0.368-1.113-0.893-1.396l-2.367-1.271l-9.055-10.998
		c-0.767-0.933-2.142-1.119-3.129-0.43l-10.129,7.085c-0.988,0.69-1.283,2.047-0.673,3.087l7.228,12.276L328.83,296.266z"/>
	<path class="fil3" d="M349.123,282.263c0.097,0.585,0.479,1.07,1.027,1.298c0.549,0.228,1.162,0.152,1.646-0.194
		l15.075-10.937c0.479-0.349,0.738-0.908,0.693-1.501c-0.045-0.591-0.387-1.105-0.912-1.378l-2.389-1.232l-9.242-10.842
		c-0.783-0.918-2.16-1.081-3.137-0.373l-10.007,7.257c-0.979,0.708-1.248,2.067-0.618,3.099l7.436,12.15L349.123,282.263z"/>
	<path class="fil3" d="M369.157,267.909c0.104,0.582,0.498,1.063,1.049,1.277c0.553,0.217,1.164,0.135,1.642-0.223
		l14.887-11.191c0.478-0.354,0.726-0.922,0.67-1.513c-0.055-0.59-0.404-1.101-0.938-1.362l-2.407-1.188l-9.429-10.685
		c-0.797-0.902-2.178-1.045-3.143-0.318l-9.881,7.427c-0.965,0.725-1.211,2.09-0.564,3.106l7.644,12.022L369.157,267.909z"/>
	<path class="fil3" d="M388.921,253.211c0.112,0.581,0.514,1.053,1.069,1.26c0.558,0.208,1.166,0.114,1.636-0.25
		l14.694-11.443c0.468-0.363,0.707-0.935,0.646-1.522c-0.066-0.589-0.426-1.094-0.961-1.348l-2.43-1.148l-9.607-10.521
		c-0.813-0.891-2.195-1.007-3.146-0.267l-9.752,7.596c-0.95,0.74-1.176,2.108-0.512,3.115l7.844,11.892L388.921,253.211z"/>
	<path class="fil3" d="M408.412,238.17c0.123,0.579,0.531,1.044,1.093,1.241c0.559,0.197,1.168,0.095,1.631-0.277
		l14.496-11.692c0.463-0.373,0.693-0.944,0.617-1.535c-0.074-0.588-0.441-1.085-0.982-1.329l-2.447-1.107l-9.785-10.354
		c-0.827-0.876-2.213-0.971-3.149-0.213l-9.623,7.762c-0.938,0.758-1.139,2.13-0.459,3.125l8.049,11.756L408.412,238.17z"/>
	<path class="fil3" d="M427.628,222.792c0.135,0.576,0.551,1.034,1.11,1.224c0.563,0.188,1.17,0.073,1.627-0.307
		l14.295-11.938c0.457-0.381,0.679-0.959,0.595-1.546c-0.086-0.587-0.463-1.077-1.009-1.313l-2.469-1.064l-9.959-10.188
		c-0.844-0.861-2.229-0.933-3.154-0.158l-9.485,7.923c-0.927,0.772-1.105,2.147-0.406,3.133l8.246,11.616L427.628,222.792z"/>
	<path class="fil3" d="M446.562,207.083c0.146,0.573,0.568,1.023,1.135,1.203c0.564,0.179,1.17,0.055,1.619-0.334
		l14.092-12.182c0.447-0.388,0.658-0.969,0.564-1.555c-0.097-0.585-0.479-1.07-1.025-1.295l-2.486-1.025l-10.133-10.015
		c-0.857-0.848-2.244-0.895-3.156-0.104l-9.352,8.084c-0.914,0.787-1.068,2.166-0.354,3.14l8.443,11.475L446.562,207.083z"/>
	<path class="fil3" d="M465.212,191.044c0.151,0.572,0.586,1.016,1.151,1.185c0.568,0.17,1.173,0.034,1.613-0.358
		l13.883-12.419c0.441-0.396,0.646-0.979,0.539-1.563c-0.105-0.584-0.498-1.063-1.051-1.277l-2.502-0.98l-10.301-9.842
		c-0.873-0.832-2.259-0.855-3.158-0.053l-9.213,8.241c-0.897,0.806-1.031,2.187-0.299,3.146l8.637,11.328L465.212,191.044z"/>
	<path class="fil3" d="M483.572,174.682c0.162,0.569,0.604,1.005,1.174,1.165c0.57,0.159,1.174,0.016,1.607-0.389
		l13.668-12.652c0.438-0.401,0.627-0.991,0.512-1.571c-0.113-0.582-0.516-1.055-1.068-1.262l-2.521-0.938l-10.468-9.664
		c-0.885-0.818-2.272-0.817-3.157,0.002l-9.07,8.396c-0.887,0.819-0.992,2.202-0.246,3.149l8.828,11.181L483.572,174.682z"/>
	<path class="fil3" d="M501.664,157.973c0.175,0.565,0.619,0.994,1.191,1.146c0.573,0.148,1.174-0.006,1.604-0.416
		l13.451-12.883c0.43-0.411,0.608-1.001,0.483-1.582c-0.125-0.578-0.534-1.044-1.092-1.24l-2.535-0.896l-10.629-9.485
		c-0.899-0.804-2.287-0.777-3.157,0.057l-8.929,8.551c-0.871,0.834-0.955,2.219-0.192,3.152l9.02,11.028L501.664,157.973z"/>
	<path class="fil3" d="M519.4,141.012c0.184,0.563,0.637,0.983,1.213,1.124s1.172-0.024,1.594-0.442l13.23-13.107
		c0.422-0.419,0.592-1.014,0.457-1.591s-0.551-1.034-1.111-1.223l-2.551-0.854l-10.787-9.306c-0.914-0.786-2.301-0.738-3.158,0.108
		l-8.779,8.701c-0.856,0.849-0.918,2.232-0.141,3.154l9.205,10.875L519.4,141.012z"/>
	<path class="fil3" d="M536.83,123.739c0.189,0.561,0.652,0.974,1.229,1.104c0.58,0.13,1.174-0.045,1.588-0.47
		l13.006-13.332c0.416-0.425,0.574-1.021,0.432-1.598c-0.146-0.574-0.568-1.025-1.135-1.204l-2.563-0.811l-10.945-9.117
		c-0.928-0.771-2.313-0.701-3.154,0.16l-8.633,8.852c-0.842,0.861-0.879,2.248-0.084,3.156l9.387,10.717L536.83,123.739z"/>
	<path class="fil3" d="M555.277,107.172c0.58,0.12,1.17-0.064,1.578-0.497l12.777-13.551
		c0.405-0.434,0.559-1.031,0.403-1.604c-0.153-0.571-0.588-1.016-1.153-1.184l-2.576-0.767l-11.101-8.934
		c-0.938-0.756-2.323-0.661-3.149,0.216l-8.48,8.994c-0.826,0.877-0.842,2.266-0.031,3.158l9.566,10.556l0.916,2.527
		C554.228,106.645,554.695,107.051,555.277,107.172z"/>
	<path class="fil3" d="M569.912,85.665l0.959,2.512c0.211,0.554,0.687,0.95,1.269,1.063
		c0.584,0.108,1.17-0.085,1.57-0.523l12.545-13.766c0.399-0.439,0.541-1.041,0.377-1.611s-0.604-1.005-1.175-1.164l-2.59-0.722
		l-11.25-8.743c-0.951-0.74-2.334-0.621-3.146,0.271l-8.326,9.139c-0.813,0.891-0.803,2.276,0.022,3.156L569.912,85.665z"/>
	<path class="fil3" d="M120.677,373.734c0.502,0.316,1.118,0.353,1.649,0.09l16.729-8.188
		c0.532-0.26,0.887-0.771,0.94-1.359c0.06-0.59-0.188-1.156-0.662-1.514l-2.144-1.625l-7.248-12.266
		c-0.614-1.037-1.942-1.437-3.024-0.904l-11.104,5.436c-1.082,0.529-1.584,1.824-1.139,2.945l5.24,13.246l-0.029,2.688
		C119.88,372.876,120.175,373.419,120.677,373.734z"/>
	<path class="fil3" d="M142.702,361.449c0.004,0.593,0.307,1.132,0.813,1.438c0.508,0.309,1.125,0.33,1.653,0.061
		l16.576-8.489c0.527-0.271,0.871-0.785,0.918-1.377c0.047-0.591-0.213-1.152-0.688-1.503l-2.173-1.584l-7.469-12.133
		c-0.633-1.026-1.969-1.399-3.041-0.852l-11.004,5.637c-1.072,0.549-1.551,1.853-1.086,2.965l5.48,13.148L142.702,361.449z"/>
	<path class="fil3" d="M165.212,347.516l0.063,2.688c0.014,0.592,0.328,1.125,0.842,1.424
		c0.513,0.299,1.129,0.311,1.652,0.03l16.424-8.788c0.521-0.279,0.854-0.802,0.894-1.396c0.035-0.592-0.232-1.146-0.719-1.486
		l-2.199-1.547l-7.687-11.994c-0.649-1.018-1.991-1.364-3.059-0.797l-10.896,5.832c-1.063,0.568-1.52,1.879-1.032,2.984
		L165.212,347.516z"/>
	<path class="fil3" d="M187.613,338.551c0.023,0.594,0.35,1.119,0.865,1.408c0.52,0.289,1.137,0.291,1.654,0
		l16.262-9.08c0.52-0.289,0.842-0.814,0.867-1.41c0.022-0.592-0.254-1.144-0.744-1.475l-2.228-1.507l-7.899-11.855
		c-0.67-1.004-2.019-1.329-3.07-0.74l-10.791,6.026c-1.053,0.588-1.484,1.908-0.979,3.004l5.948,12.942L187.613,338.551z"/>
	<path class="fil3" d="M209.702,326.497c0.033,0.592,0.367,1.11,0.892,1.393c0.522,0.279,1.143,0.27,1.653-0.029
		l16.097-9.372c0.514-0.299,0.827-0.831,0.842-1.424c0.017-0.594-0.272-1.141-0.771-1.464l-2.256-1.465l-8.108-11.712
		c-0.688-0.991-2.041-1.293-3.084-0.688l-10.683,6.222c-1.043,0.604-1.448,1.933-0.926,3.02l6.182,12.835L209.702,326.497z"/>
	<path class="fil3" d="M231.537,314.042c0.048,0.592,0.39,1.105,0.918,1.376c0.527,0.271,1.146,0.249,1.652-0.06
		l15.926-9.658c0.509-0.309,0.812-0.845,0.814-1.438c0.004-0.593-0.295-1.136-0.798-1.448l-2.278-1.424l-8.318-11.565
		c-0.705-0.979-2.063-1.256-3.096-0.63l-10.57,6.41c-1.029,0.625-1.412,1.958-0.871,3.036l6.412,12.722L231.537,314.042z"/>
	<path class="fil3" d="M253.12,301.195c0.057,0.589,0.408,1.099,0.939,1.357c0.533,0.263,1.149,0.229,1.652-0.088
		l15.75-9.94c0.502-0.316,0.797-0.859,0.791-1.453c-0.007-0.594-0.314-1.131-0.822-1.436l-2.305-1.384l-8.525-11.414
		c-0.723-0.966-2.086-1.22-3.105-0.574l-10.45,6.599c-1.021,0.645-1.382,1.981-0.816,3.052l6.638,12.604L253.12,301.195z"/>
	<path class="fil3" d="M274.441,287.961c0.068,0.588,0.43,1.09,0.967,1.342s1.152,0.208,1.648-0.118l15.57-10.221
		c0.496-0.326,0.78-0.874,0.766-1.467c-0.02-0.595-0.336-1.124-0.85-1.42l-2.33-1.344l-8.728-11.261
		c-0.738-0.952-2.106-1.181-3.115-0.519l-10.334,6.781c-1.008,0.661-1.344,2.01-0.762,3.065l6.861,12.485L274.441,287.961z"/>
	<path class="fil3" d="M295.495,274.341c0.078,0.587,0.447,1.083,0.988,1.325c0.543,0.241,1.158,0.188,1.648-0.146
		l15.385-10.496c0.49-0.336,0.768-0.89,0.738-1.48c-0.03-0.591-0.355-1.117-0.873-1.403l-2.355-1.301l-8.926-11.104
		c-0.756-0.938-2.127-1.145-3.125-0.464l-10.211,6.967c-0.996,0.681-1.305,2.031-0.707,3.079l7.084,12.358L295.495,274.341z"/>
	<path class="fil3" d="M316.279,260.343c0.088,0.586,0.469,1.075,1.014,1.31c0.547,0.23,1.16,0.166,1.646-0.179
		l15.196-10.769c0.482-0.345,0.75-0.901,0.711-1.493s-0.375-1.11-0.897-1.391l-2.375-1.258l-9.123-10.94
		c-0.771-0.928-2.147-1.105-3.131-0.408l-10.086,7.146c-0.982,0.696-1.271,2.056-0.652,3.092l7.301,12.231L316.279,260.343z"/>
	<path class="fil3" d="M336.786,245.971c0.101,0.584,0.484,1.067,1.033,1.29c0.553,0.223,1.164,0.146,1.645-0.206
		l15.002-11.038c0.478-0.352,0.732-0.913,0.685-1.506c-0.049-0.591-0.394-1.104-0.922-1.372l-2.396-1.216l-9.315-10.777
		c-0.789-0.912-2.166-1.065-3.139-0.353l-9.955,7.324c-0.974,0.716-1.234,2.076-0.601,3.103l7.521,12.101L336.786,245.971z"/>
	<path class="fil3" d="M357.013,231.23c0.108,0.582,0.504,1.06,1.059,1.271c0.556,0.212,1.166,0.126,1.639-0.235
		l14.804-11.302c0.473-0.359,0.717-0.927,0.657-1.52c-0.061-0.591-0.414-1.098-0.946-1.354l-2.418-1.173l-9.507-10.611
		c-0.805-0.896-2.186-1.028-3.145-0.297l-9.826,7.501c-0.957,0.731-1.195,2.099-0.541,3.112l7.73,11.965L357.013,231.23z"/>
	<path class="fil3" d="M376.954,216.127c0.117,0.58,0.521,1.048,1.08,1.251c0.557,0.203,1.168,0.104,1.633-0.265
		l14.601-11.563c0.467-0.369,0.701-0.938,0.633-1.529c-0.069-0.589-0.434-1.09-0.973-1.338l-2.438-1.131l-9.69-10.438
		c-0.82-0.886-2.205-0.989-3.147-0.24l-9.691,7.674c-0.943,0.749-1.158,2.119-0.486,3.121l7.943,11.826L376.954,216.127z"/>
	<path class="fil3" d="M396.603,200.661c0.129,0.578,0.541,1.039,1.104,1.232c0.563,0.191,1.17,0.084,1.627-0.293
		l14.396-11.82c0.459-0.377,0.686-0.952,0.604-1.54c-0.08-0.588-0.452-1.082-0.993-1.32l-2.459-1.087l-9.875-10.268
		c-0.838-0.869-2.222-0.95-3.152-0.187l-9.555,7.846c-0.933,0.766-1.121,2.14-0.433,3.13l8.15,11.684L396.603,200.661z"/>
	<path class="fil3" d="M415.955,184.844c0.14,0.575,0.56,1.028,1.123,1.212c0.564,0.184,1.173,0.063,1.623-0.321
		l14.183-12.073c0.452-0.385,0.668-0.964,0.577-1.551c-0.092-0.586-0.473-1.072-1.02-1.304l-2.479-1.042l-10.057-10.091
		c-0.852-0.854-2.236-0.911-3.154-0.129l-9.412,8.012c-0.918,0.782-1.084,2.159-0.377,3.138l8.355,11.537L415.955,184.844z"/>
	<path class="fil3" d="M435.009,168.675c0.147,0.573,0.577,1.02,1.145,1.191c0.568,0.174,1.174,0.042,1.617-0.352
		l13.967-12.322c0.443-0.394,0.648-0.977,0.549-1.562c-0.102-0.584-0.49-1.063-1.039-1.284l-2.498-0.999l-10.231-9.911
		c-0.865-0.839-2.254-0.871-3.156-0.073l-9.271,8.181c-0.903,0.797-1.045,2.177-0.319,3.142l8.561,11.39L435.009,168.675z"/>
	<path class="fil3" d="M453.755,152.159c0.159,0.57,0.596,1.011,1.166,1.174c0.571,0.163,1.172,0.021,1.608-0.381
		l13.746-12.566c0.438-0.4,0.635-0.987,0.521-1.569c-0.11-0.584-0.51-1.057-1.063-1.267l-2.514-0.955l-10.406-9.729
		c-0.883-0.822-2.269-0.831-3.156-0.019l-9.123,8.341c-0.893,0.814-1.01,2.196-0.268,3.148l8.76,11.232L453.755,152.159z"/>
	<path class="fil3" d="M472.226,135.27c0.17,0.568,0.613,0.998,1.188,1.152c0.572,0.15,1.174,0,1.604-0.408
		l13.521-12.81c0.432-0.407,0.613-0.997,0.492-1.578s-0.525-1.047-1.086-1.247l-2.529-0.91l-10.576-9.543
		c-0.896-0.809-2.282-0.791-3.157,0.038l-8.976,8.502c-0.875,0.829-0.969,2.213-0.209,3.149l8.957,11.078L472.226,135.27z"/>
	<path class="fil3" d="M490.312,118.116c0.18,0.563,0.631,0.985,1.205,1.131c0.576,0.143,1.174-0.021,1.598-0.438
		l13.293-13.046c0.424-0.416,0.598-1.009,0.467-1.588c-0.135-0.578-0.549-1.037-1.108-1.228l-2.545-0.864l-10.744-9.354
		c-0.91-0.792-2.297-0.75-3.156,0.096l-8.821,8.659c-0.861,0.844-0.929,2.229-0.154,3.152l9.152,10.918L490.312,118.116z"/>
	<path class="fil3" d="M506.634,75.36l-8.666,8.813c-0.849,0.857-0.892,2.246-0.101,3.157l9.344,10.754l0.863,2.546
		c0.188,0.562,0.647,0.977,1.228,1.107c0.58,0.133,1.172-0.041,1.588-0.464l13.061-13.278c0.416-0.425,0.578-1.021,0.438-1.598
		c-0.143-0.575-0.563-1.025-1.127-1.208l-2.563-0.818L509.79,75.21C508.866,74.435,507.48,74.502,506.634,75.36z"/>
	<path class="fil3" d="M525.584,82.751c0.199,0.558,0.666,0.964,1.246,1.087c0.58,0.122,1.17-0.063,1.578-0.492
		l12.822-13.509c0.407-0.432,0.563-1.029,0.407-1.604c-0.149-0.572-0.582-1.019-1.147-1.188l-2.574-0.772l-11.069-8.971
		c-0.937-0.759-2.318-0.668-3.15,0.206l-8.512,8.966c-0.83,0.875-0.848,2.264-0.041,3.159l9.533,10.587L525.584,82.751z"/>
	<path class="fil3" d="M541.775,62.069l0.953,2.515c0.209,0.555,0.682,0.953,1.266,1.063
		c0.582,0.11,1.17-0.081,1.568-0.521l12.582-13.733c0.402-0.438,0.543-1.039,0.383-1.609c-0.164-0.569-0.602-1.007-1.174-1.167
		l-2.586-0.729l-11.227-8.771c-0.951-0.741-2.334-0.627-3.148,0.263l-8.35,9.115c-0.814,0.89-0.81,2.275,0.014,3.158L541.775,62.069
		z"/>
	<path class="fil3" d="M105.495,340.202c0.502,0.315,1.117,0.352,1.65,0.09l16.729-8.189
		c0.533-0.262,0.887-0.77,0.941-1.359c0.059-0.59-0.189-1.157-0.662-1.516l-2.146-1.623l-7.246-12.266
		c-0.614-1.038-1.942-1.437-3.026-0.904l-11.103,5.437c-1.082,0.53-1.584,1.823-1.144,2.944l5.244,13.246l-0.031,2.689
		C104.7,339.34,104.995,339.885,105.495,340.202z"/>
	<path class="fil3" d="M127.9,327.715c0.004,0.592,0.311,1.131,0.816,1.438s1.125,0.33,1.651,0.06l16.57-8.504
		c0.529-0.271,0.871-0.785,0.918-1.377c0.045-0.593-0.215-1.153-0.69-1.501l-2.175-1.583l-7.479-12.126
		c-0.634-1.027-1.97-1.399-3.041-0.851l-10.998,5.646c-1.074,0.55-1.55,1.854-1.086,2.966l5.491,13.146L127.9,327.715z"/>
	<path class="fil3" d="M150.841,316.243c0.016,0.593,0.332,1.125,0.844,1.423c0.514,0.298,1.131,0.309,1.654,0.026
		l16.407-8.813c0.521-0.281,0.854-0.803,0.892-1.395c0.035-0.594-0.232-1.148-0.721-1.488l-2.201-1.541l-7.703-11.984
		c-0.652-1.015-1.996-1.36-3.059-0.792l-10.892,5.85c-1.063,0.57-1.514,1.884-1.027,2.986l5.734,13.039L150.841,316.243z"/>
	<path class="fil3" d="M173.407,301.652l0.121,2.687c0.023,0.592,0.35,1.117,0.867,1.406
		c0.52,0.287,1.139,0.286,1.654-0.005l16.239-9.117c0.521-0.291,0.841-0.817,0.865-1.411c0.022-0.592-0.258-1.145-0.748-1.475
		l-2.231-1.501l-7.927-11.837c-0.67-1.002-2.02-1.325-3.071-0.733l-10.777,6.053c-1.053,0.59-1.479,1.909-0.973,3.005
		L173.407,301.652z"/>
	<path class="fil3" d="M195.95,292.006c0.037,0.592,0.371,1.11,0.896,1.391c0.524,0.277,1.143,0.267,1.653-0.034
		l16.066-9.421c0.514-0.3,0.824-0.832,0.838-1.428c0.014-0.592-0.277-1.139-0.775-1.46l-2.258-1.458l-8.146-11.688
		c-0.688-0.988-2.045-1.285-3.084-0.676l-10.664,6.252c-1.041,0.608-1.441,1.938-0.916,3.021l6.221,12.815L195.95,292.006z"/>
	<path class="fil3" d="M218.103,279.251c0.047,0.591,0.395,1.104,0.92,1.372c0.529,0.27,1.147,0.245,1.654-0.064
		l15.889-9.719c0.506-0.311,0.811-0.85,0.813-1.441c0-0.593-0.301-1.134-0.803-1.444l-2.285-1.416l-8.363-11.533
		c-0.707-0.977-2.067-1.248-3.096-0.618l-10.545,6.449c-1.029,0.629-1.408,1.965-0.861,3.039l6.459,12.697L218.103,279.251z"/>
	<path class="fil3" d="M239.982,266.079c0.061,0.589,0.414,1.096,0.947,1.354c0.535,0.26,1.149,0.224,1.652-0.096
		l15.705-10.013c0.5-0.318,0.793-0.862,0.782-1.456c-0.012-0.595-0.319-1.13-0.83-1.432l-2.311-1.373l-8.576-11.377
		c-0.728-0.963-2.092-1.209-3.106-0.561l-10.425,6.645c-1.018,0.648-1.368,1.989-0.803,3.058l6.693,12.573L239.982,266.079z"/>
	<path class="fil3" d="M261.582,252.493c0.07,0.589,0.435,1.09,0.972,1.339c0.539,0.249,1.155,0.202,1.649-0.127
		l15.517-10.303c0.493-0.328,0.776-0.878,0.758-1.472c-0.021-0.594-0.342-1.121-0.855-1.415l-2.336-1.329l-8.785-11.215
		c-0.743-0.949-2.112-1.17-3.118-0.503l-10.298,6.837c-1.004,0.667-1.332,2.016-0.746,3.068l6.927,12.448L261.582,252.493z"/>
	<path class="fil3" d="M282.898,238.504c0.082,0.587,0.455,1.08,0.998,1.319c0.543,0.237,1.158,0.181,1.646-0.157
		l15.321-10.589c0.486-0.337,0.761-0.893,0.729-1.483c-0.033-0.592-0.361-1.115-0.881-1.398l-2.361-1.286l-8.992-11.05
		c-0.762-0.937-2.135-1.131-3.127-0.444l-10.17,7.026c-0.99,0.687-1.295,2.039-0.688,3.082l7.155,12.317L282.898,238.504z"/>
	<path class="fil3" d="M303.923,224.112c0.092,0.585,0.475,1.07,1.021,1.302c0.549,0.228,1.162,0.158,1.646-0.188
		l15.123-10.87c0.479-0.346,0.743-0.903,0.7-1.496c-0.043-0.594-0.383-1.108-0.907-1.384l-2.384-1.241l-9.194-10.883
		c-0.779-0.921-2.156-1.091-3.136-0.387l-10.037,7.215c-0.979,0.703-1.258,2.063-0.633,3.096l7.383,12.185L303.923,224.112z"/>
	<path class="fil3" d="M324.654,209.327c0.104,0.582,0.492,1.063,1.043,1.279c0.555,0.221,1.166,0.14,1.643-0.219
		l14.92-11.146c0.478-0.354,0.728-0.92,0.675-1.512c-0.056-0.591-0.402-1.102-0.935-1.364l-2.406-1.197l-9.396-10.709
		c-0.795-0.906-2.176-1.052-3.142-0.329l-9.901,7.398c-0.968,0.723-1.22,2.085-0.572,3.104l7.604,12.044L324.654,209.327z"/>
	<path class="fil3" d="M345.08,194.148c0.111,0.582,0.515,1.056,1.066,1.265c0.557,0.207,1.168,0.114,1.637-0.248
		l14.711-11.424c0.471-0.362,0.711-0.934,0.646-1.521c-0.065-0.589-0.424-1.094-0.959-1.349l-2.428-1.152l-9.594-10.533
		c-0.811-0.892-2.191-1.011-3.145-0.271l-9.765,7.581c-0.952,0.739-1.182,2.106-0.52,3.114l7.827,11.902L345.08,194.148z"/>
	<path class="fil3" d="M365.204,178.588c0.123,0.579,0.531,1.045,1.09,1.242c0.562,0.197,1.17,0.095,1.632-0.277
		l14.498-11.691c0.463-0.373,0.69-0.945,0.618-1.534c-0.075-0.589-0.442-1.086-0.983-1.329l-2.447-1.108l-9.784-10.354
		c-0.828-0.877-2.213-0.971-3.15-0.215l-9.623,7.761c-0.938,0.757-1.141,2.13-0.459,3.125l8.049,11.756L365.204,178.588z"/>
	<path class="fil3" d="M385.011,162.646c0.135,0.577,0.551,1.034,1.112,1.224c0.563,0.188,1.17,0.071,1.625-0.311
		l14.281-11.957c0.455-0.381,0.674-0.959,0.588-1.546s-0.463-1.077-1.006-1.312l-2.472-1.063l-9.973-10.173
		c-0.846-0.86-2.229-0.93-3.154-0.153l-9.477,7.936c-0.928,0.774-1.104,2.149-0.402,3.134l8.262,11.604L385.011,162.646z"/>
	<path class="fil3" d="M404.5,146.333c0.146,0.572,0.572,1.021,1.138,1.199c0.565,0.179,1.172,0.053,1.618-0.338
		l14.058-12.22c0.448-0.389,0.657-0.971,0.563-1.556s-0.482-1.069-1.031-1.293l-2.488-1.019l-10.157-9.985
		c-0.861-0.847-2.246-0.89-3.156-0.1l-9.33,8.11c-0.91,0.791-1.063,2.169-0.344,3.139l8.475,11.451L404.5,146.333z"/>
	<path class="fil3" d="M423.669,129.648c0.155,0.571,0.59,1.015,1.157,1.182c0.568,0.166,1.173,0.027,1.613-0.369
		l13.828-12.476c0.44-0.397,0.641-0.982,0.532-1.566c-0.106-0.583-0.502-1.06-1.057-1.272l-2.506-0.972l-10.342-9.798
		c-0.877-0.829-2.264-0.847-3.158-0.039l-9.18,8.28c-0.896,0.808-1.021,2.188-0.285,3.146l8.684,11.293L423.669,129.648z"/>
	<path class="fil3" d="M442.548,112.56c0.166,0.568,0.606,1.001,1.18,1.158c0.572,0.156,1.172,0.008,1.606-0.397
		l13.597-12.729c0.434-0.406,0.621-0.994,0.504-1.576c-0.119-0.581-0.521-1.05-1.078-1.254l-2.523-0.925l-10.521-9.606
		c-0.892-0.813-2.277-0.804-3.156,0.021l-9.022,8.446c-0.882,0.823-0.982,2.207-0.23,3.149l8.893,11.131L442.548,112.56z"/>
	<path class="fil3" d="M461.017,95.191c0.176,0.565,0.625,0.99,1.201,1.138c0.573,0.146,1.172-0.015,1.598-0.429
		l13.361-12.977c0.426-0.414,0.602-1.007,0.473-1.585c-0.129-0.579-0.541-1.04-1.101-1.234l-2.541-0.878l-10.694-9.41
		c-0.906-0.797-2.293-0.763-3.158,0.077l-8.865,8.613c-0.865,0.84-0.941,2.225-0.17,3.153l9.094,10.965L461.017,95.191z"/>
	<path class="fil3" d="M477.818,52.194l-8.707,8.773c-0.85,0.854-0.896,2.242-0.109,3.157l9.295,10.796l0.851,2.55
		c0.188,0.563,0.646,0.979,1.221,1.114c0.578,0.135,1.175-0.035,1.593-0.457l13.118-13.221c0.418-0.422,0.584-1.019,0.445-1.595
		c-0.142-0.576-0.562-1.029-1.125-1.214l-2.557-0.831l-10.867-9.212C480.054,51.278,478.666,51.34,477.818,52.194z"/>
	<path class="fil3" d="M511.962,43.687l-2.572-0.783l-11.035-9.011c-0.934-0.764-2.316-0.679-3.15,0.193
		l-8.545,8.934c-0.832,0.872-0.856,2.259-0.055,3.158l9.492,10.623l0.898,2.533c0.196,0.56,0.662,0.968,1.241,1.093
		c0.58,0.124,1.17-0.059,1.58-0.485l12.875-13.461c0.408-0.429,0.564-1.025,0.414-1.603
		C512.957,44.306,512.529,43.859,511.962,43.687z"/>
	<path class="fil3" d="M513.519,38.373l0.943,2.517c0.209,0.555,0.682,0.954,1.264,1.068
		c0.582,0.111,1.17-0.079,1.57-0.517l12.625-13.693c0.399-0.438,0.545-1.037,0.387-1.609c-0.162-0.57-0.601-1.009-1.168-1.171
		l-2.586-0.736l-11.199-8.806c-0.947-0.745-2.332-0.635-3.148,0.252l-8.377,9.089c-0.817,0.889-0.815,2.274,0.004,3.159
		L513.519,38.373z"/>
</g>
<text transform="matrix(0.9121 -0.41 0.41 0.9121 91.2966 337.9668)" class="fil2">5</text>
<text transform="matrix(0.9121 -0.41 0.41 0.9121 106.2771 371.292)" class="fil2">6</text>
<text transform="matrix(0.9121 -0.41 0.41 0.9121 121.2576 404.6172)" class="fil2">7</text>
<text transform="matrix(0.9121 -0.41 0.41 0.9121 136.238 437.9434)" class="fil2">8</text>
<text transform="matrix(0.6398 -0.7686 0.7686 0.6398 532.094 13.9058)" class="fil2">5</text>
<text transform="matrix(0.6398 -0.7686 0.7686 0.6398 560.175 37.2832)" class="fil2">6</text>
<text transform="matrix(0.6398 -0.7686 0.7686 0.6398 588.2561 60.6592)" class="fil2">7</text>
<text transform="matrix(0.6398 -0.7686 0.7686 0.6398 616.3372 84.0352)" class="fil2">8</text>
<text transform="matrix(1 0 0 1 512.8958 31.8877)" class="fil1">1</text>
<text transform="matrix(1 0 0 1 540.925 55.5977)" class="fil1">1</text>
<text transform="matrix(1 0 0 1 569.2258 79.2588)" class="fil1">1</text>
<text transform="matrix(1 0 0 1 597.3157 103.0059)" class="fil1">1</text>
<text transform="matrix(1 0 0 1 495.843 49.9131)" class="fil1">2</text>
<text transform="matrix(1 0 0 1 523.9954 73.4258)" class="fil1">2</text>
<text transform="matrix(1 0 0 1 552.5286 96.8535)" class="fil1">2</text>
<text transform="matrix(1 0 0 1 580.9758 120.2314)" class="fil1">2</text>
<text transform="matrix(1 0 0 1 478.5188 68.2959)" class="fil1">3</text>
<text transform="matrix(1 0 0 1 507.4836 91.4639)" class="fil1">3</text>
<text transform="matrix(1 0 0 1 536.1145 114.7188)" class="fil1">3</text>
<text transform="matrix(1 0 0 1 564.6477 137.8262)" class="fil1">3</text>
<text transform="matrix(1 0 0 1 460.1477 85.8047)" class="fil1">4</text>
<text transform="matrix(1 0 0 1 489.2844 108.7266)" class="fil1">4</text>
<text transform="matrix(1 0 0 1 518.0637 131.2188)" class="fil1">4</text>
<text transform="matrix(1 0 0 1 547.1379 154.4375)" class="fil1">4</text>
<text transform="matrix(1 0 0 1 442.22 103.6826)" class="fil1">5</text>
<text transform="matrix(1 0 0 1 471.6653 126.4209)" class="fil1">5</text>
<text transform="matrix(1 0 0 1 501.1204 148.8262)" class="fil1">5</text>
<text transform="matrix(1 0 0 1 530.2571 171.8848)" class="fil1">5</text>
<text transform="matrix(1 0 0 1 423.4934 120.4658)" class="fil1">6</text>
<text transform="matrix(1 0 0 1 453.3567 143.0439)" class="fil1">6</text>
<text transform="matrix(1 0 0 1 483.095 165.3389)" class="fil1">6</text>
<text transform="matrix(1 0 0 1 512.7356 188.4707)" class="fil1">6</text>
<text transform="matrix(1 0 0 1 404.6184 137.9863)" class="fil1">7</text>
<text transform="matrix(1 0 0 1 435.134 160.3057)" class="fil1">7</text>
<text transform="matrix(1 0 0 1 465.2668 182.2939)" class="fil1">7</text>
<text transform="matrix(1 0 0 1 495.0559 205.0322)" class="fil1">7</text>
<text transform="matrix(1 0 0 1 385.302 153.6621)" class="fil1">8</text>
<text transform="matrix(1 0 0 1 415.8665 175.7979)" class="fil1">8</text>
<text transform="matrix(1 0 0 1 446.6262 197.7979)" class="fil1">8</text>
<text transform="matrix(1 0 0 1 476.8215 220.4863)" class="fil1">8</text>
<text transform="matrix(1 0 0 1 365.677 169.6699)" class="fil1">9</text>
<text transform="matrix(1 0 0 1 396.7825 191.6328)" class="fil1">9</text>
<text transform="matrix(1 0 0 1 427.8508 213.7314)" class="fil1">9</text>
<text transform="matrix(1 0 0 1 458.636 236.0508)" class="fil1">9</text>
<text transform="matrix(1 0 0 1 342.0891 185.6035)" class="fil1">1</text>
<text transform="matrix(1 0 0 1 348.2415 185.6035)" class="fil1">0</text>
<text transform="matrix(1 0 0 1 373.9817 207.334)" class="fil1">1</text>
<text transform="matrix(1 0 0 1 380.134 207.334)" class="fil1">0</text>
<text transform="matrix(1 0 0 1 405.2961 229.3203)" class="fil1">1</text>
<text transform="matrix(1 0 0 1 411.4485 229.3203)" class="fil1">0</text>
<text transform="matrix(1 0 0 1 436.3391 251.5918)" class="fil1">1</text>
<text transform="matrix(1 0 0 1 442.4915 251.5918)" class="fil1">0</text>
<text transform="matrix(1 0 0 1 322.3176 200.6396)" class="fil1">1</text>
<text transform="matrix(1 0 0 1 328.47 200.6396)" class="fil1">1</text>
<text transform="matrix(1 0 0 1 354.4934 222.5537)" class="fil1">1</text>
<text transform="matrix(1 0 0 1 360.6438 222.5537)" class="fil1">1</text>
<text transform="matrix(1 0 0 1 386.386 244.5781)" class="fil1">1</text>
<text transform="matrix(1 0 0 1 392.5364 244.5781)" class="fil1">1</text>
<text transform="matrix(1 0 0 1 417.7727 266.4434)" class="fil1">1</text>
<text transform="matrix(1 0 0 1 423.925 266.4434)" class="fil1">1</text>
<text transform="matrix(1 0 0 1 301.3879 215.3066)" class="fil1">1</text>
<text transform="matrix(1 0 0 1 307.5403 215.3066)" class="fil1">2</text>
<text transform="matrix(1 0 0 1 334.0676 237.1709)" class="fil1">1</text>
<text transform="matrix(1 0 0 1 340.22 237.1709)" class="fil1">2</text>
<text transform="matrix(1 0 0 1 366.304 259.2939)" class="fil1">1</text>
<text transform="matrix(1 0 0 1 372.4563 259.2939)" class="fil1">2</text>
<text transform="matrix(1 0 0 1 398.3567 281.1836)" class="fil1">1</text>
<text transform="matrix(1 0 0 1 404.509 281.1836)" class="fil1">2</text>
<text transform="matrix(1 0 0 1 280.6555 229.9854)" class="fil1">1</text>
<text transform="matrix(1 0 0 1 286.8079 229.9854)" class="fil1">3</text>
<text transform="matrix(1 0 0 1 314.0735 251.8008)" class="fil1">1</text>
<text transform="matrix(1 0 0 1 320.2258 251.8008)" class="fil1">3</text>
<text transform="matrix(1 0 0 1 346.7043 273.6895)" class="fil1">1</text>
<text transform="matrix(1 0 0 1 352.8567 273.6895)" class="fil1">3</text>
<text transform="matrix(1 0 0 1 378.9172 295.7393)" class="fil1">1</text>
<text transform="matrix(1 0 0 1 385.0696 295.7393)" class="fil1">3</text>
<text transform="matrix(1 0 0 1 259.7024 243.9385)" class="fil1">1</text>
<text transform="matrix(1 0 0 1 265.8528 243.9385)" class="fil1">4</text>
<text transform="matrix(1 0 0 1 293.2063 265.7051)" class="fil1">1</text>
<text transform="matrix(1 0 0 1 299.3586 265.7051)" class="fil1">4</text>
<text transform="matrix(1 0 0 1 326.4758 287.7539)" class="fil1">1</text>
<text transform="matrix(1 0 0 1 332.6282 287.7539)" class="fil1">4</text>
<text transform="matrix(1 0 0 1 359.3293 309.7041)" class="fil1">1</text>
<text transform="matrix(1 0 0 1 365.4817 309.7041)" class="fil1">4</text>
<text transform="matrix(1 0 0 1 238.0833 257.9531)" class="fil1">1</text>
<text transform="matrix(1 0 0 1 244.2356 257.9531)" class="fil1">5</text>
<text transform="matrix(1 0 0 1 272.2649 279.6211)" class="fil1">1</text>
<text transform="matrix(1 0 0 1 278.4172 279.6211)" class="fil1">5</text>
<text transform="matrix(1 0 0 1 305.9172 301.6445)" class="fil1">1</text>
<text transform="matrix(1 0 0 1 312.0676 301.6445)" class="fil1">5</text>
<text transform="matrix(1 0 0 1 339.1125 323.6563)" class="fil1">1</text>
<text transform="matrix(1 0 0 1 345.2649 323.6563)" class="fil1">5</text>
<text transform="matrix(1 0 0 1 216.5266 271.0078)" class="fil1">1</text>
<text transform="matrix(1 0 0 1 222.679 271.0078)" class="fil1">6</text>
<text transform="matrix(1 0 0 1 251.3098 293.0195)" class="fil1">1</text>
<text transform="matrix(1 0 0 1 257.4622 293.0195)" class="fil1">6</text>
<text transform="matrix(1 0 0 1 285.4543 314.9453)" class="fil1">1</text>
<text transform="matrix(1 0 0 1 291.6067 314.9453)" class="fil1">6</text>
<text transform="matrix(1 0 0 1 319.095 336.9941)" class="fil1">1</text>
<text transform="matrix(1 0 0 1 325.2454 336.9941)" class="fil1">6</text>
<text transform="matrix(1 0 0 1 194.2805 284.0137)" class="fil1">1</text>
<text transform="matrix(1 0 0 1 200.4329 284.0137)" class="fil1">7</text>
<text transform="matrix(1 0 0 1 229.8645 306.1855)" class="fil1">1</text>
<text transform="matrix(1 0 0 1 236.0168 306.1855)" class="fil1">7</text>
<text transform="matrix(1 0 0 1 264.5872 328.2598)" class="fil1">1</text>
<text transform="matrix(1 0 0 1 270.7395 328.2598)" class="fil1">7</text>
<text transform="matrix(1 0 0 1 298.509 350.3457)" class="fil1">1</text>
<text transform="matrix(1 0 0 1 304.6614 350.3457)" class="fil1">7</text>
<text transform="matrix(1 0 0 1 172.6379 296.2676)" class="fil1">1</text>
<text transform="matrix(1 0 0 1 178.7903 296.2676)" class="fil1">8</text>
<text transform="matrix(1 0 0 1 208.2825 318.416)" class="fil1">1</text>
<text transform="matrix(1 0 0 1 214.4348 318.416)" class="fil1">8</text>
<text transform="matrix(1 0 0 1 243.7063 340.4023)" class="fil1">1</text>
<text transform="matrix(1 0 0 1 249.8586 340.4023)" class="fil1">8</text>
<text transform="matrix(1 0 0 1 278.0344 362.5879)" class="fil1">1</text>
<text transform="matrix(1 0 0 1 284.1868 362.5879)" class="fil1">8</text>
<text transform="matrix(1 0 0 1 149.7766 308.1055)" class="fil1">1</text>
<text transform="matrix(1 0 0 1 155.929 308.1055)" class="fil1">9</text>
<text transform="matrix(1 0 0 1 186.468 330.4863)" class="fil1">1</text>
<text transform="matrix(1 0 0 1 192.6184 330.4863)" class="fil1">9</text>
<text transform="matrix(1 0 0 1 222.2844 352.7559)" class="fil1">1</text>
<text transform="matrix(1 0 0 1 228.4368 352.7559)" class="fil1">9</text>
<text transform="matrix(1 0 0 1 257.2161 375.1133)" class="fil1">1</text>
<text transform="matrix(1 0 0 1 263.3684 375.1133)" class="fil1">9</text>
<text transform="matrix(1 0 0 1 127.8997 319.5977)" class="fil1">2</text>
<text transform="matrix(1 0 0 1 134.052 319.5977)" class="fil1">0</text>
<text transform="matrix(1 0 0 1 165.0461 342.1504)" class="fil1">2</text>
<text transform="matrix(1 0 0 1 171.1985 342.1504)" class="fil1">0</text>
<text transform="matrix(1 0 0 1 201.3313 364.5195)" class="fil1">2</text>
<text transform="matrix(1 0 0 1 207.4836 364.5195)" class="fil1">0</text>
<text transform="matrix(1 0 0 1 237.0012 387)" class="fil1">2</text>
<text transform="matrix(1 0 0 1 243.1536 387)" class="fil1">0</text>
<text transform="matrix(1 0 0 1 105.468 330.498)" class="fil1">2</text>
<text transform="matrix(1 0 0 1 111.6204 330.498)" class="fil1">1</text>
<text transform="matrix(1 0 0 1 143.1204 353.3594)" class="fil1">2</text>
<text transform="matrix(1 0 0 1 149.2727 353.3594)" class="fil1">1</text>
<text transform="matrix(1 0 0 1 180.0071 375.9375)" class="fil1">2</text>
<text transform="matrix(1 0 0 1 186.1594 375.9375)" class="fil1">1</text>
<text transform="matrix(1 0 0 1 215.9973 398.541)" class="fil1">2</text>
<text transform="matrix(1 0 0 1 222.1497 398.541)" class="fil1">1</text>
<text transform="matrix(1 0 0 1 119.927 364.3594)" class="fil1">2</text>
<text transform="matrix(1 0 0 1 126.0774 364.3594)" class="fil1">2</text>
<text transform="matrix(1 0 0 1 157.4543 387)" class="fil1">2</text>
<text transform="matrix(1 0 0 1 163.6067 387)" class="fil1">2</text>
<text transform="matrix(1 0 0 1 194.0833 409.8242)" class="fil1">2</text>
<text transform="matrix(1 0 0 1 200.2356 409.8242)" class="fil1">2</text>
<text transform="matrix(1 0 0 1 135.2083 397.8516)" class="fil1">2</text>
<text transform="matrix(1 0 0 1 141.3606 397.8516)" class="fil1">3</text>
<text transform="matrix(1 0 0 1 172.6379 420.7871)" class="fil1">2</text>
<text transform="matrix(1 0 0 1 178.7903 420.7871)" class="fil1">3</text>
<text transform="matrix(1 0 0 1 150.5032 431.5039)" class="fil1">2</text>
<text transform="matrix(1 0 0 1 156.6536 431.5039)" class="fil1">4</text>

<g>
<path class="fil0" d="M513.519,38.373l0.943,2.517c0.209,0.555,0.682,0.954,1.264,1.068   c0.582,0.111,1.17-0.079,1.57-0.517l12.625-13.693c0.399-0.438,0.545-1.037,0.387-1.609c-0.162-0.57-0.601-1.009-1.168-1.171   l-2.586-0.736l-11.199-8.806c-0.947-0.745-2.332-0.635-3.148,0.252l-8.377,9.089c-0.817,0.889-0.815,2.274,0.004,3.159   L513.519,38.373z" id="e1z7r5m1" />
<path class="fil0" d="M511.962,43.687l-2.572-0.783l-11.035-9.011c-0.934-0.764-2.316-0.679-3.15,0.193   l-8.545,8.934c-0.832,0.872-0.856,2.259-0.055,3.158l9.492,10.623l0.898,2.533c0.196,0.56,0.662,0.968,1.241,1.093   c0.58,0.124,1.17-0.059,1.58-0.485l12.875-13.461c0.408-0.429,0.564-1.025,0.414-1.603   C512.957,44.306,512.529,43.859,511.962,43.687z" id="e1z7r5m2" />
<path class="fil0" d="M477.818,52.194l-8.707,8.773c-0.85,0.854-0.896,2.242-0.109,3.157l9.295,10.796l0.851,2.55   c0.188,0.563,0.646,0.979,1.221,1.114c0.578,0.135,1.175-0.035,1.593-0.457l13.118-13.221c0.418-0.422,0.584-1.019,0.445-1.595   c-0.142-0.576-0.562-1.029-1.125-1.214l-2.557-0.831l-10.867-9.212C480.054,51.278,478.666,51.34,477.818,52.194z" id="e1z7r5m3" />
<path class="fil0" d="M461.017,95.191c0.176,0.565,0.625,0.99,1.201,1.138c0.573,0.146,1.172-0.015,1.598-0.429   l13.361-12.977c0.426-0.414,0.602-1.007,0.473-1.585c-0.129-0.579-0.541-1.04-1.101-1.234l-2.541-0.878l-10.694-9.41   c-0.906-0.797-2.293-0.763-3.158,0.077l-8.865,8.613c-0.865,0.84-0.941,2.225-0.17,3.153l9.094,10.965L461.017,95.191z" id="e1z7r5m4" />
<path class="fil0" d="M442.548,112.56c0.166,0.568,0.606,1.001,1.18,1.158c0.572,0.156,1.172,0.008,1.606-0.397   l13.597-12.729c0.434-0.406,0.621-0.994,0.504-1.576c-0.119-0.581-0.521-1.05-1.078-1.254l-2.523-0.925l-10.521-9.606   c-0.892-0.813-2.277-0.804-3.156,0.021l-9.022,8.446c-0.882,0.823-0.982,2.207-0.23,3.149l8.893,11.131L442.548,112.56z" id="e1z7r5m5" />
<path class="fil0" d="M423.669,129.648c0.155,0.571,0.59,1.015,1.157,1.182c0.568,0.166,1.173,0.027,1.613-0.369   l13.828-12.476c0.44-0.397,0.641-0.982,0.532-1.566c-0.106-0.583-0.502-1.06-1.057-1.272l-2.506-0.972l-10.342-9.798   c-0.877-0.829-2.264-0.847-3.158-0.039l-9.18,8.28c-0.896,0.808-1.021,2.188-0.285,3.146l8.684,11.293L423.669,129.648z" id="e1z7r5m6" />
<path class="fil0" d="M404.5,146.333c0.146,0.572,0.572,1.021,1.138,1.199c0.565,0.179,1.172,0.053,1.618-0.338   l14.058-12.22c0.448-0.389,0.657-0.971,0.563-1.556s-0.482-1.069-1.031-1.293l-2.488-1.019l-10.157-9.985   c-0.861-0.847-2.246-0.89-3.156-0.1l-9.33,8.11c-0.91,0.791-1.063,2.169-0.344,3.139l8.475,11.451L404.5,146.333z" id="e1z7r5m7" />
<path class="fil0" d="M385.011,162.646c0.135,0.577,0.551,1.034,1.112,1.224c0.563,0.188,1.17,0.071,1.625-0.311   l14.281-11.957c0.455-0.381,0.674-0.959,0.588-1.546s-0.463-1.077-1.006-1.312l-2.472-1.063l-9.973-10.173   c-0.846-0.86-2.229-0.93-3.154-0.153l-9.477,7.936c-0.928,0.774-1.104,2.149-0.402,3.134l8.262,11.604L385.011,162.646z" id="e1z7r5m8" />
<path class="fil0" d="M365.204,178.588c0.123,0.579,0.531,1.045,1.09,1.242c0.562,0.197,1.17,0.095,1.632-0.277   l14.498-11.691c0.463-0.373,0.69-0.945,0.618-1.534c-0.075-0.589-0.442-1.086-0.983-1.329l-2.447-1.108l-9.784-10.354   c-0.828-0.877-2.213-0.971-3.15-0.215l-9.623,7.761c-0.938,0.757-1.141,2.13-0.459,3.125l8.049,11.756L365.204,178.588z" id="e1z7r5m9" />
<path class="fil0" d="M345.08,194.148c0.111,0.582,0.515,1.056,1.066,1.265c0.557,0.207,1.168,0.114,1.637-0.248   l14.711-11.424c0.471-0.362,0.711-0.934,0.646-1.521c-0.065-0.589-0.424-1.094-0.959-1.349l-2.428-1.152l-9.594-10.533   c-0.811-0.892-2.191-1.011-3.145-0.271l-9.765,7.581c-0.952,0.739-1.182,2.106-0.52,3.114l7.827,11.902L345.08,194.148z" id="e1z7r5m10" />
<path class="fil0" d="M324.654,209.327c0.104,0.582,0.492,1.063,1.043,1.279c0.555,0.221,1.166,0.14,1.643-0.219   l14.92-11.146c0.478-0.354,0.728-0.92,0.675-1.512c-0.056-0.591-0.402-1.102-0.935-1.364l-2.406-1.197l-9.396-10.709   c-0.795-0.906-2.176-1.052-3.142-0.329l-9.901,7.398c-0.968,0.723-1.22,2.085-0.572,3.104l7.604,12.044L324.654,209.327z" id="e1z7r5m11" />
<path class="fil0" d="M303.923,224.112c0.092,0.585,0.475,1.07,1.021,1.302c0.549,0.228,1.162,0.158,1.646-0.188   l15.123-10.87c0.479-0.346,0.743-0.903,0.7-1.496c-0.043-0.594-0.383-1.108-0.907-1.384l-2.384-1.241l-9.194-10.883   c-0.779-0.921-2.156-1.091-3.136-0.387l-10.037,7.215c-0.979,0.703-1.258,2.063-0.633,3.096l7.383,12.185L303.923,224.112z" id="e1z7r5m12" />
<path class="fil0" d="M282.898,238.504c0.082,0.587,0.455,1.08,0.998,1.319c0.543,0.237,1.158,0.181,1.646-0.157   l15.321-10.589c0.486-0.337,0.761-0.893,0.729-1.483c-0.033-0.592-0.361-1.115-0.881-1.398l-2.361-1.286l-8.992-11.05   c-0.762-0.937-2.135-1.131-3.127-0.444l-10.17,7.026c-0.99,0.687-1.295,2.039-0.688,3.082l7.155,12.317L282.898,238.504z" id="e1z7r5m13" />
<path class="fil0" d="M261.582,252.493c0.07,0.589,0.435,1.09,0.972,1.339c0.539,0.249,1.155,0.202,1.649-0.127   l15.517-10.303c0.493-0.328,0.776-0.878,0.758-1.472c-0.021-0.594-0.342-1.121-0.855-1.415l-2.336-1.329l-8.785-11.215   c-0.743-0.949-2.112-1.17-3.118-0.503l-10.298,6.837c-1.004,0.667-1.332,2.016-0.746,3.068l6.927,12.448L261.582,252.493z" id="e1z7r5m14" />
<path class="fil0" d="M239.982,266.079c0.061,0.589,0.414,1.096,0.947,1.354c0.535,0.26,1.149,0.224,1.652-0.096   l15.705-10.013c0.5-0.318,0.793-0.862,0.782-1.456c-0.012-0.595-0.319-1.13-0.83-1.432l-2.311-1.373l-8.576-11.377   c-0.728-0.963-2.092-1.209-3.106-0.561l-10.425,6.645c-1.018,0.648-1.368,1.989-0.803,3.058l6.693,12.573L239.982,266.079z" id="e1z7r5m15" />
<path class="fil0" d="M218.103,279.251c0.047,0.591,0.395,1.104,0.92,1.372c0.529,0.27,1.147,0.245,1.654-0.064   l15.889-9.719c0.506-0.311,0.811-0.85,0.813-1.441c0-0.593-0.301-1.134-0.803-1.444l-2.285-1.416l-8.363-11.533   c-0.707-0.977-2.067-1.248-3.096-0.618l-10.545,6.449c-1.029,0.629-1.408,1.965-0.861,3.039l6.459,12.697L218.103,279.251z" id="e1z7r5m16" />
<path class="fil0" d="M195.95,292.006c0.037,0.592,0.371,1.11,0.896,1.391c0.524,0.277,1.143,0.267,1.653-0.034   l16.066-9.421c0.514-0.3,0.824-0.832,0.838-1.428c0.014-0.592-0.277-1.139-0.775-1.46l-2.258-1.458l-8.146-11.688   c-0.688-0.988-2.045-1.285-3.084-0.676l-10.664,6.252c-1.041,0.608-1.441,1.938-0.916,3.021l6.221,12.815L195.95,292.006z" id="e1z7r5m17" />
<path class="fil0" d="M173.407,301.652l0.121,2.687c0.023,0.592,0.35,1.117,0.867,1.406   c0.52,0.287,1.139,0.286,1.654-0.005l16.239-9.117c0.521-0.291,0.841-0.817,0.865-1.411c0.022-0.592-0.258-1.145-0.748-1.475   l-2.231-1.501l-7.927-11.837c-0.67-1.002-2.02-1.325-3.071-0.733l-10.777,6.053c-1.053,0.59-1.479,1.909-0.973,3.005   L173.407,301.652z" id="e1z7r5m18" />
<path class="fil0" d="M150.841,316.243c0.016,0.593,0.332,1.125,0.844,1.423c0.514,0.298,1.131,0.309,1.654,0.026   l16.407-8.813c0.521-0.281,0.854-0.803,0.892-1.395c0.035-0.594-0.232-1.148-0.721-1.488l-2.201-1.541l-7.703-11.984   c-0.652-1.015-1.996-1.36-3.059-0.792l-10.892,5.85c-1.063,0.57-1.514,1.884-1.027,2.986l5.734,13.039L150.841,316.243z" id="e1z7r5m19" />
<path class="fil0" d="M127.9,327.715c0.004,0.592,0.311,1.131,0.816,1.438s1.125,0.33,1.651,0.06l16.57-8.504   c0.529-0.271,0.871-0.785,0.918-1.377c0.045-0.593-0.215-1.153-0.69-1.501l-2.175-1.583l-7.479-12.126   c-0.634-1.027-1.97-1.399-3.041-0.851l-10.998,5.646c-1.074,0.55-1.55,1.854-1.086,2.966l5.491,13.146L127.9,327.715z" id="e1z7r5m20" />
<path class="fil0" d="M105.495,340.202c0.502,0.315,1.117,0.352,1.65,0.09l16.729-8.189   c0.533-0.262,0.887-0.77,0.941-1.359c0.059-0.59-0.189-1.157-0.662-1.516l-2.146-1.623l-7.246-12.266   c-0.614-1.038-1.942-1.437-3.026-0.904l-11.103,5.437c-1.082,0.53-1.584,1.823-1.144,2.944l5.244,13.246l-0.031,2.689   C104.7,339.34,104.995,339.885,105.495,340.202z" id="e1z7r5m21" />
<path class="fil0" d="M541.775,62.069l0.953,2.515c0.209,0.555,0.682,0.953,1.266,1.063   c0.582,0.11,1.17-0.081,1.568-0.521l12.582-13.733c0.402-0.438,0.543-1.039,0.383-1.609c-0.164-0.569-0.602-1.007-1.174-1.167   l-2.586-0.729l-11.227-8.771c-0.951-0.741-2.334-0.627-3.148,0.263l-8.35,9.115c-0.814,0.89-0.81,2.275,0.014,3.158L541.775,62.069   z" id="e1z7r6m1" />
<path class="fil0" d="M525.584,82.751c0.199,0.558,0.666,0.964,1.246,1.087c0.58,0.122,1.17-0.063,1.578-0.492   l12.822-13.509c0.407-0.432,0.563-1.029,0.407-1.604c-0.149-0.572-0.582-1.019-1.147-1.188l-2.574-0.772l-11.069-8.971   c-0.937-0.759-2.318-0.668-3.15,0.206l-8.512,8.966c-0.83,0.875-0.848,2.264-0.041,3.159l9.533,10.587L525.584,82.751z" id="e1z7r6m2" />
<path class="fil0" d="M506.634,75.36l-8.666,8.813c-0.849,0.857-0.892,2.246-0.101,3.157l9.344,10.754l0.863,2.546   c0.188,0.562,0.647,0.977,1.228,1.107c0.58,0.133,1.172-0.041,1.588-0.464l13.061-13.278c0.416-0.425,0.578-1.021,0.438-1.598   c-0.143-0.575-0.563-1.025-1.127-1.208l-2.563-0.818L509.79,75.21C508.866,74.435,507.48,74.502,506.634,75.36z" id="e1z7r6m3" />
<path class="fil0" d="M490.312,118.116c0.18,0.563,0.631,0.985,1.205,1.131c0.576,0.143,1.174-0.021,1.598-0.438   l13.293-13.046c0.424-0.416,0.598-1.009,0.467-1.588c-0.135-0.578-0.549-1.037-1.108-1.228l-2.545-0.864l-10.744-9.354   c-0.91-0.792-2.297-0.75-3.156,0.096l-8.821,8.659c-0.861,0.844-0.929,2.229-0.154,3.152l9.152,10.918L490.312,118.116z" id="e1z7r6m4" />
<path class="fil0" d="M472.226,135.27c0.17,0.568,0.613,0.998,1.188,1.152c0.572,0.15,1.174,0,1.604-0.408   l13.521-12.81c0.432-0.407,0.613-0.997,0.492-1.578s-0.525-1.047-1.086-1.247l-2.529-0.91l-10.576-9.543   c-0.896-0.809-2.282-0.791-3.157,0.038l-8.976,8.502c-0.875,0.829-0.969,2.213-0.209,3.149l8.957,11.078L472.226,135.27z" id="e1z7r6m5" />
<path class="fil0" d="M453.755,152.159c0.159,0.57,0.596,1.011,1.166,1.174c0.571,0.163,1.172,0.021,1.608-0.381   l13.746-12.566c0.438-0.4,0.635-0.987,0.521-1.569c-0.11-0.584-0.51-1.057-1.063-1.267l-2.514-0.955l-10.406-9.729   c-0.883-0.822-2.269-0.831-3.156-0.019l-9.123,8.341c-0.893,0.814-1.01,2.196-0.268,3.148l8.76,11.232L453.755,152.159z" id="e1z7r6m6" />
<path class="fil0" d="M435.009,168.675c0.147,0.573,0.577,1.02,1.145,1.191c0.568,0.174,1.174,0.042,1.617-0.352   l13.967-12.322c0.443-0.394,0.648-0.977,0.549-1.562c-0.102-0.584-0.49-1.063-1.039-1.284l-2.498-0.999l-10.231-9.911   c-0.865-0.839-2.254-0.871-3.156-0.073l-9.271,8.181c-0.903,0.797-1.045,2.177-0.319,3.142l8.561,11.39L435.009,168.675z" id="e1z7r6m7" />
<path class="fil0" d="M415.955,184.844c0.14,0.575,0.56,1.028,1.123,1.212c0.564,0.184,1.173,0.063,1.623-0.321   l14.183-12.073c0.452-0.385,0.668-0.964,0.577-1.551c-0.092-0.586-0.473-1.072-1.02-1.304l-2.479-1.042l-10.057-10.091   c-0.852-0.854-2.236-0.911-3.154-0.129l-9.412,8.012c-0.918,0.782-1.084,2.159-0.377,3.138l8.355,11.537L415.955,184.844z" id="e1z7r6m8" />
<path class="fil0" d="M396.603,200.661c0.129,0.578,0.541,1.039,1.104,1.232c0.563,0.191,1.17,0.084,1.627-0.293   l14.396-11.82c0.459-0.377,0.686-0.952,0.604-1.54c-0.08-0.588-0.452-1.082-0.993-1.32l-2.459-1.087l-9.875-10.268   c-0.838-0.869-2.222-0.95-3.152-0.187l-9.555,7.846c-0.933,0.766-1.121,2.14-0.433,3.13l8.15,11.684L396.603,200.661z" id="e1z7r6m9" />
<path class="fil0" d="M376.954,216.127c0.117,0.58,0.521,1.048,1.08,1.251c0.557,0.203,1.168,0.104,1.633-0.265   l14.601-11.563c0.467-0.369,0.701-0.938,0.633-1.529c-0.069-0.589-0.434-1.09-0.973-1.338l-2.438-1.131l-9.69-10.438   c-0.82-0.886-2.205-0.989-3.147-0.24l-9.691,7.674c-0.943,0.749-1.158,2.119-0.486,3.121l7.943,11.826L376.954,216.127z" id="e1z7r6m10" />
<path class="fil0" d="M357.013,231.23c0.108,0.582,0.504,1.06,1.059,1.271c0.556,0.212,1.166,0.126,1.639-0.235   l14.804-11.302c0.473-0.359,0.717-0.927,0.657-1.52c-0.061-0.591-0.414-1.098-0.946-1.354l-2.418-1.173l-9.507-10.611   c-0.805-0.896-2.186-1.028-3.145-0.297l-9.826,7.501c-0.957,0.731-1.195,2.099-0.541,3.112l7.73,11.965L357.013,231.23z" id="e1z7r6m11" />
<path class="fil0" d="M336.786,245.971c0.101,0.584,0.484,1.067,1.033,1.29c0.553,0.223,1.164,0.146,1.645-0.206   l15.002-11.038c0.478-0.352,0.732-0.913,0.685-1.506c-0.049-0.591-0.394-1.104-0.922-1.372l-2.396-1.216l-9.315-10.777   c-0.789-0.912-2.166-1.065-3.139-0.353l-9.955,7.324c-0.974,0.716-1.234,2.076-0.601,3.103l7.521,12.101L336.786,245.971z" id="e1z7r6m12" />
<path class="fil0" d="M316.279,260.343c0.088,0.586,0.469,1.075,1.014,1.31c0.547,0.23,1.16,0.166,1.646-0.179   l15.196-10.769c0.482-0.345,0.75-0.901,0.711-1.493s-0.375-1.11-0.897-1.391l-2.375-1.258l-9.123-10.94   c-0.771-0.928-2.147-1.105-3.131-0.408l-10.086,7.146c-0.982,0.696-1.271,2.056-0.652,3.092l7.301,12.231L316.279,260.343z" id="e1z7r6m13" />
<path class="fil0" d="M295.495,274.341c0.078,0.587,0.447,1.083,0.988,1.325c0.543,0.241,1.158,0.188,1.648-0.146   l15.385-10.496c0.49-0.336,0.768-0.89,0.738-1.48c-0.03-0.591-0.355-1.117-0.873-1.403l-2.355-1.301l-8.926-11.104   c-0.756-0.938-2.127-1.145-3.125-0.464l-10.211,6.967c-0.996,0.681-1.305,2.031-0.707,3.079l7.084,12.358L295.495,274.341z" id="e1z7r6m14" />
<path class="fil0" d="M274.441,287.961c0.068,0.588,0.43,1.09,0.967,1.342s1.152,0.208,1.648-0.118l15.57-10.221   c0.496-0.326,0.78-0.874,0.766-1.467c-0.02-0.595-0.336-1.124-0.85-1.42l-2.33-1.344l-8.728-11.261   c-0.738-0.952-2.106-1.181-3.115-0.519l-10.334,6.781c-1.008,0.661-1.344,2.01-0.762,3.065l6.861,12.485L274.441,287.961z" id="e1z7r6m15" />
<path class="fil0" d="M253.12,301.195c0.057,0.589,0.408,1.099,0.939,1.357c0.533,0.263,1.149,0.229,1.652-0.088   l15.75-9.94c0.502-0.316,0.797-0.859,0.791-1.453c-0.007-0.594-0.314-1.131-0.822-1.436l-2.305-1.384l-8.525-11.414   c-0.723-0.966-2.086-1.22-3.105-0.574l-10.45,6.599c-1.021,0.645-1.382,1.981-0.816,3.052l6.638,12.604L253.12,301.195z" id="e1z7r6m16" />
<path class="fil0" d="M231.537,314.042c0.048,0.592,0.39,1.105,0.918,1.376c0.527,0.271,1.146,0.249,1.652-0.06   l15.926-9.658c0.509-0.309,0.812-0.845,0.814-1.438c0.004-0.593-0.295-1.136-0.798-1.448l-2.278-1.424l-8.318-11.565   c-0.705-0.979-2.063-1.256-3.096-0.63l-10.57,6.41c-1.029,0.625-1.412,1.958-0.871,3.036l6.412,12.722L231.537,314.042z" id="e1z7r6m17" />
<path class="fil0" d="M209.702,326.497c0.033,0.592,0.367,1.11,0.892,1.393c0.522,0.279,1.143,0.27,1.653-0.029   l16.097-9.372c0.514-0.299,0.827-0.831,0.842-1.424c0.017-0.594-0.272-1.141-0.771-1.464l-2.256-1.465l-8.108-11.712   c-0.688-0.991-2.041-1.293-3.084-0.688l-10.683,6.222c-1.043,0.604-1.448,1.933-0.926,3.02l6.182,12.835L209.702,326.497z" id="e1z7r6m18" />
<path class="fil0" d="M187.613,338.551c0.023,0.594,0.35,1.119,0.865,1.408c0.52,0.289,1.137,0.291,1.654,0   l16.262-9.08c0.52-0.289,0.842-0.814,0.867-1.41c0.022-0.592-0.254-1.144-0.744-1.475l-2.228-1.507l-7.899-11.855   c-0.67-1.004-2.019-1.329-3.07-0.74l-10.791,6.026c-1.053,0.588-1.484,1.908-0.979,3.004l5.948,12.942L187.613,338.551z" id="e1z7r6m19" />
<path class="fil0" d="M165.212,347.516l0.063,2.688c0.014,0.592,0.328,1.125,0.842,1.424   c0.513,0.299,1.129,0.311,1.652,0.03l16.424-8.788c0.521-0.279,0.854-0.802,0.894-1.396c0.035-0.592-0.232-1.146-0.719-1.486   l-2.199-1.547l-7.687-11.994c-0.649-1.018-1.991-1.364-3.059-0.797l-10.896,5.832c-1.063,0.568-1.52,1.879-1.032,2.984   L165.212,347.516z" id="e1z7r6m20" />
<path class="fil0" d="M142.702,361.449c0.004,0.593,0.307,1.132,0.813,1.438c0.508,0.309,1.125,0.33,1.653,0.061   l16.576-8.489c0.527-0.271,0.871-0.785,0.918-1.377c0.047-0.591-0.213-1.152-0.688-1.503l-2.173-1.584l-7.469-12.133   c-0.633-1.026-1.969-1.399-3.041-0.852l-11.004,5.637c-1.072,0.549-1.551,1.853-1.086,2.965l5.48,13.148L142.702,361.449z" id="e1z7r6m21" />
<path class="fil0" d="M120.677,373.734c0.502,0.316,1.118,0.353,1.649,0.09l16.729-8.188   c0.532-0.26,0.887-0.771,0.94-1.359c0.06-0.59-0.188-1.156-0.662-1.514l-2.144-1.625l-7.248-12.266   c-0.614-1.037-1.942-1.437-3.024-0.904l-11.104,5.436c-1.082,0.529-1.584,1.824-1.139,2.945l5.24,13.246l-0.029,2.688   C119.88,372.876,120.175,373.419,120.677,373.734z" id="e1z7r6m22" />
<path class="fil0" d="M569.912,85.665l0.959,2.512c0.211,0.554,0.687,0.95,1.269,1.063   c0.584,0.108,1.17-0.085,1.57-0.523l12.545-13.766c0.399-0.439,0.541-1.041,0.377-1.611s-0.604-1.005-1.175-1.164l-2.59-0.722   l-11.25-8.743c-0.951-0.74-2.334-0.621-3.146,0.271l-8.326,9.139c-0.813,0.891-0.803,2.276,0.022,3.156L569.912,85.665z" id="e1z7r3m1" />
<path class="fil0" d="M555.277,107.172c0.58,0.12,1.17-0.064,1.578-0.497l12.777-13.551   c0.405-0.434,0.559-1.031,0.403-1.604c-0.153-0.571-0.588-1.016-1.153-1.184l-2.576-0.767l-11.101-8.934   c-0.938-0.756-2.323-0.661-3.149,0.216l-8.48,8.994c-0.826,0.877-0.842,2.266-0.031,3.158l9.566,10.556l0.916,2.527   C554.228,106.645,554.695,107.051,555.277,107.172z" id="e1z7r7m2" />
<path class="fil0" d="M536.83,123.739c0.189,0.561,0.652,0.974,1.229,1.104c0.58,0.13,1.174-0.045,1.588-0.47   l13.006-13.332c0.416-0.425,0.574-1.021,0.432-1.598c-0.146-0.574-0.568-1.025-1.135-1.204l-2.563-0.811l-10.945-9.117   c-0.928-0.771-2.313-0.701-3.154,0.16l-8.633,8.852c-0.842,0.861-0.879,2.248-0.084,3.156l9.387,10.717L536.83,123.739z" id="e1z7r7m3" />
<path class="fil0" d="M519.4,141.012c0.184,0.563,0.637,0.983,1.213,1.124s1.172-0.024,1.594-0.442l13.23-13.107   c0.422-0.419,0.592-1.014,0.457-1.591s-0.551-1.034-1.111-1.223l-2.551-0.854l-10.787-9.306c-0.914-0.786-2.301-0.738-3.158,0.108   l-8.779,8.701c-0.856,0.849-0.918,2.232-0.141,3.154l9.205,10.875L519.4,141.012z" id="e1z7r7m4" />
<path class="fil0" d="M501.664,157.973c0.175,0.565,0.619,0.994,1.191,1.146c0.573,0.148,1.174-0.006,1.604-0.416   l13.451-12.883c0.43-0.411,0.608-1.001,0.483-1.582c-0.125-0.578-0.534-1.044-1.092-1.24l-2.535-0.896l-10.629-9.485   c-0.899-0.804-2.287-0.777-3.157,0.057l-8.929,8.551c-0.871,0.834-0.955,2.219-0.192,3.152l9.02,11.028L501.664,157.973z" id="e1z7r7m5" />
<path class="fil0" d="M483.572,174.682c0.162,0.569,0.604,1.005,1.174,1.165c0.57,0.159,1.174,0.016,1.607-0.389   l13.668-12.652c0.438-0.401,0.627-0.991,0.512-1.571c-0.113-0.582-0.516-1.055-1.068-1.262l-2.521-0.938l-10.468-9.664   c-0.885-0.818-2.272-0.817-3.157,0.002l-9.07,8.396c-0.887,0.819-0.992,2.202-0.246,3.149l8.828,11.181L483.572,174.682z" id="e1z7r7m6" />
<path class="fil0" d="M465.212,191.044c0.151,0.572,0.586,1.016,1.151,1.185c0.568,0.17,1.173,0.034,1.613-0.358   l13.883-12.419c0.441-0.396,0.646-0.979,0.539-1.563c-0.105-0.584-0.498-1.063-1.051-1.277l-2.502-0.98l-10.301-9.842   c-0.873-0.832-2.259-0.855-3.158-0.053l-9.213,8.241c-0.897,0.806-1.031,2.187-0.299,3.146l8.637,11.328L465.212,191.044z" id="e1z7r7m7" />
<path class="fil0" d="M446.562,207.083c0.146,0.573,0.568,1.023,1.135,1.203c0.564,0.179,1.17,0.055,1.619-0.334   l14.092-12.182c0.447-0.388,0.658-0.969,0.564-1.555c-0.097-0.585-0.479-1.07-1.025-1.295l-2.486-1.025l-10.133-10.015   c-0.857-0.848-2.244-0.895-3.156-0.104l-9.352,8.084c-0.914,0.787-1.068,2.166-0.354,3.14l8.443,11.475L446.562,207.083z" id="e1z7r7m8" />
<path class="fil0" d="M427.628,222.792c0.135,0.576,0.551,1.034,1.11,1.224c0.563,0.188,1.17,0.073,1.627-0.307   l14.295-11.938c0.457-0.381,0.679-0.959,0.595-1.546c-0.086-0.587-0.463-1.077-1.009-1.313l-2.469-1.064l-9.959-10.188   c-0.844-0.861-2.229-0.933-3.154-0.158l-9.485,7.923c-0.927,0.772-1.105,2.147-0.406,3.133l8.246,11.616L427.628,222.792z" id="e1z7r7m9" />
<path class="fil0" d="M408.412,238.17c0.123,0.579,0.531,1.044,1.093,1.241c0.559,0.197,1.168,0.095,1.631-0.277   l14.496-11.692c0.463-0.373,0.693-0.944,0.617-1.535c-0.074-0.588-0.441-1.085-0.982-1.329l-2.447-1.107l-9.785-10.354   c-0.827-0.876-2.213-0.971-3.149-0.213l-9.623,7.762c-0.938,0.758-1.139,2.13-0.459,3.125l8.049,11.756L408.412,238.17z" id="e1z7r7m10" />
<path class="fil0" d="M388.921,253.211c0.112,0.581,0.514,1.053,1.069,1.26c0.558,0.208,1.166,0.114,1.636-0.25   l14.694-11.443c0.468-0.363,0.707-0.935,0.646-1.522c-0.066-0.589-0.426-1.094-0.961-1.348l-2.43-1.148l-9.607-10.521   c-0.813-0.891-2.195-1.007-3.146-0.267l-9.752,7.596c-0.95,0.74-1.176,2.108-0.512,3.115l7.844,11.892L388.921,253.211z" id="e1z7r7m11" />
<path class="fil0" d="M369.157,267.909c0.104,0.582,0.498,1.063,1.049,1.277c0.553,0.217,1.164,0.135,1.642-0.223   l14.887-11.191c0.478-0.354,0.726-0.922,0.67-1.513c-0.055-0.59-0.404-1.101-0.938-1.362l-2.407-1.188l-9.429-10.685   c-0.797-0.902-2.178-1.045-3.143-0.318l-9.881,7.427c-0.965,0.725-1.211,2.09-0.564,3.106l7.644,12.022L369.157,267.909z" id="e1z7r7m12" />
<path class="fil0" d="M349.123,282.263c0.097,0.585,0.479,1.07,1.027,1.298c0.549,0.228,1.162,0.152,1.646-0.194   l15.075-10.937c0.479-0.349,0.738-0.908,0.693-1.501c-0.045-0.591-0.387-1.105-0.912-1.378l-2.389-1.232l-9.242-10.842   c-0.783-0.918-2.16-1.081-3.137-0.373l-10.007,7.257c-0.979,0.708-1.248,2.067-0.618,3.099l7.436,12.15L349.123,282.263z" id="e1z7r7m13" />
<path class="fil0" d="M328.83,296.266c0.084,0.586,0.461,1.078,1.004,1.313c0.545,0.234,1.158,0.174,1.646-0.166   l15.262-10.677c0.486-0.341,0.754-0.896,0.723-1.487c-0.034-0.594-0.368-1.113-0.893-1.396l-2.367-1.271l-9.055-10.998   c-0.767-0.933-2.142-1.119-3.129-0.43l-10.129,7.085c-0.988,0.69-1.283,2.047-0.673,3.087l7.228,12.276L328.83,296.266z" id="e1z7r7m14" />
<path class="fil0" d="M308.277,309.915c0.074,0.588,0.441,1.086,0.982,1.331c0.541,0.244,1.155,0.19,1.647-0.14   l15.44-10.412c0.492-0.331,0.771-0.884,0.746-1.477c-0.022-0.593-0.35-1.12-0.862-1.409l-2.349-1.313l-8.862-11.152   c-0.752-0.943-2.121-1.155-3.121-0.479l-10.25,6.909c-1,0.675-1.318,2.023-0.726,3.073l7.014,12.4L308.277,309.915z" id="e1z7r7m15" />
<path class="fil0" d="M287.468,323.204c0.063,0.59,0.424,1.094,0.959,1.348c0.537,0.254,1.153,0.213,1.649-0.107   l15.619-10.146c0.498-0.323,0.787-0.87,0.772-1.463c-0.018-0.594-0.33-1.126-0.842-1.424l-2.322-1.354l-8.672-11.303   c-0.734-0.957-2.104-1.19-3.113-0.535l-10.367,6.733c-1.012,0.656-1.352,2.001-0.776,3.061l6.801,12.52L287.468,323.204z" id="e1z7r7m16" />
<path class="fil0" d="M266.411,336.13c0.055,0.59,0.402,1.102,0.935,1.365c0.532,0.262,1.149,0.231,1.653-0.082   l15.791-9.875c0.504-0.314,0.802-0.855,0.798-1.449s-0.312-1.131-0.816-1.438l-2.299-1.395l-8.478-11.45   c-0.719-0.97-2.08-1.229-3.104-0.589l-10.48,6.555c-1.022,0.641-1.387,1.979-0.83,3.048l6.584,12.633L266.411,336.13z" id="e1z7r7m17" />
<path class="fil0" d="M245.107,348.686c0.045,0.592,0.387,1.107,0.912,1.381c0.527,0.271,1.145,0.254,1.652-0.053   l15.961-9.602c0.51-0.308,0.813-0.845,0.822-1.438c0.004-0.592-0.291-1.135-0.793-1.449l-2.275-1.434l-8.275-11.596   c-0.7-0.982-2.061-1.265-3.094-0.644l-10.592,6.371c-1.033,0.623-1.422,1.953-0.883,3.033l6.365,12.746L245.107,348.686z" id="e1z7r7m18" />
<path class="fil0" d="M223.562,360.874c0.035,0.59,0.365,1.112,0.887,1.395c0.523,0.281,1.143,0.273,1.654-0.022   l16.125-9.324c0.514-0.297,0.83-0.828,0.846-1.422c0.018-0.593-0.271-1.142-0.766-1.466l-2.25-1.471l-8.076-11.736   c-0.685-0.993-2.037-1.299-3.082-0.694l-10.701,6.188c-1.043,0.604-1.451,1.931-0.934,3.019l6.143,12.854L223.562,360.874z" id="e1z7r7m19" />
<path class="fil0" d="M201.781,372.68c0.023,0.594,0.348,1.119,0.863,1.41c0.515,0.291,1.135,0.293,1.654,0.004   l16.28-9.043c0.521-0.287,0.847-0.813,0.871-1.406c0.025-0.592-0.25-1.146-0.739-1.479l-2.226-1.511l-7.873-11.875   c-0.666-1.006-2.014-1.334-3.065-0.748l-10.81,6.002c-1.053,0.586-1.483,1.902-0.983,3l5.92,12.957L201.781,372.68z" id="e1z7r7m20" />
<path class="fil0" d="M179.765,384.107c0.014,0.592,0.328,1.125,0.84,1.427c0.512,0.299,1.129,0.313,1.654,0.03   l16.438-8.76c0.523-0.277,0.857-0.799,0.896-1.391c0.038-0.593-0.23-1.15-0.716-1.49l-2.196-1.551l-7.664-12.009   c-0.648-1.018-1.992-1.368-3.056-0.803l-10.909,5.814c-1.063,0.565-1.521,1.877-1.039,2.981l5.694,13.06L179.765,384.107z" id="e1z7r7m21" />
<path class="fil0" d="M157.509,392.462l0.014,2.688c0.004,0.594,0.307,1.131,0.813,1.439   c0.507,0.308,1.123,0.332,1.652,0.063l16.586-8.473c0.529-0.271,0.873-0.785,0.92-1.377c0.047-0.59-0.211-1.152-0.688-1.502   l-2.17-1.586l-7.455-12.144c-0.631-1.026-1.969-1.401-3.041-0.854l-11.01,5.623c-1.072,0.547-1.553,1.85-1.09,2.963   L157.509,392.462z" id="e1z7r7m22" />
<path class="fil0" d="M155.173,397.801c0.057-0.59-0.191-1.154-0.664-1.514l-2.144-1.625l-7.24-12.269   c-0.614-1.039-1.942-1.438-3.026-0.908l-11.104,5.431c-1.082,0.53-1.584,1.823-1.144,2.944l5.238,13.25l-0.035,2.688   c-0.006,0.594,0.289,1.137,0.789,1.453c0.502,0.317,1.119,0.354,1.652,0.09l16.732-8.183   C154.763,398.9,155.116,398.391,155.173,397.801z" id="e1z7r7m23" />
<path class="fil0" d="M614.829,97.017c-0.162-0.569-0.602-1.008-1.172-1.167l-2.588-0.729l-11.229-8.771   c-0.951-0.741-2.332-0.627-3.146,0.263l-8.35,9.117c-0.813,0.89-0.81,2.274,0.016,3.157l9.721,10.415l0.953,2.515   c0.209,0.555,0.684,0.951,1.266,1.063c0.584,0.111,1.17-0.082,1.57-0.521l12.578-13.735   C614.851,98.189,614.993,97.588,614.829,97.017z" id="e1z7r8m1" />
<path class="fil0" d="M597.343,113.771l-2.576-0.771l-11.082-8.953c-0.938-0.757-2.324-0.665-3.15,0.211   l-8.498,8.979c-0.828,0.876-0.846,2.264-0.037,3.158l9.549,10.572l0.912,2.529c0.199,0.557,0.666,0.963,1.246,1.085   c0.582,0.121,1.173-0.063,1.58-0.494l12.804-13.526c0.407-0.433,0.561-1.03,0.405-1.604   C598.341,114.385,597.911,113.941,597.343,113.771z" id="e1z7r8m2" />
<path class="fil0" d="M580.687,131.456l-2.563-0.813l-10.934-9.133c-0.929-0.771-2.313-0.703-3.154,0.159   l-8.646,8.838c-0.844,0.861-0.883,2.248-0.09,3.157l9.375,10.728l0.867,2.545c0.193,0.563,0.652,0.975,1.23,1.105   c0.58,0.13,1.172-0.044,1.588-0.47l13.021-13.314c0.414-0.424,0.576-1.021,0.435-1.597   C581.675,132.086,581.25,131.635,580.687,131.456z" id="e1z7r8m3" />
<path class="fil0" d="M563.808,148.781l-2.549-0.854l-10.781-9.312c-0.914-0.788-2.301-0.74-3.158,0.105   l-8.787,8.694c-0.855,0.848-0.92,2.233-0.141,3.154l9.194,10.881l0.828,2.559c0.182,0.563,0.635,0.984,1.211,1.126   s1.172-0.023,1.596-0.441l13.238-13.101c0.424-0.418,0.594-1.011,0.459-1.589C564.786,149.427,564.37,148.97,563.808,148.781z" id="e1z7r8m4" />
<path class="fil0" d="M546.638,165.819l-2.533-0.896l-10.629-9.487c-0.898-0.803-2.287-0.776-3.156,0.058   l-8.93,8.548c-0.871,0.834-0.957,2.219-0.193,3.151l9.019,11.03l0.784,2.571c0.173,0.564,0.619,0.995,1.191,1.146   c0.574,0.149,1.172-0.006,1.602-0.416l13.455-12.881c0.429-0.41,0.607-1.001,0.482-1.582   C547.605,166.48,547.197,166.016,546.638,165.819z" id="e1z7r8m5" />
<path class="fil0" d="M529.125,182.621l-2.52-0.938l-10.472-9.661c-0.887-0.816-2.271-0.813-3.157,0.004   l-9.068,8.4c-0.885,0.818-0.992,2.202-0.244,3.147l8.832,11.179l0.744,2.584c0.164,0.567,0.603,1.005,1.174,1.165   c0.572,0.158,1.173,0.013,1.607-0.393l13.664-12.656c0.436-0.401,0.625-0.989,0.512-1.571   C530.082,183.299,529.683,182.827,529.125,182.621z" id="e1z7r8m6" />
<path class="fil0" d="M511.355,199.101l-2.504-0.979l-10.312-9.832c-0.873-0.832-2.26-0.854-3.157-0.05   l-9.205,8.25c-0.898,0.806-1.027,2.187-0.298,3.146l8.648,11.321l0.698,2.596c0.154,0.572,0.586,1.016,1.154,1.185   s1.172,0.032,1.613-0.362l13.871-12.432c0.441-0.396,0.643-0.979,0.537-1.563C512.298,199.796,511.906,199.316,511.355,199.101z" id="e1z7r8m7" />
<path class="fil0" d="M493.302,215.281l-2.486-1.021l-10.146-10c-0.858-0.847-2.246-0.891-3.156-0.102l-9.34,8.098   c-0.912,0.79-1.063,2.168-0.35,3.14l8.461,11.462l0.656,2.606c0.145,0.575,0.567,1.022,1.135,1.203   c0.565,0.177,1.172,0.052,1.621-0.337l14.072-12.2c0.446-0.39,0.657-0.97,0.563-1.557   C494.236,215.991,493.851,215.508,493.302,215.281z" id="e1z7r8m8" />
<path class="fil0" d="M474.976,231.158l-2.471-1.063l-9.98-10.167c-0.844-0.858-2.229-0.927-3.152-0.15   l-9.475,7.94c-0.924,0.774-1.101,2.149-0.398,3.134l8.271,11.602l0.614,2.616c0.136,0.577,0.554,1.034,1.115,1.222   c0.563,0.188,1.17,0.071,1.625-0.311l14.271-11.968c0.455-0.381,0.674-0.959,0.588-1.546S475.521,231.393,474.976,231.158z" id="e1z7r8m9" />
<path class="fil0" d="M456.375,246.727l-2.45-1.104l-9.813-10.329c-0.83-0.874-2.215-0.964-3.152-0.205   l-9.602,7.785c-0.937,0.76-1.136,2.132-0.451,3.126l8.076,11.734l0.571,2.627c0.125,0.579,0.535,1.043,1.095,1.238   c0.561,0.196,1.17,0.093,1.631-0.281l14.469-11.729c0.461-0.374,0.689-0.947,0.613-1.536   C457.286,247.466,456.916,246.969,456.375,246.727z" id="e1z7r8m10" />
<path class="fil0" d="M437.511,261.98l-2.437-1.144l-9.639-10.489c-0.816-0.889-2.199-1-3.146-0.257l-9.729,7.626   c-0.949,0.743-1.17,2.112-0.502,3.117l7.881,11.866l0.529,2.637c0.115,0.581,0.518,1.052,1.074,1.258   c0.555,0.206,1.166,0.109,1.635-0.256l14.658-11.489c0.467-0.365,0.707-0.937,0.639-1.525   C438.409,262.734,438.046,262.232,437.511,261.98z" id="e1z7r8m11" />
<path class="fil0" d="M418.38,276.919l-2.414-1.185l-9.466-10.646c-0.803-0.9-2.184-1.037-3.145-0.31l-9.854,7.464   c-0.961,0.729-1.205,2.094-0.555,3.108l7.686,11.995l0.482,2.646c0.107,0.582,0.5,1.061,1.055,1.273   c0.553,0.215,1.164,0.131,1.639-0.229l14.849-11.244c0.473-0.358,0.721-0.925,0.664-1.517   C419.265,277.686,418.911,277.179,418.38,276.919z" id="e1z7r8m12" />
<path class="fil0" d="M398.991,291.534l-2.396-1.224l-9.285-10.803c-0.787-0.914-2.166-1.073-3.139-0.36   l-9.978,7.3c-0.975,0.712-1.24,2.073-0.604,3.102l7.483,12.119l0.441,2.652c0.098,0.584,0.481,1.066,1.029,1.292   c0.551,0.224,1.164,0.147,1.645-0.201l15.031-10.998c0.479-0.353,0.733-0.912,0.688-1.504   C399.863,292.317,399.519,291.804,398.991,291.534z" id="e1z7r8m13" />
<path class="fil0" d="M379.345,305.825l-2.375-1.264l-9.105-10.953c-0.771-0.93-2.146-1.108-3.133-0.413   l-10.096,7.134c-0.984,0.695-1.273,2.052-0.656,3.089l7.283,12.243l0.396,2.659c0.086,0.585,0.465,1.074,1.01,1.309   c0.548,0.233,1.16,0.168,1.646-0.175l15.213-10.747c0.483-0.344,0.75-0.899,0.715-1.492   C380.204,306.624,379.868,306.103,379.345,305.825z" id="e1z7r8m14" />
<path class="fil0" d="M359.447,319.788l-2.354-1.302l-8.923-11.104c-0.758-0.938-2.129-1.145-3.125-0.465   l-10.213,6.965c-0.996,0.68-1.309,2.031-0.709,3.078l7.08,12.361l0.353,2.666c0.078,0.588,0.447,1.084,0.988,1.326   c0.543,0.24,1.157,0.188,1.647-0.147l15.389-10.492c0.488-0.334,0.767-0.89,0.738-1.479   C360.289,320.598,359.964,320.074,359.447,319.788z" id="e1z7r8m15" />
<path class="fil0" d="M339.3,333.417l-2.33-1.341l-8.738-11.252c-0.74-0.952-2.107-1.182-3.115-0.518L314.79,327.1   c-1.008,0.662-1.342,2.01-0.76,3.064l6.873,12.479l0.307,2.672c0.068,0.588,0.43,1.09,0.967,1.342s1.154,0.207,1.648-0.118   l15.563-10.236c0.496-0.326,0.781-0.875,0.765-1.469C340.132,334.24,339.814,333.712,339.3,333.417z" id="e1z7r8m16" />
<path class="fil0" d="M318.911,346.708l-2.309-1.379l-8.549-11.396c-0.726-0.965-2.091-1.215-3.107-0.568   l-10.438,6.621c-1.021,0.646-1.375,1.984-0.812,3.053l6.664,12.593l0.264,2.676c0.058,0.588,0.408,1.098,0.941,1.356   c0.532,0.26,1.149,0.226,1.651-0.094l15.729-9.975c0.5-0.318,0.795-0.863,0.787-1.455   C319.728,347.546,319.419,347.01,318.911,346.708z" id="e1z7r8m17" />
<path class="fil0" d="M298.281,359.654l-2.283-1.418l-8.356-11.534c-0.709-0.979-2.068-1.25-3.099-0.621   l-10.549,6.444c-1.029,0.629-1.406,1.966-0.861,3.037l6.453,12.701l0.219,2.682c0.05,0.591,0.394,1.104,0.923,1.373   c0.528,0.27,1.145,0.244,1.651-0.063l15.894-9.711c0.508-0.312,0.812-0.851,0.813-1.443   C299.082,360.508,298.784,359.967,298.281,359.654z" id="e1z7r8m18" />
<path class="fil0" d="M277.412,372.258l-2.262-1.455l-8.162-11.676c-0.69-0.988-2.047-1.283-3.086-0.673   l-10.654,6.271c-1.039,0.609-1.44,1.938-0.912,3.023l6.238,12.807l0.176,2.684c0.037,0.593,0.373,1.109,0.896,1.39   c0.522,0.276,1.143,0.264,1.653-0.037l16.054-9.443c0.512-0.303,0.823-0.836,0.836-1.43   C278.204,373.124,277.911,372.579,277.412,372.258z" id="e1z7r8m19" />
<path class="fil0" d="M256.316,384.51l-2.236-1.49l-7.967-11.813c-0.674-1-2.023-1.316-3.074-0.724l-10.758,6.088   c-1.049,0.595-1.473,1.916-0.963,3.009l6.023,12.909l0.129,2.687c0.028,0.594,0.354,1.117,0.875,1.401   c0.52,0.287,1.139,0.285,1.653-0.008l16.209-9.174c0.519-0.293,0.838-0.822,0.859-1.414   C257.089,385.389,256.808,384.84,256.316,384.51z" id="e1z7r8m20" />
<path class="fil0" d="M234.988,396.411l-2.211-1.531l-7.766-11.941c-0.658-1.012-2.004-1.352-3.063-0.774   l-10.858,5.907c-1.06,0.576-1.504,1.89-1.015,2.99l5.81,13.01l0.084,2.688c0.02,0.592,0.336,1.123,0.852,1.418   c0.517,0.295,1.133,0.303,1.652,0.02l16.361-8.899c0.521-0.285,0.852-0.808,0.883-1.398   C235.748,397.305,235.476,396.747,234.988,396.411z" id="e1z7r8m21" />
<path class="fil0" d="M213.437,407.949l-2.185-1.565l-7.565-12.072c-0.642-1.021-1.979-1.385-3.049-0.824   l-10.957,5.724c-1.068,0.559-1.535,1.864-1.063,2.975l5.588,13.105l0.037,2.688c0.01,0.592,0.315,1.127,0.828,1.433   c0.51,0.303,1.127,0.319,1.651,0.047l16.511-8.625c0.524-0.273,0.862-0.791,0.903-1.384   C214.181,408.854,213.919,408.296,213.437,407.949z" id="e1z7r8m22" />
<path class="fil0" d="M191.664,419.128l-2.157-1.604l-7.361-12.197c-0.623-1.03-1.955-1.418-3.033-0.877   l-11.053,5.537c-1.078,0.541-1.564,1.838-1.111,2.957l5.365,13.195l-0.008,2.688c0,0.593,0.299,1.134,0.803,1.445   c0.504,0.313,1.123,0.34,1.652,0.074l16.649-8.346c0.531-0.267,0.879-0.777,0.932-1.367   C192.394,420.046,192.14,419.48,191.664,419.128z" id="e1z7r8m23" />
<path class="fil0" d="M169.677,429.939l-2.132-1.643l-7.153-12.318c-0.605-1.043-1.935-1.451-3.021-0.93   l-11.144,5.352c-1.088,0.521-1.598,1.813-1.164,2.938l5.144,13.285l-0.053,2.688c-0.013,0.592,0.278,1.137,0.778,1.459   c0.498,0.318,1.115,0.357,1.648,0.103l16.791-8.063c0.535-0.258,0.893-0.764,0.953-1.354   C170.39,430.867,170.146,430.301,169.677,429.939z" id="e1z7r8m24" />
</g>


</svg>
