<?xml version="1.0" encoding="utf-8"?>
<!-- Generator: Adobe Illustrator 16.0.0, SVG Export Plug-In . SVG Version: 6.00 Build 0)  -->
<!DOCTYPE svg PUBLIC "-//W3C//DTD SVG 1.1//EN" "http://www.w3.org/Graphics/SVG/1.1/DTD/svg11.dtd">
<svg version="1.1" id="Layer_1" xmlns="http://www.w3.org/2000/svg" xmlns:xlink="http://www.w3.org/1999/xlink" x="0px" y="0px"
	 width="599px" height="446.508px" viewBox="54.31 0 599 446.508" enable-background="new 54.31 0 599 446.508"
	 xml:space="preserve">
	 
<style type="text/css">
	<![CDATA[
	@font-face { font-family:"Arial";font-variant:normal;font-style:normal;font-weight:normal;src:url("#FontID0") format(svg)}
	.fil0 {fill:#EFEFEF; fill-opacity:0.3;}
	.fil3 {fill:#EFEFEF; fill-opacity:0.6;}
	.opa03 {fill-opacity:0.3;}
	.fil1 {fill:#000000; font-family:'Arial'; font-size:8pt; } 
	.fil2 {fill:#A7A9AB; font-family:'Arial'; font-size:8pt;}
	.seatSel {fill:#44FF00; fill-opacity:0.6;}
	.seatOcup {fill:#444444; fill-opacity:0.9;}
	.fnt0 {font-weight:normal;font-size:100px;font-family:'Arial'}
	.fnt1 {font-weight:normal;font-size:215.155px;font-family:'Arial'}
	]]>
</style>
<g>
	<path class="fil3" d="M590.269,405.016l-3.402-0.593l-15.459-9.711c-1.283-0.808-2.994-0.484-3.896,0.729l-9.445,12.704
		c-0.904,1.217-0.719,2.949,0.422,3.947l13.752,12.006l1.547,3.086c0.332,0.662,0.969,1.094,1.705,1.16
		c0.736,0.063,1.439-0.25,1.879-0.845l14.234-19.145c0.439-0.594,0.539-1.355,0.266-2.043
		C591.593,405.628,590.997,405.143,590.269,405.016z"/>
	<path class="fil3" d="M608.284,380.782l-3.4-0.593l-15.459-9.712c-1.283-0.805-2.996-0.482-3.898,0.73l-9.447,12.705
		c-0.902,1.216-0.717,2.945,0.424,3.942l13.752,12.008l1.551,3.087c0.33,0.661,0.969,1.096,1.701,1.157
		c0.736,0.065,1.439-0.25,1.883-0.843l14.23-19.144c0.441-0.595,0.539-1.356,0.268-2.044
		C609.611,381.395,609.011,380.909,608.284,380.782z"/>
	<path class="fil3" d="M626.3,356.552l-3.402-0.594l-15.459-9.711c-1.283-0.807-2.994-0.483-3.898,0.73l-9.443,12.704
		c-0.902,1.216-0.721,2.947,0.424,3.942l13.752,12.009l1.549,3.086c0.33,0.661,0.967,1.095,1.703,1.157
		c0.736,0.064,1.438-0.25,1.881-0.843l14.23-19.143c0.439-0.594,0.541-1.357,0.268-2.044
		C627.628,357.162,627.029,356.678,626.3,356.552z"/>
	<path class="fil3" d="M645.915,333.618c-0.271-0.688-0.871-1.174-1.6-1.301l-3.402-0.593l-15.459-9.711
		c-1.283-0.807-2.994-0.484-3.896,0.73l-9.445,12.703c-0.904,1.217-0.719,2.947,0.422,3.943l13.752,12.008l1.549,3.086
		c0.328,0.662,0.967,1.097,1.703,1.16c0.736,0.064,1.439-0.25,1.879-0.844l14.234-19.144
		C646.091,335.067,646.191,334.306,645.915,333.618z"/>
	<path class="fil3" d="M554.818,377.978l-3.402-0.593l-15.459-9.711c-1.281-0.808-2.996-0.484-3.896,0.729l-9.445,12.704
		c-0.904,1.217-0.719,2.948,0.422,3.946l13.752,12.006l1.547,3.087c0.332,0.661,0.971,1.096,1.705,1.159
		c0.736,0.064,1.439-0.25,1.879-0.845l14.234-19.144c0.439-0.594,0.539-1.354,0.266-2.043
		C556.144,378.59,555.548,378.104,554.818,377.978z"/>
	<path class="fil3" d="M559.935,376.229l14.23-19.143c0.441-0.595,0.539-1.357,0.268-2.045c-0.273-0.688-0.871-1.171-1.602-1.298
		l-3.402-0.593l-15.459-9.713c-1.281-0.805-2.996-0.481-3.896,0.731l-9.445,12.704c-0.902,1.216-0.719,2.946,0.424,3.942
		l13.752,12.01l1.547,3.086c0.332,0.661,0.969,1.095,1.705,1.158C558.792,377.139,559.493,376.823,559.935,376.229z"/>
	<path class="fil3" d="M559.066,336.589l13.754,12.009l1.547,3.086c0.332,0.661,0.969,1.094,1.705,1.158
		c0.736,0.063,1.438-0.25,1.879-0.845l14.23-19.143c0.439-0.593,0.541-1.357,0.27-2.044c-0.273-0.688-0.873-1.172-1.604-1.298
		l-3.4-0.594l-15.459-9.711c-1.283-0.808-2.996-0.483-3.898,0.729l-9.443,12.704C557.74,333.861,557.925,335.594,559.066,336.589z"
		/>
	<path class="fil3" d="M522.271,351.482c-0.273-0.688-0.871-1.172-1.602-1.299l-3.402-0.594l-15.459-9.711
		c-1.281-0.808-2.992-0.483-3.896,0.729l-9.445,12.704c-0.902,1.216-0.719,2.948,0.424,3.946l13.752,12.006l1.547,3.087
		c0.332,0.661,0.969,1.095,1.705,1.159c0.736,0.063,1.438-0.25,1.879-0.846l14.232-19.144
		C522.447,352.934,522.546,352.17,522.271,351.482z"/>
	<path class="fil3" d="M538.687,325.951l-3.402-0.593l-15.459-9.712c-1.283-0.806-2.996-0.482-3.896,0.729l-9.447,12.705
		c-0.902,1.216-0.717,2.946,0.424,3.943l13.752,12.009l1.547,3.086c0.332,0.66,0.969,1.095,1.705,1.157
		c0.736,0.064,1.439-0.25,1.881-0.843l14.232-19.145c0.441-0.595,0.539-1.355,0.266-2.044
		C540.011,326.563,539.415,326.078,538.687,325.951z"/>
	<path class="fil3" d="M538.673,320.804l1.549,3.086c0.33,0.661,0.967,1.095,1.703,1.158c0.736,0.063,1.438-0.25,1.881-0.844
		l14.23-19.144c0.441-0.593,0.541-1.356,0.268-2.044s-0.871-1.172-1.602-1.298l-3.4-0.593l-15.461-9.712
		c-1.281-0.807-2.994-0.483-3.898,0.729l-9.443,12.704c-0.902,1.216-0.721,2.948,0.424,3.943L538.673,320.804z"/>
	<path class="fil3" d="M485.507,322.426l-3.402-0.594l-15.459-9.711c-1.283-0.807-2.996-0.483-3.898,0.729l-9.443,12.704
		c-0.902,1.217-0.721,2.948,0.42,3.945l13.754,12.007l1.549,3.087c0.332,0.661,0.969,1.094,1.705,1.158
		c0.734,0.064,1.438-0.25,1.879-0.844l14.23-19.145c0.441-0.594,0.541-1.354,0.27-2.043
		C486.831,323.037,486.234,322.553,485.507,322.426z"/>
	<path class="fil3" d="M490.622,320.679l14.234-19.144c0.438-0.595,0.539-1.356,0.266-2.044s-0.873-1.171-1.6-1.299l-3.404-0.593
		l-15.459-9.712c-1.283-0.806-2.996-0.481-3.896,0.73l-9.445,12.705c-0.904,1.215-0.719,2.945,0.422,3.942l13.752,12.01l1.547,3.086
		c0.332,0.66,0.971,1.094,1.705,1.156C489.48,321.587,490.183,321.271,490.622,320.679z"/>
	<path class="fil3" d="M503.509,293.046l1.547,3.086c0.332,0.659,0.969,1.094,1.705,1.156c0.736,0.064,1.438-0.25,1.879-0.844
		l14.23-19.142c0.441-0.595,0.541-1.358,0.27-2.044c-0.275-0.688-0.873-1.172-1.604-1.299l-3.4-0.594l-15.459-9.711
		c-1.283-0.807-2.996-0.482-3.898,0.73l-9.445,12.704c-0.902,1.216-0.719,2.946,0.424,3.942L503.509,293.046z"/>
	<path class="fil3" d="M450.384,295.374l-3.4-0.594l-15.459-9.711c-1.283-0.806-2.994-0.482-3.898,0.731l-9.443,12.703
		c-0.904,1.217-0.721,2.947,0.422,3.945l13.752,12.006l1.547,3.089c0.332,0.659,0.969,1.094,1.705,1.157
		c0.736,0.064,1.439-0.25,1.879-0.845l14.234-19.144c0.439-0.595,0.539-1.355,0.266-2.043
		C451.714,295.986,451.115,295.501,450.384,295.374z"/>
	<path class="fil3" d="M455.505,293.628l14.23-19.145c0.439-0.594,0.541-1.355,0.268-2.043s-0.871-1.172-1.602-1.299l-3.402-0.593
		l-15.459-9.712c-1.281-0.806-2.994-0.482-3.896,0.73l-9.447,12.704c-0.902,1.216-0.717,2.947,0.424,3.943l13.752,12.009
		l1.549,3.087c0.33,0.66,0.971,1.094,1.703,1.156C454.361,294.535,455.062,294.221,455.505,293.628z"/>
	<path class="fil3" d="M468.386,265.994l1.549,3.086c0.332,0.661,0.969,1.095,1.705,1.157c0.734,0.064,1.438-0.25,1.879-0.844
		l14.23-19.143c0.439-0.593,0.541-1.357,0.27-2.044c-0.273-0.688-0.873-1.172-1.604-1.298l-3.402-0.595l-15.459-9.711
		c-1.281-0.806-2.992-0.482-3.896,0.731l-9.445,12.703c-0.902,1.217-0.719,2.947,0.424,3.942L468.386,265.994z"/>
	<path class="fil3" d="M415.072,268.07l-3.402-0.593l-15.459-9.712c-1.281-0.806-2.996-0.482-3.896,0.73l-9.445,12.704
		c-0.904,1.217-0.719,2.947,0.422,3.945l13.754,12.006l1.545,3.088c0.332,0.66,0.971,1.094,1.705,1.158
		c0.736,0.064,1.439-0.25,1.881-0.845l14.232-19.144c0.441-0.593,0.539-1.355,0.266-2.043
		C416.398,268.683,415.8,268.197,415.072,268.07z"/>
	<path class="fil3" d="M420.189,266.323l14.23-19.145c0.441-0.594,0.541-1.355,0.27-2.044c-0.275-0.687-0.873-1.171-1.604-1.298
		l-3.402-0.593l-15.459-9.712c-1.281-0.807-2.996-0.482-3.896,0.729l-9.445,12.705c-0.902,1.215-0.719,2.946,0.424,3.943
		l13.752,12.009l1.547,3.086c0.332,0.66,0.969,1.094,1.705,1.157C419.048,267.23,419.747,266.917,420.189,266.323z"/>
	<path class="fil3" d="M433.073,238.688l1.547,3.087c0.332,0.661,0.969,1.095,1.705,1.158c0.736,0.064,1.438-0.25,1.879-0.843
		l14.232-19.145c0.438-0.593,0.541-1.355,0.268-2.044c-0.273-0.687-0.873-1.173-1.602-1.298l-3.402-0.593l-15.459-9.711
		c-1.283-0.807-2.996-0.484-3.896,0.729l-9.447,12.707c-0.904,1.216-0.719,2.947,0.422,3.943L433.073,238.688z"/>
	<path class="fil3" d="M380.251,240.766l-3.4-0.593l-15.461-9.711c-1.281-0.807-2.994-0.484-3.898,0.729l-9.443,12.703
		c-0.902,1.218-0.721,2.948,0.424,3.946l13.754,12.006l1.547,3.088c0.33,0.66,0.967,1.094,1.703,1.158
		c0.734,0.064,1.438-0.25,1.881-0.845l14.23-19.145c0.439-0.593,0.539-1.354,0.268-2.043
		C381.577,241.378,380.98,240.893,380.251,240.766z"/>
	<path class="fil3" d="M385.368,239.019l14.23-19.143c0.439-0.595,0.541-1.357,0.268-2.045c-0.271-0.688-0.871-1.171-1.602-1.298
		l-3.4-0.594l-15.459-9.712c-1.283-0.805-2.996-0.481-3.896,0.731l-9.447,12.704c-0.902,1.216-0.717,2.947,0.424,3.942l13.752,12.01
		l1.547,3.086c0.332,0.661,0.969,1.095,1.705,1.156C384.226,239.927,384.925,239.61,385.368,239.019z"/>
	<path class="fil3" d="M398.251,211.386l1.549,3.086c0.332,0.661,0.969,1.094,1.705,1.157s1.438-0.25,1.881-0.844l14.23-19.143
		c0.439-0.593,0.541-1.357,0.268-2.044c-0.273-0.688-0.871-1.172-1.602-1.298l-3.402-0.595l-15.459-9.711
		c-1.281-0.807-2.994-0.482-3.898,0.73l-9.445,12.704c-0.902,1.216-0.719,2.948,0.424,3.942L398.251,211.386z"/>
	<path class="fil3" d="M345.343,213.059l-3.4-0.594l-15.461-9.711c-1.281-0.808-2.994-0.483-3.898,0.729l-9.443,12.704
		c-0.905,1.216-0.721,2.948,0.422,3.945l13.754,12.007l1.547,3.088c0.33,0.66,0.967,1.094,1.703,1.158
		c0.738,0.063,1.439-0.25,1.881-0.846l14.232-19.144c0.439-0.593,0.541-1.354,0.266-2.043
		C346.671,213.67,346.072,213.186,345.343,213.059z"/>
	<path class="fil3" d="M350.46,211.311l14.234-19.144c0.438-0.595,0.539-1.356,0.266-2.045c-0.273-0.687-0.873-1.171-1.6-1.298
		l-3.404-0.593l-15.459-9.712c-1.283-0.806-2.994-0.482-3.896,0.729l-9.445,12.705c-0.904,1.216-0.719,2.947,0.422,3.943
		l13.752,12.009l1.549,3.086c0.33,0.661,0.969,1.095,1.703,1.158C349.318,212.219,350.021,211.904,350.46,211.311z"/>
	<path class="fil3" d="M310.134,185.719l-3.402-0.593l-15.459-9.712c-1.28-0.807-2.996-0.483-3.897,0.73l-9.443,12.703
		c-0.903,1.217-0.721,2.948,0.42,3.946l13.757,12.006l1.545,3.088c0.332,0.66,0.969,1.094,1.705,1.158
		c0.735,0.063,1.438-0.25,1.881-0.845l14.229-19.145c0.441-0.593,0.541-1.354,0.269-2.043
		C311.46,186.33,310.862,185.846,310.134,185.719z"/>
	<path class="fil3" d="M315.251,183.972l14.232-19.144c0.439-0.595,0.541-1.356,0.268-2.044s-0.873-1.172-1.602-1.299
		l-3.402-0.593l-15.459-9.712c-1.283-0.805-2.996-0.481-3.896,0.73l-9.445,12.705c-0.903,1.215-0.719,2.946,0.423,3.942
		l13.752,12.01l1.547,3.086c0.332,0.66,0.97,1.094,1.705,1.156C314.109,184.88,314.81,184.563,315.251,183.972z"/>
	<path class="fil3" d="M275.147,158.498l-3.402-0.593l-15.459-9.713c-1.283-0.806-2.994-0.481-3.896,0.731l-9.445,12.704
		c-0.903,1.216-0.719,2.947,0.423,3.945l13.752,12.005l1.547,3.089c0.332,0.66,0.969,1.094,1.705,1.158
		c0.736,0.063,1.438-0.25,1.879-0.846l14.233-19.143c0.439-0.594,0.539-1.356,0.267-2.043
		C276.473,159.109,275.876,158.626,275.147,158.498z"/>
	<path class="fil3" d="M280.263,156.752l14.232-19.146c0.44-0.594,0.539-1.354,0.266-2.044c-0.272-0.686-0.871-1.171-1.6-1.298
		l-3.402-0.592l-15.459-9.712c-1.283-0.807-2.994-0.483-3.897,0.729l-9.445,12.705c-0.902,1.216-0.719,2.947,0.424,3.944
		l13.752,12.008l1.549,3.086c0.33,0.661,0.967,1.095,1.703,1.158C279.122,157.658,279.823,157.345,280.263,156.752z"/>
	<path class="fil3" d="M240.219,130.894l-3.399-0.593l-15.461-9.712c-1.281-0.807-2.994-0.483-3.896,0.73l-9.445,12.703
		c-0.903,1.217-0.719,2.948,0.423,3.946l13.754,12.005l1.545,3.088c0.332,0.661,0.969,1.095,1.705,1.159
		c0.737,0.063,1.438-0.25,1.881-0.845l14.231-19.145c0.439-0.593,0.541-1.354,0.267-2.043
		C241.548,131.506,240.948,131.021,240.219,130.894z"/>
	<path class="fil3" d="M245.339,129.146l14.23-19.144c0.44-0.595,0.541-1.356,0.268-2.045c-0.272-0.687-0.871-1.171-1.602-1.298
		l-3.402-0.593l-15.459-9.712c-1.281-0.806-2.996-0.482-3.896,0.73l-9.444,12.704c-0.904,1.216-0.72,2.947,0.422,3.944l13.752,12.01
		l1.547,3.086c0.332,0.661,0.97,1.095,1.705,1.158C244.195,130.053,244.895,129.74,245.339,129.146z"/>
	<path class="fil3" d="M205.016,103.448l-3.402-0.594l-15.461-9.711c-1.279-0.807-2.992-0.483-3.896,0.729l-9.445,12.704
		c-0.901,1.217-0.719,2.947,0.425,3.945l13.752,12.005l1.547,3.089c0.332,0.66,0.969,1.095,1.705,1.158
		c0.736,0.065,1.438-0.25,1.879-0.844l14.231-19.145c0.441-0.594,0.541-1.354,0.269-2.043
		C206.342,104.061,205.745,103.575,205.016,103.448z"/>
	<path class="fil3" d="M210.134,101.701l14.232-19.145c0.438-0.594,0.539-1.355,0.266-2.044c-0.272-0.687-0.871-1.172-1.6-1.299
		l-3.404-0.592l-15.459-9.712c-1.281-0.806-2.994-0.483-3.896,0.73l-9.446,12.704c-0.902,1.216-0.718,2.946,0.424,3.943
		l13.752,12.009l1.549,3.086c0.332,0.661,0.97,1.095,1.705,1.157C208.989,102.609,209.692,102.295,210.134,101.701z"/>
	<path class="fil3" d="M169.852,76.25l-3.402-0.593l-15.459-9.711c-1.283-0.808-2.996-0.484-3.898,0.729l-9.443,12.704
		c-0.903,1.217-0.721,2.948,0.42,3.946l13.754,12.006l1.548,3.089c0.332,0.659,0.969,1.093,1.705,1.157
		c0.735,0.063,1.438-0.25,1.879-0.845l14.231-19.145c0.441-0.593,0.539-1.354,0.269-2.043
		C171.177,76.863,170.581,76.377,169.852,76.25z"/>
	<path class="fil3" d="M174.969,74.503l14.23-19.145c0.44-0.594,0.541-1.355,0.268-2.044c-0.272-0.687-0.871-1.172-1.6-1.298
		l-3.404-0.593l-15.459-9.712c-1.281-0.805-2.996-0.482-3.896,0.729l-9.445,12.705c-0.904,1.217-0.719,2.946,0.422,3.943
		l13.752,12.008l1.549,3.087c0.332,0.661,0.969,1.096,1.705,1.157C173.827,75.411,174.528,75.097,174.969,74.503z"/>
	<path class="fil3" d="M135.095,48.643l-3.401-0.594l-15.461-9.712c-1.281-0.806-2.994-0.482-3.898,0.73l-9.443,12.704
		c-0.904,1.217-0.721,2.948,0.422,3.946l13.754,12.006l1.545,3.088c0.332,0.66,0.97,1.094,1.705,1.158
		c0.736,0.063,1.438-0.25,1.882-0.846L136.43,51.98c0.439-0.593,0.539-1.355,0.267-2.043
		C136.423,49.253,135.823,48.769,135.095,48.643z"/>
	<path class="fil3" d="M100.194,21.375l-3.402-0.593l-15.459-9.711c-1.281-0.807-2.992-0.484-3.896,0.73l-9.444,12.703
		c-0.904,1.217-0.72,2.947,0.422,3.945l13.752,12.006l1.549,3.088c0.33,0.66,0.968,1.095,1.703,1.158
		c0.735,0.064,1.438-0.25,1.881-0.845l14.232-19.144c0.44-0.594,0.539-1.355,0.266-2.043
		C101.52,21.988,100.925,21.502,100.194,21.375z"/>
</g>
<text transform="matrix(0.6149 -0.7886 0.7886 0.6149 67.5374 50.8252)" class="fil2">1</text>
<text transform="matrix(0.6149 -0.7886 0.7886 0.6149 102.5735 78.1396)" class="fil2">2</text>
<text transform="matrix(0.6149 -0.7886 0.7886 0.6149 137.6086 105.4561)" class="fil2">3</text>
<text transform="matrix(0.6149 -0.7886 0.7886 0.6149 172.6438 132.7725)" class="fil2">4</text>
<text transform="matrix(0.6149 -0.7886 0.7886 0.6149 207.679 160.0889)" class="fil2">5</text>
<text transform="matrix(0.6149 -0.7886 0.7886 0.6149 242.7151 187.4033)" class="fil2">6</text>
<text transform="matrix(0.6149 -0.7886 0.7886 0.6149 277.7502 214.7197)" class="fil2">7</text>
<text transform="matrix(0.6149 -0.7886 0.7886 0.6149 312.7854 242.0361)" class="fil2">8</text>
<text transform="matrix(0.6149 -0.7886 0.7886 0.6149 347.8206 269.3506)" class="fil2">9</text>
<text transform="matrix(0.6149 -0.7886 0.7886 0.6149 381.4133 298.5186)" class="fil2">1</text>
<text transform="matrix(0.6149 -0.7886 0.7886 0.6149 384.3 294.8154)" class="fil2">0</text>
<text transform="matrix(0.6149 -0.7886 0.7886 0.6149 416.4485 325.835)" class="fil2">1</text>
<text transform="matrix(0.6149 -0.7886 0.7886 0.6149 419.3352 322.1318)" class="fil2">1</text>
<text transform="matrix(0.6149 -0.7886 0.7886 0.6149 451.4836 353.1494)" class="fil2">1</text>
<text transform="matrix(0.6149 -0.7886 0.7886 0.6149 454.3704 349.4463)" class="fil2">2</text>
<text transform="matrix(0.6149 -0.7886 0.7886 0.6149 486.5188 380.4658)" class="fil2">1</text>
<text transform="matrix(0.6149 -0.7886 0.7886 0.6149 489.4065 376.7627)" class="fil2">3</text>
<text transform="matrix(0.6149 -0.7886 0.7886 0.6149 521.5549 407.7822)" class="fil2">1</text>
<text transform="matrix(0.6149 -0.7886 0.7886 0.6149 524.4417 404.0791)" class="fil2">4</text>
<text transform="matrix(0.6149 -0.7886 0.7886 0.6149 556.5901 435.0967)" class="fil2">1</text>
<text transform="matrix(0.6149 -0.7886 0.7886 0.6149 559.4768 431.3955)" class="fil2">5</text>
<text transform="matrix(1 0 0 1 624.5637 341.8672)" class="fil1">1</text>
<text transform="matrix(1 0 0 1 606.55 365.5645)" class="fil1">2</text>
<text transform="matrix(1 0 0 1 589.1145 390)" class="fil1">3</text>
<text transform="matrix(1 0 0 1 570.8059 338.7783)" class="fil1">1</text>
<text transform="matrix(1 0 0 1 552.7922 362.4766)" class="fil1">2</text>
<text transform="matrix(1 0 0 1 535.3586 386.9248)" class="fil1">3</text>
<text transform="matrix(1 0 0 1 537.1047 310.9834)" class="fil1">1</text>
<text transform="matrix(1 0 0 1 519.0911 334.6816)" class="fil1">2</text>
<text transform="matrix(1 0 0 1 501.6575 359.1172)" class="fil1">3</text>
<text transform="matrix(1 0 0 1 501.9153 283.2734)" class="fil1">1</text>
<text transform="matrix(1 0 0 1 483.9016 306.9717)" class="fil1">2</text>
<text transform="matrix(1 0 0 1 466.4661 331.4082)" class="fil1">3</text>
<text transform="matrix(1 0 0 1 466.7981 256.1914)" class="fil1">1</text>
<text transform="matrix(1 0 0 1 448.7844 279.8906)" class="fil1">2</text>
<text transform="matrix(1 0 0 1 431.3508 304.3262)" class="fil1">3</text>
<text transform="matrix(1 0 0 1 431.5344 228.7539)" class="fil1">1</text>
<text transform="matrix(1 0 0 1 413.5208 252.4521)" class="fil1">2</text>
<text transform="matrix(1 0 0 1 396.0872 276.9004)" class="fil1">3</text>
<text transform="matrix(1 0 0 1 396.6653 201.4268)" class="fil1">1</text>
<text transform="matrix(1 0 0 1 378.6516 225.124)" class="fil1">2</text>
<text transform="matrix(1 0 0 1 343.6204 198.1904)" class="fil1">1</text>
<text transform="matrix(1 0 0 1 325.6086 221.8877)" class="fil1">2</text>
<text transform="matrix(1 0 0 1 308.1726 170.5791)" class="fil1">1</text>
<text transform="matrix(1 0 0 1 290.1589 194.2773)" class="fil1">2</text>
<text transform="matrix(1 0 0 1 273.3757 143.3877)" class="fil1">1</text>
<text transform="matrix(1 0 0 1 255.3621 167.085)" class="fil1">2</text>
<text transform="matrix(1 0 0 1 238.8386 116.2568)" class="fil1">1</text>
<text transform="matrix(1 0 0 1 220.825 139.9541)" class="fil1">2</text>
<text transform="matrix(1 0 0 1 203.3406 88.5107)" class="fil1">1</text>
<text transform="matrix(1 0 0 1 185.3269 112.208)" class="fil1">2</text>
<text transform="matrix(1 0 0 1 168.2234 61.4541)" class="fil1">1</text>
<text transform="matrix(1 0 0 1 115.0691 57.7998)" class="fil1">1</text>
<text transform="matrix(1 0 0 1 80.4832 30.46)" class="fil1">1</text>
<text transform="matrix(1 0 0 1 150.2097 85.1514)" class="fil1">2</text>
<text transform="matrix(1 0 0 1 361.2395 249.5977)" class="fil1">3</text>
<text transform="matrix(1 0 0 1 570.8176 414.166)" class="fil1">4</text>
<g>
	<path id="e1z11r15m4" class="fil0" d="M590.269,405.016l-3.402-0.593l-15.459-9.711c-1.283-0.808-2.994-0.484-3.896,0.729l-9.445,12.704
		c-0.904,1.217-0.719,2.949,0.422,3.947l13.752,12.006l1.547,3.086c0.332,0.662,0.969,1.094,1.705,1.16
		c0.736,0.063,1.439-0.25,1.879-0.845l14.234-19.145c0.439-0.594,0.539-1.355,0.266-2.043
		C591.593,405.628,590.997,405.143,590.269,405.016z"/>
	<path id="e1z11r15m3" class="fil0" d="M608.284,380.782l-3.4-0.593l-15.459-9.712c-1.283-0.805-2.996-0.482-3.898,0.73l-9.447,12.705
		c-0.902,1.216-0.717,2.945,0.424,3.942l13.752,12.008l1.551,3.087c0.33,0.661,0.969,1.096,1.701,1.157
		c0.736,0.065,1.439-0.25,1.883-0.843l14.23-19.144c0.441-0.595,0.539-1.356,0.268-2.044
		C609.611,381.395,609.011,380.909,608.284,380.782z"/>
	<path id="e1z11r15m2" class="fil0" d="M626.3,356.552l-3.402-0.594l-15.459-9.711c-1.283-0.807-2.994-0.483-3.898,0.73l-9.443,12.704
		c-0.902,1.216-0.721,2.947,0.424,3.942l13.752,12.009l1.549,3.086c0.33,0.661,0.967,1.095,1.703,1.157
		c0.736,0.064,1.438-0.25,1.881-0.843l14.23-19.143c0.439-0.594,0.541-1.357,0.268-2.044
		C627.628,357.162,627.029,356.678,626.3,356.552z"/>
	<path id="e1z11r15m1" class="fil0" d="M645.915,333.618c-0.271-0.688-0.871-1.174-1.6-1.301l-3.402-0.593l-15.459-9.711
		c-1.283-0.807-2.994-0.484-3.896,0.73l-9.445,12.703c-0.904,1.217-0.719,2.947,0.422,3.943l13.752,12.008l1.549,3.086
		c0.328,0.662,0.967,1.097,1.703,1.16c0.736,0.064,1.439-0.25,1.879-0.844l14.234-19.144
		C646.091,335.067,646.191,334.306,645.915,333.618z"/>
	<path id="e1z11r14m3" class="fil0" d="M554.818,377.978l-3.402-0.593l-15.459-9.711c-1.281-0.808-2.996-0.484-3.896,0.729l-9.445,12.704
		c-0.904,1.217-0.719,2.948,0.422,3.946l13.752,12.006l1.547,3.087c0.332,0.661,0.971,1.096,1.705,1.159
		c0.736,0.064,1.439-0.25,1.879-0.845l14.234-19.144c0.439-0.594,0.539-1.354,0.266-2.043
		C556.144,378.59,555.548,378.104,554.818,377.978z"/>
	<path id="e1z11r14m2" class="fil0" d="M559.935,376.229l14.23-19.143c0.441-0.595,0.539-1.357,0.268-2.045c-0.273-0.688-0.871-1.171-1.602-1.298
		l-3.402-0.593l-15.459-9.713c-1.281-0.805-2.996-0.481-3.896,0.731l-9.445,12.704c-0.902,1.216-0.719,2.946,0.424,3.942
		l13.752,12.01l1.547,3.086c0.332,0.661,0.969,1.095,1.705,1.158C558.792,377.139,559.493,376.823,559.935,376.229z"/>
	<path id="e1z11r14m1" class="fil0" d="M559.066,336.589l13.754,12.009l1.547,3.086c0.332,0.661,0.969,1.094,1.705,1.158
		c0.736,0.063,1.438-0.25,1.879-0.845l14.23-19.143c0.439-0.593,0.541-1.357,0.27-2.044c-0.273-0.688-0.873-1.172-1.604-1.298
		l-3.4-0.594l-15.459-9.711c-1.283-0.808-2.996-0.483-3.898,0.729l-9.443,12.704C557.74,333.861,557.925,335.594,559.066,336.589z"
		/>
	<path id="e1z11r13m3" class="fil0" d="M522.271,351.482c-0.273-0.688-0.871-1.172-1.602-1.299l-3.402-0.594l-15.459-9.711
		c-1.281-0.808-2.992-0.483-3.896,0.729l-9.445,12.704c-0.902,1.216-0.719,2.948,0.424,3.946l13.752,12.006l1.547,3.087
		c0.332,0.661,0.969,1.095,1.705,1.159c0.736,0.063,1.438-0.25,1.879-0.846l14.232-19.144
		C522.447,352.934,522.546,352.17,522.271,351.482z"/>
	<path id="e1z11r13m2" class="fil0" d="M538.687,325.951l-3.402-0.593l-15.459-9.712c-1.283-0.806-2.996-0.482-3.896,0.729l-9.447,12.705
		c-0.902,1.216-0.717,2.946,0.424,3.943l13.752,12.009l1.547,3.086c0.332,0.66,0.969,1.095,1.705,1.157
		c0.736,0.064,1.439-0.25,1.881-0.843l14.232-19.145c0.441-0.595,0.539-1.355,0.266-2.044
		C540.011,326.563,539.415,326.078,538.687,325.951z"/>
	<path id="e1z11r13m1" class="fil0" d="M538.673,320.804l1.549,3.086c0.33,0.661,0.967,1.095,1.703,1.158c0.736,0.063,1.438-0.25,1.881-0.844
		l14.23-19.144c0.441-0.593,0.541-1.356,0.268-2.044s-0.871-1.172-1.602-1.298l-3.4-0.593l-15.461-9.712
		c-1.281-0.807-2.994-0.483-3.898,0.729l-9.443,12.704c-0.902,1.216-0.721,2.948,0.424,3.943L538.673,320.804z"/>
	<path id="e1z11r12m3" class="fil0" d="M485.507,322.426l-3.402-0.594l-15.459-9.711c-1.283-0.807-2.996-0.483-3.898,0.729l-9.443,12.704
		c-0.902,1.217-0.721,2.948,0.42,3.945l13.754,12.007l1.549,3.087c0.332,0.661,0.969,1.094,1.705,1.158
		c0.734,0.064,1.438-0.25,1.879-0.844l14.23-19.145c0.441-0.594,0.541-1.354,0.27-2.043
		C486.831,323.037,486.234,322.553,485.507,322.426z"/>
	<path id="e1z11r12m2" class="fil0" d="M490.622,320.679l14.234-19.144c0.438-0.595,0.539-1.356,0.266-2.044s-0.873-1.171-1.6-1.299l-3.404-0.593
		l-15.459-9.712c-1.283-0.806-2.996-0.481-3.896,0.73l-9.445,12.705c-0.904,1.215-0.719,2.945,0.422,3.942l13.752,12.01l1.547,3.086
		c0.332,0.66,0.971,1.094,1.705,1.156C489.48,321.587,490.183,321.271,490.622,320.679z"/>
	<path id="e1z11r12m1" class="fil0" d="M503.509,293.046l1.547,3.086c0.332,0.659,0.969,1.094,1.705,1.156c0.736,0.064,1.438-0.25,1.879-0.844
		l14.23-19.142c0.441-0.595,0.541-1.358,0.27-2.044c-0.275-0.688-0.873-1.172-1.604-1.299l-3.4-0.594l-15.459-9.711
		c-1.283-0.807-2.996-0.482-3.898,0.73l-9.445,12.704c-0.902,1.216-0.719,2.946,0.424,3.942L503.509,293.046z"/>
	<path id="e1z11r11m3" class="fil0" d="M450.384,295.374l-3.4-0.594l-15.459-9.711c-1.283-0.806-2.994-0.482-3.898,0.731l-9.443,12.703
		c-0.904,1.217-0.721,2.947,0.422,3.945l13.752,12.006l1.547,3.089c0.332,0.659,0.969,1.094,1.705,1.157
		c0.736,0.064,1.439-0.25,1.879-0.845l14.234-19.144c0.439-0.595,0.539-1.355,0.266-2.043
		C451.714,295.986,451.115,295.501,450.384,295.374z"/>
	<path id="e1z11r11m2" class="fil0" d="M455.505,293.628l14.23-19.145c0.439-0.594,0.541-1.355,0.268-2.043s-0.871-1.172-1.602-1.299l-3.402-0.593
		l-15.459-9.712c-1.281-0.806-2.994-0.482-3.896,0.73l-9.447,12.704c-0.902,1.216-0.717,2.947,0.424,3.943l13.752,12.009
		l1.549,3.087c0.33,0.66,0.971,1.094,1.703,1.156C454.361,294.535,455.062,294.221,455.505,293.628z"/>
	<path id="e1z11r11m1" class="fil0" d="M468.386,265.994l1.549,3.086c0.332,0.661,0.969,1.095,1.705,1.157c0.734,0.064,1.438-0.25,1.879-0.844
		l14.23-19.143c0.439-0.593,0.541-1.357,0.27-2.044c-0.273-0.688-0.873-1.172-1.604-1.298l-3.402-0.595l-15.459-9.711
		c-1.281-0.806-2.992-0.482-3.896,0.731l-9.445,12.703c-0.902,1.217-0.719,2.947,0.424,3.942L468.386,265.994z"/>
	<path id="e1z11r10m3" class="fil0" d="M415.072,268.07l-3.402-0.593l-15.459-9.712c-1.281-0.806-2.996-0.482-3.896,0.73l-9.445,12.704
		c-0.904,1.217-0.719,2.947,0.422,3.945l13.754,12.006l1.545,3.088c0.332,0.66,0.971,1.094,1.705,1.158
		c0.736,0.064,1.439-0.25,1.881-0.845l14.232-19.144c0.441-0.593,0.539-1.355,0.266-2.043
		C416.398,268.683,415.8,268.197,415.072,268.07z"/>
	<path id="e1z11r10m2" class="fil0" d="M420.189,266.323l14.23-19.145c0.441-0.594,0.541-1.355,0.27-2.044c-0.275-0.687-0.873-1.171-1.604-1.298
		l-3.402-0.593l-15.459-9.712c-1.281-0.807-2.996-0.482-3.896,0.729l-9.445,12.705c-0.902,1.215-0.719,2.946,0.424,3.943
		l13.752,12.009l1.547,3.086c0.332,0.66,0.969,1.094,1.705,1.157C419.048,267.23,419.747,266.917,420.189,266.323z"/>
	<path id="e1z11r10m1" class="fil0" d="M433.073,238.688l1.547,3.087c0.332,0.661,0.969,1.095,1.705,1.158c0.736,0.064,1.438-0.25,1.879-0.843
		l14.232-19.145c0.438-0.593,0.541-1.355,0.268-2.044c-0.273-0.687-0.873-1.173-1.602-1.298l-3.402-0.593l-15.459-9.711
		c-1.283-0.807-2.996-0.484-3.896,0.729l-9.447,12.707c-0.904,1.216-0.719,2.947,0.422,3.943L433.073,238.688z"/>
	<path id="e1z11r9m3" class="fil0" d="M380.251,240.766l-3.4-0.593l-15.461-9.711c-1.281-0.807-2.994-0.484-3.898,0.729l-9.443,12.703
		c-0.902,1.218-0.721,2.948,0.424,3.946l13.754,12.006l1.547,3.088c0.33,0.66,0.967,1.094,1.703,1.158
		c0.734,0.064,1.438-0.25,1.881-0.845l14.23-19.145c0.439-0.593,0.539-1.354,0.268-2.043
		C381.577,241.378,380.98,240.893,380.251,240.766z"/>
	<path id="e1z11r9m2" class="fil0" d="M385.368,239.019l14.23-19.143c0.439-0.595,0.541-1.357,0.268-2.045c-0.271-0.688-0.871-1.171-1.602-1.298
		l-3.4-0.594l-15.459-9.712c-1.283-0.805-2.996-0.481-3.896,0.731l-9.447,12.704c-0.902,1.216-0.717,2.947,0.424,3.942l13.752,12.01
		l1.547,3.086c0.332,0.661,0.969,1.095,1.705,1.156C384.226,239.927,384.925,239.61,385.368,239.019z"/>
	<path id="e1z11r9m1" class="fil0" d="M398.251,211.386l1.549,3.086c0.332,0.661,0.969,1.094,1.705,1.157s1.438-0.25,1.881-0.844l14.23-19.143
		c0.439-0.593,0.541-1.357,0.268-2.044c-0.273-0.688-0.871-1.172-1.602-1.298l-3.402-0.595l-15.459-9.711
		c-1.281-0.807-2.994-0.482-3.898,0.73l-9.445,12.704c-0.902,1.216-0.719,2.948,0.424,3.942L398.251,211.386z"/>
	<path id="e1z11r8m2" class="fil0" d="M345.343,213.059l-3.4-0.594l-15.461-9.711c-1.281-0.808-2.994-0.483-3.898,0.729l-9.443,12.704
		c-0.905,1.216-0.721,2.948,0.422,3.945l13.754,12.007l1.547,3.088c0.33,0.66,0.967,1.094,1.703,1.158
		c0.738,0.063,1.439-0.25,1.881-0.846l14.232-19.144c0.439-0.593,0.541-1.354,0.266-2.043
		C346.671,213.67,346.072,213.186,345.343,213.059z"/>
	<path id="e1z11r8m1" class="fil0" d="M350.46,211.311l14.234-19.144c0.438-0.595,0.539-1.356,0.266-2.045c-0.273-0.687-0.873-1.171-1.6-1.298
		l-3.404-0.593l-15.459-9.712c-1.283-0.806-2.994-0.482-3.896,0.729l-9.445,12.705c-0.904,1.216-0.719,2.947,0.422,3.943
		l13.752,12.009l1.549,3.086c0.33,0.661,0.969,1.095,1.703,1.158C349.318,212.219,350.021,211.904,350.46,211.311z"/>
	<path id="e1z11r7m2" class="fil0" d="M310.134,185.719l-3.402-0.593l-15.459-9.712c-1.28-0.807-2.996-0.483-3.897,0.73l-9.443,12.703
		c-0.903,1.217-0.721,2.948,0.42,3.946l13.757,12.006l1.545,3.088c0.332,0.66,0.969,1.094,1.705,1.158
		c0.735,0.063,1.438-0.25,1.881-0.845l14.229-19.145c0.441-0.593,0.541-1.354,0.269-2.043
		C311.46,186.33,310.862,185.846,310.134,185.719z"/>
	<path id="e1z11r7m1" class="fil0" d="M315.251,183.972l14.232-19.144c0.439-0.595,0.541-1.356,0.268-2.044s-0.873-1.172-1.602-1.299
		l-3.402-0.593l-15.459-9.712c-1.283-0.805-2.996-0.481-3.896,0.73l-9.445,12.705c-0.903,1.215-0.719,2.946,0.423,3.942
		l13.752,12.01l1.547,3.086c0.332,0.66,0.97,1.094,1.705,1.156C314.109,184.88,314.81,184.563,315.251,183.972z"/>
	<path id="e1z11r6m1" class="fil0" d="M275.147,158.498l-3.402-0.593l-15.459-9.713c-1.283-0.806-2.994-0.481-3.896,0.731l-9.445,12.704
		c-0.903,1.216-0.719,2.947,0.423,3.945l13.752,12.005l1.547,3.089c0.332,0.66,0.969,1.094,1.705,1.158
		c0.736,0.063,1.438-0.25,1.879-0.846l14.233-19.143c0.439-0.594,0.539-1.356,0.267-2.043
		C276.473,159.109,275.876,158.626,275.147,158.498z"/>
	<path id="e1z11r6m2" class="fil0" d="M280.263,156.752l14.232-19.146c0.44-0.594,0.539-1.354,0.266-2.044c-0.272-0.686-0.871-1.171-1.6-1.298
		l-3.402-0.592l-15.459-9.712c-1.283-0.807-2.994-0.483-3.897,0.729l-9.445,12.705c-0.902,1.216-0.719,2.947,0.424,3.944
		l13.752,12.008l1.549,3.086c0.33,0.661,0.967,1.095,1.703,1.158C279.122,157.658,279.823,157.345,280.263,156.752z"/>
	<path id="e1z11r5m2" class="fil0" d="M240.219,130.894l-3.399-0.593l-15.461-9.712c-1.281-0.807-2.994-0.483-3.896,0.73l-9.445,12.703
		c-0.903,1.217-0.719,2.948,0.423,3.946l13.754,12.005l1.545,3.088c0.332,0.661,0.969,1.095,1.705,1.159
		c0.737,0.063,1.438-0.25,1.881-0.845l14.231-19.145c0.439-0.593,0.541-1.354,0.267-2.043
		C241.548,131.506,240.948,131.021,240.219,130.894z"/>
	<path id="e1z11r5m1" class="fil0" d="M245.339,129.146l14.23-19.144c0.44-0.595,0.541-1.356,0.268-2.045c-0.272-0.687-0.871-1.171-1.602-1.298
		l-3.402-0.593l-15.459-9.712c-1.281-0.806-2.996-0.482-3.896,0.73l-9.444,12.704c-0.904,1.216-0.72,2.947,0.422,3.944l13.752,12.01
		l1.547,3.086c0.332,0.661,0.97,1.095,1.705,1.158C244.195,130.053,244.895,129.74,245.339,129.146z"/>
	<path id="e1z11r4m2" class="fil0" d="M205.016,103.448l-3.402-0.594l-15.461-9.711c-1.279-0.807-2.992-0.483-3.896,0.729l-9.445,12.704
		c-0.901,1.217-0.719,2.947,0.425,3.945l13.752,12.005l1.547,3.089c0.332,0.66,0.969,1.095,1.705,1.158
		c0.736,0.065,1.438-0.25,1.879-0.844l14.231-19.145c0.441-0.594,0.541-1.354,0.269-2.043
		C206.342,104.061,205.745,103.575,205.016,103.448z"/>
	<path id="e1z11r4m1" class="fil0" d="M210.134,101.701l14.232-19.145c0.438-0.594,0.539-1.355,0.266-2.044c-0.272-0.687-0.871-1.172-1.6-1.299
		l-3.404-0.592l-15.459-9.712c-1.281-0.806-2.994-0.483-3.896,0.73l-9.446,12.704c-0.902,1.216-0.718,2.946,0.424,3.943
		l13.752,12.009l1.549,3.086c0.332,0.661,0.97,1.095,1.705,1.157C208.989,102.609,209.692,102.295,210.134,101.701z"/>
	<path id="e1z11r3m2" class="fil0" d="M169.852,76.25l-3.402-0.593l-15.459-9.711c-1.283-0.808-2.996-0.484-3.898,0.729l-9.443,12.704
		c-0.903,1.217-0.721,2.948,0.42,3.946l13.754,12.006l1.548,3.089c0.332,0.659,0.969,1.093,1.705,1.157
		c0.735,0.063,1.438-0.25,1.879-0.845l14.231-19.145c0.441-0.593,0.539-1.354,0.269-2.043
		C171.177,76.863,170.581,76.377,169.852,76.25z"/>
	<path id="e1z11r3m1" class="fil0" d="M174.969,74.503l14.23-19.145c0.44-0.594,0.541-1.355,0.268-2.044c-0.272-0.687-0.871-1.172-1.6-1.298
		l-3.404-0.593l-15.459-9.712c-1.281-0.805-2.996-0.482-3.896,0.729l-9.445,12.705c-0.904,1.217-0.719,2.946,0.422,3.943
		l13.752,12.008l1.549,3.087c0.332,0.661,0.969,1.096,1.705,1.157C173.827,75.411,174.528,75.097,174.969,74.503z"/>
	<path id="e1z11r2m1" class="fil0" d="M135.095,48.643l-3.401-0.594l-15.461-9.712c-1.281-0.806-2.994-0.482-3.898,0.73l-9.443,12.704
		c-0.904,1.217-0.721,2.948,0.422,3.946l13.754,12.006l1.545,3.088c0.332,0.66,0.97,1.094,1.705,1.158
		c0.736,0.063,1.438-0.25,1.882-0.846L136.43,51.98c0.439-0.593,0.539-1.355,0.267-2.043
		C136.423,49.253,135.823,48.769,135.095,48.643z"/>
	<path id="e1z11r1m1" class="fil0" d="M100.194,21.375l-3.402-0.593l-15.459-9.711c-1.281-0.807-2.992-0.484-3.896,0.73l-9.444,12.703
		c-0.904,1.217-0.72,2.947,0.422,3.945l13.752,12.006l1.549,3.088c0.33,0.66,0.968,1.095,1.703,1.158
		c0.735,0.064,1.438-0.25,1.881-0.845l14.232-19.144c0.44-0.594,0.539-1.355,0.266-2.043
		C101.52,21.988,100.925,21.502,100.194,21.375z"/>
</g>
</svg>
