<?xml version="1.0" encoding="utf-8"?>
<!-- Generator: Adobe Illustrator 16.0.0, SVG Export Plug-In . SVG Version: 6.00 Build 0)  -->
<!--DOCTYPE svg PUBLIC "-//W3C//DTD SVG 1.1//EN" "http://www.w3.org/Graphics/SVG/1.1/DTD/svg11.dtd"-->
<svg version="1.1" id="Layer_3" xmlns="http://www.w3.org/2000/svg" xmlns:xlink="http://www.w3.org/1999/xlink" x="0px" y="0px"
	 width="3878.375px" height="1935.058px" viewBox="-362.113 0 3878.375 1935.058"
	 enable-background="new -362.113 0 3878.375 1935.058" xml:space="preserve">
	 
<style type="text/css">
	<![CDATA[
	@font-face { font-family:"Arial";font-variant:normal;font-style:normal;font-weight:normal;src:url("#FontID0") format(svg)}
	.fil0 {fill:#8655FF; fill-opacity:0.3;}
	.opa03 {fill-opacity:0.7;}
	.fil1 {fill:#000000;}
	.fil2 {fill:#efbe00; fill-opacity:0.4;}
	.seatSel {fill:#FF6600}
	.seatOcup {fill:#FFAAAA}
	.fnt0 {font-weight:normal;font-size:100px;font-family:'Arial'}
	.fnt1 {font-weight:normal;font-size:215.155px;font-family:'Arial'}
	]]>
</style>	 


<!--  ###################  -->

	<path id="zone1" class="opa03" fill="#8655FF" d="M1589.652,410.993l0.645-1.438l0.23-6.807l3.375-103.9l1.164-36.685l0.303-13.13
		c0.098-4.144,3.416-7.567,7.553-7.796l11.92-0.66c14.686-1.147,53.219-2.911,119.73-18.584s135.807-50.854,136.109-51.008
		l3.381-1.718l0.004-0.002c0,0,64.822-38.112,97.297-61.279c32.471-23.167,75.752-66.951,75.752-66.951
		c1.506-1.497,3.508-2.32,5.639-2.32c1.916,0,3.77,0.687,5.213,1.932l2.896,2.491l52.279,43.936
		c0.512,0.273,0.992,0.598,1.438,0.979l9.229,7.981l26.189,22.007l2.391,1.925l0.029,0.109l28.303,23.784l1.502,0.467
		c2.457,0.764,4.307,2.707,4.947,5.204c0.643,2.499-0.047,5.098-1.84,6.949l-4.287,4.431c-0.035,0.04-92.213,102.759-224.434,168.22
		c-0.393,0.292-0.813,0.551-1.268,0.767l-12.77,6.041c-9.979,5.229-86.086,44.106-183.391,65.104
		c-8.521,1.84-16.703,3.507-24.553,5.024l-3.441,0.708c-0.291,0.061-0.588,0.097-0.885,0.119
		c-82.182,15.563-125.734,14.125-125.764,14.123l-7.842,0.352l-0.328,0.008c-2.441,0-4.717-1.206-6.094-3.231
		C1588.828,416.011,1588.599,413.336,1589.652,410.993z"/>
	<path id="zone2" class="opa03" fill="#8655FF" d="M1563.053,410.993l-0.646-1.438l-0.229-6.807l-3.376-103.9l-1.164-36.685l-0.304-13.13
		c-0.099-4.144-3.414-7.567-7.553-7.796l-11.921-0.66c-14.683-1.147-53.215-2.911-119.727-18.584
		c-66.514-15.673-135.809-50.854-136.109-51.008l-3.382-1.718l-0.003-0.002c0,0-64.825-38.112-97.296-61.279
		c-32.473-23.167-75.754-66.951-75.754-66.951c-1.506-1.497-3.508-2.32-5.639-2.32c-1.916,0-3.768,0.687-5.213,1.932l-2.896,2.491
		l-52.282,43.936c-0.509,0.273-0.992,0.598-1.436,0.979l-9.229,7.981l-26.188,22.007l-2.392,1.925l-0.03,0.109l-28.303,23.784
		l-1.501,0.467c-2.456,0.764-4.306,2.707-4.947,5.204c-0.641,2.499,0.048,5.098,1.841,6.949l4.285,4.431
		c0.035,0.04,92.215,102.759,224.434,168.22c0.392,0.292,0.813,0.551,1.266,0.767l12.772,6.041
		c9.976,5.229,86.087,44.106,183.388,65.104c8.523,1.84,16.706,3.507,24.554,5.024l3.442,0.708c0.291,0.061,0.587,0.097,0.884,0.119
		c82.182,15.563,125.735,14.125,125.763,14.123l7.841,0.352l0.33,0.008c2.44,0,4.716-1.206,6.094-3.231
		C1563.874,416.011,1564.108,413.336,1563.053,410.993z"/>
	<path id="zone3" class="opa03" fill="#FFED88" enable-background="new    " d="M2186.361,161.477c0,0,2.094-3.368,6.24-4.011
		c4.145-0.644,6.096,1.692,6.096,1.692l179.377,150.086c0,0,4.729,0.58,6.139,4.204s0.498,6.476-1.104,8.251
		c-1.605,1.775-46.688,55.1-141.793,130.861c-95.107,75.762-202.332,126.321-277.057,155.375
		c-74.721,29.054-130.457,40.681-189.588,53.199c-59.133,12.521-144.52,18.224-186.604,17.824c0,0-4.369-0.389-6.24-3.889
		c-1.871-3.5,0.285-8.085,0.285-8.085l7.719-234.244c0,0-0.074-2.463,2.109-4.691c2.182-2.229,5.559-2.566,5.559-2.566
		s65.061-1.359,123.053-12.512c57.994-11.15,117.771-26.24,181.047-53.445c63.273-27.205,99.781-49.13,149.943-82.5
		C2101.707,243.656,2160.017,189.131,2186.361,161.477z"/>
	<path id="zone4" class="opa03" fill="#FFED88" enable-background="new    " d="M966.385,161.477c0,0-2.096-3.368-6.24-4.011
		c-4.146-0.643-6.098,1.692-6.098,1.692L774.67,309.244c0,0-4.729,0.58-6.139,4.204s-0.498,6.476,1.106,8.251
		c1.604,1.775,46.684,55.1,141.792,130.861c95.106,75.762,202.333,126.321,277.054,155.375
		c74.721,29.053,130.457,40.681,189.589,53.199c59.132,12.52,144.522,18.224,186.604,17.824c0,0,4.368-0.389,6.238-3.889
		c1.871-3.5-0.284-8.085-0.284-8.085l-7.72-234.244c0,0,0.074-2.463-2.107-4.691c-2.185-2.229-5.561-2.566-5.561-2.566
		s-65.058-1.359-123.053-12.512c-57.995-11.15-117.771-26.24-181.045-53.445c-63.275-27.205-99.783-49.13-149.946-82.5
		S992.728,189.131,966.385,161.477z"/>
	<path id="zone5" class="opa03" fill="#36E6D7" d="M1582.199,850.935l0.85-122.784c0,0-0.15-3.337,1.707-5.084s3.844-3.105,6.232-3.133
		c2.389-0.026,85.385-1.613,155.676-12.865c70.289-11.252,155.691-28.582,281.74-81.417s229.162-132.913,251.203-150.831
		c40.248-33.396,101.098-86.749,133.809-124.535c0,0,2.297-2.827,5.293-3.333c2.996-0.507,5.367,1.125,5.367,1.125l87.443,73.064
		l0.037-0.053l7.988,6.758l0.002,0.001l0,0l22.883,19.357l0,0l90.332,75.187c0,0,4.871,0.785,5.863,3.727
		c0.992,2.938,1.74,5.876-0.867,8.745c-2.609,2.87-72.738,81.161-132.896,130.149c-60.154,48.989-106.896,85.51-147.117,110.993
		c-40.221,25.484-86.246,52.982-108.643,64.764c-19.576,10.299-62.258,31.334-72.697,36.467l0.246,0.088l-30.957,13.969v-0.002
		c-23.512,10.813-97.959,43.23-213.535,73.561c-138.951,36.465-208.527,37.674-208.527,37.674s-4.783-0.182-7.104-3.381
		c-2.32-3.201-0.166-7.918-0.166-7.918l-9.914-123.311c0,0-0.451-6.021-2.182-7.727c-1.729-1.707-3.867-3.109-9.268-2.811
		c-5.402,0.301-64.297,5.963-105.461,5.549c0,0-5.555-0.043-7.609-3.41C1579.872,856.152,1582.199,850.935,1582.199,850.935z"/>	
	<path id="zone6" class="opa03" fill="#36E6D7" d="M1571.379,850.935l-0.85-122.784c0,0,0.15-3.337-1.707-5.084s-3.844-3.105-6.232-3.133
		c-2.39-0.026-85.386-1.613-155.676-12.865s-155.691-28.582-281.74-81.417c-126.05-52.835-229.162-132.913-251.203-150.831
		c-40.249-33.396-101.099-86.749-133.809-124.535c0,0-2.297-2.827-5.293-3.333c-2.996-0.507-5.367,1.125-5.367,1.125l-87.444,73.064
		l-0.036-0.053l-7.989,6.758l-0.002,0.001l0,0l-22.882,19.357l0,0l-90.332,75.187c0,0-4.871,0.785-5.863,3.727
		c-0.992,2.938-1.74,5.876,0.867,8.745c2.608,2.87,72.738,81.161,132.896,130.149c60.154,48.989,106.897,85.51,147.117,110.993
		c40.222,25.484,86.247,52.982,108.644,64.764c19.575,10.299,62.257,31.334,72.696,36.467l-0.247,0.088l30.958,13.969l0-0.002
		c23.512,10.813,97.96,43.23,213.536,73.561c138.952,36.465,208.527,37.674,208.527,37.674s4.783-0.182,7.104-3.381
		c2.32-3.201,0.166-7.918,0.166-7.918l9.913-123.311c0,0,0.451-6.021,2.182-7.727c1.729-1.707,3.868-3.109,9.269-2.811
		c5.401,0.301,64.297,5.963,105.46,5.549c0,0,5.556-0.043,7.61-3.41S1571.379,850.935,1571.379,850.935z"/>
	<path id="zone9" class="opa03" fill="#FBBA00" enable-background="new    " d="M2518.082,699.385c0,0-3.975-4.479,0.777-8.737
		c5.75-5.151,34.297-30.411,34.297-30.411l31.564-29.798c0,0,5.271-5.819,10.9,0c5.627,5.819,7.645,7.904,7.645,7.904
		s1.455,1.68,3.592,1.732c2.139,0.053,3.229-1.008,6.846,1.655c3.617,2.662,30.029,28.166,30.029,28.166l102.064,105.705
		c0,0,4.744,0.744,6.111,4.984c1.365,4.236-0.854,6.652-0.854,6.652s-79.941,78.818-146.971,128.287
		c-67.023,49.471-133.338,97.365-198.432,132.582c-65.094,35.215-150.154,80.564-230.559,108.932
		c-80.406,28.363-109.252,37.48-109.252,37.48s-5.617,1.828-8.781-0.936s-2.166-8.305-2.166-8.305l-3.123-13.469
		c0,0-0.734-5.014-7.242-7.127s-12.428,1.6-12.428,1.6s-60.018,17.189-103.732,26.197c-43.713,9.01-59.418,13.195-112.633,20.705
		s-124.807,14.621-152.697,15.254c0,0-3.645-0.057-6.082-3.213c-2.436-3.156,0-7.871,0-7.871l-6.438-123.766
		c0,0,0.123-3.574,1.988-5.156c1.867-1.582,3.283-2.584,6.875-2.826c3.596-0.242,96.641-8.613,96.641-8.613s3.816-0.805,5.832-4.549
		c2.016-3.742,0.914-12.668,0.914-12.668l-0.773-13.111c0,0-0.119-3.619,1.658-5.326c1.779-1.707,2.662-2.361,5.482-3.098
		c2.822-0.734,73.496-8.891,138.25-25.813s119.146-28.383,219.268-68.996s136.129-63.809,207.959-104.877
		c71.828-41.068,173.963-123.875,179.967-128.465C2519.836,706.073,2520.713,702.303,2518.082,699.385z"/>
	<path id="zone10" class="opa03" fill="#FBBA00" enable-background="new    " d="M634.565,699.385c0,0,3.975-4.479-0.777-8.737
		c-5.75-5.151-34.297-30.411-34.297-30.411l-31.563-29.798c0,0-5.274-5.819-10.902,0s-7.644,7.904-7.644,7.904
		s-1.455,1.68-3.594,1.732c-2.137,0.053-3.228-1.008-6.845,1.655c-3.617,2.662-30.03,28.166-30.03,28.166L406.85,775.601
		c0,0-4.744,0.744-6.11,4.984c-1.365,4.236,0.854,6.652,0.854,6.652s79.939,78.818,146.967,128.287
		c67.027,49.471,133.338,97.365,198.431,132.582c65.093,35.215,150.154,80.564,230.56,108.932
		c80.404,28.363,109.253,37.48,109.253,37.48s5.618,1.828,8.779-0.936c3.163-2.764,2.167-8.305,2.167-8.305l3.123-13.469
		c0,0,0.733-5.014,7.241-7.127s12.427,1.6,12.427,1.6s60.02,17.189,103.733,26.197c43.715,9.01,59.418,13.195,112.633,20.705
		c53.216,7.51,124.809,14.621,152.698,15.254c0,0,3.646-0.057,6.081-3.213s0-7.871,0-7.871l6.442-123.766
		c0,0-0.125-3.574-1.992-5.156s-3.283-2.584-6.875-2.826s-96.637-8.613-96.637-8.613s-3.819-0.805-5.833-4.549
		c-2.016-3.742-0.913-12.668-0.913-12.668l0.771-13.111c0,0,0.121-3.619-1.657-5.326s-2.66-2.361-5.483-3.098
		c-2.823-0.734-73.495-8.891-138.25-25.813s-119.146-28.383-219.267-68.996c-100.119-40.613-136.13-63.809-207.959-104.877
		c-71.827-41.068-173.963-123.875-179.967-128.465C632.811,706.073,631.935,702.303,634.565,699.385z"/>
	<path id="zone11" class="opa03" fill="#C9C9C9" enable-background="new    " d="M2562.097,377.67c0,0-2.477-1.954-2.801-5.043
		c-0.322-3.089,0.98-5.661,0.98-5.661l10.895-14.587c0,0,1.582-2.043,5.307-2.435c3.721-0.392,5.631,1.491,5.631,1.491
		l55.432,40.221c0,0,8.516,6.61,16.127-1.848l5.365-6.965c0,0,1.754-1.896,4.965-2.292c3.211-0.396,5.055,1.085,5.055,1.085
		l190.395,146.152c0,0,15.91,12.457,23.795,0.745l3.777-4.986c0,0,1.535-1.495,4.154-2.442c2.617-0.949,6.682,1.041,6.682,1.041
		l189.082,146.332c0,0,15.799,11.736,25.432-1.396l2.061-2.771c0,0,2.033-2.394,4.947-3.231c2.916-0.84,6.018,0.796,6.018,0.796
		l15.014,9.406c0,0,7.416,0.205,8.443,5.914c1.025,5.709-2.109,7.98-2.109,7.98l-67.402,90.662c0,0-3.543,4.145-8.127,2.896
		c-4.584-1.246-6.119-6.15-6.119-6.15l-210.02-164.25l-280.055-219.389L2562.097,377.67z"/>
	<path id="zone12" class="opa03" fill="#C9C9C9" enable-background="new    " d="M590.652,377.67c0,0,2.473-1.954,2.797-5.043
		s-0.979-5.661-0.979-5.661l-10.896-14.587c0,0-1.582-2.043-5.302-2.435s-5.631,1.491-5.631,1.491l-55.435,40.221
		c0,0-8.514,6.61-16.125-1.848l-5.364-6.965c0,0-1.757-1.896-4.967-2.292c-3.21-0.396-5.054,1.085-5.054,1.085L293.302,527.79
		c0,0-15.91,12.457-23.794,0.744l-3.778-4.985c0,0-1.536-1.495-4.154-2.442c-2.618-0.948-6.682,1.041-6.682,1.041L65.812,668.478
		c0,0-15.799,11.737-25.431-1.396l-2.06-2.771c0,0-2.035-2.393-4.949-3.23c-2.915-0.84-6.015,0.796-6.015,0.796l-15.014,9.406
		c0,0-7.416,0.205-8.443,5.914c-1.026,5.709,2.109,7.98,2.109,7.98l67.401,90.661c0,0,3.544,4.145,8.128,2.898
		c4.584-1.248,6.119-6.152,6.119-6.152l210.02-164.25l280.057-219.388L590.652,377.67z"/>
		
	<path id="zone13" class="opa03" fill="#F906E7" d="M3187.599,729.244c0,0,2.525-3.816,5.92-4.316c3.393-0.5,6.311,2.158,6.311,2.158
		l293.457,201.857c0,0,7.898-0.861,9.158,5.604c0.635,3.84-0.973,5.406-2.5,7.406c-1.525,2-49.82,67.986-92.889,118.189
		c-43.07,50.203-73.195,85.492-110.773,123.785c-37.576,38.291-79.77,81.201-116.336,113.521
		c-36.564,32.322-84.334,74.928-133.584,112.74c-49.25,37.811-79.551,60.486-106.543,79.529s-51.828,37.689-104.979,69.6
		s-91.551,56.813-153.199,87.793c-63.045,31.682-156.344,75.979-209.814,97.098c-53.469,21.119-106.197,40.941-135.828,50.564
		s-61.957,20.121-61.957,20.121s-4.428,2.299-8.529,0c-4.1-2.299-2.461-10.186-2.461-10.186l-91.424-345.51c0,0-0.785-2.455,0-5.154
		s2.658-3.322,2.658-3.322s22.494-7.668,41.824-14.064c19.33-6.398,56.414-18.385,109.295-40.432
		c52.881-22.049,82.887-35.459,136.197-61.004c53.309-25.545,83.549-41.807,133.406-72.193
		c49.859-30.389,72.236-41.457,135.441-87.883c63.207-46.424,130.479-96.988,180.168-142.947
		c49.688-45.959,107.25-100.023,162.166-163.32C3127.699,805.58,3161.037,763.56,3187.599,729.244z"/>
	
	<path id="zone14" class="opa03" fill="#F906E7" d="M2128.599,1468.691c0,0,2.471-1.244,5.719,0.176c2.428,1.063,3.291,3.299,3.291,3.299
		l90.686,343.502c0,0,4.24,2.506,3.992,6.758c-0.25,4.252-2.594,6.188-4.293,6.732c-1.701,0.543-68.525,18.674-116.229,29.143
		c-47.703,10.471-146.072,30.189-199.643,37.34c-53.568,7.15-157.158,19.557-215.482,22.074
		c-58.324,2.516-77.479,3.549-93.311,3.715c-15.834,0.166-46.488,0.148-71.169-0.662c-24.682-0.811-106.948-3.096-200.473-13.717
		c-93.525-10.623-176.893-25.521-213.281-32.709s-91.196-18.959-113.728-24.689c-22.531-5.729-76.613-19.906-76.613-19.906
		s-4.72-1.301-5.187-5.121c-0.467-3.822,0.932-6.529,3.826-8.77l90.384-342.516c0,0,1.024-2.578,2.955-4.025
		c1.931-1.449,3.729-1.363,5.476-0.898c1.747,0.463,12.294,3.164,17.281,4.588s40.203,10.666,86.282,21.213
		c46.08,10.545,102.163,20.656,167.371,30.184c65.208,9.529,89.016,10.863,121.696,13.863c32.68,2.998,90.396,5.596,120.954,6.631
		c30.558,1.035,91.927,0.479,134.089-2.23c42.16-2.709,55.693-3.287,122.582-10.262c66.887-6.973,98.109-13.41,147.248-21.275
		s77.01-15.754,118.324-24.977C2102.662,1476.929,2128.599,1468.691,2128.599,1468.691z"/>
		
	<path id="zone15" class="opa03" fill="#F906E7" d="M-33.911,729.244c0,0-2.525-3.816-5.919-4.316s-6.312,2.158-6.312,2.158l-293.457,201.857
		c0,0-7.897-0.861-9.157,5.604c-0.635,3.84,0.973,5.406,2.499,7.406s49.82,67.986,92.89,118.189s73.195,85.492,110.772,123.785
		c37.577,38.291,79.771,81.201,116.336,113.521c36.565,32.322,84.334,74.928,133.584,112.74
		c49.25,37.811,79.551,60.486,106.543,79.529s51.828,37.689,104.979,69.6s91.552,56.813,153.199,87.793
		c63.045,31.682,156.345,75.979,209.814,97.098s106.198,40.941,135.829,50.564s61.956,20.121,61.956,20.121s4.429,2.299,8.529,0
		s2.461-10.186,2.461-10.186l91.425-345.51c0,0,0.785-2.455,0-5.154s-2.659-3.322-2.659-3.322s-22.493-7.668-41.823-14.064
		c-19.33-6.398-56.415-18.385-109.296-40.432c-52.881-22.049-82.887-35.459-136.196-61.004s-83.549-41.807-133.407-72.193
		c-49.858-30.389-72.235-41.457-135.441-87.883c-63.206-46.424-130.479-96.988-180.167-142.947S135.819,932.176,80.904,868.879
		C25.989,805.58-7.349,763.56-33.911,729.244z"/>

<g>
	<path fill="#282521" d="M1698.004,984.197l-5.703-66.389c-0.66-7.693-7.383-13.453-15.08-12.873
		c-33.293,2.512-66.932,3.803-100.866,3.803c-33.863,0-67.427-1.285-100.649-3.787c-7.692-0.58-14.408,5.172-15.076,12.859
		l-5.77,66.385c-0.683,7.846,5.188,14.721,13.042,15.314c35.797,2.713,71.962,4.104,108.453,4.104
		c36.543,0,72.76-1.396,108.608-4.115C1692.81,998.904,1698.679,992.039,1698.004,984.197"/>
	<path fill="none" stroke="#0D0706" stroke-width="0.5" stroke-miterlimit="10" d="M1698.004,984.197l-5.703-66.389
		c-0.66-7.693-7.383-13.453-15.08-12.873c-33.293,2.512-66.932,3.803-100.866,3.803c-33.863,0-67.427-1.285-100.649-3.787
		c-7.692-0.58-14.408,5.172-15.076,12.859l-5.77,66.385c-0.683,7.846,5.188,14.721,13.042,15.314
		c35.797,2.713,71.962,4.104,108.453,4.104c36.543,0,72.76-1.396,108.608-4.115C1692.81,998.904,1698.679,992.039,1698.004,984.197z
		"/>

	<path fill="#FFFFFF" d="M1536.554,941.269v12.757h-1.293V942.51h-7.92v11.517h-1.293v-12.757H1536.554z"/>
	<path fill="#FFFFFF" d="M1547.238,941.269h1.364l-4.961,10.684c-0.508,1.04-1.069,1.719-1.684,2.038
		c-0.401,0.2-0.862,0.301-1.382,0.301c-0.414,0-0.868-0.089-1.364-0.266l0.443-1.134c0.342,0.13,0.649,0.194,0.921,0.194
		c0.331,0,0.614-0.059,0.851-0.177c0.39-0.213,0.821-0.809,1.293-1.789l-4.571-9.852h1.347l3.862,8.451L1547.238,941.269z"/>
	<path fill="#FFFFFF" d="M1559.994,941.269v12.757h-1.311V942.51h-5.298l-0.85,7.229c-0.071,0.674-0.168,1.247-0.292,1.719
		c-0.124,0.473-0.31,0.922-0.558,1.347c-0.248,0.426-0.584,0.741-1.01,0.948s-0.939,0.298-1.542,0.274v-1.205
		c0.744-0.012,1.261-0.277,1.55-0.797c0.289-0.52,0.505-1.358,0.646-2.517l0.975-8.238H1559.994z"/>
	<path fill="#FFFFFF" d="M1570.802,947.523c0.638,0.757,0.957,1.607,0.957,2.552c0,1.027-0.36,1.92-1.081,2.676
		c-0.438,0.484-0.957,0.826-1.56,1.027c-0.437,0.166-0.88,0.248-1.329,0.248h-5.315v-12.757h1.293v4.854h4.022
		c0.579,0,1.137,0.124,1.674,0.372S1570.448,947.087,1570.802,947.523z M1570.412,950.075c0.012-0.614-0.195-1.188-0.62-1.719
		c-0.531-0.661-1.205-0.992-2.02-0.992h-4.004v5.404h4.004c0.732,0,1.352-0.266,1.86-0.798
		C1570.129,951.451,1570.389,950.819,1570.412,950.075z"/>
	<path fill="#FFFFFF" d="M1582.745,941.269v1.24h-4.466v11.517h-1.293V942.51h-4.465v-1.24H1582.745z"/>
	<path fill="#FFFFFF" d="M1589.566,954.292c-1.973,0-3.467-0.679-4.483-2.037c-0.909-1.17-1.376-2.705-1.399-4.607
		c0-1.878,0.467-3.413,1.399-4.606c0.508-0.673,1.158-1.184,1.949-1.532s1.636-0.511,2.534-0.487c1.96,0.023,3.461,0.697,4.5,2.02
		c0.874,1.122,1.335,2.658,1.382,4.606c0,1.879-0.46,3.414-1.382,4.607C1593.004,953.613,1591.503,954.292,1589.566,954.292z
		 M1589.566,953.034c0.696,0,1.349-0.133,1.958-0.398c0.607-0.266,1.101-0.658,1.479-1.179c0.685-0.897,1.039-2.167,1.063-3.81
		c0-1.618-0.354-2.882-1.063-3.791c-0.379-0.52-0.875-0.919-1.489-1.196s-1.264-0.41-1.948-0.398
		c-0.697,0.012-1.353,0.153-1.967,0.425c-0.614,0.272-1.104,0.662-1.471,1.17c-0.686,0.862-1.04,2.126-1.063,3.791
		c0,1.631,0.354,2.9,1.063,3.81c0.366,0.521,0.859,0.916,1.479,1.188S1588.881,953.046,1589.566,953.034z"/>
	<path fill="#FFFFFF" d="M1605.76,948.25c0.52,0.65,0.762,1.395,0.727,2.232c-0.035,0.851-0.308,1.571-0.815,2.162
		s-1.14,0.992-1.896,1.205c-0.39,0.118-0.986,0.177-1.789,0.177h-4.536v-12.757h4.306c0.814,0,1.353,0.041,1.612,0.124
		c0.696,0.188,1.27,0.562,1.719,1.116c0.46,0.508,0.72,1.169,0.779,1.984c0.047,0.721-0.177,1.399-0.673,2.037
		c-0.178,0.248-0.379,0.467-0.603,0.656C1605.051,947.447,1605.441,947.802,1605.76,948.25z M1602.358,942.51h-3.597v4.199h3.597
		c0.307,0,0.626-0.083,0.956-0.248c0.331-0.165,0.597-0.384,0.798-0.655c0.283-0.426,0.419-0.862,0.407-1.312
		c0-0.496-0.183-0.939-0.549-1.329C1603.545,942.728,1603.008,942.51,1602.358,942.51z M1604.502,952.024
		c0.425-0.449,0.638-0.963,0.638-1.542c0-0.59-0.171-1.109-0.514-1.559c-0.213-0.308-0.499-0.547-0.859-0.718
		s-0.724-0.257-1.09-0.257h-3.915v4.819h3.207c0.496,0,0.844-0.006,1.045-0.018s0.445-0.074,0.735-0.187
		C1604.038,952.452,1604.289,952.272,1604.502,952.024z"/>
	<path fill="#FFFFFF" d="M1616.586,954.026l-0.868-2.516h-6.06l-0.868,2.516h-1.364l4.394-12.757h1.736l4.395,12.757H1616.586z
		 M1610.083,950.288h5.209l-2.622-7.548L1610.083,950.288z"/>
	<path fill="#FFFFFF" d="M1628.829,941.269v12.757h-1.293v-4.854h-4.022c-0.13,0-0.225-0.006-0.283-0.018l-2.356,4.872h-1.506
		l2.533-5.209c-0.531-0.225-0.998-0.573-1.399-1.046c-0.638-0.755-0.957-1.605-0.957-2.551c0-1.027,0.36-1.92,1.081-2.676
		c0.437-0.484,0.956-0.826,1.559-1.027c0.438-0.165,0.88-0.248,1.329-0.248H1628.829z M1627.536,947.931v-5.404h-4.005
		c-0.732,0-1.353,0.266-1.86,0.797c-0.496,0.521-0.756,1.152-0.779,1.896c-0.012,0.614,0.194,1.187,0.62,1.719
		c0.531,0.661,1.205,0.992,2.02,0.992H1627.536z"/>
	<path fill="#AFAEAE" d="M1570.857,960.864h-4.604v3.386h3.792v1.002h-3.792v4.374h-0.989v-9.75h5.593V960.864z"/>
	<path fill="#AFAEAE" d="M1576.206,969.829c-1.508,0-2.65-0.519-3.426-1.558c-0.695-0.894-1.052-2.066-1.069-3.521
		c0-1.436,0.356-2.608,1.069-3.521c0.388-0.515,0.885-0.905,1.49-1.172c0.605-0.266,1.25-0.391,1.937-0.372
		c1.499,0.019,2.646,0.532,3.439,1.544c0.668,0.857,1.021,2.031,1.057,3.521c0,1.436-0.353,2.609-1.057,3.521
		C1578.833,969.31,1577.686,969.829,1576.206,969.829z M1576.206,968.867c0.533,0,1.031-0.102,1.497-0.305
		c0.465-0.203,0.841-0.503,1.13-0.9c0.523-0.686,0.794-1.656,0.813-2.911c0-1.236-0.271-2.202-0.813-2.897
		c-0.289-0.397-0.668-0.702-1.137-0.914c-0.47-0.213-0.966-0.314-1.49-0.305c-0.533,0.009-1.034,0.117-1.503,0.324
		c-0.47,0.208-0.844,0.506-1.124,0.895c-0.524,0.658-0.794,1.625-0.813,2.897c0,1.246,0.271,2.217,0.813,2.911
		c0.28,0.397,0.657,0.7,1.13,0.907C1575.183,968.777,1575.682,968.877,1576.206,968.867z"/>
	<path fill="#AFAEAE" d="M1588.61,959.876h1.002v9.75h-1.002v-3.697h-5.39v3.697h-0.988v-9.75h0.988v5.105h5.39V959.876z"/>
</g>
<g>
	<path fill="#FFFFFF" d="M1557.114,1118.531h1.002v9.75h-1.002v-8.64l-1.842,1.11v-1.124L1557.114,1118.531z"/>
	<path fill="#FFFFFF" d="M1572.091,1123.406c0.018,1.417-0.338,2.591-1.07,3.521c-0.821,1.039-1.963,1.558-3.426,1.558
		c-1.481,0-2.627-0.519-3.439-1.558c-0.361-0.469-0.619-0.983-0.772-1.543l0.988-0.285c0.126,0.452,0.32,0.862,0.583,1.232
		c0.298,0.389,0.682,0.687,1.151,0.894c0.469,0.208,0.966,0.308,1.49,0.298c0.523,0,1.02-0.102,1.49-0.305
		c0.469-0.203,0.848-0.498,1.137-0.887c0.46-0.604,0.722-1.412,0.786-2.424h-3.521v-1.002h3.521
		c-0.063-1.002-0.325-1.806-0.786-2.41c-0.289-0.389-0.668-0.688-1.137-0.9c-0.47-0.213-0.966-0.314-1.49-0.305
		c-1.156,0.018-2.036,0.419-2.641,1.205c-0.289,0.379-0.492,0.83-0.609,1.354l-1.029-0.162c0.153-0.668,0.434-1.269,0.84-1.801
		c0.388-0.506,0.882-0.892,1.482-1.158c0.601-0.266,1.253-0.399,1.957-0.399c1.49,0,2.631,0.52,3.426,1.558
		C1571.716,1120.779,1572.073,1121.953,1572.091,1123.406z"/>
	<path fill="#FFFFFF" d="M1580.622,1118.531v0.948h-3.412v8.802h-0.989v-8.802h-3.413v-0.948H1580.622z"/>
	<path fill="#FFFFFF" d="M1588.029,1128.281l-0.663-1.923h-4.632l-0.663,1.923h-1.042l3.357-9.75h1.327l3.358,9.75H1588.029z
		 M1583.06,1125.424h3.98l-2.004-5.769L1583.06,1125.424z"/>
	<path fill="#FFFFFF" d="M1589.411,1128.281l3.29-5.078l-3.033-4.672h1.191l2.723,4.252h1.57v-4.252h1.002v4.252h1.571l2.722-4.252
		h1.191l-3.033,4.672l3.291,5.078h-1.191l-2.979-4.645h-1.571v4.645h-1.002v-4.645h-1.57l-2.979,4.645H1589.411z"/>
	<path fill="#FFFFFF" d="M1545.796,1154.204h1.438v3.665h-1.677v-1.988h-13.082v1.988h-1.677v-3.665
		c1.821,0,2.938-1.765,3.354-5.295l1.198-10.278h10.446V1154.204z M1544.119,1154.204v-13.896h-7.259l-1.03,8.793
		c-0.272,2.443-0.887,4.145-1.845,5.104H1544.119z"/>
	<path fill="#FFFFFF" d="M1561.345,1148.07c0.703,0.879,1.03,1.885,0.982,3.019c-0.048,1.15-0.416,2.125-1.102,2.923
		c-0.687,0.799-1.542,1.342-2.564,1.63c-0.527,0.159-1.333,0.239-2.419,0.239h-6.133v-17.25h5.822c1.102,0,1.829,0.056,2.18,0.168
		c0.942,0.256,1.717,0.759,2.324,1.509c0.623,0.688,0.974,1.582,1.054,2.684c0.064,0.975-0.239,1.893-0.91,2.755
		c-0.24,0.336-0.511,0.632-0.814,0.887C1560.387,1146.984,1560.914,1147.464,1561.345,1148.07z M1556.745,1140.307h-4.863v5.679
		h4.863c0.415,0,0.847-0.112,1.294-0.336c0.447-0.224,0.806-0.519,1.078-0.886c0.383-0.575,0.566-1.166,0.551-1.773
		c0-0.671-0.248-1.27-0.743-1.797C1558.351,1140.603,1557.624,1140.307,1556.745,1140.307z M1559.644,1153.174
		c0.575-0.607,0.863-1.302,0.863-2.085c0-0.798-0.232-1.501-0.695-2.108c-0.288-0.415-0.675-0.738-1.162-0.97
		c-0.487-0.231-0.979-0.348-1.474-0.348h-5.294v6.517h4.336c0.671,0,1.142-0.008,1.414-0.023c0.271-0.017,0.603-0.1,0.994-0.252
		C1559.017,1153.753,1559.357,1153.509,1559.644,1153.174z"/>
	<path fill="#FFFFFF" d="M1575.408,1140.307h-8.864v6.109h7.427v1.678h-7.427v6.109h8.864v1.677h-10.613v-17.25h10.613V1140.307z"/>
	<path fill="#FFFFFF" d="M1589.855,1140.355c0.975,1.022,1.462,2.229,1.462,3.618c0,1.278-0.432,2.428-1.294,3.45
		c-0.479,0.591-1.082,1.054-1.809,1.39c-0.727,0.335-1.482,0.503-2.264,0.503h-5.439v6.564h-1.749v-17.25h7.188
		c0.605,0,1.205,0.112,1.797,0.335C1588.562,1139.238,1589.264,1139.701,1589.855,1140.355z M1588.658,1146.298
		c0.574-0.719,0.854-1.493,0.838-2.324c-0.031-1.006-0.383-1.86-1.054-2.563c-0.687-0.719-1.526-1.078-2.516-1.078h-5.415v7.308
		h5.415C1587.029,1147.639,1587.939,1147.192,1588.658,1146.298z"/>
	<path fill="#FFFFFF" d="M1605.045,1147.088c0.862,1.022,1.294,2.173,1.294,3.45c0,1.39-0.487,2.596-1.462,3.618
		c-0.591,0.654-1.293,1.118-2.107,1.39c-0.592,0.224-1.191,0.335-1.797,0.335h-7.188v-17.25h1.748v6.564h5.439
		c0.781,0,1.537,0.168,2.264,0.503C1603.963,1146.034,1604.566,1146.497,1605.045,1147.088z M1604.517,1150.538
		c0.016-0.83-0.264-1.605-0.838-2.324c-0.719-0.894-1.629-1.342-2.731-1.342h-5.415v7.308h5.415c0.989,0,1.829-0.359,2.516-1.078
		C1604.135,1152.399,1604.486,1151.544,1604.517,1150.538z"/>
	<path fill="#FFFFFF" d="M1613.91,1143.758c-0.017-0.814,0.15-1.593,0.502-2.336c0.352-0.742,0.831-1.369,1.438-1.881
		c0.99-0.846,2.213-1.27,3.666-1.27c1.533,0,2.795,0.495,3.785,1.485c1.166,1.086,1.749,2.428,1.749,4.025
		c0,1.038-0.188,1.921-0.563,2.647c-0.376,0.727-1.003,1.473-1.881,2.239l-6.109,5.511h8.338v1.701h-11.069l0.023-1.701l7.812-6.972
		c1.102-0.958,1.652-2.108,1.652-3.45c0-1.134-0.423-2.076-1.27-2.827c-0.687-0.639-1.525-0.958-2.516-0.958
		c-0.91,0-1.717,0.287-2.42,0.862c-0.91,0.783-1.365,1.757-1.365,2.923H1613.91z"/>
	<path fill="#AFAEAE" d="M1533.134,1165.381h0.771v7.5h-0.771v-6.646l-1.417,0.854v-0.864L1533.134,1165.381z"/>
	<path fill="#AFAEAE" d="M1542.676,1168.724l-0.74,0.188c-0.146-0.417-0.396-0.715-0.75-0.896c-0.25-0.146-0.545-0.219-0.885-0.219
		c-0.306-0.007-0.594,0.045-0.865,0.156c-0.326,0.159-0.489,0.378-0.489,0.656c0,0.222,0.086,0.396,0.26,0.521
		c0.132,0.104,0.354,0.201,0.667,0.292c0.097,0.027,0.479,0.132,1.146,0.313c0.451,0.118,0.813,0.288,1.083,0.51
		c0.389,0.306,0.583,0.688,0.583,1.146c0,0.243-0.064,0.482-0.192,0.719c-0.129,0.236-0.301,0.416-0.516,0.541
		c-0.382,0.25-0.896,0.375-1.542,0.375c-0.833,0-1.469-0.239-1.906-0.719c-0.111-0.125-0.207-0.266-0.286-0.422
		c-0.08-0.156-0.136-0.281-0.167-0.375s-0.078-0.251-0.141-0.474l0.74-0.188c0.063,0.403,0.194,0.726,0.396,0.969
		c0.313,0.341,0.767,0.511,1.364,0.511c0.5,0,0.882-0.091,1.146-0.271c0.25-0.159,0.375-0.385,0.375-0.677
		c0-0.243-0.108-0.438-0.323-0.583c-0.174-0.125-0.452-0.243-0.833-0.354c-0.194-0.056-0.412-0.118-0.651-0.188
		c-0.24-0.069-0.412-0.118-0.516-0.146c-0.479-0.16-0.823-0.337-1.031-0.531c-0.257-0.229-0.386-0.549-0.386-0.959
		c0-0.277,0.085-0.534,0.255-0.771c0.17-0.236,0.391-0.413,0.662-0.531c0.333-0.159,0.732-0.232,1.198-0.219
		c0.431,0,0.826,0.091,1.188,0.271c0.264,0.133,0.503,0.325,0.719,0.578C1542.453,1168.202,1542.599,1168.461,1542.676,1168.724z"/>
	<path fill="#AFAEAE" d="M1545.186,1167.912v2.896c0,0.035,0,0.098,0,0.188c0,0.091,0,0.149,0,0.178
		c0,0.027,0.002,0.074,0.005,0.141c0.003,0.065,0.007,0.114,0.01,0.146s0.009,0.069,0.016,0.114c0.007,0.046,0.018,0.086,0.031,0.12
		c0.014,0.035,0.031,0.069,0.052,0.104c0.125,0.257,0.351,0.402,0.677,0.438c0.326,0.034,0.635,0.021,0.927-0.042v0.688
		c-0.417,0.104-0.819,0.118-1.208,0.042c-0.528-0.091-0.889-0.337-1.083-0.74c-0.132-0.277-0.198-0.726-0.198-1.344v-2.927h-1.198
		v-0.656h1.198v-1.563h0.771v1.563h1.719v0.656H1545.186z"/>
	<path fill="#AFAEAE" d="M1551.248,1172.151h3.563v0.729h-4.323v-7.5h0.76V1172.151z"/>
	<path fill="#AFAEAE" d="M1560.311,1166.11h-3.854v2.656h3.229v0.729h-3.229v2.656h3.854v0.729h-4.615v-7.5h4.615V1166.11z"/>
	<path fill="#AFAEAE" d="M1563.675,1172.881l-2.583-7.5h0.802l2.281,6.636l2.302-6.636h0.802l-2.583,7.5H1563.675z"/>
	<path fill="#AFAEAE" d="M1572.676,1166.11h-3.854v2.656h3.229v0.729h-3.229v2.656h3.854v0.729h-4.615v-7.5h4.615V1166.11z"/>
	<path fill="#AFAEAE" d="M1574.998,1172.151h3.563v0.729h-4.323v-7.5h0.76V1172.151z"/>
	<path fill="#AFAEAE" d="M1583.707,1165.381h0.781l-2,7.5h-0.781L1583.707,1165.381z"/>
	<path fill="#AFAEAE" d="M1593.79,1170.682c-0.16,0.486-0.393,0.896-0.698,1.229c-0.576,0.639-1.375,0.958-2.396,0.958h-2.479v-7.5
		l2.5,0.011c1.007,0,1.803,0.326,2.386,0.979c0.618,0.674,0.927,1.607,0.927,2.802
		C1594.029,1169.69,1593.949,1170.197,1593.79,1170.682z M1592.529,1166.87c-0.431-0.485-1.038-0.735-1.822-0.75l-1.698,0.011v5.989
		l1.688,0.021c0.784-0.014,1.402-0.274,1.854-0.781c0.43-0.486,0.652-1.219,0.666-2.198
		C1593.23,1168.169,1593.002,1167.405,1592.529,1166.87z"/>
	<path fill="#AFAEAE" d="M1598.384,1173.037c-1.159,0-2.038-0.399-2.636-1.198c-0.535-0.688-0.809-1.59-0.822-2.708
		c0-1.104,0.273-2.007,0.822-2.708c0.299-0.396,0.681-0.696,1.146-0.901c0.465-0.205,0.961-0.3,1.489-0.286
		c1.153,0.014,2.034,0.409,2.646,1.188c0.514,0.659,0.785,1.563,0.813,2.708c0,1.104-0.271,2.007-0.813,2.708
		C1600.404,1172.637,1599.522,1173.037,1598.384,1173.037z M1598.384,1172.298c0.409,0,0.794-0.078,1.151-0.234
		s0.646-0.388,0.869-0.693c0.402-0.527,0.611-1.273,0.625-2.239c0-0.951-0.208-1.694-0.625-2.229
		c-0.223-0.305-0.514-0.539-0.875-0.703c-0.361-0.163-0.742-0.241-1.146-0.234c-0.409,0.008-0.796,0.091-1.156,0.25
		c-0.361,0.16-0.649,0.39-0.864,0.688c-0.403,0.508-0.611,1.25-0.625,2.229c0,0.958,0.208,1.705,0.625,2.239
		c0.215,0.306,0.505,0.539,0.869,0.698C1597.597,1172.228,1597.98,1172.304,1598.384,1172.298z"/>
	<path fill="#AFAEAE" d="M1606.196,1173.037c-1.159,0-2.038-0.399-2.636-1.198c-0.535-0.688-0.809-1.59-0.822-2.708
		c0-1.104,0.273-2.007,0.822-2.708c0.299-0.396,0.681-0.696,1.146-0.901c0.465-0.205,0.961-0.3,1.489-0.286
		c1.153,0.014,2.034,0.409,2.646,1.188c0.514,0.659,0.785,1.563,0.813,2.708c0,1.104-0.271,2.007-0.813,2.708
		C1608.217,1172.637,1607.335,1173.037,1606.196,1173.037z M1606.196,1172.298c0.409,0,0.794-0.078,1.151-0.234
		s0.646-0.388,0.869-0.693c0.402-0.527,0.611-1.273,0.625-2.239c0-0.951-0.208-1.694-0.625-2.229
		c-0.223-0.305-0.514-0.539-0.875-0.703c-0.361-0.163-0.742-0.241-1.146-0.234c-0.409,0.008-0.796,0.091-1.156,0.25
		c-0.361,0.16-0.649,0.39-0.864,0.688c-0.403,0.508-0.611,1.25-0.625,2.229c0,0.958,0.208,1.705,0.625,2.239
		c0.215,0.306,0.505,0.539,0.869,0.698C1605.41,1172.228,1605.793,1172.304,1606.196,1172.298z"/>
	<path fill="#AFAEAE" d="M1616.394,1172.881h-0.886l-1.386-2.864c-0.035,0.007-0.09,0.01-0.166,0.01h-2.365v2.854h-0.76v-7.5h3.125
		c0.264,0,0.523,0.049,0.781,0.146c0.354,0.118,0.659,0.32,0.916,0.604c0.424,0.444,0.636,0.969,0.636,1.573
		c0,0.556-0.188,1.056-0.563,1.5c-0.236,0.277-0.511,0.482-0.823,0.614L1616.394,1172.881z M1613.946,1169.298
		c0.479,0,0.875-0.194,1.188-0.584c0.25-0.313,0.372-0.648,0.364-1.01c-0.014-0.438-0.166-0.81-0.458-1.115
		c-0.299-0.313-0.663-0.469-1.094-0.469h-2.354v3.178H1613.946z"/>
	<path fill="#AFAEAE" d="M1619.967,1167.61c-0.008-0.354,0.066-0.693,0.219-1.016c0.152-0.323,0.361-0.596,0.625-0.818
		c0.431-0.367,0.962-0.552,1.594-0.552c0.666,0,1.215,0.216,1.646,0.646c0.507,0.473,0.761,1.056,0.761,1.75
		c0,0.452-0.082,0.836-0.245,1.151c-0.163,0.316-0.436,0.641-0.817,0.974l-2.656,2.396h3.625v0.739h-4.813l0.01-0.739l3.396-3.031
		c0.479-0.417,0.719-0.917,0.719-1.5c0-0.493-0.185-0.903-0.553-1.229c-0.298-0.277-0.663-0.417-1.094-0.417
		c-0.396,0-0.746,0.125-1.052,0.375c-0.396,0.341-0.594,0.765-0.594,1.271H1619.967z"/>
</g>
<g>
	<path fill="#FFFFFF" d="M275.801,748.91h1.002v9.75h-1.002v-8.64l-1.842,1.11v-1.124L275.801,748.91z"/>
	<path fill="#FFFFFF" d="M290.778,753.785c0.018,1.417-0.338,2.591-1.07,3.521c-0.821,1.039-1.963,1.558-3.426,1.558
		c-1.481,0-2.627-0.519-3.439-1.558c-0.361-0.469-0.619-0.983-0.772-1.543l0.988-0.285c0.126,0.452,0.32,0.862,0.583,1.232
		c0.298,0.389,0.682,0.687,1.151,0.894c0.469,0.208,0.966,0.308,1.49,0.298c0.523,0,1.02-0.102,1.49-0.305
		c0.469-0.203,0.848-0.498,1.137-0.887c0.46-0.604,0.722-1.412,0.786-2.424h-3.521v-1.002h3.521
		c-0.063-1.002-0.325-1.806-0.786-2.41c-0.289-0.389-0.668-0.688-1.137-0.9c-0.47-0.213-0.966-0.314-1.49-0.305
		c-1.156,0.018-2.036,0.419-2.641,1.205c-0.289,0.379-0.492,0.83-0.609,1.354l-1.029-0.162c0.153-0.668,0.434-1.269,0.84-1.801
		c0.388-0.506,0.882-0.892,1.482-1.158c0.601-0.266,1.253-0.399,1.957-0.399c1.49,0,2.631,0.52,3.426,1.558
		C290.403,751.158,290.76,752.332,290.778,753.785z"/>
	<path fill="#FFFFFF" d="M299.309,748.91v0.948h-3.412v8.802h-0.989v-8.802h-3.413v-0.948H299.309z"/>
	<path fill="#FFFFFF" d="M306.717,758.66l-0.664-1.923h-4.631l-0.664,1.923h-1.042l3.358-9.75h1.327l3.358,9.75H306.717z
		 M301.747,755.802h3.981l-2.004-5.769L301.747,755.802z"/>
	<path fill="#FFFFFF" d="M308.098,758.66l3.291-5.078l-3.033-4.672h1.191l2.722,4.252h1.571v-4.252h1.002v4.252h1.571l2.722-4.252
		h1.192l-3.033,4.672l3.291,5.078h-1.192l-2.979-4.645h-1.571v4.645h-1.002v-4.645h-1.571l-2.979,4.645H308.098z"/>
	<path fill="#FFFFFF" d="M266.652,784.583h1.438v3.665h-1.677v-1.988h-13.082v1.988h-1.677v-3.665c1.821,0,2.938-1.765,3.354-5.295
		l1.198-10.278h10.446V784.583z M264.975,784.583v-13.896h-7.259l-1.03,8.793c-0.272,2.443-0.887,4.145-1.845,5.104H264.975z"/>
	<path fill="#FFFFFF" d="M282.201,778.449c0.703,0.879,1.03,1.885,0.982,3.019c-0.048,1.15-0.416,2.125-1.102,2.923
		c-0.687,0.799-1.542,1.342-2.564,1.63c-0.527,0.159-1.333,0.239-2.419,0.239h-6.133v-17.25h5.822c1.102,0,1.829,0.056,2.18,0.168
		c0.942,0.256,1.717,0.759,2.324,1.509c0.623,0.688,0.974,1.582,1.054,2.684c0.064,0.975-0.239,1.893-0.91,2.755
		c-0.24,0.336-0.511,0.632-0.814,0.887C281.242,777.363,281.77,777.843,282.201,778.449z M277.601,770.686h-4.863v5.679h4.863
		c0.415,0,0.847-0.112,1.294-0.336c0.447-0.224,0.806-0.519,1.078-0.886c0.383-0.575,0.566-1.166,0.551-1.773
		c0-0.671-0.248-1.27-0.743-1.797C279.206,770.982,278.479,770.686,277.601,770.686z M280.5,783.552
		c0.575-0.607,0.863-1.302,0.863-2.085c0-0.798-0.232-1.501-0.695-2.108c-0.288-0.415-0.675-0.738-1.162-0.97
		c-0.487-0.231-0.979-0.348-1.474-0.348h-5.294v6.517h4.336c0.671,0,1.142-0.008,1.414-0.023c0.271-0.017,0.603-0.1,0.994-0.252
		C279.873,784.132,280.212,783.887,280.5,783.552z"/>
	<path fill="#FFFFFF" d="M296.264,770.686H287.4v6.109h7.427v1.678H287.4v6.109h8.864v1.677h-10.613v-17.25h10.613V770.686z"/>
	<path fill="#FFFFFF" d="M310.711,770.734c0.974,1.022,1.461,2.229,1.461,3.618c0,1.278-0.432,2.428-1.294,3.45
		c-0.479,0.591-1.082,1.054-1.809,1.39c-0.727,0.335-1.481,0.503-2.264,0.503h-5.438v6.564h-1.749v-17.25h7.188
		c0.606,0,1.206,0.112,1.797,0.335C309.417,769.617,310.12,770.08,310.711,770.734z M309.513,776.677
		c0.575-0.719,0.854-1.493,0.839-2.324c-0.032-1.006-0.384-1.86-1.054-2.563c-0.687-0.719-1.526-1.078-2.516-1.078h-5.415v7.308
		h5.415C307.884,778.018,308.794,777.571,309.513,776.677z"/>
	<path fill="#FFFFFF" d="M325.9,777.467c0.862,1.022,1.294,2.173,1.294,3.45c0,1.39-0.488,2.596-1.461,3.618
		c-0.591,0.654-1.294,1.118-2.108,1.39c-0.591,0.224-1.19,0.335-1.797,0.335h-7.188v-17.25h1.749v6.564h5.438
		c0.782,0,1.537,0.168,2.264,0.503C324.818,776.413,325.421,776.876,325.9,777.467z M325.373,780.917
		c0.016-0.83-0.264-1.605-0.839-2.324c-0.719-0.894-1.629-1.342-2.731-1.342h-5.415v7.308h5.415c0.99,0,1.829-0.359,2.516-1.078
		C324.99,782.778,325.341,781.923,325.373,780.917z"/>
	<path fill="#FFFFFF" d="M338.119,769.01h1.773v17.25h-1.773v-15.285l-3.258,1.964v-1.988L338.119,769.01z"/>
	<path fill="#AFAEAE" d="M252.763,795.76h0.771v7.5h-0.771v-6.646l-1.417,0.854v-0.864L252.763,795.76z"/>
	<path fill="#AFAEAE" d="M262.305,799.103l-0.74,0.188c-0.146-0.417-0.396-0.715-0.75-0.896c-0.25-0.146-0.545-0.219-0.885-0.219
		c-0.306-0.007-0.594,0.045-0.865,0.156c-0.326,0.159-0.489,0.378-0.489,0.656c0,0.222,0.086,0.396,0.26,0.521
		c0.132,0.104,0.354,0.201,0.667,0.292c0.097,0.027,0.479,0.132,1.146,0.313c0.451,0.118,0.813,0.288,1.083,0.51
		c0.389,0.306,0.583,0.688,0.583,1.146c0,0.243-0.064,0.482-0.192,0.719c-0.129,0.236-0.301,0.416-0.516,0.541
		c-0.382,0.25-0.896,0.375-1.542,0.375c-0.833,0-1.469-0.239-1.906-0.719c-0.111-0.125-0.207-0.266-0.286-0.422
		c-0.08-0.156-0.136-0.281-0.167-0.375s-0.078-0.251-0.141-0.474l0.74-0.188c0.063,0.403,0.194,0.726,0.396,0.969
		c0.313,0.341,0.767,0.511,1.364,0.511c0.5,0,0.882-0.091,1.146-0.271c0.25-0.159,0.375-0.385,0.375-0.677
		c0-0.243-0.108-0.438-0.323-0.583c-0.174-0.125-0.452-0.243-0.833-0.354c-0.194-0.056-0.412-0.118-0.651-0.188
		c-0.24-0.069-0.412-0.118-0.516-0.146c-0.479-0.16-0.823-0.337-1.031-0.531c-0.257-0.229-0.386-0.549-0.386-0.959
		c0-0.277,0.085-0.534,0.255-0.771c0.17-0.236,0.391-0.413,0.662-0.531c0.333-0.159,0.732-0.232,1.198-0.219
		c0.431,0,0.826,0.091,1.188,0.271c0.264,0.133,0.503,0.325,0.719,0.578C262.083,798.581,262.228,798.84,262.305,799.103z"/>
	<path fill="#AFAEAE" d="M264.815,798.291v2.896c0,0.035,0,0.098,0,0.188c0,0.091,0,0.149,0,0.178c0,0.027,0.002,0.074,0.005,0.141
		c0.003,0.065,0.007,0.114,0.01,0.146s0.009,0.069,0.016,0.114c0.007,0.046,0.018,0.086,0.031,0.12
		c0.014,0.035,0.031,0.069,0.052,0.104c0.125,0.257,0.351,0.402,0.677,0.438c0.326,0.034,0.635,0.021,0.927-0.042v0.688
		c-0.417,0.104-0.819,0.118-1.208,0.042c-0.528-0.091-0.889-0.337-1.083-0.74c-0.132-0.277-0.198-0.726-0.198-1.344v-2.927h-1.198
		v-0.656h1.198v-1.563h0.771v1.563h1.719v0.656H264.815z"/>
	<path fill="#AFAEAE" d="M270.878,802.53h3.563v0.729h-4.323v-7.5h0.76V802.53z"/>
	<path fill="#AFAEAE" d="M279.94,796.489h-3.854v2.656h3.229v0.729h-3.229v2.656h3.854v0.729h-4.615v-7.5h4.615V796.489z"/>
	<path fill="#AFAEAE" d="M283.304,803.26l-2.583-7.5h0.802l2.281,6.636l2.302-6.636h0.802l-2.583,7.5H283.304z"/>
	<path fill="#AFAEAE" d="M292.305,796.489h-3.854v2.656h3.229v0.729h-3.229v2.656h3.854v0.729h-4.615v-7.5h4.615V796.489z"/>
	<path fill="#AFAEAE" d="M294.628,802.53h3.563v0.729h-4.323v-7.5h0.76V802.53z"/>
	<path fill="#AFAEAE" d="M303.336,795.76h0.781l-2,7.5h-0.781L303.336,795.76z"/>
	<path fill="#AFAEAE" d="M313.419,801.061c-0.16,0.486-0.393,0.896-0.698,1.229c-0.576,0.639-1.375,0.958-2.396,0.958h-2.479v-7.5
		l2.5,0.011c1.007,0,1.802,0.326,2.386,0.979c0.618,0.674,0.927,1.607,0.927,2.802C313.658,800.069,313.579,800.576,313.419,801.061
		z M312.158,797.249c-0.431-0.485-1.038-0.735-1.823-0.75l-1.698,0.011v5.989l1.688,0.021c0.785-0.014,1.402-0.274,1.854-0.781
		c0.431-0.486,0.653-1.219,0.667-2.198C312.86,798.548,312.631,797.784,312.158,797.249z"/>
	<path fill="#AFAEAE" d="M318.013,803.416c-1.16,0-2.038-0.399-2.635-1.198c-0.535-0.688-0.809-1.59-0.823-2.708
		c0-1.104,0.274-2.007,0.823-2.708c0.298-0.396,0.68-0.696,1.146-0.901s0.962-0.3,1.49-0.286c1.153,0.014,2.035,0.409,2.646,1.188
		c0.514,0.659,0.785,1.563,0.813,2.708c0,1.104-0.271,2.007-0.813,2.708C320.034,803.016,319.152,803.416,318.013,803.416z
		 M318.013,802.677c0.41,0,0.793-0.078,1.151-0.234c0.358-0.156,0.647-0.388,0.87-0.693c0.402-0.527,0.611-1.273,0.625-2.239
		c0-0.951-0.208-1.694-0.625-2.229c-0.223-0.305-0.514-0.539-0.875-0.703c-0.361-0.163-0.743-0.241-1.146-0.234
		c-0.41,0.008-0.795,0.091-1.156,0.25c-0.361,0.16-0.649,0.39-0.865,0.688c-0.403,0.508-0.611,1.25-0.625,2.229
		c0,0.958,0.208,1.705,0.625,2.239c0.215,0.306,0.505,0.539,0.87,0.698C317.226,802.607,317.61,802.683,318.013,802.677z"/>
	<path fill="#AFAEAE" d="M325.825,803.416c-1.16,0-2.038-0.399-2.635-1.198c-0.535-0.688-0.809-1.59-0.823-2.708
		c0-1.104,0.274-2.007,0.823-2.708c0.298-0.396,0.68-0.696,1.146-0.901s0.962-0.3,1.49-0.286c1.153,0.014,2.035,0.409,2.646,1.188
		c0.514,0.659,0.785,1.563,0.813,2.708c0,1.104-0.271,2.007-0.813,2.708C327.846,803.016,326.964,803.416,325.825,803.416z
		 M325.825,802.677c0.41,0,0.793-0.078,1.151-0.234c0.358-0.156,0.647-0.388,0.87-0.693c0.402-0.527,0.611-1.273,0.625-2.239
		c0-0.951-0.208-1.694-0.625-2.229c-0.223-0.305-0.514-0.539-0.875-0.703c-0.361-0.163-0.743-0.241-1.146-0.234
		c-0.41,0.008-0.795,0.091-1.156,0.25c-0.361,0.16-0.649,0.39-0.865,0.688c-0.403,0.508-0.611,1.25-0.625,2.229
		c0,0.958,0.208,1.705,0.625,2.239c0.215,0.306,0.505,0.539,0.87,0.698C325.039,802.607,325.423,802.683,325.825,802.677z"/>
	<path fill="#AFAEAE" d="M336.023,803.26h-0.885l-1.385-2.864c-0.035,0.007-0.09,0.01-0.167,0.01h-2.364v2.854h-0.761v-7.5h3.125
		c0.264,0,0.524,0.049,0.781,0.146c0.354,0.118,0.66,0.32,0.917,0.604c0.423,0.444,0.635,0.969,0.635,1.573
		c0,0.556-0.188,1.056-0.563,1.5c-0.236,0.277-0.51,0.482-0.823,0.614L336.023,803.26z M333.575,799.677
		c0.479,0,0.875-0.194,1.188-0.584c0.25-0.313,0.372-0.648,0.365-1.01c-0.014-0.438-0.167-0.81-0.458-1.115
		c-0.299-0.313-0.663-0.469-1.094-0.469h-2.354v3.178H333.575z"/>
	<path fill="#AFAEAE" d="M341.054,795.76h0.771v7.5h-0.771v-6.646l-1.416,0.854v-0.864L341.054,795.76z"/>
</g>
<g>
	<path fill="#FFFFFF" d="M2830.439,748.91h1.002v9.75h-1.002v-8.639l-1.842,1.109v-1.123L2830.439,748.91z"/>
	<path fill="#FFFFFF" d="M2845.416,753.785c0.018,1.418-0.338,2.592-1.07,3.521c-0.82,1.039-1.963,1.557-3.426,1.557
		c-1.48,0-2.627-0.518-3.439-1.557c-0.361-0.469-0.618-0.984-0.771-1.543l0.988-0.285c0.127,0.451,0.32,0.861,0.582,1.232
		c0.299,0.389,0.682,0.686,1.151,0.893c0.47,0.209,0.966,0.309,1.489,0.299c0.523,0,1.021-0.102,1.49-0.305
		c0.469-0.203,0.848-0.498,1.137-0.887c0.461-0.605,0.723-1.412,0.786-2.424h-3.521v-1.002h3.521
		c-0.063-1.002-0.325-1.807-0.786-2.41c-0.289-0.389-0.668-0.689-1.137-0.9c-0.47-0.213-0.967-0.314-1.49-0.305
		c-1.155,0.018-2.035,0.418-2.641,1.205c-0.289,0.379-0.492,0.83-0.609,1.354l-1.029-0.162c0.154-0.668,0.434-1.27,0.84-1.801
		c0.389-0.506,0.883-0.893,1.482-1.158c0.602-0.266,1.254-0.4,1.957-0.4c1.49,0,2.632,0.52,3.426,1.559
		C2845.041,751.158,2845.398,752.332,2845.416,753.785z"/>
	<path fill="#FFFFFF" d="M2853.947,748.91v0.949h-3.412v8.801h-0.988v-8.801h-3.413v-0.949H2853.947z"/>
	<path fill="#FFFFFF" d="M2861.355,758.66l-0.664-1.922h-4.631l-0.664,1.922h-1.043l3.359-9.75h1.326l3.358,9.75H2861.355z
		 M2856.385,755.802h3.981l-2.004-5.768L2856.385,755.802z"/>
	<path fill="#FFFFFF" d="M2862.736,758.66l3.291-5.078l-3.033-4.672h1.191l2.722,4.252h1.571v-4.252h1.002v4.252h1.57l2.722-4.252
		h1.192l-3.033,4.672l3.29,5.078h-1.192l-2.979-4.645h-1.57v4.645h-1.002v-4.645h-1.571l-2.979,4.645H2862.736z"/>
	<path fill="#FFFFFF" d="M2821.29,784.584h1.438v3.664h-1.677v-1.988h-13.082v1.988h-1.676v-3.664c1.82,0,2.938-1.766,3.354-5.295
		l1.197-10.279h10.446V784.584z M2819.613,784.584v-13.896h-7.26l-1.029,8.793c-0.272,2.443-0.887,4.145-1.846,5.104H2819.613z"/>
	<path fill="#FFFFFF" d="M2836.84,778.449c0.702,0.879,1.029,1.885,0.982,3.02c-0.049,1.15-0.416,2.125-1.103,2.922
		c-0.687,0.799-1.542,1.342-2.563,1.631c-0.527,0.158-1.334,0.238-2.42,0.238h-6.133v-17.25h5.821c1.103,0,1.829,0.057,2.181,0.168
		c0.941,0.256,1.717,0.76,2.323,1.51c0.623,0.688,0.974,1.582,1.054,2.684c0.064,0.975-0.238,1.893-0.91,2.754
		c-0.239,0.336-0.511,0.633-0.814,0.887C2835.881,777.363,2836.408,777.844,2836.84,778.449z M2832.239,770.687h-4.863v5.678h4.863
		c0.415,0,0.847-0.111,1.294-0.336c0.447-0.223,0.807-0.518,1.078-0.885c0.383-0.576,0.566-1.166,0.551-1.773
		c0-0.672-0.248-1.27-0.742-1.797C2833.844,770.982,2833.117,770.687,2832.239,770.687z M2835.138,783.552
		c0.574-0.607,0.862-1.301,0.862-2.084c0-0.799-0.231-1.502-0.694-2.109c-0.288-0.414-0.676-0.738-1.162-0.969
		c-0.488-0.232-0.979-0.348-1.475-0.348h-5.294v6.516h4.337c0.67,0,1.141-0.008,1.413-0.023c0.271-0.016,0.603-0.1,0.994-0.252
		C2834.511,784.133,2834.85,783.888,2835.138,783.552z"/>
	<path fill="#FFFFFF" d="M2850.902,770.687h-8.864v6.109h7.427v1.678h-7.427v6.109h8.864v1.676h-10.613v-17.25h10.613V770.687z"/>
	<path fill="#FFFFFF" d="M2865.349,770.734c0.974,1.023,1.461,2.229,1.461,3.619c0,1.277-0.432,2.428-1.293,3.449
		c-0.479,0.592-1.082,1.055-1.81,1.391c-0.727,0.334-1.481,0.502-2.264,0.502h-5.438v6.564h-1.749v-17.25h7.188
		c0.606,0,1.206,0.113,1.797,0.336C2864.055,769.617,2864.758,770.08,2865.349,770.734z M2864.151,776.677
		c0.575-0.719,0.854-1.494,0.839-2.324c-0.032-1.006-0.384-1.861-1.055-2.564c-0.687-0.719-1.525-1.078-2.516-1.078h-5.414v7.309
		h5.414C2862.522,778.019,2863.432,777.572,2864.151,776.677z"/>
	<path fill="#FFFFFF" d="M2880.539,777.467c0.861,1.023,1.293,2.174,1.293,3.451c0,1.389-0.487,2.596-1.461,3.617
		c-0.592,0.654-1.294,1.119-2.108,1.391c-0.591,0.223-1.19,0.334-1.797,0.334h-7.188v-17.25h1.749v6.564h5.438
		c0.782,0,1.537,0.168,2.264,0.504C2879.457,776.414,2880.059,776.877,2880.539,777.467z M2880.011,780.918
		c0.016-0.83-0.264-1.605-0.839-2.324c-0.719-0.895-1.629-1.342-2.731-1.342h-5.414v7.307h5.414c0.99,0,1.829-0.359,2.516-1.078
		C2879.628,782.779,2879.979,781.924,2880.011,780.918z"/>
	<path fill="#FFFFFF" d="M2892.758,769.01h1.772v17.25h-1.772v-15.285l-3.259,1.965v-1.988L2892.758,769.01z"/>
	<path fill="#AFAEAE" d="M2807.402,795.76h0.771v7.5h-0.771v-6.645l-1.417,0.854v-0.865L2807.402,795.76z"/>
	<path fill="#AFAEAE" d="M2816.943,799.103l-0.74,0.188c-0.145-0.416-0.395-0.715-0.75-0.895c-0.25-0.146-0.545-0.219-0.885-0.219
		c-0.306-0.008-0.594,0.045-0.865,0.156c-0.326,0.158-0.488,0.377-0.488,0.656c0,0.221,0.086,0.395,0.26,0.52
		c0.132,0.105,0.354,0.201,0.666,0.293c0.098,0.027,0.48,0.131,1.146,0.313c0.451,0.117,0.813,0.287,1.084,0.51
		c0.389,0.305,0.582,0.688,0.582,1.146c0,0.242-0.063,0.482-0.191,0.719c-0.129,0.236-0.301,0.416-0.516,0.541
		c-0.383,0.25-0.896,0.375-1.543,0.375c-0.832,0-1.469-0.24-1.906-0.719c-0.11-0.125-0.206-0.266-0.285-0.422
		c-0.08-0.156-0.137-0.281-0.168-0.375s-0.078-0.252-0.141-0.475l0.74-0.188c0.063,0.404,0.194,0.727,0.396,0.969
		c0.313,0.342,0.767,0.512,1.363,0.512c0.5,0,0.883-0.092,1.146-0.271c0.25-0.16,0.375-0.385,0.375-0.678
		c0-0.242-0.107-0.438-0.322-0.582c-0.174-0.125-0.452-0.244-0.834-0.355c-0.194-0.055-0.412-0.117-0.65-0.188
		c-0.24-0.068-0.412-0.117-0.516-0.145c-0.48-0.16-0.824-0.338-1.031-0.531c-0.258-0.23-0.387-0.549-0.387-0.959
		c0-0.277,0.086-0.535,0.256-0.771s0.391-0.412,0.662-0.531c0.332-0.158,0.732-0.232,1.197-0.219c0.431,0,0.826,0.092,1.188,0.271
		c0.264,0.133,0.504,0.324,0.719,0.578S2816.867,798.84,2816.943,799.103z"/>
	<path fill="#AFAEAE" d="M2819.453,798.291v2.896c0,0.035,0,0.098,0,0.188s0,0.148,0,0.178c0,0.027,0.002,0.074,0.006,0.141
		c0.004,0.064,0.007,0.113,0.01,0.145c0.004,0.031,0.01,0.07,0.016,0.115c0.008,0.045,0.018,0.086,0.031,0.119
		c0.015,0.035,0.031,0.07,0.053,0.105c0.125,0.256,0.351,0.402,0.678,0.438c0.326,0.033,0.635,0.02,0.926-0.043v0.688
		c-0.416,0.105-0.818,0.119-1.207,0.043c-0.528-0.092-0.89-0.338-1.084-0.74c-0.132-0.277-0.197-0.727-0.197-1.344v-2.928h-1.199
		v-0.656h1.199v-1.563h0.77v1.563h1.719v0.656H2819.453z"/>
	<path fill="#AFAEAE" d="M2825.515,802.531h3.563v0.729h-4.322v-7.5h0.76V802.531z"/>
	<path fill="#AFAEAE" d="M2834.578,796.49h-3.854v2.656h3.229v0.729h-3.229v2.656h3.854v0.729h-4.614v-7.5h4.614V796.49z"/>
	<path fill="#AFAEAE" d="M2837.943,803.26l-2.584-7.5h0.803l2.281,6.637l2.302-6.637h0.802l-2.583,7.5H2837.943z"/>
	<path fill="#AFAEAE" d="M2846.943,796.49h-3.854v2.656h3.229v0.729h-3.229v2.656h3.854v0.729h-4.615v-7.5h4.615V796.49z"/>
	<path fill="#AFAEAE" d="M2849.265,802.531h3.563v0.729h-4.322v-7.5h0.76V802.531z"/>
	<path fill="#AFAEAE" d="M2857.974,795.76h0.781l-2,7.5h-0.781L2857.974,795.76z"/>
	<path fill="#AFAEAE" d="M2868.057,801.062c-0.16,0.486-0.393,0.896-0.698,1.229c-0.576,0.639-1.375,0.959-2.396,0.959h-2.479v-7.5
		l2.5,0.01c1.007,0,1.803,0.326,2.386,0.98c0.618,0.674,0.927,1.607,0.927,2.801C2868.297,800.07,2868.217,800.576,2868.057,801.062
		z M2866.797,797.25c-0.431-0.486-1.038-0.736-1.822-0.75l-1.698,0.01v5.99l1.688,0.021c0.784-0.014,1.402-0.275,1.854-0.781
		c0.43-0.486,0.652-1.219,0.666-2.199C2867.498,798.549,2867.269,797.785,2866.797,797.25z"/>
	<path fill="#AFAEAE" d="M2872.651,803.416c-1.159,0-2.038-0.398-2.636-1.197c-0.535-0.688-0.809-1.59-0.822-2.709
		c0-1.104,0.273-2.006,0.822-2.707c0.299-0.396,0.681-0.697,1.146-0.902c0.465-0.205,0.961-0.299,1.489-0.285
		c1.153,0.014,2.034,0.408,2.646,1.188c0.514,0.658,0.785,1.563,0.813,2.707c0,1.105-0.271,2.008-0.813,2.709
		C2874.672,803.017,2873.79,803.416,2872.651,803.416z M2872.651,802.677c0.409,0,0.794-0.078,1.151-0.234s0.646-0.389,0.869-0.693
		c0.402-0.527,0.611-1.273,0.625-2.24c0-0.951-0.208-1.693-0.625-2.229c-0.223-0.305-0.514-0.539-0.875-0.703
		s-0.742-0.242-1.146-0.234c-0.409,0.008-0.796,0.09-1.156,0.25c-0.361,0.16-0.649,0.389-0.864,0.688
		c-0.403,0.508-0.611,1.25-0.625,2.229c0,0.959,0.208,1.705,0.625,2.24c0.215,0.305,0.505,0.539,0.869,0.697
		C2871.865,802.607,2872.248,802.683,2872.651,802.677z"/>
	<path fill="#AFAEAE" d="M2880.464,803.416c-1.159,0-2.038-0.398-2.636-1.197c-0.535-0.688-0.809-1.59-0.822-2.709
		c0-1.104,0.273-2.006,0.822-2.707c0.299-0.396,0.681-0.697,1.146-0.902c0.465-0.205,0.961-0.299,1.489-0.285
		c1.153,0.014,2.034,0.408,2.646,1.188c0.514,0.658,0.785,1.563,0.813,2.707c0,1.105-0.271,2.008-0.813,2.709
		C2882.484,803.017,2881.602,803.416,2880.464,803.416z M2880.464,802.677c0.409,0,0.794-0.078,1.151-0.234s0.646-0.389,0.869-0.693
		c0.402-0.527,0.611-1.273,0.625-2.24c0-0.951-0.208-1.693-0.625-2.229c-0.223-0.305-0.514-0.539-0.875-0.703
		s-0.742-0.242-1.146-0.234c-0.409,0.008-0.796,0.09-1.156,0.25c-0.361,0.16-0.649,0.389-0.864,0.688
		c-0.403,0.508-0.611,1.25-0.625,2.229c0,0.959,0.208,1.705,0.625,2.24c0.215,0.305,0.505,0.539,0.869,0.697
		C2879.677,802.607,2880.06,802.683,2880.464,802.677z"/>
	<path fill="#AFAEAE" d="M2890.662,803.26h-0.886l-1.386-2.863c-0.035,0.006-0.09,0.01-0.166,0.01h-2.365v2.854h-0.76v-7.5h3.125
		c0.264,0,0.523,0.049,0.781,0.146c0.354,0.117,0.659,0.32,0.916,0.604c0.424,0.445,0.636,0.969,0.636,1.574
		c0,0.555-0.188,1.055-0.563,1.5c-0.236,0.277-0.511,0.482-0.823,0.613L2890.662,803.26z M2888.214,799.677
		c0.479,0,0.875-0.195,1.188-0.584c0.25-0.313,0.372-0.648,0.364-1.01c-0.014-0.438-0.166-0.811-0.458-1.115
		c-0.299-0.313-0.663-0.469-1.094-0.469h-2.354v3.178H2888.214z"/>
	<path fill="#AFAEAE" d="M2895.692,795.76h0.771v7.5h-0.771v-6.645l-1.416,0.854v-0.865L2895.692,795.76z"/>
</g>
<g>
	<path fill="#FFFFFF" d="M27.307,241.572v26.863h-2.761v-24.251H13.39L11.6,259.406c-0.149,1.417-0.354,2.625-0.616,3.619
		c-0.261,0.995-0.653,1.94-1.175,2.835s-1.231,1.561-2.126,1.996s-1.978,0.627-3.246,0.578v-2.537
		c1.567-0.024,2.655-0.584,3.265-1.679c0.609-1.094,1.063-2.86,1.362-5.298l2.052-17.349H27.307z"/>
	<path fill="#FFFFFF" d="M49.058,244.183H35.254v9.514H46.82v2.612H35.254v9.514h13.804v2.612H32.53v-26.863h16.528V244.183z"/>
	<path fill="#FFFFFF" d="M71.78,256.271c1.094,1.369,1.604,2.936,1.53,4.701c-0.075,1.791-0.647,3.308-1.716,4.552
		c-1.07,1.244-2.401,2.089-3.992,2.537c-0.821,0.249-2.077,0.373-3.768,0.373h-9.551v-26.863h9.066c1.716,0,2.848,0.087,3.395,0.261
		c1.467,0.398,2.674,1.182,3.619,2.351c0.97,1.07,1.517,2.462,1.642,4.179c0.099,1.517-0.373,2.947-1.417,4.291
		c-0.373,0.522-0.796,0.983-1.269,1.38C70.287,254.58,71.108,255.326,71.78,256.271z M64.616,244.183h-7.574v8.842h7.574
		c0.646,0,1.318-0.174,2.015-0.522c0.696-0.348,1.256-0.808,1.679-1.38c0.597-0.896,0.882-1.815,0.858-2.761
		c0-1.045-0.386-1.978-1.157-2.798C67.116,244.644,65.984,244.183,64.616,244.183z M69.131,264.219
		c0.895-0.945,1.343-2.027,1.343-3.246c0-1.243-0.361-2.337-1.082-3.283c-0.448-0.646-1.051-1.15-1.81-1.511
		c-0.759-0.36-1.524-0.541-2.295-0.541h-8.245v10.148h6.753c1.045,0,1.778-0.012,2.201-0.037c0.423-0.025,0.938-0.155,1.548-0.392
		C68.154,265.12,68.683,264.74,69.131,264.219z"/>
	<path fill="#FFFFFF" d="M94.575,268.434l-1.828-5.298h-12.76l-1.828,5.298h-2.873l9.253-26.863h3.656l9.252,26.863H94.575z
		 M80.883,260.562h10.969l-5.522-15.894L80.883,260.562z"/>
	<path fill="#FFFFFF" d="M120.356,241.572v26.863h-2.724v-10.223h-8.469c-0.274,0-0.473-0.012-0.597-0.038l-4.962,10.26h-3.171
		l5.335-10.969c-1.119-0.472-2.102-1.207-2.947-2.202c-1.343-1.591-2.015-3.382-2.015-5.373c0-2.164,0.758-4.042,2.276-5.633
		c0.92-1.02,2.015-1.741,3.283-2.164c0.92-0.348,1.853-0.522,2.798-0.522H120.356z M117.632,255.6V244.22H109.2
		c-1.542,0-2.849,0.56-3.917,1.679c-1.045,1.095-1.592,2.425-1.642,3.992c-0.025,1.294,0.41,2.5,1.306,3.619
		c1.119,1.394,2.537,2.089,4.253,2.089H117.632z"/>
	<path fill="#FFFFFF" d="M155.053,241.572v26.863h-2.761v-24.251h-11.156l-1.791,15.222c-0.149,1.417-0.354,2.625-0.616,3.619
		c-0.261,0.995-0.653,1.94-1.175,2.835s-1.231,1.561-2.126,1.996s-1.978,0.627-3.246,0.578v-2.537
		c1.567-0.024,2.655-0.584,3.265-1.679c0.609-1.094,1.063-2.86,1.362-5.298l2.052-17.349H155.053z"/>
	<path fill="#FFFFFF" d="M171.656,268.994c-4.154,0-7.301-1.43-9.439-4.291c-1.916-2.462-2.898-5.695-2.947-9.7
		c0-3.955,0.982-7.188,2.947-9.701c1.069-1.417,2.438-2.493,4.104-3.227c1.666-0.733,3.445-1.076,5.335-1.026
		c4.128,0.05,7.287,1.468,9.477,4.253c1.84,2.363,2.81,5.597,2.91,9.701c0,3.955-0.97,7.188-2.91,9.7
		C178.893,267.564,175.734,268.994,171.656,268.994z M171.656,266.345c1.467,0,2.841-0.28,4.123-0.839
		c1.281-0.56,2.319-1.386,3.115-2.481c1.442-1.89,2.188-4.564,2.239-8.021c0-3.408-0.747-6.069-2.239-7.984
		c-0.796-1.094-1.841-1.934-3.134-2.519c-1.294-0.584-2.662-0.864-4.104-0.839c-1.468,0.025-2.849,0.324-4.142,0.896
		c-1.293,0.572-2.326,1.393-3.097,2.462c-1.443,1.816-2.189,4.477-2.238,7.984c0,3.432,0.746,6.106,2.238,8.021
		c0.771,1.095,1.81,1.928,3.115,2.5C168.839,266.096,170.213,266.37,171.656,266.345z"/>
	<path fill="#FFFFFF" d="M185.833,268.434l9.066-13.991l-8.357-12.872h3.283l7.499,11.715h4.328v-11.715h2.761v11.715h4.328
		l7.5-11.715h3.283l-8.357,12.872l9.066,13.991h-3.283l-8.208-12.797h-4.328v12.797h-2.761v-12.797h-4.328l-8.208,12.797H185.833z"
		/>
	<path fill="#FFFFFF" d="M240.453,268.434l-1.828-5.298h-12.76l-1.828,5.298h-2.873l9.253-26.863h3.656l9.252,26.863H240.453z
		 M226.761,260.562h10.969l-5.522-15.894L226.761,260.562z"/>
	<path fill="#FFFFFF" d="M272.688,254.742c1.343,1.592,2.015,3.383,2.015,5.373c0,2.164-0.759,4.042-2.276,5.634
		c-0.92,1.02-2.015,1.741-3.283,2.164c-0.92,0.349-1.853,0.522-2.798,0.522h-11.193v-26.863h17.349v2.612h-14.625v7.611h8.469
		c1.218,0,2.394,0.261,3.525,0.784S271.942,253.822,272.688,254.742z M271.867,260.115c0.024-1.293-0.41-2.5-1.306-3.619
		c-1.119-1.393-2.537-2.089-4.253-2.089h-8.432v11.379h8.432c1.542,0,2.848-0.56,3.917-1.679
		C271.271,263.012,271.817,261.681,271.867,260.115z"/>
	<path fill="#FFFFFF" d="M295.074,244.183H281.27v9.514h11.566v2.612H281.27v9.514h13.804v2.612h-16.528v-26.863h16.528V244.183z"/>
	<path fill="#FFFFFF" d="M321.302,241.572v26.863h-2.761v-24.251h-11.156l-1.791,15.222c-0.149,1.417-0.354,2.625-0.616,3.619
		c-0.261,0.995-0.653,1.94-1.175,2.835s-1.231,1.561-2.126,1.996s-1.978,0.627-3.246,0.578v-2.537
		c1.567-0.024,2.655-0.584,3.265-1.679c0.609-1.094,1.063-2.86,1.362-5.298l2.052-17.349H321.302z"/>
	<path fill="#FFFFFF" d="M344.061,254.742c1.343,1.592,2.015,3.383,2.015,5.373c0,2.164-0.759,4.042-2.276,5.634
		c-0.92,1.02-2.015,1.741-3.283,2.164c-0.92,0.349-1.853,0.522-2.798,0.522h-11.193v-26.863h2.724v10.223h8.469
		c1.218,0,2.394,0.261,3.525,0.784S343.315,253.822,344.061,254.742z M343.24,260.115c0.024-1.293-0.41-2.5-1.306-3.619
		c-1.119-1.393-2.537-2.089-4.253-2.089h-8.432v11.379h8.432c1.542,0,2.848-0.56,3.917-1.679
		C342.643,263.012,343.19,261.681,343.24,260.115z"/>
	<path fill="#FFFFFF" d="M372.864,255.003c0.049,3.905-0.933,7.139-2.948,9.7c-2.264,2.861-5.41,4.291-9.439,4.291
		c-4.08,0-7.238-1.43-9.477-4.291c-0.995-1.293-1.704-2.711-2.127-4.253l2.724-0.783c0.348,1.244,0.883,2.375,1.604,3.395
		c0.821,1.07,1.877,1.891,3.171,2.462c1.293,0.572,2.661,0.846,4.104,0.821c1.442,0,2.81-0.28,4.104-0.839
		c1.293-0.56,2.337-1.374,3.134-2.444c1.269-1.666,1.99-3.893,2.164-6.678h-9.701v-2.761h9.701
		c-0.174-2.761-0.896-4.974-2.164-6.641c-0.796-1.069-1.841-1.896-3.134-2.481c-1.294-0.584-2.662-0.864-4.104-0.839
		c-3.185,0.05-5.609,1.157-7.275,3.321c-0.796,1.044-1.356,2.289-1.679,3.73l-2.835-0.447c0.423-1.841,1.194-3.495,2.313-4.962
		c1.069-1.393,2.431-2.456,4.085-3.19c1.654-0.733,3.451-1.101,5.392-1.101c4.104,0,7.25,1.431,9.439,4.291
		C371.831,247.765,372.813,250.999,372.864,255.003z"/>
	<path fill="#FFFFFF" d="M396.368,241.572v2.612h-9.402v24.251h-2.724v-24.251h-9.402v-2.612H396.368z"/>
	<path fill="#FFFFFF" d="M416.776,268.434l-1.828-5.298h-12.76l-1.828,5.298h-2.873l9.253-26.863h3.656l9.252,26.863H416.776z
		 M403.084,260.562h10.969l-5.522-15.894L403.084,260.562z"/>
	<path fill="#FFFFFF" d="M420.582,268.434l9.066-13.991l-8.357-12.872h3.283l7.499,11.715h4.328v-11.715h2.761v11.715h4.328
		l7.5-11.715h3.283l-8.357,12.872l9.066,13.991h-3.283l-8.208-12.797h-4.328v12.797h-2.761v-12.797h-4.328l-8.208,12.797H420.582z"
		/>
	<path fill="#FFFFFF" d="M475.202,268.434l-1.828-5.298h-12.76l-1.828,5.298h-2.873l9.253-26.863h3.656l9.252,26.863H475.202z
		 M461.51,260.562h10.969l-5.522-15.894L461.51,260.562z"/>
	<path fill="#AFAEAE" d="M200.496,302.647l2.724,0.783c-0.423,1.542-1.132,2.96-2.126,4.253c-2.239,2.861-5.398,4.291-9.477,4.291
		c-4.03,0-7.176-1.43-9.439-4.291c-2.015-2.586-2.998-5.82-2.947-9.7c0.099-4.079,1.082-7.313,2.947-9.701
		c2.188-2.86,5.335-4.291,9.439-4.291c1.94,0,3.736,0.367,5.391,1.101c1.654,0.734,3.016,1.797,4.085,3.19
		c1.094,1.443,1.877,3.097,2.35,4.962l-2.835,0.447c-0.373-1.467-0.945-2.71-1.716-3.73c-1.617-2.164-4.042-3.271-7.275-3.321
		c-1.443-0.024-2.805,0.255-4.085,0.839c-1.281,0.585-2.32,1.412-3.115,2.481c-1.493,1.916-2.239,4.589-2.239,8.021
		c0,3.432,0.746,6.119,2.239,8.059c0.771,1.07,1.803,1.884,3.097,2.444c1.293,0.56,2.661,0.839,4.104,0.839
		c1.467,0.025,2.848-0.249,4.141-0.821c1.293-0.572,2.338-1.393,3.134-2.462C199.588,305.097,200.123,303.966,200.496,302.647z"/>
	<path fill="#AFAEAE" d="M208.032,284.552h2.724v26.863h-2.724V284.552z"/>
	<path fill="#AFAEAE" d="M236.275,311.415h-3.171l-4.962-10.26c-0.125,0.025-0.324,0.038-0.597,0.038h-8.469v10.223h-2.724v-26.863
		h11.193c0.945,0,1.877,0.174,2.798,0.522c1.269,0.423,2.363,1.144,3.283,2.164c1.517,1.592,2.276,3.47,2.276,5.633
		c0,1.99-0.671,3.781-2.015,5.373c-0.846,0.995-1.828,1.729-2.947,2.202L236.275,311.415z M227.508,298.58
		c1.716,0,3.134-0.696,4.253-2.089c0.896-1.119,1.33-2.325,1.306-3.619c-0.05-1.567-0.597-2.897-1.642-3.992
		c-1.07-1.12-2.375-1.679-3.917-1.679h-8.432v11.379H227.508z"/>
	<path fill="#AFAEAE" d="M261.385,302.647l2.724,0.783c-0.423,1.542-1.132,2.96-2.126,4.253c-2.239,2.861-5.398,4.291-9.477,4.291
		c-4.03,0-7.176-1.43-9.439-4.291c-2.015-2.586-2.998-5.82-2.947-9.7c0.099-4.079,1.082-7.313,2.947-9.701
		c2.188-2.86,5.335-4.291,9.439-4.291c1.94,0,3.736,0.367,5.391,1.101c1.654,0.734,3.016,1.797,4.085,3.19
		c1.094,1.443,1.877,3.097,2.35,4.962l-2.835,0.447c-0.373-1.467-0.945-2.71-1.716-3.73c-1.617-2.164-4.042-3.271-7.275-3.321
		c-1.443-0.024-2.805,0.255-4.085,0.839c-1.281,0.585-2.32,1.412-3.115,2.481c-1.493,1.916-2.239,4.589-2.239,8.021
		c0,3.432,0.746,6.119,2.239,8.059c0.771,1.07,1.803,1.884,3.097,2.444c1.293,0.56,2.661,0.839,4.104,0.839
		c1.467,0.025,2.848-0.249,4.141-0.821c1.293-0.572,2.338-1.393,3.134-2.462C260.476,305.097,261.011,303.966,261.385,302.647z"/>
	<path fill="#AFAEAE" d="M271.645,308.803h12.76v2.612h-15.483v-26.863h2.724V308.803z"/>
	<path fill="#AFAEAE" d="M304.104,287.164H290.3v9.514h11.566v2.612H290.3v9.514h13.804v2.612h-16.528v-26.863h16.528V287.164z"/>
	<path fill="#AFAEAE" d="M335.294,299.252c1.094,1.369,1.604,2.936,1.53,4.701c-0.075,1.791-0.647,3.308-1.716,4.552
		c-1.07,1.244-2.401,2.089-3.992,2.537c-0.821,0.249-2.077,0.373-3.768,0.373h-9.551v-26.863h9.066c1.716,0,2.848,0.087,3.395,0.261
		c1.467,0.398,2.674,1.182,3.619,2.351c0.97,1.07,1.517,2.462,1.642,4.179c0.099,1.517-0.373,2.947-1.417,4.291
		c-0.373,0.522-0.796,0.983-1.269,1.38C333.802,297.561,334.622,298.307,335.294,299.252z M328.131,287.164h-7.574v8.842h7.574
		c0.646,0,1.318-0.174,2.015-0.522c0.696-0.348,1.256-0.808,1.679-1.38c0.597-0.896,0.882-1.815,0.858-2.761
		c0-1.045-0.386-1.978-1.157-2.798C330.631,287.624,329.498,287.164,328.131,287.164z M332.645,307.199
		c0.895-0.945,1.343-2.027,1.343-3.246c0-1.243-0.361-2.337-1.082-3.283c-0.448-0.646-1.051-1.15-1.81-1.511
		c-0.759-0.36-1.524-0.541-2.295-0.541h-8.245v10.148h6.753c1.045,0,1.778-0.012,2.201-0.037c0.423-0.025,0.938-0.155,1.548-0.392
		C331.669,308.101,332.198,307.721,332.645,307.199z"/>
	<path fill="#AFAEAE" d="M352.046,311.974c-4.154,0-7.301-1.43-9.439-4.291c-1.916-2.462-2.898-5.695-2.947-9.7
		c0-3.955,0.982-7.188,2.947-9.701c1.069-1.417,2.438-2.493,4.104-3.227c1.666-0.733,3.445-1.076,5.335-1.026
		c4.128,0.05,7.288,1.468,9.477,4.253c1.84,2.363,2.81,5.597,2.91,9.701c0,3.955-0.97,7.188-2.91,9.7
		C359.283,310.545,356.124,311.974,352.046,311.974z M352.046,309.325c1.467,0,2.841-0.28,4.123-0.839
		c1.281-0.56,2.319-1.386,3.115-2.481c1.442-1.89,2.188-4.564,2.239-8.021c0-3.408-0.747-6.069-2.239-7.984
		c-0.796-1.094-1.841-1.934-3.134-2.519c-1.294-0.584-2.662-0.864-4.104-0.839c-1.468,0.025-2.849,0.324-4.142,0.896
		c-1.293,0.572-2.326,1.393-3.097,2.462c-1.443,1.816-2.189,4.477-2.238,7.984c0,3.432,0.746,6.106,2.238,8.021
		c0.771,1.095,1.81,1.928,3.115,2.5C349.229,309.077,350.603,309.35,352.046,309.325z"/>
	<path fill="#AFAEAE" d="M378.908,297.797l9.439,13.618h-3.321l-7.76-11.23l-7.723,11.23h-3.32l9.439-13.618l-9.215-13.245h3.32
		l7.499,10.895l7.5-10.895h3.357L378.908,297.797z"/>
	<path fill="#AFAEAE" d="M402.711,308.803h12.76v2.612h-15.483v-26.863h2.724V308.803z"/>
	<path fill="#AFAEAE" d="M435.17,287.164h-13.804v9.514h11.566v2.612h-11.566v9.514h13.804v2.612h-16.528v-26.863h16.528V287.164z"
		/>
	<path fill="#AFAEAE" d="M455.802,287.276h-12.685v9.327h10.446v2.761h-10.446v12.051h-2.724v-26.863h15.409V287.276z"/>
	<path fill="#AFAEAE" d="M478.448,284.552v2.612h-9.402v24.251h-2.724v-24.251h-9.402v-2.612H478.448z"/>
</g>
<g>
	<path fill="#FFFFFF" d="M2672.771,241.572v26.863h-2.724v-24.251h-16.678v24.251h-2.724v-26.863H2672.771z"/>
	<path fill="#FFFFFF" d="M2695.268,244.258c1.517,1.592,2.276,3.47,2.276,5.633c0,1.99-0.672,3.781-2.015,5.373
		c-0.747,0.921-1.686,1.642-2.817,2.164s-2.308,0.784-3.525,0.784h-8.47v10.223h-2.724v-26.863h11.193
		c0.944,0,1.878,0.174,2.798,0.522C2693.254,242.517,2694.348,243.238,2695.268,244.258z M2693.403,253.51
		c0.896-1.119,1.33-2.325,1.306-3.619c-0.05-1.567-0.597-2.897-1.642-3.992c-1.069-1.12-2.376-1.679-3.917-1.679h-8.433V255.6h8.433
		C2690.866,255.6,2692.284,254.904,2693.403,253.51z"/>
	<path fill="#FFFFFF" d="M2718.81,268.434l-1.828-5.298h-12.76l-1.828,5.298h-2.873l9.253-26.863h3.656l9.253,26.863H2718.81z
		 M2705.118,260.562h10.969l-5.521-15.894L2705.118,260.562z"/>
	<path fill="#FFFFFF" d="M2742.539,256.271c1.095,1.369,1.604,2.936,1.53,4.701c-0.075,1.791-0.647,3.308-1.717,4.552
		c-1.069,1.244-2.4,2.089-3.992,2.537c-0.82,0.249-2.076,0.373-3.768,0.373h-9.552v-26.863h9.066c1.717,0,2.848,0.087,3.396,0.261
		c1.467,0.398,2.673,1.182,3.619,2.351c0.97,1.07,1.517,2.462,1.642,4.179c0.099,1.517-0.373,2.947-1.418,4.291
		c-0.373,0.522-0.797,0.983-1.269,1.38C2741.047,254.58,2741.868,255.326,2742.539,256.271z M2735.376,244.183h-7.574v8.842h7.574
		c0.646,0,1.318-0.174,2.015-0.522c0.696-0.348,1.256-0.808,1.679-1.38c0.598-0.896,0.883-1.815,0.858-2.761
		c0-1.045-0.386-1.978-1.156-2.798C2737.876,244.644,2736.743,244.183,2735.376,244.183z M2739.89,264.219
		c0.896-0.945,1.343-2.027,1.343-3.246c0-1.243-0.36-2.337-1.082-3.283c-0.447-0.646-1.051-1.15-1.81-1.511
		c-0.759-0.36-1.523-0.541-2.294-0.541h-8.246v10.148h6.754c1.044,0,1.777-0.012,2.201-0.037c0.422-0.025,0.938-0.155,1.548-0.392
		C2738.914,265.12,2739.442,264.74,2739.89,264.219z"/>
	<path fill="#FFFFFF" d="M2765.335,268.434l-1.828-5.298h-12.76l-1.828,5.298h-2.873l9.253-26.863h3.656l9.253,26.863H2765.335z
		 M2751.642,260.562h10.969l-5.521-15.894L2751.642,260.562z"/>
	<path fill="#FFFFFF" d="M2791.116,241.572v26.863h-2.724v-10.223h-8.47c-0.273,0-0.473-0.012-0.597-0.038l-4.962,10.26h-3.172
		l5.336-10.969c-1.12-0.472-2.103-1.207-2.948-2.202c-1.343-1.591-2.015-3.382-2.015-5.373c0-2.164,0.759-4.042,2.276-5.633
		c0.92-1.02,2.015-1.741,3.283-2.164c0.92-0.348,1.853-0.522,2.798-0.522H2791.116z M2788.392,255.6V244.22h-8.433
		c-1.542,0-2.848,0.56-3.917,1.679c-1.045,1.095-1.592,2.425-1.642,3.992c-0.025,1.294,0.41,2.5,1.306,3.619
		c1.119,1.394,2.537,2.089,4.253,2.089H2788.392z"/>
	<path fill="#FFFFFF" d="M2825.813,241.572v26.863h-2.762v-24.251h-11.155l-1.791,15.222c-0.148,1.417-0.354,2.625-0.615,3.619
		c-0.261,0.995-0.653,1.94-1.175,2.835c-0.522,0.896-1.231,1.561-2.127,1.996s-1.978,0.627-3.246,0.578v-2.537
		c1.567-0.024,2.655-0.584,3.265-1.679c0.609-1.094,1.063-2.86,1.361-5.298l2.053-17.349H2825.813z"/>
	<path fill="#FFFFFF" d="M2842.416,268.994c-4.154,0-7.301-1.43-9.439-4.291c-1.916-2.462-2.897-5.695-2.947-9.7
		c0-3.955,0.982-7.188,2.947-9.701c1.069-1.417,2.438-2.493,4.104-3.227c1.666-0.733,3.444-1.076,5.335-1.026
		c4.128,0.05,7.287,1.468,9.477,4.253c1.84,2.363,2.811,5.597,2.91,9.701c0,3.955-0.971,7.188-2.91,9.7
		C2849.654,267.564,2846.495,268.994,2842.416,268.994z M2842.416,266.345c1.467,0,2.841-0.28,4.122-0.839s2.319-1.386,3.116-2.481
		c1.441-1.89,2.188-4.564,2.238-8.021c0-3.408-0.746-6.069-2.238-7.984c-0.797-1.094-1.842-1.934-3.135-2.519
		c-1.293-0.584-2.661-0.864-4.104-0.839c-1.468,0.025-2.849,0.324-4.142,0.896c-1.294,0.572-2.326,1.393-3.097,2.462
		c-1.442,1.816-2.188,4.477-2.238,7.984c0,3.432,0.746,6.106,2.238,8.021c0.771,1.095,1.81,1.928,3.115,2.5
		C2839.598,266.096,2840.972,266.37,2842.416,266.345z"/>
	<path fill="#FFFFFF" d="M2856.593,268.434l9.066-13.991l-8.357-12.872h3.283l7.499,11.715h4.328v-11.715h2.761v11.715h4.328
		l7.499-11.715h3.283l-8.357,12.872l9.066,13.991h-3.283l-8.208-12.797h-4.328v12.797h-2.761v-12.797h-4.328l-8.208,12.797H2856.593
		z"/>
	<path fill="#FFFFFF" d="M2911.214,268.434l-1.828-5.298h-12.76l-1.828,5.298h-2.873l9.253-26.863h3.656l9.253,26.863H2911.214z
		 M2897.521,260.562h10.969l-5.521-15.894L2897.521,260.562z"/>
	<path fill="#FFFFFF" d="M2943.449,254.742c1.343,1.592,2.015,3.383,2.015,5.373c0,2.164-0.76,4.042-2.276,5.634
		c-0.92,1.02-2.015,1.741-3.283,2.164c-0.92,0.349-1.854,0.522-2.798,0.522h-11.193v-26.863h17.35v2.612h-14.626v7.611h8.47
		c1.218,0,2.394,0.261,3.525,0.784S2942.702,253.822,2943.449,254.742z M2942.628,260.115c0.024-1.293-0.41-2.5-1.306-3.619
		c-1.119-1.393-2.537-2.089-4.253-2.089h-8.433v11.379h8.433c1.541,0,2.848-0.56,3.917-1.679
		C2942.031,263.012,2942.578,261.681,2942.628,260.115z"/>
	<path fill="#FFFFFF" d="M2965.834,244.183h-13.805v9.514h11.566v2.612h-11.566v9.514h13.805v2.612h-16.528v-26.863h16.528V244.183z
		"/>
	<path fill="#FFFFFF" d="M2992.062,241.572v26.863h-2.762v-24.251h-11.155l-1.791,15.222c-0.148,1.417-0.354,2.625-0.615,3.619
		c-0.261,0.995-0.653,1.94-1.175,2.835c-0.522,0.896-1.231,1.561-2.127,1.996s-1.978,0.627-3.246,0.578v-2.537
		c1.567-0.024,2.655-0.584,3.265-1.679c0.609-1.094,1.063-2.86,1.361-5.298l2.053-17.349H2992.062z"/>
	<path fill="#FFFFFF" d="M3014.821,254.742c1.343,1.592,2.015,3.383,2.015,5.373c0,2.164-0.76,4.042-2.276,5.634
		c-0.92,1.02-2.015,1.741-3.283,2.164c-0.92,0.349-1.854,0.522-2.798,0.522h-11.193v-26.863h2.724v10.223h8.47
		c1.218,0,2.394,0.261,3.525,0.784S3014.074,253.822,3014.821,254.742z M3014,260.115c0.024-1.293-0.41-2.5-1.306-3.619
		c-1.119-1.393-2.537-2.089-4.253-2.089h-8.433v11.379h8.433c1.541,0,2.848-0.56,3.917-1.679
		C3013.403,263.012,3013.95,261.681,3014,260.115z"/>
	<path fill="#FFFFFF" d="M3043.623,255.003c0.05,3.905-0.933,7.139-2.947,9.7c-2.264,2.861-5.41,4.291-9.439,4.291
		c-4.079,0-7.237-1.43-9.477-4.291c-0.995-1.293-1.704-2.711-2.126-4.253l2.724-0.783c0.348,1.244,0.882,2.375,1.604,3.395
		c0.821,1.07,1.878,1.891,3.172,2.462c1.293,0.572,2.661,0.846,4.104,0.821c1.442,0,2.811-0.28,4.104-0.839
		c1.293-0.56,2.338-1.374,3.134-2.444c1.269-1.666,1.989-3.893,2.164-6.678h-9.7v-2.761h9.7c-0.175-2.761-0.896-4.974-2.164-6.641
		c-0.796-1.069-1.841-1.896-3.134-2.481c-1.294-0.584-2.662-0.864-4.104-0.839c-3.184,0.05-5.609,1.157-7.275,3.321
		c-0.796,1.044-1.355,2.289-1.679,3.73l-2.835-0.447c0.422-1.841,1.193-3.495,2.313-4.962c1.069-1.393,2.432-2.456,4.086-3.19
		c1.653-0.733,3.451-1.101,5.391-1.101c4.104,0,7.251,1.431,9.439,4.291C3042.591,247.765,3043.573,250.999,3043.623,255.003z"/>
	<path fill="#FFFFFF" d="M3067.128,241.572v2.612h-9.401v24.251h-2.724v-24.251h-9.402v-2.612H3067.128z"/>
	<path fill="#FFFFFF" d="M3087.536,268.434l-1.828-5.298h-12.76l-1.828,5.298h-2.873l9.253-26.863h3.656l9.253,26.863H3087.536z
		 M3073.844,260.562h10.969l-5.521-15.894L3073.844,260.562z"/>
	<path fill="#FFFFFF" d="M3091.342,268.434l9.066-13.991l-8.357-12.872h3.283l7.499,11.715h4.328v-11.715h2.761v11.715h4.328
		l7.499-11.715h3.283l-8.357,12.872l9.066,13.991h-3.283l-8.208-12.797h-4.328v12.797h-2.761v-12.797h-4.328l-8.208,12.797H3091.342
		z"/>
	<path fill="#FFFFFF" d="M3145.963,268.434l-1.828-5.298h-12.76l-1.828,5.298h-2.873l9.253-26.863h3.656l9.253,26.863H3145.963z
		 M3132.27,260.562h10.969l-5.521-15.894L3132.27,260.562z"/>
	<path fill="#A7A9AB" d="M2670.906,302.647l2.723,0.783c-0.423,1.542-1.132,2.96-2.126,4.253c-2.238,2.861-5.397,4.291-9.477,4.291
		c-4.029,0-7.177-1.43-9.439-4.291c-2.015-2.586-2.998-5.82-2.947-9.7c0.099-4.079,1.082-7.313,2.947-9.701
		c2.188-2.86,5.335-4.291,9.439-4.291c1.939,0,3.736,0.367,5.391,1.101c1.654,0.734,3.016,1.797,4.086,3.19
		c1.094,1.443,1.878,3.097,2.351,4.962l-2.836,0.447c-0.373-1.467-0.945-2.71-1.716-3.73c-1.617-2.164-4.043-3.271-7.275-3.321
		c-1.443-0.024-2.805,0.255-4.086,0.839c-1.281,0.585-2.319,1.412-3.115,2.481c-1.492,1.916-2.238,4.589-2.238,8.021
		c0,3.432,0.746,6.119,2.238,8.059c0.771,1.07,1.804,1.884,3.097,2.444s2.661,0.839,4.104,0.839
		c1.467,0.025,2.848-0.249,4.142-0.821c1.293-0.572,2.337-1.393,3.134-2.462C2669.997,305.097,2670.532,303.966,2670.906,302.647z"
		/>
	<path fill="#A7A9AB" d="M2678.442,284.552h2.724v26.863h-2.724V284.552z"/>
	<path fill="#A7A9AB" d="M2706.685,311.415h-3.172l-4.962-10.26c-0.125,0.025-0.323,0.038-0.597,0.038h-8.47v10.223h-2.724v-26.863
		h11.193c0.944,0,1.878,0.174,2.798,0.522c1.269,0.423,2.363,1.144,3.283,2.164c1.517,1.592,2.276,3.47,2.276,5.633
		c0,1.99-0.672,3.781-2.015,5.373c-0.847,0.995-1.828,1.729-2.948,2.202L2706.685,311.415z M2697.918,298.58
		c1.716,0,3.134-0.696,4.253-2.089c0.896-1.119,1.33-2.325,1.306-3.619c-0.05-1.567-0.597-2.897-1.642-3.992
		c-1.069-1.12-2.376-1.679-3.917-1.679h-8.433v11.379H2697.918z"/>
	<path fill="#A7A9AB" d="M2731.795,302.647l2.723,0.783c-0.423,1.542-1.132,2.96-2.126,4.253c-2.238,2.861-5.397,4.291-9.477,4.291
		c-4.029,0-7.177-1.43-9.439-4.291c-2.015-2.586-2.998-5.82-2.947-9.7c0.099-4.079,1.082-7.313,2.947-9.701
		c2.188-2.86,5.335-4.291,9.439-4.291c1.939,0,3.736,0.367,5.391,1.101c1.654,0.734,3.016,1.797,4.086,3.19
		c1.094,1.443,1.878,3.097,2.351,4.962l-2.836,0.447c-0.373-1.467-0.945-2.71-1.716-3.73c-1.617-2.164-4.043-3.271-7.275-3.321
		c-1.443-0.024-2.805,0.255-4.086,0.839c-1.281,0.585-2.319,1.412-3.115,2.481c-1.492,1.916-2.238,4.589-2.238,8.021
		c0,3.432,0.746,6.119,2.238,8.059c0.771,1.07,1.804,1.884,3.097,2.444s2.661,0.839,4.104,0.839
		c1.467,0.025,2.848-0.249,4.142-0.821c1.293-0.572,2.337-1.393,3.134-2.462C2730.885,305.097,2731.421,303.966,2731.795,302.647z"
		/>
	<path fill="#A7A9AB" d="M2742.054,308.803h12.76v2.612h-15.483v-26.863h2.724V308.803z"/>
	<path fill="#A7A9AB" d="M2774.513,287.164h-13.805v9.514h11.566v2.612h-11.566v9.514h13.805v2.612h-16.528v-26.863h16.528V287.164z
		"/>
	<path fill="#A7A9AB" d="M2805.703,299.252c1.095,1.369,1.604,2.936,1.53,4.701c-0.075,1.791-0.647,3.308-1.717,4.552
		c-1.069,1.244-2.4,2.089-3.992,2.537c-0.82,0.249-2.076,0.373-3.768,0.373h-9.552v-26.863h9.066c1.717,0,2.848,0.087,3.396,0.261
		c1.467,0.398,2.673,1.182,3.619,2.351c0.97,1.07,1.517,2.462,1.642,4.179c0.099,1.517-0.373,2.947-1.418,4.291
		c-0.373,0.522-0.797,0.983-1.269,1.38C2804.211,297.561,2805.032,298.307,2805.703,299.252z M2798.54,287.164h-7.574v8.842h7.574
		c0.646,0,1.318-0.174,2.015-0.522c0.696-0.348,1.256-0.808,1.679-1.38c0.598-0.896,0.883-1.815,0.858-2.761
		c0-1.045-0.386-1.978-1.156-2.798C2801.04,287.624,2799.907,287.164,2798.54,287.164z M2803.054,307.199
		c0.896-0.945,1.343-2.027,1.343-3.246c0-1.243-0.36-2.337-1.082-3.283c-0.447-0.646-1.051-1.15-1.81-1.511
		c-0.759-0.36-1.523-0.541-2.294-0.541h-8.246v10.148h6.754c1.044,0,1.777-0.012,2.201-0.037c0.422-0.025,0.938-0.155,1.548-0.392
		C2802.078,308.101,2802.606,307.721,2803.054,307.199z"/>
	<path fill="#A7A9AB" d="M2822.456,311.974c-4.154,0-7.301-1.43-9.439-4.291c-1.916-2.462-2.897-5.695-2.947-9.7
		c0-3.955,0.982-7.188,2.947-9.701c1.069-1.417,2.438-2.493,4.104-3.227c1.666-0.733,3.444-1.076,5.335-1.026
		c4.128,0.05,7.287,1.468,9.477,4.253c1.84,2.363,2.811,5.597,2.91,9.701c0,3.955-0.971,7.188-2.91,9.7
		C2829.694,310.545,2826.535,311.974,2822.456,311.974z M2822.456,309.325c1.467,0,2.841-0.28,4.122-0.839s2.319-1.386,3.116-2.481
		c1.441-1.89,2.188-4.564,2.238-8.021c0-3.408-0.746-6.069-2.238-7.984c-0.797-1.094-1.842-1.934-3.135-2.519
		c-1.293-0.584-2.661-0.864-4.104-0.839c-1.468,0.025-2.849,0.324-4.142,0.896c-1.294,0.572-2.326,1.393-3.097,2.462
		c-1.442,1.816-2.188,4.477-2.238,7.984c0,3.432,0.746,6.106,2.238,8.021c0.771,1.095,1.81,1.928,3.115,2.5
		C2819.638,309.077,2821.012,309.35,2822.456,309.325z"/>
	<path fill="#A7A9AB" d="M2849.318,297.797l9.438,13.618h-3.32l-7.76-11.23l-7.724,11.23h-3.32l9.439-13.618l-9.216-13.245h3.32
		l7.5,10.895l7.499-10.895h3.357L2849.318,297.797z"/>
	<path fill="#A7A9AB" d="M2889.947,311.415h-3.172l-4.962-10.26c-0.125,0.025-0.323,0.038-0.597,0.038h-8.47v10.223h-2.724v-26.863
		h11.193c0.944,0,1.878,0.174,2.798,0.522c1.269,0.423,2.363,1.144,3.283,2.164c1.517,1.592,2.276,3.47,2.276,5.633
		c0,1.99-0.672,3.781-2.015,5.373c-0.847,0.995-1.828,1.729-2.948,2.202L2889.947,311.415z M2881.179,298.58
		c1.716,0,3.134-0.696,4.253-2.089c0.896-1.119,1.33-2.325,1.306-3.619c-0.05-1.567-0.597-2.897-1.642-3.992
		c-1.069-1.12-2.376-1.679-3.917-1.679h-8.433v11.379H2881.179z"/>
	<path fill="#A7A9AB" d="M2895.17,284.552h2.724v26.863h-2.724V284.552z"/>
	<path fill="#A7A9AB" d="M2917.295,297.685h9.925v0.858c-0.125,3.756-1.096,6.79-2.91,9.104c-2.264,2.885-5.41,4.328-9.439,4.328
		c-1.966,0-3.774-0.367-5.429-1.101s-2.991-1.81-4.011-3.227c-1.916-2.363-2.897-5.584-2.947-9.663
		c0.05-4.004,1.031-7.226,2.947-9.663c1.02-1.418,2.356-2.494,4.011-3.228c1.654-0.733,3.463-1.101,5.429-1.101
		c4.004,0,7.15,1.443,9.439,4.328c0.571,0.771,0.994,1.468,1.269,2.089l-2.5,1.12c-0.1-0.174-0.256-0.435-0.467-0.784
		c-0.211-0.348-0.367-0.597-0.466-0.746c-0.821-1.094-1.879-1.927-3.172-2.5c-1.293-0.572-2.661-0.858-4.104-0.858
		c-3.159,0-5.584,1.119-7.275,3.358c-1.394,1.816-2.14,4.477-2.238,7.984c0.099,3.507,0.845,6.168,2.238,7.984
		c1.691,2.239,4.116,3.358,7.275,3.358c1.442,0,2.811-0.286,4.104-0.858s2.351-1.405,3.172-2.5c1.069-1.517,1.753-3.482,2.052-5.895
		h-6.902V297.685z"/>
	<path fill="#A7A9AB" d="M2949.045,284.552h2.761v26.863h-2.761v-10.186h-14.85v10.186h-2.724v-26.863h2.724v14.066h14.85V284.552z"
		/>
	<path fill="#A7A9AB" d="M2976.317,284.552v2.612h-9.401v24.251h-2.724v-24.251h-9.402v-2.612H2976.317z"/>
</g>

</svg>
