<?xml version="1.0" encoding="utf-8"?>
<!-- Generator: Adobe Illustrator 16.0.0, SVG Export Plug-In . SVG Version: 6.00 Build 0)  -->
<!DOCTYPE svg PUBLIC "-//W3C//DTD SVG 1.1//EN" "http://www.w3.org/Graphics/SVG/1.1/DTD/svg11.dtd">
<svg version="1.1" id="Layer_1" xmlns="http://www.w3.org/2000/svg" xmlns:xlink="http://www.w3.org/1999/xlink" x="0px" y="0px"
	 width="821.31px" height="568px" viewBox="-11 -34.16 821.31 568" enable-background="new -11 -34.16 821.31 568"
	 xml:space="preserve">

<text transform="matrix(0.7729 -0.6345 0.6345 0.7729 667.5579 161.3125)" fill="#D948FF" font-family="'MyriadPro-Regular'" font-size="14.9478">G</text>
<text transform="matrix(0.7698 -0.6383 0.6383 0.7698 674.4426 155.6567)" fill="#D948FF" font-family="'MyriadPro-Regular'" font-size="14.9478">O</text>
<text transform="matrix(0.7668 -0.6419 0.6419 0.7668 681.7288 149.6138)" fill="#D948FF" font-family="'MyriadPro-Regular'" font-size="14.9479">L</text>
<text transform="matrix(0.7638 -0.6455 0.6455 0.7638 688.0461 144.3262)" fill="#D948FF" font-family="'MyriadPro-Regular'" font-size="14.9478">D</text>
<text transform="matrix(0.7615 -0.6481 0.6481 0.7615 695.1829 138.2871)" fill="#D948FF" font-family="'MyriadPro-Regular'" font-size="14.9466"> </text>
<text transform="matrix(0.7595 -0.6505 0.6505 0.7595 698.092 135.814)" fill="#D948FF" font-family="'MyriadPro-Regular'" font-size="14.9479">8</text>
<text transform="matrix(0.8689 -0.4949 0.4949 0.8689 404.8958 341.1875)" fill="#D948FF" font-family="'MyriadPro-Regular'" font-size="14.9466">G</text>
<text transform="matrix(0.8665 -0.4992 0.4992 0.8665 412.6526 336.7686)" fill="#D948FF" font-family="'MyriadPro-Regular'" font-size="14.9479">O</text>
<text transform="matrix(0.8641 -0.5033 0.5033 0.8641 420.8528 332.042)" fill="#D948FF" font-family="'MyriadPro-Regular'" font-size="14.9478">L</text>
<text transform="matrix(0.8617 -0.5074 0.5074 0.8617 427.9729 327.8945)" fill="#D948FF" font-family="'MyriadPro-Regular'" font-size="14.9478">D</text>
<text transform="matrix(0.86 -0.5104 0.5104 0.86 436.0266 323.1475)" fill="#D948FF" font-family="'MyriadPro-Regular'" font-size="14.9494"> </text>
<text transform="matrix(0.8584 -0.513 0.513 0.8584 439.3196 321.1943)" fill="#D948FF" font-family="'MyriadPro-Regular'" font-size="14.9478">7</text>
<text transform="matrix(0.9333 -0.3591 0.3591 0.9333 151.2146 460.7109)" fill="#D948FF" font-family="'MyriadPro-Regular'" font-size="14.9478">D</text>
<text transform="matrix(0.932 -0.3624 0.3624 0.932 159.9431 457.3467)" fill="#D948FF" font-family="'MyriadPro-Regular'" font-size="14.9478"> </text>
<text transform="matrix(0.9309 -0.3653 0.3653 0.9309 163.5056 455.9648)" fill="#D948FF" font-family="'MyriadPro-Regular'" font-size="14.9479">6</text>
<path fill="none" stroke="#702283" stroke-width="0.5" stroke-miterlimit="10" d="M502.375,132.732l88.489,123.461
	c73.931-53.084,143.906-111.322,209.382-174.219c5.641-5.418,5.75-14.408,0.291-20.01l-86.313-88.535
	c-5.43-5.567-14.315-5.68-19.93-0.293C634.264,30.739,570.122,84.087,502.375,132.732z"/>
<path fill="none" stroke="#702283" stroke-width="0.5" stroke-miterlimit="10" d="M-5.656,398.936l35.215,118.57
	c2.234,7.521,10.184,11.813,17.68,9.482c79.973-24.816,157.685-54.77,232.752-89.477l-63.664-137.939
	c-68.611,31.721-139.623,59.123-212.688,81.871C-3.724,383.736-7.851,391.547-5.656,398.936z"/>
<path fill="none" stroke="#702283" stroke-width="0.5" stroke-miterlimit="10" d="M216.326,299.576l63.664,137.938
	c109.674-50.703,213.697-111.545,310.877-181.322l-88.492-123.458C412.956,196.938,317.242,252.922,216.326,299.576z"/>
<text transform="matrix(0.9623 -0.2721 0.2721 0.9623 5.2058 414.7334)" fill="#A7A9AB" font-family="'MyriadPro-Regular'" font-size="9.3903">1</text>
<text transform="matrix(0.9623 -0.2721 0.2721 0.9623 15.5115 451.1748)" fill="#A7A9AB" font-family="'MyriadPro-Regular'" font-size="9.3903">2</text>
<text transform="matrix(0.8284 -0.5601 0.5601 0.8284 511.345 165.1118)" fill="#A7A9AB" font-family="'MyriadPro-Regular'" font-size="9.3903">1</text>
<text transform="matrix(0.8284 -0.5601 0.5601 0.8284 532.5569 196.4863)" fill="#A7A9AB" font-family="'MyriadPro-Regular'" font-size="9.3903">2</text>
<text transform="matrix(0.7229 -0.6909 0.6909 0.7229 717.7991 -6.8696)" fill="#A7A9AB" font-family="'MyriadPro-Regular'" font-size="9.3896">1</text>
<text transform="matrix(0.7229 -0.6909 0.6909 0.7229 743.9641 20.5107)" fill="#A7A9AB" font-family="'MyriadPro-Regular'" font-size="9.3896">2</text>
<text transform="matrix(0.8075 -0.5899 0.5899 0.8075 525.6477 154.5781)" fill="#A7A9AB" font-family="'MyriadPro-Regular'" font-size="9.3902">1</text>
<text transform="matrix(0.8075 -0.5899 0.5899 0.8075 547.9866 185.1592)" fill="#A7A9AB" font-family="'MyriadPro-Regular'" font-size="9.3902">2</text>
<text transform="matrix(0.923 -0.3848 0.3848 0.923 219.4558 333.2432)" fill="#A7A9AB" font-family="'MyriadPro-Regular'" font-size="9.3903">1</text>
<text transform="matrix(0.923 -0.3848 0.3848 0.923 234.0281 368.1973)" fill="#A7A9AB" font-family="'MyriadPro-Regular'" font-size="9.3903">2</text>
<text transform="matrix(0.9084 -0.4181 0.4181 0.9084 235.8157 325.9023)" fill="#A7A9AB" font-family="'MyriadPro-Regular'" font-size="9.3904">1</text>
<text transform="matrix(0.9084 -0.4181 0.4181 0.9084 251.6497 360.3057)" fill="#A7A9AB" font-family="'MyriadPro-Regular'" font-size="9.3904">2</text>
<text transform="matrix(1 0 0 1 701.9084 7.4858)" fill="#1D1D1B" font-family="'MyriadPro-Regular'" font-size="12.3042">1</text>
<text transform="matrix(1 0 0 1 492.8479 177.5776)" fill="#1D1D1B" font-family="'MyriadPro-Regular'" font-size="12.3042">1</text>
<text transform="matrix(1 0 0 1 199.6624 342.0234)" fill="#1D1D1B" font-family="'MyriadPro-Regular'" font-size="12.3042">1</text>
<text transform="matrix(1 0 0 1 214.7854 376.832)" fill="#1D1D1B" font-family="'MyriadPro-Regular'" font-size="12.3042">1</text>
<text transform="matrix(1 0 0 1 514.1096 208.1309)" fill="#1D1D1B" font-family="'MyriadPro-Regular'" font-size="12.3042">1</text>
<text transform="matrix(1 0 0 1 682.3694 25.6836)" fill="#1D1D1B" font-family="'MyriadPro-Regular'" font-size="12.3042">2</text>
<text transform="matrix(1 0 0 1 471.9417 191.4565)" fill="#1D1D1B" font-family="'MyriadPro-Regular'" font-size="12.3042">2</text>
<text transform="matrix(1 0 0 1 492.9084 222.6484)" fill="#1D1D1B" font-family="'MyriadPro-Regular'" font-size="12.3042">2</text>
<text transform="matrix(1 0 0 1 662.7815 43.7461)" fill="#1D1D1B" font-family="'MyriadPro-Regular'" font-size="12.3042">3</text>
<text transform="matrix(1 0 0 1 451.1233 205.6563)" fill="#1D1D1B" font-family="'MyriadPro-Regular'" font-size="12.3042">3</text>
<text transform="matrix(1 0 0 1 471.1917 237.2051)" fill="#1D1D1B" font-family="'MyriadPro-Regular'" font-size="12.3042">3</text>
<text transform="matrix(1 0 0 1 642.0491 60.959)" fill="#1D1D1B" font-family="'MyriadPro-Regular'" font-size="12.3042">4</text>
<text transform="matrix(1 0 0 1 428.8538 219.0078)" fill="#1D1D1B" font-family="'MyriadPro-Regular'" font-size="12.3042">4</text>
<text transform="matrix(1 0 0 1 174.4885 352.668)" fill="#1D1D1B" font-family="'MyriadPro-Regular'" font-size="12.3042">2</text>
<text transform="matrix(1 0 0 1 189.2776 387.7715)" fill="#1D1D1B" font-family="'MyriadPro-Regular'" font-size="12.3042">2</text>
<text transform="matrix(1 0 0 1 149.7073 363.1387)" fill="#1D1D1B" font-family="'MyriadPro-Regular'" font-size="12.3042">3</text>
<text transform="matrix(1 0 0 1 163.8577 398.5996)" fill="#1D1D1B" font-family="'MyriadPro-Regular'" font-size="12.3042">3</text>
<text transform="matrix(1 0 0 1 123.8069 372.9453)" fill="#1D1D1B" font-family="'MyriadPro-Regular'" font-size="12.3042">4</text>
<text transform="matrix(1 0 0 1 137.2444 408.2461)" fill="#1D1D1B" font-family="'MyriadPro-Regular'" font-size="12.3042">4</text>
<text transform="matrix(1 0 0 1 448.6506 250.875)" fill="#1D1D1B" font-family="'MyriadPro-Regular'" font-size="12.3042">4</text>
<text transform="matrix(1 0 0 1 666.4709 89.1851)" fill="#1D1D1B" font-family="'MyriadPro-Regular'" font-size="12.3042">4</text>
<text transform="matrix(1 0 0 1 646.0959 107.7515)" fill="#1D1D1B" font-family="'MyriadPro-Regular'" font-size="12.3042">5</text>
<text transform="matrix(1 0 0 1 621.8577 79.0215)" fill="#1D1D1B" font-family="'MyriadPro-Regular'" font-size="12.3042">5</text>
<text transform="matrix(1 0 0 1 407.3459 233.1934)" fill="#1D1D1B" font-family="'MyriadPro-Regular'" font-size="12.3042">5</text>
<text transform="matrix(1 0 0 1 426.6252 265.4551)" fill="#1D1D1B" font-family="'MyriadPro-Regular'" font-size="12.3042">5</text>
<text transform="matrix(1 0 0 1 600.9768 96.1504)" fill="#1D1D1B" font-family="'MyriadPro-Regular'" font-size="12.3042">6</text>
<text transform="matrix(1 0 0 1 385.2834 246.2246)" fill="#1D1D1B" font-family="'MyriadPro-Regular'" font-size="12.3042">6</text>
<text transform="matrix(1 0 0 1 404.4163 278.8672)" fill="#1D1D1B" font-family="'MyriadPro-Regular'" font-size="12.3042">6</text>
<text transform="matrix(1 0 0 1 624.8831 124.9526)" fill="#1D1D1B" font-family="'MyriadPro-Regular'" font-size="12.3042">6</text>
<text transform="matrix(1 0 0 1 603.4006 142.3882)" fill="#1D1D1B" font-family="'MyriadPro-Regular'" font-size="12.3042">7</text>
<text transform="matrix(1 0 0 1 580.1819 113.5718)" fill="#1D1D1B" font-family="'MyriadPro-Regular'" font-size="12.3042">7</text>
<text transform="matrix(1 0 0 1 363.0999 259.6719)" fill="#1D1D1B" font-family="'MyriadPro-Regular'" font-size="12.3042">7</text>
<text transform="matrix(1 0 0 1 98.7678 383.3301)" fill="#1D1D1B" font-family="'MyriadPro-Regular'" font-size="12.3042">5</text>
<text transform="matrix(1 0 0 1 111.7854 418.8633)" fill="#1D1D1B" font-family="'MyriadPro-Regular'" font-size="12.3042">5</text>
<text transform="matrix(1 0 0 1 72.7952 392.5449)" fill="#1D1D1B" font-family="'MyriadPro-Regular'" font-size="12.3042">6</text>
<text transform="matrix(1 0 0 1 85.5295 428.0918)" fill="#1D1D1B" font-family="'MyriadPro-Regular'" font-size="12.3042">6</text>
<text transform="matrix(1 0 0 1 47.176 401.8711)" fill="#1D1D1B" font-family="'MyriadPro-Regular'" font-size="12.3042">7</text>
<text transform="matrix(1 0 0 1 59.2834 437.8613)" fill="#1D1D1B" font-family="'MyriadPro-Regular'" font-size="12.3042">7</text>
<text transform="matrix(1 0 0 1 381.9612 292.4023)" fill="#1D1D1B" font-family="'MyriadPro-Regular'" font-size="12.3042">7</text>
<text transform="matrix(1 0 0 1 558.4651 129.3452)" fill="#1D1D1B" font-family="'MyriadPro-Regular'" font-size="12.3042">8</text>
<text transform="matrix(1 0 0 1 340.7795 271.7188)" fill="#1D1D1B" font-family="'MyriadPro-Regular'" font-size="12.3042">8</text>
<text transform="matrix(1 0 0 1 20.76 409.8691)" fill="#1D1D1B" font-family="'MyriadPro-Regular'" font-size="12.3042">8</text>
<text transform="matrix(1 0 0 1 32.4006 446.3398)" fill="#1D1D1B" font-family="'MyriadPro-Regular'" font-size="12.3042">8</text>
<text transform="matrix(1 0 0 1 359.0393 304.9395)" fill="#1D1D1B" font-family="'MyriadPro-Regular'" font-size="12.3042">8</text>
<text transform="matrix(1 0 0 1 581.6604 158.5679)" fill="#1D1D1B" font-family="'MyriadPro-Regular'" font-size="12.3042">8</text>
<text transform="matrix(1 0 0 1 537.0081 145.6616)" fill="#1D1D1B" font-family="'MyriadPro-Regular'" font-size="12.3042">9</text>
<text transform="matrix(1 0 0 1 318.1643 284.2324)" fill="#1D1D1B" font-family="'MyriadPro-Regular'" font-size="12.3042">9</text>
<text transform="matrix(1 0 0 1 336.1292 317.293)" fill="#1D1D1B" font-family="'MyriadPro-Regular'" font-size="12.3042">9</text>
<text transform="matrix(1 0 0 1 291.6252 296.1426)" fill="#1D1D1B" font-family="'MyriadPro-Regular'" font-size="12.3042">1</text>
<text transform="matrix(1 0 0 1 297.7776 296.1426)" fill="#1D1D1B" font-family="'MyriadPro-Regular'" font-size="12.3042">0</text>
<text transform="matrix(1 0 0 1 309.1702 329.7578)" fill="#1D1D1B" font-family="'MyriadPro-Regular'" font-size="12.3042">1</text>
<text transform="matrix(1 0 0 1 315.3225 329.7578)" fill="#1D1D1B" font-family="'MyriadPro-Regular'" font-size="12.3042">0</text>
<text transform="matrix(1 0 0 1 269.1819 307.8555)" fill="#1D1D1B" font-family="'MyriadPro-Regular'" font-size="12.3042">1</text>
<text transform="matrix(1 0 0 1 275.3342 307.8555)" fill="#1D1D1B" font-family="'MyriadPro-Regular'" font-size="12.3042">1</text>
<text transform="matrix(1 0 0 1 285.6819 341.877)" fill="#1D1D1B" font-family="'MyriadPro-Regular'" font-size="12.3042">1</text>
<text transform="matrix(1 0 0 1 291.8342 341.877)" fill="#1D1D1B" font-family="'MyriadPro-Regular'" font-size="12.3042">1</text>
<text transform="matrix(1 0 0 1 245.5081 319.1641)" fill="#1D1D1B" font-family="'MyriadPro-Regular'" font-size="12.3042">1</text>
<text transform="matrix(1 0 0 1 251.6604 319.1641)" fill="#1D1D1B" font-family="'MyriadPro-Regular'" font-size="12.3042">2</text>
<text transform="matrix(1 0 0 1 261.7756 353.3066)" fill="#1D1D1B" font-family="'MyriadPro-Regular'" font-size="12.3042">1</text>
<text transform="matrix(1 0 0 1 267.928 353.3066)" fill="#1D1D1B" font-family="'MyriadPro-Regular'" font-size="12.3042">2</text>
<text transform="matrix(1 0 0 1 559.7092 175.1304)" fill="#1D1D1B" font-family="'MyriadPro-Regular'" font-size="12.3042">9</text>
<text transform="matrix(1 0 0 1 687.7346 71.5659)" fill="#1D1D1B" font-family="'MyriadPro-Regular'" font-size="12.3042">3</text>
<text transform="matrix(1 0 0 1 707.7034 53.1465)" fill="#1D1D1B" font-family="'MyriadPro-Regular'" font-size="12.3042">2</text>
<text transform="matrix(1 0 0 1 727.6233 34.6172)" fill="#1D1D1B" font-family="'MyriadPro-Regular'" font-size="12.3042">1</text>
<text transform="matrix(0.9384 -0.3456 0.3456 0.9384 137.2615 404.04)" opacity="0.8" fill="#D948FF" enable-background="new    " font-family="'MyriadPro-Regular'" font-size="14.9479">G</text>
<text transform="matrix(0.9366 -0.3503 0.3503 0.9366 145.6477 400.9512)" opacity="0.8" fill="#D948FF" enable-background="new    " font-family="'MyriadPro-Regular'" font-size="14.9483">O</text>
<text transform="matrix(0.935 -0.3547 0.3547 0.935 154.4968 397.6387)" opacity="0.8" fill="#D948FF" enable-background="new    " font-family="'MyriadPro-Regular'" font-size="14.9478">L</text>
<g>
	<path opacity="0.8" fill="#D948FF" d="M195.625,347.818l-0.132,2.908c-0.028,0.633,0.269,1.227,0.793,1.584
		c0.525,0.355,1.188,0.414,1.769,0.154l18.379-8.256c0.58-0.262,0.977-0.793,1.055-1.422c0.084-0.633-0.162-1.246-0.654-1.646
		l-2.262-1.836l-7.396-13.521c-0.621-1.137-2.032-1.609-3.215-1.082l-12.199,5.48c-1.184,0.529-1.768,1.9-1.33,3.123
		L195.625,347.818z"/>
	<path opacity="0.8" fill="#D948FF" d="M170.533,358.566l-0.176,2.904c-0.039,0.637,0.248,1.232,0.77,1.598
		c0.521,0.363,1.183,0.434,1.765,0.182l18.502-7.979c0.584-0.252,0.983-0.775,1.075-1.404c0.095-0.631-0.145-1.25-0.633-1.656
		l-2.229-1.867l-7.195-13.631c-0.604-1.146-2.01-1.645-3.199-1.129l-12.276,5.295c-1.189,0.512-1.795,1.875-1.377,3.102
		L170.533,358.566z"/>
	<path opacity="0.8" fill="#D948FF" d="M145.242,368.943l-0.221,2.902c-0.049,0.635,0.23,1.234,0.746,1.607s1.174,0.449,1.762,0.207
		l18.617-7.699c0.586-0.244,0.998-0.762,1.1-1.391c0.103-0.629-0.127-1.25-0.608-1.666l-2.201-1.9l-6.987-13.736
		c-0.588-1.154-1.986-1.672-3.187-1.178l-12.354,5.111c-1.196,0.494-1.821,1.848-1.424,3.082L145.242,368.943z"/>
	<path opacity="0.8" fill="#D948FF" d="M119.756,378.945l-0.263,2.896c-0.059,0.635,0.211,1.238,0.724,1.619
		c0.508,0.381,1.166,0.469,1.756,0.232l18.731-7.42c0.593-0.232,1.011-0.746,1.117-1.371c0.111-0.629-0.104-1.254-0.582-1.676
		l-2.174-1.936l-6.781-13.84c-0.568-1.164-1.961-1.701-3.164-1.225l-12.435,4.924c-1.205,0.477-1.85,1.82-1.469,3.061
		L119.756,378.945z"/>
	<path opacity="0.8" fill="#D948FF" d="M94.084,388.566l-0.306,2.893c-0.065,0.633,0.191,1.242,0.697,1.631
		c0.502,0.389,1.158,0.484,1.752,0.26l18.842-7.137c0.597-0.225,1.021-0.732,1.142-1.354c0.121-0.625-0.088-1.256-0.56-1.686
		l-2.145-1.967l-6.574-13.939c-0.551-1.174-1.935-1.73-3.146-1.271l-12.504,4.734c-1.213,0.461-1.877,1.795-1.518,3.039
		L94.084,388.566z"/>
	<path opacity="0.8" fill="#D948FF" d="M68.231,397.801l-0.35,2.891c-0.076,0.631,0.174,1.244,0.672,1.639
		c0.498,0.396,1.152,0.504,1.75,0.287l18.947-6.852c0.598-0.217,1.03-0.717,1.159-1.338c0.129-0.623-0.069-1.256-0.532-1.691
		l-2.115-1.998l-6.361-14.039c-0.533-1.18-1.906-1.76-3.127-1.318l-12.572,4.547c-1.221,0.439-1.904,1.766-1.563,3.016
		L68.231,397.801z"/>
	<path opacity="0.8" fill="#D948FF" d="M42.186,406.695l-0.394,2.885c-0.086,0.629,0.156,1.246,0.646,1.648
		c0.491,0.402,1.145,0.521,1.746,0.313l19.049-6.564c0.601-0.207,1.041-0.699,1.18-1.316c0.14-0.621-0.051-1.26-0.508-1.699
		l-2.084-2.031l-6.147-14.133c-0.517-1.189-1.882-1.789-3.105-1.367l-12.643,4.357c-1.226,0.422-1.931,1.732-1.605,2.988
		L42.186,406.695z"/>
	<path opacity="0.8" fill="#D948FF" d="M38.262,412.406c0.147-0.619-0.031-1.256-0.48-1.705l-2.055-2.063l-5.934-14.225
		c-0.498-1.197-1.855-1.816-3.086-1.414l-12.705,4.166c-1.232,0.4-1.957,1.705-1.652,2.965l3.641,14.977l-0.436,2.879
		c-0.098,0.627,0.135,1.248,0.621,1.658c0.483,0.412,1.135,0.539,1.74,0.34l19.145-6.275
		C37.666,413.51,38.115,413.023,38.262,412.406z"/>
	<path opacity="0.8" fill="#D948FF" d="M267.242,319.463c0.066-0.633-0.193-1.24-0.697-1.629l-2.303-1.779l-7.717-13.344
		c-0.646-1.121-2.072-1.564-3.242-1.004l-12.063,5.768c-1.17,0.561-1.721,1.943-1.256,3.154l5.537,14.383l-0.062,2.91
		c-0.017,0.637,0.297,1.223,0.832,1.563c0.531,0.348,1.193,0.389,1.769,0.113l18.178-8.688
		C266.791,320.635,267.174,320.096,267.242,319.463z"/>
	<path opacity="0.8" fill="#D948FF" d="M268.784,313.742l-0.024,2.912c-0.008,0.635,0.313,1.215,0.852,1.555
		c0.537,0.338,1.199,0.371,1.771,0.09l18.065-8.918c0.57-0.279,0.945-0.826,1.004-1.459c0.062-0.633-0.209-1.238-0.717-1.621
		l-2.324-1.75l-7.885-13.244c-0.662-1.113-2.092-1.535-3.254-0.963l-11.99,5.918c-1.16,0.574-1.693,1.967-1.215,3.17
		L268.784,313.742z"/>
	<path opacity="0.8" fill="#D948FF" d="M291.879,302.158l0.012,2.91c0.002,0.637,0.326,1.213,0.871,1.545
		c0.541,0.33,1.203,0.354,1.771,0.066l17.951-9.145c0.565-0.289,0.937-0.838,0.983-1.473c0.054-0.635-0.225-1.236-0.735-1.611
		l-2.349-1.723l-8.051-13.145c-0.676-1.104-2.111-1.51-3.268-0.922l-11.914,6.068c-1.152,0.588-1.67,1.986-1.174,3.186
		L291.879,302.158z"/>
	<path opacity="0.8" fill="#D948FF" d="M314.783,290.258l0.049,2.91c0.011,0.635,0.343,1.209,0.89,1.533
		c0.547,0.322,1.209,0.34,1.772,0.045l17.834-9.371c0.563-0.297,0.924-0.852,0.967-1.484c0.043-0.635-0.239-1.232-0.758-1.602
		l-2.367-1.693l-8.217-13.039c-0.688-1.096-2.129-1.482-3.277-0.881l-11.836,6.221c-1.147,0.604-1.646,2.008-1.135,3.197
		L314.783,290.258z"/>
	<path opacity="0.8" fill="#D948FF" d="M337.493,278.045l0.086,2.908c0.019,0.637,0.355,1.203,0.908,1.52
		c0.551,0.316,1.213,0.326,1.771,0.021l17.716-9.596c0.559-0.305,0.912-0.863,0.946-1.496c0.035-0.635-0.256-1.23-0.778-1.592
		l-2.388-1.662l-8.383-12.936c-0.703-1.088-2.147-1.455-3.287-0.84l-11.758,6.369c-1.141,0.617-1.619,2.027-1.096,3.215
		L337.493,278.045z"/>
	<path opacity="0.8" fill="#D948FF" d="M360.008,265.518l0.123,2.908c0.024,0.635,0.373,1.199,0.928,1.51
		c0.557,0.311,1.219,0.311,1.772,0l17.591-9.822c0.555-0.311,0.901-0.873,0.928-1.508c0.027-0.637-0.271-1.229-0.799-1.582
		l-2.408-1.633l-8.547-12.824c-0.72-1.078-2.166-1.43-3.3-0.799l-11.674,6.521c-1.131,0.631-1.594,2.049-1.053,3.227
		L360.008,265.518z"/>
	<path opacity="0.8" fill="#D948FF" d="M382.324,252.678l0.158,2.908c0.033,0.633,0.389,1.191,0.947,1.496
		c0.561,0.303,1.223,0.295,1.772-0.021l17.463-10.049c0.552-0.314,0.892-0.885,0.908-1.518c0.021-0.641-0.287-1.227-0.818-1.574
		l-2.432-1.602l-8.709-12.715c-0.731-1.068-2.187-1.398-3.31-0.754l-11.59,6.668c-1.123,0.646-1.565,2.068-1.014,3.238
		L382.324,252.678z"/>
	<path opacity="0.8" fill="#D948FF" d="M404.434,239.531l0.199,2.902c0.041,0.635,0.401,1.189,0.965,1.484
		c0.563,0.297,1.227,0.277,1.772-0.045l17.332-10.271c0.548-0.322,0.879-0.896,0.89-1.529c0.012-0.637-0.304-1.221-0.838-1.564
		l-2.451-1.566l-8.873-12.604c-0.746-1.059-2.203-1.373-3.316-0.711l-11.504,6.816c-1.113,0.66-1.539,2.09-0.971,3.252
		L404.434,239.531z"/>
	<path opacity="0.8" fill="#D948FF" d="M426.34,226.07l0.233,2.9c0.051,0.635,0.418,1.186,0.986,1.475
		c0.563,0.287,1.229,0.262,1.771-0.068l17.197-10.496c0.543-0.33,0.867-0.906,0.869-1.541c0.004-0.637-0.316-1.217-0.857-1.551
		l-2.471-1.537l-9.035-12.486c-0.76-1.051-2.221-1.344-3.328-0.668l-11.414,6.965c-1.104,0.674-1.512,2.107-0.928,3.268
		L426.34,226.07z"/>
	<path opacity="0.8" fill="#D948FF" d="M448.036,212.301l0.271,2.896c0.059,0.635,0.434,1.18,1.004,1.459
		c0.569,0.281,1.231,0.248,1.771-0.092l17.062-10.717c0.537-0.338,0.854-0.92,0.85-1.555c-0.004-0.635-0.334-1.211-0.879-1.539
		l-2.489-1.504l-9.197-12.369c-0.771-1.039-2.236-1.314-3.334-0.625l-11.322,7.113c-1.098,0.688-1.484,2.127-0.887,3.275
		L448.036,212.301z"/>
	<path opacity="0.8" fill="#D948FF" d="M469.543,198.189l0.311,2.893c0.066,0.633,0.449,1.174,1.023,1.447
		c0.571,0.273,1.233,0.23,1.768-0.115l16.92-10.938c0.535-0.346,0.846-0.93,0.83-1.563c-0.014-0.637-0.35-1.207-0.898-1.525
		l-2.51-1.475l-9.356-12.248c-0.785-1.027-2.254-1.285-3.343-0.582l-11.229,7.262c-1.088,0.701-1.457,2.146-0.842,3.287
		L469.543,198.189z"/>
	<path opacity="0.8" fill="#D948FF" d="M490.786,183.839l0.351,2.891c0.076,0.634,0.465,1.168,1.043,1.435
		c0.576,0.266,1.238,0.215,1.768-0.138l16.775-11.157c0.529-0.354,0.83-0.941,0.811-1.576c-0.022-0.635-0.367-1.203-0.92-1.517
		l-2.529-1.438l-9.518-12.125c-0.799-1.021-2.271-1.256-3.35-0.537l-11.134,7.404c-1.08,0.719-1.432,2.168-0.801,3.299
		L490.786,183.839z"/>
	<path opacity="0.8" fill="#D948FF" d="M701.649,14.57l0.857,2.781c0.188,0.607,0.664,1.064,1.28,1.226
		c0.615,0.157,1.257-0.011,1.716-0.449L720.02,4.157c0.457-0.441,0.65-1.074,0.516-1.693c-0.137-0.623-0.573-1.119-1.174-1.328
		l-2.746-0.965l-11.522-10.234c-0.97-0.861-2.459-0.832-3.396,0.066l-9.635,9.271c-0.934,0.898-1.02,2.388-0.199,3.39L701.649,14.57
		z"/>
	<path opacity="0.8" fill="#D948FF" d="M681.784,32.829l0.81,2.795c0.176,0.61,0.646,1.078,1.26,1.246
		c0.611,0.17,1.258,0.014,1.723-0.418l14.76-13.716c0.468-0.432,0.67-1.063,0.545-1.686c-0.123-0.623-0.555-1.127-1.149-1.348
		l-2.729-1.015L685.66,8.252c-0.953-0.877-2.445-0.875-3.395,0.008l-9.797,9.102c-0.949,0.884-1.063,2.369-0.259,3.386
		L681.784,32.829z"/>
	<path opacity="0.8" fill="#D948FF" d="M661.643,50.788l0.762,2.813c0.164,0.613,0.627,1.088,1.234,1.269
		c0.608,0.18,1.258,0.034,1.729-0.39l14.998-13.453c0.473-0.424,0.688-1.051,0.574-1.676s-0.533-1.137-1.127-1.367l-2.709-1.061
		L665.947,26.29c-0.938-0.896-2.43-0.918-3.396-0.053l-9.952,8.928c-0.966,0.865-1.104,2.35-0.316,3.379L661.643,50.788z"/>
	<path opacity="0.8" fill="#D948FF" d="M641.229,68.45l0.711,2.821c0.152,0.615,0.607,1.101,1.215,1.289
		c0.604,0.191,1.256,0.06,1.736-0.356l15.23-13.189c0.479-0.416,0.705-1.037,0.604-1.664c-0.104-0.629-0.516-1.146-1.104-1.387
		l-2.689-1.109L645.959,44.03c-0.92-0.909-2.412-0.959-3.392-0.11l-10.108,8.752c-0.979,0.85-1.146,2.33-0.375,3.373L641.229,68.45z
		"/>
	<path opacity="0.8" fill="#D948FF" d="M620.547,85.806l0.659,2.834c0.144,0.619,0.588,1.109,1.191,1.313
		c0.604,0.2,1.254,0.078,1.741-0.33l15.459-12.918c0.488-0.408,0.726-1.025,0.634-1.654c-0.093-0.631-0.494-1.154-1.078-1.406
		l-2.672-1.156l-10.779-11.014c-0.904-0.928-2.396-1.002-3.389-0.172l-10.261,8.574c-0.993,0.832-1.186,2.311-0.436,3.367
		L620.547,85.806z"/>
	<path opacity="0.8" fill="#D948FF" d="M599.602,102.857l0.611,2.847c0.133,0.621,0.569,1.119,1.17,1.33
		c0.598,0.213,1.252,0.102,1.748-0.297l15.684-12.648c0.492-0.398,0.74-1.014,0.658-1.643c-0.08-0.632-0.473-1.164-1.053-1.427
		l-2.648-1.201l-10.586-11.2c-0.891-0.941-2.379-1.043-3.389-0.23l-10.406,8.396c-1.01,0.813-1.227,2.289-0.494,3.356
		L599.602,102.857z"/>
	<path opacity="0.8" fill="#D948FF" d="M578.403,119.593l0.563,2.857c0.121,0.622,0.55,1.129,1.146,1.35
		c0.596,0.225,1.252,0.123,1.752-0.269l15.902-12.37c0.502-0.392,0.758-1,0.688-1.634c-0.067-0.633-0.45-1.172-1.026-1.44
		l-2.629-1.248l-10.392-11.385c-0.873-0.957-2.356-1.084-3.381-0.289l-10.554,8.213c-1.022,0.795-1.266,2.268-0.553,3.35
		L578.403,119.593z"/>
	<path opacity="0.8" fill="#D948FF" d="M556.926,136.052l0.512,2.865c0.109,0.627,0.529,1.141,1.121,1.373
		c0.594,0.231,1.248,0.145,1.758-0.238l16.113-12.094c0.51-0.383,0.777-0.986,0.719-1.619c-0.058-0.633-0.434-1.18-1.004-1.461
		l-2.606-1.293l-10.189-11.563c-0.854-0.975-2.34-1.127-3.375-0.35l-10.692,8.027c-1.035,0.776-1.306,2.243-0.611,3.34
		L556.926,136.052z"/>
	<path opacity="0.8" fill="#D948FF" d="M555.641,142.759c-0.047-0.635-0.412-1.186-0.979-1.477l-2.584-1.341l-9.987-11.737
		c-0.838-0.988-2.318-1.166-3.369-0.406l-10.83,7.84c-1.051,0.76-1.344,2.224-0.67,3.328l8.031,13.154l0.463,2.875
		c0.1,0.627,0.51,1.146,1.098,1.389c0.586,0.244,1.246,0.166,1.762-0.207l16.32-11.811
		C555.409,143.995,555.69,143.394,555.641,142.759z"/>
	<path opacity="0.8" fill="#D948FF" d="M47.211,444.777l-5.548-14.381c-0.467-1.209-1.805-1.865-3.045-1.496l-12.815,3.818
		c-1.24,0.369-2.002,1.652-1.729,2.92l3.23,15.07l-0.515,2.863c-0.112,0.625,0.104,1.252,0.578,1.678
		c0.473,0.422,1.119,0.564,1.729,0.385l19.309-5.754c0.609-0.184,1.07-0.654,1.234-1.271c0.166-0.611,0.004-1.256-0.437-1.719
		L47.211,444.777z"/>
	<path opacity="0.8" fill="#D948FF" d="M73.867,435.818l-5.799-14.281c-0.486-1.199-1.836-1.834-3.07-1.441l-12.744,4.043
		c-1.235,0.393-1.975,1.688-1.68,2.949l3.496,15.012l-0.463,2.873c-0.104,0.627,0.123,1.25,0.605,1.666
		c0.479,0.414,1.129,0.549,1.736,0.355l19.202-6.094c0.605-0.191,1.06-0.676,1.213-1.291c0.154-0.617-0.02-1.256-0.465-1.709
		L73.867,435.818z"/>
	<path opacity="0.8" fill="#D948FF" d="M100.323,426.471l-6.051-14.176c-0.51-1.189-1.867-1.801-3.098-1.387l-12.672,4.268
		c-1.229,0.412-1.941,1.723-1.627,2.979l3.762,14.945l-0.412,2.883c-0.092,0.629,0.146,1.248,0.637,1.652
		c0.486,0.406,1.139,0.529,1.742,0.326l19.092-6.434c0.605-0.201,1.049-0.691,1.189-1.313c0.145-0.621-0.041-1.256-0.494-1.703
		L100.323,426.471z"/>
	<path opacity="0.8" fill="#D948FF" d="M126.576,416.738l-6.301-14.064c-0.529-1.184-1.9-1.77-3.121-1.334l-12.594,4.492
		c-1.221,0.436-1.912,1.756-1.574,3.008l4.025,14.877l-0.361,2.889c-0.08,0.631,0.168,1.244,0.664,1.645
		c0.496,0.395,1.149,0.508,1.748,0.295l18.979-6.771c0.601-0.215,1.033-0.713,1.166-1.334c0.131-0.621-0.063-1.254-0.524-1.689
		L126.576,416.738z"/>
	<path opacity="0.8" fill="#D948FF" d="M152.633,406.617l-6.55-13.951c-0.551-1.174-1.932-1.734-3.145-1.277l-12.513,4.715
		c-1.213,0.457-1.881,1.791-1.521,3.035l4.289,14.805l-0.312,2.895c-0.067,0.633,0.191,1.242,0.693,1.631
		c0.502,0.391,1.158,0.488,1.754,0.266l18.854-7.105c0.596-0.225,1.021-0.729,1.143-1.354s-0.086-1.254-0.555-1.686L152.633,406.617
		z"/>
	<path opacity="0.8" fill="#D948FF" d="M178.497,396.105l-6.797-13.832c-0.57-1.162-1.961-1.699-3.166-1.223l-12.426,4.938
		c-1.205,0.48-1.851,1.822-1.468,3.063l4.554,14.725l-0.261,2.9c-0.057,0.633,0.216,1.234,0.728,1.617
		c0.508,0.379,1.166,0.467,1.756,0.229l18.724-7.438c0.592-0.234,1.008-0.748,1.118-1.373c0.109-0.627-0.108-1.252-0.586-1.674
		L178.497,396.105z"/>
	<path opacity="0.8" fill="#D948FF" d="M204.174,385.205l-7.041-13.711c-0.593-1.152-1.992-1.664-3.188-1.164l-12.338,5.158
		c-1.193,0.5-1.813,1.855-1.41,3.088l4.813,14.641l-0.205,2.904c-0.047,0.633,0.233,1.234,0.752,1.605
		c0.516,0.367,1.174,0.443,1.762,0.197l18.588-7.771c0.586-0.244,0.994-0.768,1.094-1.395c0.098-0.629-0.133-1.25-0.615-1.662
		L204.174,385.205z"/>
	<path opacity="0.8" fill="#D948FF" d="M229.663,373.912l-7.284-13.582c-0.611-1.143-2.021-1.629-3.207-1.107l-12.242,5.379
		c-1.188,0.521-1.781,1.887-1.355,3.111l5.074,14.553l-0.152,2.906c-0.035,0.635,0.256,1.229,0.779,1.592
		c0.521,0.359,1.182,0.426,1.764,0.17l18.447-8.104c0.582-0.258,0.98-0.781,1.066-1.412c0.088-0.631-0.152-1.248-0.646-1.65
		L229.663,373.912z"/>
	<path opacity="0.8" fill="#D948FF" d="M280.465,350.271l-7.582-13.418c-0.638-1.129-2.058-1.584-3.232-1.037l-12.121,5.646
		c-1.174,0.547-1.738,1.928-1.287,3.143l5.396,14.438l-0.093,2.908c-0.021,0.635,0.283,1.223,0.814,1.572
		c0.528,0.35,1.19,0.398,1.77,0.131l18.265-8.506c0.575-0.27,0.963-0.807,1.034-1.438c0.074-0.635-0.182-1.242-0.682-1.639
		L280.465,350.271z"/>
	<path opacity="0.8" fill="#D948FF" d="M306.444,340.207l-2.314-1.762l-7.825-13.275c-0.656-1.117-2.084-1.547-3.25-0.979
		l-12.015,5.865c-1.164,0.568-1.705,1.959-1.229,3.164l5.656,14.338l-0.037,2.908c-0.011,0.637,0.305,1.219,0.844,1.559
		c0.535,0.34,1.197,0.377,1.771,0.098l18.104-8.838c0.572-0.277,0.949-0.82,1.012-1.453
		C307.217,341.199,306.951,340.592,306.444,340.207z"/>
	<path opacity="0.8" fill="#D948FF" d="M329.938,328.006l-2.348-1.719l-8.064-13.133c-0.68-1.104-2.113-1.508-3.268-0.918
		l-11.906,6.082c-1.152,0.592-1.668,1.99-1.172,3.188l5.916,14.229l0.014,2.912c0.004,0.637,0.328,1.211,0.873,1.541
		c0.543,0.33,1.205,0.355,1.771,0.066l17.938-9.166c0.565-0.289,0.935-0.84,0.981-1.473
		C330.727,328.984,330.451,328.381,329.938,328.006z"/>
	<path opacity="0.8" fill="#D948FF" d="M353.225,315.48l-2.377-1.678l-8.303-12.982c-0.697-1.092-2.142-1.469-3.283-0.857
		l-11.793,6.297c-1.144,0.611-1.631,2.02-1.113,3.207l6.174,14.119l0.066,2.91c0.016,0.635,0.352,1.205,0.899,1.527
		c0.55,0.318,1.211,0.332,1.771,0.031l17.77-9.488c0.562-0.301,0.918-0.855,0.957-1.49S353.745,315.844,353.225,315.48z"/>
	<path opacity="0.8" fill="#D948FF" d="M376.307,302.627l-2.406-1.635l-8.537-12.828c-0.717-1.078-2.166-1.432-3.299-0.801
		l-11.676,6.512c-1.132,0.631-1.597,2.049-1.056,3.227l6.427,14.006l0.121,2.908c0.024,0.635,0.373,1.197,0.928,1.51
		c0.555,0.311,1.217,0.311,1.772,0l17.595-9.809c0.555-0.313,0.901-0.873,0.928-1.508
		C377.133,303.574,376.834,302.982,376.307,302.627z"/>
	<path opacity="0.8" fill="#D948FF" d="M399.18,289.451l-2.437-1.588l-8.768-12.674c-0.736-1.066-2.191-1.393-3.313-0.738
		l-11.557,6.719c-1.121,0.652-1.559,2.076-0.998,3.244l6.68,13.889l0.176,2.904c0.035,0.635,0.394,1.191,0.953,1.492
		s1.223,0.289,1.771-0.031l17.414-10.125c0.549-0.318,0.885-0.889,0.899-1.521C400.024,290.385,399.715,289.799,399.18,289.451z"/>
	<path opacity="0.8" fill="#D948FF" d="M421.844,275.959l-2.465-1.543l-8.994-12.516c-0.754-1.053-2.215-1.354-3.324-0.682
		l-11.434,6.928c-1.109,0.672-1.521,2.105-0.939,3.262l6.93,13.768l0.228,2.898c0.047,0.637,0.414,1.188,0.979,1.477
		c0.563,0.291,1.228,0.27,1.771-0.063l17.229-10.438c0.545-0.328,0.871-0.902,0.875-1.539
		C422.702,276.877,422.383,276.297,421.844,275.959z"/>
	<path opacity="0.8" fill="#D948FF" d="M444.295,262.154l-2.494-1.502l-9.215-12.35c-0.775-1.039-2.24-1.313-3.336-0.619
		l-11.31,7.131c-1.098,0.689-1.481,2.131-0.881,3.277l7.174,13.639l0.277,2.895c0.061,0.635,0.436,1.18,1.008,1.459
		c0.568,0.279,1.231,0.244,1.771-0.094l17.039-10.746c0.537-0.338,0.854-0.92,0.847-1.555
		C445.17,263.055,444.84,262.48,444.295,262.154z"/>
	<path opacity="0.8" fill="#D948FF" d="M466.531,248.037l-2.521-1.457l-9.437-12.184c-0.791-1.023-2.264-1.271-3.348-0.561
		l-11.178,7.332c-1.084,0.711-1.443,2.156-0.822,3.293l7.418,13.508l0.328,2.895c0.072,0.631,0.457,1.168,1.035,1.438
		c0.573,0.271,1.235,0.225,1.768-0.127l16.846-11.047c0.531-0.35,0.836-0.936,0.818-1.568
		C467.422,248.922,467.081,248.354,466.531,248.037z"/>
	<path opacity="0.8" fill="#D948FF" d="M488.549,233.611l-2.545-1.41l-9.652-12.014c-0.812-1.012-2.285-1.23-3.355-0.5
		l-11.047,7.529c-1.068,0.729-1.404,2.184-0.762,3.309l7.656,13.375l0.383,2.885c0.082,0.629,0.477,1.16,1.059,1.42
		c0.578,0.26,1.238,0.201,1.767-0.156l16.646-11.348c0.523-0.357,0.82-0.951,0.791-1.584
		C489.454,234.48,489.108,233.92,488.549,233.611z"/>
	<path opacity="0.8" fill="#D948FF" d="M510.35,218.883l-2.568-1.365l-9.865-11.842c-0.828-0.994-2.307-1.189-3.365-0.439
		l-10.912,7.727c-1.057,0.75-1.364,2.207-0.7,3.32l7.895,13.238l0.433,2.877c0.094,0.629,0.498,1.152,1.084,1.402
		c0.584,0.248,1.243,0.18,1.764-0.189l16.44-11.643c0.521-0.367,0.804-0.963,0.763-1.598
		C511.272,219.736,510.911,219.18,510.35,218.883z"/>
	<path opacity="0.8" fill="#D948FF" d="M531.93,203.854l-2.594-1.318l-10.074-11.666c-0.846-0.979-2.328-1.146-3.371-0.381
		l-10.773,7.919c-1.043,0.768-1.326,2.232-0.645,3.334l8.127,13.096l0.483,2.869c0.104,0.627,0.519,1.145,1.109,1.383
		c0.588,0.238,1.243,0.156,1.758-0.221l16.231-11.932c0.515-0.377,0.787-0.98,0.734-1.611
		C532.867,204.691,532.497,204.143,531.93,203.854z"/>
	<path opacity="0.8" fill="#D948FF" d="M746.25,29.605c-0.142-0.621-0.584-1.11-1.188-1.315l-2.756-0.938l-11.627-10.117
		c-0.978-0.854-2.468-0.809-3.394,0.103l-9.539,9.367c-0.926,0.908-0.998,2.397-0.166,3.391l9.904,11.811l0.887,2.771
		c0.191,0.607,0.676,1.061,1.293,1.213c0.615,0.152,1.256-0.021,1.711-0.469l14.375-14.115
		C746.206,30.859,746.393,30.224,746.25,29.605z"/>
	<path opacity="0.8" fill="#D948FF" d="M725.033,47.243l-2.738-0.984l-11.442-10.322c-0.961-0.869-2.453-0.852-3.396,0.041
		l-9.705,9.195c-0.938,0.893-1.039,2.379-0.227,3.389l9.69,11.982l0.838,2.787c0.183,0.608,0.654,1.069,1.271,1.233
		c0.612,0.164,1.256,0,1.717-0.438l14.625-13.857c0.463-0.438,0.66-1.067,0.529-1.688C726.067,47.958,725.631,47.458,725.033,47.243
		z"/>
	<path opacity="0.8" fill="#D948FF" d="M704.735,65.886l-2.721-1.033l-11.258-10.524c-0.947-0.886-2.438-0.896-3.396-0.021
		l-9.867,9.021c-0.957,0.873-1.082,2.358-0.284,3.381l9.475,12.153l0.787,2.804c0.17,0.612,0.639,1.082,1.25,1.256
		c0.609,0.176,1.258,0.022,1.727-0.404l14.869-13.594c0.469-0.43,0.678-1.058,0.56-1.68
		C705.754,66.622,705.327,66.114,704.735,65.886z"/>
	<path opacity="0.8" fill="#D948FF" d="M684.163,84.226l-2.7-1.084l-11.066-10.727c-0.93-0.902-2.42-0.938-3.393-0.08l-10.029,8.844
		c-0.971,0.855-1.123,2.34-0.346,3.375l9.258,12.322l0.733,2.815c0.16,0.615,0.619,1.095,1.229,1.277
		c0.604,0.188,1.256,0.047,1.729-0.375l15.111-13.322c0.478-0.42,0.697-1.045,0.588-1.67
		C685.172,84.976,684.754,84.46,684.163,84.226z"/>
	<path opacity="0.8" fill="#D948FF" d="M663.324,102.253l-2.682-1.133L649.77,90.199c-0.912-0.919-2.402-0.98-3.391-0.142
		l-10.187,8.66c-0.988,0.84-1.166,2.318-0.406,3.369l9.031,12.486l0.687,2.83c0.147,0.616,0.6,1.104,1.205,1.299
		c0.604,0.196,1.254,0.067,1.737-0.345l15.349-13.049c0.483-0.412,0.717-1.033,0.618-1.66
		C664.319,103.023,663.909,102.501,663.324,102.253z"/>
	<path opacity="0.8" fill="#D948FF" d="M642.209,119.972l-2.66-1.182l-10.674-11.115c-0.896-0.936-2.386-1.023-3.388-0.203
		l-10.342,8.478c-1.002,0.821-1.207,2.299-0.467,3.36l8.805,12.646l0.635,2.842c0.14,0.619,0.58,1.115,1.181,1.322
		c0.602,0.207,1.254,0.09,1.746-0.313l15.58-12.771c0.491-0.402,0.733-1.021,0.647-1.646
		C643.19,120.759,642.791,120.23,642.209,119.972z"/>
	<path opacity="0.8" fill="#D948FF" d="M620.819,137.38l-2.639-1.229l-10.471-11.309c-0.882-0.949-2.367-1.066-3.386-0.264
		l-10.489,8.287c-1.021,0.805-1.248,2.276-0.529,3.354l8.578,12.807l0.582,2.853c0.127,0.623,0.559,1.125,1.155,1.344
		s1.25,0.113,1.75-0.281l15.81-12.487c0.5-0.394,0.752-1.004,0.678-1.636C621.783,138.185,621.397,137.648,620.819,137.38z"/>
	<path opacity="0.8" fill="#D948FF" d="M599.153,154.478l-2.615-1.274l-10.268-11.496c-0.861-0.967-2.346-1.109-3.377-0.324
		l-10.642,8.098c-1.03,0.783-1.291,2.254-0.588,3.345l8.345,12.957l0.53,2.862c0.113,0.625,0.537,1.136,1.132,1.361
		c0.592,0.229,1.248,0.137,1.754-0.248l16.032-12.201c0.507-0.385,0.771-0.99,0.707-1.621
		C600.102,155.298,599.723,154.755,599.153,154.478z"/>
	<path opacity="0.8" fill="#D948FF" d="M577.204,171.263l-2.594-1.322l-10.055-11.682c-0.847-0.979-2.326-1.15-3.371-0.385
		l-10.787,7.901c-1.045,0.767-1.33,2.229-0.648,3.332l8.107,13.105l0.479,2.873c0.104,0.627,0.517,1.145,1.105,1.383
		c0.588,0.24,1.246,0.158,1.76-0.217l16.252-11.908c0.514-0.375,0.787-0.977,0.734-1.609
		C578.143,172.103,577.774,171.55,577.204,171.263z"/>
</g>
</svg>
