<?xml version="1.0" encoding="utf-8"?>
<!-- Generator: Adobe Illustrator 16.0.0, SVG Export Plug-In . SVG Version: 6.00 Build 0)  -->
<!DOCTYPE svg PUBLIC "-//W3C//DTD SVG 1.1//EN" "http://www.w3.org/Graphics/SVG/1.1/DTD/svg11.dtd">
<svg version="1.1" id="Layer_1" xmlns="http://www.w3.org/2000/svg" xmlns:xlink="http://www.w3.org/1999/xlink" x="0px" y="0px"
	 width="599px" height="446.508px" viewBox="54.31 0 599 446.508" enable-background="new 54.31 0 599 446.508"
	 xml:space="preserve">

<text transform="matrix(0.6184 0.7859 -0.7859 0.6184 635.9319 43.0654)" fill="#A7A9AB" font-family="'MyriadPro-Regular'" font-size="9.3903">1</text>
<text transform="matrix(0.6184 0.7859 -0.7859 0.6184 601.0178 70.5361)" fill="#A7A9AB" font-family="'MyriadPro-Regular'" font-size="9.3903">2</text>
<text transform="matrix(0.6184 0.7859 -0.7859 0.6184 566.1038 98.0068)" fill="#A7A9AB" font-family="'MyriadPro-Regular'" font-size="9.3903">3</text>
<text transform="matrix(0.6184 0.7859 -0.7859 0.6184 531.1897 125.4766)" fill="#A7A9AB" font-family="'MyriadPro-Regular'" font-size="9.3903">4</text>
<text transform="matrix(0.6184 0.7859 -0.7859 0.6184 496.2756 152.9473)" fill="#A7A9AB" font-family="'MyriadPro-Regular'" font-size="9.3903">5</text>
<text transform="matrix(0.6184 0.7859 -0.7859 0.6184 461.3635 180.418)" fill="#A7A9AB" font-family="'MyriadPro-Regular'" font-size="9.3903">6</text>
<text transform="matrix(0.6184 0.7859 -0.7859 0.6184 426.4495 207.8887)" fill="#A7A9AB" font-family="'MyriadPro-Regular'" font-size="9.3903">7</text>
<text transform="matrix(0.6184 0.7859 -0.7859 0.6184 391.5354 235.3594)" fill="#A7A9AB" font-family="'MyriadPro-Regular'" font-size="9.3903">8</text>
<text transform="matrix(0.6184 0.7859 -0.7859 0.6184 356.6213 262.8301)" fill="#A7A9AB" font-family="'MyriadPro-Regular'" font-size="9.3903">9</text>
<text transform="matrix(0.6184 0.7859 -0.7859 0.6184 320.2561 288.4551)" fill="#A7A9AB" font-family="'MyriadPro-Regular'" font-size="9.3903">1</text>
<text transform="matrix(0.6184 0.7859 -0.7859 0.6184 323.1584 292.1455)" fill="#A7A9AB" font-family="'MyriadPro-Regular'" font-size="9.3903">0</text>
<text transform="matrix(0.6184 0.7859 -0.7859 0.6184 285.3425 315.9258)" fill="#A7A9AB" font-family="'MyriadPro-Regular'" font-size="9.3903">1</text>
<text transform="matrix(0.6184 0.7859 -0.7859 0.6184 288.2449 319.6162)" fill="#A7A9AB" font-family="'MyriadPro-Regular'" font-size="9.3903">1</text>
<text transform="matrix(0.6184 0.7859 -0.7859 0.6184 250.4285 343.3965)" fill="#A7A9AB" font-family="'MyriadPro-Regular'" font-size="9.3903">1</text>
<text transform="matrix(0.6184 0.7859 -0.7859 0.6184 253.3328 347.0869)" fill="#A7A9AB" font-family="'MyriadPro-Regular'" font-size="9.3903">2</text>
<text transform="matrix(0.6184 0.7859 -0.7859 0.6184 215.5144 370.8672)" fill="#A7A9AB" font-family="'MyriadPro-Regular'" font-size="9.3903">1</text>
<text transform="matrix(0.6184 0.7859 -0.7859 0.6184 218.4187 374.5566)" fill="#A7A9AB" font-family="'MyriadPro-Regular'" font-size="9.3903">3</text>
<text transform="matrix(0.6184 0.7859 -0.7859 0.6184 180.6003 398.3379)" fill="#A7A9AB" font-family="'MyriadPro-Regular'" font-size="9.3903">1</text>
<text transform="matrix(0.6184 0.7859 -0.7859 0.6184 183.5046 402.0273)" fill="#A7A9AB" font-family="'MyriadPro-Regular'" font-size="9.3903">4</text>
<text transform="matrix(0.6184 0.7859 -0.7859 0.6184 145.6863 425.8076)" fill="#A7A9AB" font-family="'MyriadPro-Regular'" font-size="9.3903">1</text>
<text transform="matrix(0.6184 0.7859 -0.7859 0.6184 148.5906 429.4971)" fill="#A7A9AB" font-family="'MyriadPro-Regular'" font-size="9.3903">5</text>
<text transform="matrix(1 0 0 1 131.6345 412.9805)" fill="#1D1D1B" font-family="'MyriadPro-Regular'" font-size="12.3042">1</text>
<text transform="matrix(1 0 0 1 113.7185 388.4102)" fill="#1D1D1B" font-family="'MyriadPro-Regular'" font-size="12.3042">2</text>
<text transform="matrix(1 0 0 1 95.866 364.3066)" fill="#1D1D1B" font-family="'MyriadPro-Regular'" font-size="12.3042">3</text>
<text transform="matrix(1 0 0 1 167.1438 386.207)" fill="#1D1D1B" font-family="'MyriadPro-Regular'" font-size="12.3042">1</text>
<text transform="matrix(1 0 0 1 149.2297 361.6367)" fill="#1D1D1B" font-family="'MyriadPro-Regular'" font-size="12.3042">2</text>
<text transform="matrix(1 0 0 1 131.3762 337.5322)" fill="#1D1D1B" font-family="'MyriadPro-Regular'" font-size="12.3042">3</text>
<text transform="matrix(1 0 0 1 201.3987 358.1289)" fill="#1D1D1B" font-family="'MyriadPro-Regular'" font-size="12.3042">1</text>
<text transform="matrix(1 0 0 1 183.4719 333.582)" fill="#1D1D1B" font-family="'MyriadPro-Regular'" font-size="12.3042">2</text>
<text transform="matrix(1 0 0 1 165.6184 309.9961)" fill="#1D1D1B" font-family="'MyriadPro-Regular'" font-size="12.3042">3</text>
<text transform="matrix(1 0 0 1 236.3923 330.4199)" fill="#1D1D1B" font-family="'MyriadPro-Regular'" font-size="12.3042">1</text>
<text transform="matrix(1 0 0 1 218.4646 305.873)" fill="#1D1D1B" font-family="'MyriadPro-Regular'" font-size="12.3042">2</text>
<text transform="matrix(1 0 0 1 201.03 281.8799)" fill="#1D1D1B" font-family="'MyriadPro-Regular'" font-size="12.3042">3</text>
<text transform="matrix(1 0 0 1 271.2991 303.5479)" fill="#1D1D1B" font-family="'MyriadPro-Regular'" font-size="12.3042">1</text>
<text transform="matrix(1 0 0 1 253.3718 279.001)" fill="#1D1D1B" font-family="'MyriadPro-Regular'" font-size="12.3042">2</text>
<text transform="matrix(1 0 0 1 235.9368 255.0078)" fill="#1D1D1B" font-family="'MyriadPro-Regular'" font-size="12.3042">3</text>
<text transform="matrix(1 0 0 1 306.6614 275.7529)" fill="#1D1D1B" font-family="'MyriadPro-Regular'" font-size="12.3042">1</text>
<text transform="matrix(1 0 0 1 288.7346 251.2061)" fill="#1D1D1B" font-family="'MyriadPro-Regular'" font-size="12.3042">2</text>
<text transform="matrix(1 0 0 1 271.2991 227.2002)" fill="#1D1D1B" font-family="'MyriadPro-Regular'" font-size="12.3042">3</text>
<text transform="matrix(1 0 0 1 341.8274 248.5479)" fill="#1D1D1B" font-family="'MyriadPro-Regular'" font-size="12.3042">1</text>
<text transform="matrix(1 0 0 1 323.8997 224.001)" fill="#1D1D1B" font-family="'MyriadPro-Regular'" font-size="12.3042">2</text>
<text transform="matrix(1 0 0 1 376.7463 220.9004)" fill="#1D1D1B" font-family="'MyriadPro-Regular'" font-size="12.3042">1</text>
<text transform="matrix(1 0 0 1 358.8313 196.3535)" fill="#1D1D1B" font-family="'MyriadPro-Regular'" font-size="12.3042">2</text>
<text transform="matrix(1 0 0 1 411.6897 193.6348)" fill="#1D1D1B" font-family="'MyriadPro-Regular'" font-size="12.3042">1</text>
<text transform="matrix(1 0 0 1 393.7629 169.0879)" fill="#1D1D1B" font-family="'MyriadPro-Regular'" font-size="12.3042">2</text>
<text transform="matrix(1 0 0 1 446.7073 166.6641)" fill="#1D1D1B" font-family="'MyriadPro-Regular'" font-size="12.3042">1</text>
<text transform="matrix(1 0 0 1 428.7922 142.1172)" fill="#1D1D1B" font-family="'MyriadPro-Regular'" font-size="12.3042">2</text>
<text transform="matrix(1 0 0 1 481.5286 138.9668)" fill="#1D1D1B" font-family="'MyriadPro-Regular'" font-size="12.3042">1</text>
<text transform="matrix(1 0 0 1 463.6008 114.4199)" fill="#1D1D1B" font-family="'MyriadPro-Regular'" font-size="12.3042">2</text>
<text transform="matrix(1 0 0 1 517.0012 111.5781)" fill="#1D1D1B" font-family="'MyriadPro-Regular'" font-size="12.3042">1</text>
<text transform="matrix(1 0 0 1 499.0862 87.0313)" fill="#1D1D1B" font-family="'MyriadPro-Regular'" font-size="12.3042">2</text>
<text transform="matrix(1 0 0 1 552.2893 84.1514)" fill="#1D1D1B" font-family="'MyriadPro-Regular'" font-size="12.3042">1</text>
<text transform="matrix(1 0 0 1 586.6067 56.7998)" fill="#1D1D1B" font-family="'MyriadPro-Regular'" font-size="12.3042">1</text>
<text transform="matrix(1 0 0 1 621.8215 29.1885)" fill="#1D1D1B" font-family="'MyriadPro-Regular'" font-size="12.3042">1</text>
<text transform="matrix(1 0 0 1 534.3743 59.6045)" fill="#1D1D1B" font-family="'MyriadPro-Regular'" font-size="12.3042">2</text>
<text transform="matrix(1 0 0 1 306.489 200.0205)" fill="#1D1D1B" font-family="'MyriadPro-Regular'" font-size="12.3042">3</text>
<text transform="matrix(1 0 0 1 77.323 339.833)" fill="#1D1D1B" font-family="'MyriadPro-Regular'" font-size="12.3042">4</text>
<g opacity="0.8">
	<path fill="#C9C9C9" d="M140.437,394.441c-0.902-1.215-2.614-1.535-3.896-0.729l-15.46,9.711l-3.401,0.593
		c-0.729,0.127-1.326,0.612-1.601,1.299c-0.273,0.688-0.177,1.449,0.267,2.043l14.231,19.146c0.44,0.594,1.145,0.907,1.881,0.844
		c0.734-0.064,1.373-0.498,1.704-1.16l1.547-3.088l13.753-12.004c1.142-0.998,1.326-2.729,0.423-3.947L140.437,394.441z"/>
	<path fill="#C9C9C9" d="M117.692,398.866l13.752-12.008c1.143-0.998,1.326-2.729,0.425-3.943l-9.445-12.704
		c-0.903-1.216-2.615-1.536-3.898-0.73l-15.459,9.712l-3.401,0.592c-0.729,0.127-1.326,0.612-1.602,1.299
		c-0.272,0.688-0.175,1.449,0.268,2.044l14.23,19.144c0.441,0.595,1.146,0.908,1.881,0.845c0.736-0.063,1.373-0.498,1.704-1.159
		L117.692,398.866z"/>
	<path fill="#C9C9C9" d="M99.676,374.635l13.752-12.009c1.142-0.995,1.327-2.729,0.423-3.942l-9.443-12.704
		c-0.903-1.215-2.616-1.537-3.897-0.73l-15.46,9.712l-3.402,0.594c-0.729,0.125-1.328,0.609-1.601,1.298
		c-0.274,0.687-0.175,1.45,0.267,2.044l14.231,19.143c0.439,0.594,1.144,0.907,1.881,0.844c0.735-0.063,1.373-0.496,1.704-1.157
		L99.676,374.635z"/>
	<path fill="#C9C9C9" d="M81.661,350.401l13.752-12.008c1.142-0.996,1.326-2.729,0.423-3.942l-9.445-12.704
		c-0.902-1.216-2.616-1.536-3.896-0.73l-15.46,9.711l-3.402,0.594c-0.729,0.127-1.326,0.611-1.601,1.3
		c-0.273,0.688-0.177,1.448,0.267,2.043l14.231,19.144c0.44,0.594,1.146,0.909,1.882,0.844c0.733-0.063,1.374-0.498,1.702-1.159
		L81.661,350.401z"/>
	<path fill="#C9C9C9" d="M175.888,367.404c-0.904-1.216-2.616-1.536-3.896-0.729l-15.46,9.711l-3.401,0.593
		c-0.729,0.127-1.326,0.612-1.603,1.301c-0.271,0.688-0.175,1.447,0.269,2.043l14.229,19.144c0.442,0.594,1.146,0.908,1.883,0.844
		c0.734-0.063,1.373-0.498,1.702-1.159l1.549-3.088l13.754-12.005c1.141-0.998,1.325-2.729,0.422-3.946L175.888,367.404z"/>
	<path fill="#C9C9C9" d="M153.143,371.828l13.752-12.007c1.144-0.998,1.326-2.729,0.423-3.943l-9.443-12.705
		c-0.903-1.215-2.615-1.536-3.898-0.731l-15.459,9.713l-3.401,0.592c-0.729,0.128-1.325,0.612-1.602,1.3
		c-0.272,0.688-0.175,1.448,0.268,2.044l14.23,19.143c0.442,0.595,1.146,0.908,1.881,0.845c0.736-0.063,1.373-0.498,1.704-1.158
		L153.143,371.828z"/>
	<path fill="#C9C9C9" d="M129.995,350.997c0.439,0.595,1.144,0.908,1.881,0.845c0.734-0.064,1.373-0.497,1.704-1.158l1.548-3.087
		l13.752-12.007c1.142-0.996,1.327-2.729,0.423-3.944l-9.445-12.704c-0.901-1.215-2.613-1.536-3.896-0.729l-15.46,9.711
		l-3.402,0.593c-0.729,0.125-1.328,0.61-1.601,1.299c-0.274,0.687-0.174,1.449,0.267,2.043L129.995,350.997z"/>
	<path fill="#C9C9C9" d="M210.035,339.611c-0.904-1.216-2.616-1.537-3.897-0.73l-15.461,9.711l-3.401,0.594
		c-0.729,0.127-1.324,0.611-1.601,1.3c-0.273,0.688-0.175,1.447,0.267,2.043l14.231,19.144c0.442,0.594,1.145,0.907,1.882,0.844
		c0.735-0.063,1.372-0.497,1.703-1.158l1.548-3.089l13.753-12.005c1.143-0.998,1.325-2.729,0.422-3.945L210.035,339.611z"/>
	<path fill="#C9C9C9" d="M188.121,314.647l-15.459,9.712l-3.402,0.593c-0.729,0.127-1.326,0.612-1.601,1.298
		c-0.273,0.688-0.177,1.45,0.267,2.044l14.231,19.144c0.44,0.595,1.145,0.908,1.881,0.845c0.734-0.063,1.373-0.498,1.704-1.158
		l1.548-3.086l13.752-12.008c1.142-0.998,1.326-2.729,0.423-3.943l-9.445-12.705C191.116,314.164,189.405,313.843,188.121,314.647z"
		/>
	<path fill="#C9C9C9" d="M164.141,323.204c0.441,0.594,1.146,0.906,1.881,0.844c0.736-0.063,1.373-0.497,1.704-1.158l1.548-3.087
		l13.752-12.007c1.144-0.996,1.327-2.729,0.425-3.944l-9.444-12.703c-0.904-1.217-2.616-1.537-3.898-0.729l-15.46,9.711l-3.4,0.593
		c-0.729,0.125-1.328,0.611-1.603,1.298c-0.272,0.688-0.174,1.45,0.269,2.045L164.141,323.204z"/>
	<path fill="#C9C9C9" d="M245.199,311.853c-0.902-1.216-2.614-1.537-3.896-0.73l-15.46,9.711l-3.402,0.594
		c-0.729,0.127-1.324,0.611-1.601,1.299c-0.273,0.688-0.175,1.449,0.267,2.043l14.232,19.145c0.44,0.595,1.144,0.908,1.881,0.845
		c0.734-0.064,1.373-0.498,1.704-1.159l1.547-3.088l13.753-12.005c1.142-0.998,1.326-2.729,0.422-3.946L245.199,311.853z"/>
	<path fill="#C9C9C9" d="M222.455,316.276l13.753-12.007c1.141-0.998,1.325-2.729,0.423-3.943l-9.446-12.705
		c-0.901-1.215-2.614-1.536-3.896-0.73l-15.459,9.712l-3.402,0.593c-0.729,0.127-1.326,0.611-1.601,1.299
		c-0.273,0.688-0.177,1.448,0.267,2.043l14.231,19.145c0.44,0.594,1.145,0.908,1.881,0.844c0.734-0.063,1.373-0.498,1.704-1.158
		L222.455,316.276z"/>
	<path fill="#C9C9C9" d="M199.306,295.445c0.442,0.595,1.146,0.908,1.881,0.845c0.736-0.063,1.373-0.496,1.704-1.157l1.548-3.087
		l13.752-12.009c1.145-0.995,1.327-2.729,0.425-3.942l-9.444-12.704c-0.904-1.216-2.616-1.537-3.898-0.73l-15.46,9.711l-3.4,0.595
		c-0.729,0.125-1.327,0.609-1.603,1.298c-0.272,0.686-0.174,1.45,0.269,2.044L199.306,295.445z"/>
	<path fill="#C9C9C9" d="M280.32,284.803c-0.902-1.217-2.615-1.537-3.896-0.73l-15.461,9.711l-3.401,0.594
		c-0.729,0.127-1.326,0.611-1.601,1.3c-0.273,0.688-0.176,1.447,0.267,2.043l14.231,19.143c0.44,0.596,1.145,0.908,1.882,0.846
		c0.734-0.064,1.372-0.498,1.703-1.159l1.548-3.088l13.753-12.006c1.142-0.997,1.325-2.729,0.422-3.944L280.32,284.803z"/>
	<path fill="#C9C9C9" d="M257.574,289.227l13.752-12.007c1.143-0.998,1.325-2.729,0.425-3.942l-9.446-12.706
		c-0.903-1.215-2.615-1.536-3.898-0.73l-15.458,9.712l-3.401,0.592c-0.729,0.127-1.326,0.612-1.603,1.301
		c-0.271,0.688-0.175,1.447,0.269,2.043l14.229,19.144c0.442,0.594,1.146,0.908,1.882,0.844c0.735-0.063,1.373-0.498,1.703-1.159
		L257.574,289.227z"/>
	<path fill="#C9C9C9" d="M234.426,268.395c0.441,0.594,1.144,0.908,1.881,0.844c0.736-0.063,1.373-0.496,1.704-1.157l1.548-3.087
		l13.752-12.008c1.145-0.995,1.327-2.729,0.423-3.942l-9.442-12.704c-0.904-1.216-2.616-1.537-3.899-0.731l-15.459,9.713l-3.4,0.594
		c-0.729,0.125-1.328,0.608-1.603,1.298c-0.272,0.686-0.174,1.449,0.269,2.044L234.426,268.395z"/>
	<path fill="#C9C9C9" d="M315.634,257.497c-0.904-1.215-2.616-1.536-3.898-0.729l-15.46,9.711l-3.399,0.594
		c-0.729,0.127-1.326,0.611-1.603,1.299c-0.271,0.688-0.175,1.449,0.269,2.044l14.229,19.143c0.442,0.595,1.146,0.909,1.881,0.845
		c0.736-0.063,1.373-0.498,1.704-1.159l1.548-3.088l13.753-12.005c1.143-0.998,1.325-2.729,0.423-3.946L315.634,257.497z"/>
	<path fill="#C9C9C9" d="M292.889,261.923l13.752-12.009c1.143-0.997,1.326-2.729,0.423-3.943l-9.444-12.705
		c-0.902-1.214-2.614-1.536-3.897-0.729l-15.459,9.712l-3.403,0.593c-0.728,0.127-1.324,0.611-1.6,1.298
		c-0.274,0.688-0.175,1.45,0.266,2.044l14.232,19.145c0.441,0.595,1.144,0.906,1.881,0.845c0.736-0.065,1.373-0.498,1.704-1.159
		L292.889,261.923z"/>
	<path fill="#C9C9C9" d="M269.74,241.092c0.44,0.593,1.145,0.907,1.882,0.843c0.733-0.063,1.372-0.497,1.703-1.158l1.549-3.087
		l13.752-12.007c1.142-0.996,1.327-2.729,0.423-3.943l-9.445-12.704c-0.902-1.215-2.614-1.536-3.896-0.729l-15.46,9.711
		l-3.402,0.594c-0.729,0.125-1.328,0.61-1.602,1.298s-0.174,1.449,0.268,2.044L269.74,241.092z"/>
	<path fill="#C9C9C9" d="M350.456,230.192c-0.904-1.217-2.616-1.536-3.898-0.729l-15.46,9.711l-3.401,0.593
		c-0.729,0.127-1.325,0.612-1.601,1.3c-0.274,0.688-0.175,1.448,0.266,2.043l14.232,19.145c0.441,0.594,1.145,0.907,1.881,0.844
		s1.373-0.498,1.704-1.159l1.547-3.088l13.754-12.005c1.142-0.998,1.325-2.729,0.422-3.945L350.456,230.192z"/>
	<path fill="#C9C9C9" d="M327.711,234.616l13.752-12.008c1.141-0.998,1.326-2.729,0.423-3.941l-9.446-12.706
		c-0.901-1.215-2.613-1.536-3.896-0.731l-15.459,9.712l-3.403,0.593c-0.729,0.127-1.326,0.611-1.6,1.301
		c-0.274,0.687-0.176,1.446,0.266,2.043l14.231,19.143c0.44,0.594,1.145,0.909,1.882,0.844c0.733-0.063,1.373-0.497,1.704-1.158
		L327.711,234.616z"/>
	<path fill="#C9C9C9" d="M304.561,213.785c0.442,0.595,1.146,0.907,1.881,0.845c0.736-0.064,1.373-0.497,1.704-1.158l1.55-3.087
		l13.752-12.007c1.143-0.996,1.325-2.729,0.423-3.944l-9.444-12.704c-0.904-1.216-2.616-1.537-3.897-0.73l-15.461,9.713
		l-3.399,0.593c-0.729,0.125-1.328,0.609-1.604,1.298c-0.271,0.687-0.174,1.45,0.27,2.044L304.561,213.785z"/>
	<path fill="#C9C9C9" d="M385.363,202.484c-0.902-1.216-2.614-1.536-3.896-0.729l-15.46,9.712l-3.401,0.593
		c-0.729,0.127-1.326,0.611-1.601,1.299c-0.273,0.688-0.176,1.449,0.267,2.043l14.231,19.145c0.44,0.595,1.145,0.907,1.881,0.845
		c0.735-0.064,1.373-0.498,1.704-1.159l1.547-3.088l13.753-12.005c1.142-0.998,1.326-2.729,0.422-3.946L385.363,202.484z"/>
	<path fill="#C9C9C9" d="M362.617,206.909l13.752-12.008c1.142-0.998,1.325-2.729,0.424-3.943l-9.446-12.705
		c-0.902-1.215-2.614-1.536-3.896-0.731l-15.459,9.713l-3.402,0.593c-0.729,0.127-1.326,0.61-1.602,1.3
		c-0.272,0.687-0.176,1.447,0.268,2.043l14.23,19.143c0.441,0.595,1.146,0.908,1.882,0.845c0.735-0.063,1.373-0.497,1.703-1.158
		L362.617,206.909z"/>
	<path fill="#C9C9C9" d="M420.572,175.146c-0.903-1.217-2.615-1.537-3.898-0.73l-15.459,9.712l-3.4,0.593
		c-0.729,0.127-1.326,0.611-1.602,1.3c-0.272,0.688-0.175,1.448,0.268,2.043l14.23,19.144c0.441,0.595,1.146,0.908,1.881,0.845
		c0.735-0.064,1.373-0.498,1.704-1.159l1.547-3.088l13.754-12.005c1.142-0.998,1.325-2.729,0.422-3.945L420.572,175.146z"/>
	<path fill="#C9C9C9" d="M397.826,179.569l13.752-12.007c1.143-0.998,1.326-2.729,0.424-3.942l-9.445-12.706
		c-0.902-1.214-2.614-1.535-3.897-0.73l-15.459,9.712l-3.402,0.592c-0.729,0.127-1.325,0.612-1.601,1.301
		c-0.272,0.688-0.175,1.447,0.267,2.043l14.231,19.144c0.441,0.594,1.145,0.909,1.881,0.844c0.736-0.063,1.373-0.498,1.704-1.158
		L397.826,179.569z"/>
	<path fill="#C9C9C9" d="M455.558,147.926c-0.903-1.215-2.615-1.537-3.896-0.73l-15.461,9.712l-3.4,0.593
		c-0.729,0.128-1.326,0.611-1.602,1.3c-0.272,0.688-0.175,1.448,0.268,2.043l14.23,19.143c0.441,0.596,1.146,0.909,1.881,0.846
		c0.736-0.064,1.373-0.498,1.704-1.158l1.548-3.088l13.754-12.006c1.141-0.998,1.324-2.729,0.422-3.945L455.558,147.926z"/>
	<path fill="#C9C9C9" d="M432.814,152.351l13.752-12.008c1.143-0.997,1.325-2.729,0.424-3.944l-9.445-12.705
		c-0.903-1.214-2.615-1.535-3.898-0.729l-15.458,9.712l-3.402,0.592c-0.729,0.127-1.325,0.612-1.602,1.298
		c-0.272,0.688-0.175,1.45,0.268,2.044l14.23,19.146c0.441,0.594,1.146,0.906,1.882,0.844c0.735-0.064,1.372-0.498,1.703-1.159
		L432.814,152.351z"/>
	<path fill="#C9C9C9" d="M490.487,120.32c-0.903-1.215-2.616-1.536-3.897-0.729l-15.46,9.712l-3.402,0.593
		c-0.728,0.127-1.324,0.611-1.6,1.299c-0.272,0.688-0.176,1.449,0.266,2.043l14.232,19.145c0.441,0.595,1.145,0.908,1.881,0.845
		c0.735-0.064,1.373-0.498,1.704-1.159l1.547-3.088l13.753-12.005c1.143-0.998,1.326-2.729,0.422-3.946L490.487,120.32z"/>
	<path fill="#C9C9C9" d="M467.74,124.745l13.752-12.008c1.142-0.997,1.326-2.729,0.424-3.943l-9.446-12.705
		c-0.901-1.215-2.613-1.536-3.896-0.73l-15.459,9.712l-3.402,0.593c-0.729,0.127-1.326,0.611-1.601,1.299
		c-0.273,0.688-0.175,1.449,0.267,2.044l14.231,19.144c0.44,0.595,1.145,0.907,1.881,0.845c0.735-0.064,1.373-0.498,1.704-1.158
		L467.74,124.745z"/>
	<path fill="#C9C9C9" d="M525.691,92.876c-0.904-1.216-2.616-1.537-3.897-0.73l-15.46,9.711l-3.401,0.594
		c-0.729,0.127-1.325,0.611-1.602,1.299c-0.272,0.688-0.175,1.449,0.268,2.043l14.23,19.145c0.442,0.595,1.146,0.909,1.882,0.845
		c0.735-0.064,1.373-0.498,1.703-1.159l1.548-3.088l13.753-12.006c1.143-0.997,1.325-2.729,0.423-3.945L525.691,92.876z"/>
	<path fill="#C9C9C9" d="M502.946,97.301l13.752-12.007c1.143-0.998,1.326-2.73,0.423-3.944l-9.444-12.706
		c-0.902-1.214-2.614-1.536-3.897-0.729l-15.459,9.712l-3.403,0.593c-0.728,0.127-1.324,0.611-1.6,1.299
		c-0.273,0.688-0.176,1.449,0.266,2.043l14.232,19.145c0.44,0.595,1.145,0.909,1.881,0.845c0.735-0.065,1.373-0.498,1.704-1.159
		L502.946,97.301z"/>
	<path fill="#C9C9C9" d="M560.855,65.678c-0.904-1.217-2.616-1.537-3.898-0.729l-15.46,9.711l-3.4,0.593
		c-0.729,0.127-1.325,0.612-1.602,1.299c-0.272,0.688-0.175,1.449,0.268,2.044l14.23,19.145c0.441,0.594,1.145,0.906,1.882,0.844
		c0.735-0.064,1.372-0.497,1.703-1.158l1.547-3.088l13.754-12.007c1.143-0.997,1.325-2.729,0.422-3.945L560.855,65.678z"/>
	<path fill="#C9C9C9" d="M538.11,70.103l13.752-12.007c1.142-0.998,1.326-2.729,0.423-3.945l-9.444-12.705
		c-0.902-1.214-2.615-1.535-3.897-0.729l-15.459,9.713l-3.403,0.592c-0.728,0.127-1.325,0.611-1.6,1.299
		c-0.273,0.688-0.176,1.449,0.266,2.043l14.232,19.145c0.44,0.595,1.144,0.907,1.881,0.845c0.735-0.064,1.373-0.498,1.704-1.159
		L538.11,70.103z"/>
	<path fill="#C9C9C9" d="M595.611,38.068c-0.902-1.216-2.615-1.536-3.896-0.729l-15.46,9.711l-3.402,0.594
		c-0.728,0.127-1.325,0.611-1.6,1.299c-0.273,0.688-0.175,1.449,0.266,2.043L585.75,70.13c0.44,0.595,1.145,0.907,1.881,0.845
		c0.735-0.064,1.373-0.498,1.704-1.159l1.547-3.088l13.753-12.006c1.142-0.997,1.326-2.729,0.422-3.945L595.611,38.068z"/>
	<path fill="#C9C9C9" d="M630.511,10.804c-0.903-1.216-2.616-1.537-3.896-0.731l-15.461,9.712l-3.4,0.594
		c-0.729,0.127-1.326,0.61-1.602,1.3c-0.272,0.687-0.175,1.448,0.268,2.043l14.23,19.144c0.441,0.594,1.146,0.908,1.881,0.844
		c0.735-0.063,1.373-0.498,1.704-1.157l1.548-3.089l13.753-12.006c1.142-0.998,1.325-2.729,0.423-3.944L630.511,10.804z"/>
</g>
</svg>
