<?xml version="1.0" encoding="utf-8"?>
<!-- Generator: Adobe Illustrator 16.0.0, SVG Export Plug-In . SVG Version: 6.00 Build 0)  -->
<!DOCTYPE svg PUBLIC "-//W3C//DTD SVG 1.1//EN" "http://www.w3.org/Graphics/SVG/1.1/DTD/svg11.dtd">
<svg version="1.1" id="Layer_1" xmlns="http://www.w3.org/2000/svg" xmlns:xlink="http://www.w3.org/1999/xlink" x="0px" y="0px"
	 width="539.309px" height="446.508px" viewBox="84.31 0 539.309 446.508" enable-background="new 84.31 0 539.309 446.508"
	 xml:space="preserve">

<style type="text/css">
	<![CDATA[
	@font-face { font-family:"Arial";font-variant:normal;font-style:normal;font-weight:normal;src:url("#FontID0") format(svg)}
	.buttBuy {fill:#8655FF;}
	.fil0 {fill:#BFFF2F; fill-opacity:0.1;}
	.fil3 {fill:#BFFF2F; fill-opacity:0.6;}
	.opa03 {fill-opacity:0.3;}
	.fil1 {fill:#000000; font-family:'Arial'; font-size:7pt; } 
	.fil2 {fill:#A7A9AB; font-family:'Arial'; font-size:6pt;}
	.seatSel {fill:#44FF00; fill-opacity:0.6;}
	.seatOcup {fill:#555555; fill-opacity:0.9;}
	.fnt0 {font-weight:normal;font-size:100px;font-family:'Arial'}
	.fnt1 {font-weight:normal;font-size:215.155px;font-family:'Arial'}
	]]>
</style>
<g>
	<path class="fil3" d="M605.911,319.197l-11.197-5.234c-1.094-0.512-2.412-0.091-3.01,0.96l-7.023,12.394
		l-2.115,1.662c-0.465,0.364-0.701,0.938-0.635,1.524c0.066,0.59,0.428,1.092,0.967,1.344l16.871,7.89
		c0.539,0.25,1.156,0.205,1.65-0.121s0.779-0.875,0.764-1.467l-0.08-2.688l5.004-13.338
		C607.529,320.992,607.005,319.709,605.911,319.197z"/>
	<path class="fil3" d="M583.081,308.25l-11.092-5.455c-1.082-0.533-2.412-0.138-3.027,0.899l-7.271,12.252
		l-2.145,1.62c-0.473,0.355-0.723,0.922-0.666,1.512c0.057,0.592,0.406,1.103,0.939,1.363l16.713,8.219
		c0.531,0.264,1.148,0.229,1.652-0.086c0.5-0.316,0.797-0.859,0.791-1.453l-0.027-2.688l5.268-13.237
		C584.661,310.076,584.163,308.782,583.081,308.25z"/>
	<path class="fil3" d="M555.204,317.094c0.51-0.308,0.814-0.845,0.82-1.438l0.025-2.688l5.525-13.131
		c0.469-1.111-0.006-2.416-1.076-2.97l-10.982-5.675c-1.07-0.553-2.408-0.185-3.045,0.842l-7.51,12.105l-2.178,1.576
		c-0.48,0.349-0.74,0.909-0.697,1.5c0.047,0.593,0.387,1.106,0.914,1.381l16.547,8.548
		C554.079,317.42,554.697,317.4,555.204,317.094z"/>
	<path class="fil3" d="M514.45,296.327l16.377,8.873c0.521,0.282,1.141,0.273,1.654-0.021
		c0.514-0.296,0.83-0.826,0.85-1.419l0.078-2.688l5.783-13.02c0.488-1.104,0.043-2.416-1.018-2.989l-10.869-5.889
		c-1.063-0.574-2.406-0.231-3.063,0.78l-7.746,11.956l-2.207,1.532c-0.486,0.339-0.76,0.896-0.729,1.485
		C513.597,295.524,513.929,296.046,514.45,296.327z"/>
	<path class="fil3" d="M492.167,283.632l16.199,9.191c0.518,0.293,1.135,0.296,1.654,0.012
		c0.52-0.286,0.848-0.812,0.875-1.402l0.133-2.687l6.037-12.902c0.512-1.093,0.092-2.415-0.959-3.011l-10.752-6.1
		c-1.047-0.598-2.398-0.279-3.074,0.72l-7.979,11.803l-2.236,1.489c-0.492,0.328-0.775,0.879-0.756,1.472
		C491.329,282.811,491.652,283.339,492.167,283.632z"/>
	<path class="fil3" d="M470.159,270.517l16.018,9.508c0.512,0.303,1.127,0.318,1.652,0.043
		c0.525-0.274,0.863-0.794,0.904-1.384l0.184-2.685l6.291-12.781c0.531-1.083,0.137-2.411-0.898-3.027l-10.631-6.311
		c-1.037-0.615-2.395-0.326-3.09,0.658l-8.209,11.646l-2.268,1.445c-0.498,0.316-0.791,0.862-0.783,1.456
		C469.339,269.678,469.65,270.213,470.159,270.517z"/>
	<path class="fil3" d="M448.431,256.986l15.828,9.819c0.504,0.313,1.121,0.342,1.65,0.074
		c0.531-0.266,0.879-0.775,0.932-1.366l0.236-2.679l6.539-12.655c0.555-1.071,0.186-2.408-0.84-3.045l-10.506-6.519
		c-1.023-0.636-2.387-0.373-3.102,0.601l-8.438,11.479l-2.293,1.401c-0.508,0.309-0.811,0.848-0.813,1.438
		C447.628,256.133,447.927,256.673,448.431,256.986z"/>
	<path class="fil3" d="M426.991,243.048l15.633,10.126c0.498,0.322,1.113,0.362,1.648,0.107
		c0.535-0.256,0.896-0.76,0.957-1.349l0.289-2.674l6.785-12.526c0.574-1.062,0.23-2.404-0.781-3.061l-10.375-6.722
		c-1.012-0.655-2.379-0.421-3.111,0.538l-8.656,11.313l-2.322,1.356c-0.512,0.299-0.824,0.83-0.84,1.424
		C426.204,242.178,426.493,242.726,426.991,243.048z"/>
	<path class="fil3" d="M405.841,228.706l15.432,10.432c0.492,0.331,1.107,0.385,1.648,0.14
		c0.539-0.243,0.906-0.741,0.982-1.329l0.34-2.666l7.027-12.393c0.596-1.051,0.279-2.4-0.721-3.075l-10.242-6.922
		c-0.998-0.677-2.369-0.467-3.121,0.478l-8.877,11.144l-2.348,1.311c-0.52,0.289-0.842,0.815-0.867,1.408
		C405.072,227.822,405.349,228.375,405.841,228.706z"/>
	<path class="fil3" d="M384.988,213.968l15.227,10.729c0.484,0.342,1.1,0.405,1.646,0.172
		c0.545-0.233,0.922-0.725,1.008-1.311l0.395-2.66l7.27-12.252c0.615-1.038,0.324-2.396-0.66-3.089l-10.105-7.12
		c-0.984-0.694-2.359-0.513-3.131,0.416l-9.094,10.969l-2.373,1.265c-0.521,0.278-0.855,0.799-0.895,1.392
		C384.236,213.068,384.501,213.627,384.988,213.968z"/>
	<path class="fil3" d="M364.437,198.837l15.014,11.021c0.479,0.354,1.094,0.429,1.645,0.205
		c0.549-0.225,0.936-0.706,1.033-1.291l0.443-2.65l7.504-12.107c0.637-1.026,0.373-2.388-0.6-3.103l-9.965-7.315
		c-0.973-0.713-2.354-0.558-3.141,0.355l-9.305,10.788l-2.396,1.219c-0.527,0.27-0.871,0.781-0.922,1.373
		C363.7,197.924,363.958,198.486,364.437,198.837z"/>
	<path class="fil3" d="M344.193,183.32l14.799,11.313c0.473,0.359,1.084,0.447,1.639,0.234
		c0.553-0.212,0.949-0.688,1.059-1.271l0.496-2.644l7.738-11.961c0.654-1.013,0.418-2.38-0.541-3.11l-9.82-7.51
		c-0.957-0.729-2.338-0.603-3.145,0.296l-9.514,10.605l-2.42,1.171c-0.531,0.258-0.889,0.767-0.947,1.354
		C343.476,182.394,343.722,182.961,344.193,183.32z"/>
	<path class="fil3" d="M338.839,179.021c0.463,0.367,1.072,0.469,1.631,0.267c0.561-0.201,0.965-0.669,1.084-1.249
		l0.549-2.632l7.969-11.811c0.676-1,0.465-2.369-0.479-3.122l-9.674-7.694c-0.941-0.751-2.326-0.648-3.148,0.231l-9.717,10.419
		l-2.441,1.125c-0.537,0.247-0.902,0.747-0.975,1.337c-0.07,0.59,0.162,1.16,0.627,1.53L338.839,179.021z"/>
	<path class="fil3" d="M318.997,163.026c0.459,0.378,1.064,0.49,1.627,0.3s0.979-0.649,1.107-1.229l0.6-2.62
		l8.197-11.652c0.693-0.985,0.508-2.359-0.42-3.13l-9.521-7.883c-0.93-0.77-2.313-0.692-3.154,0.172l-9.916,10.229l-2.463,1.076
		c-0.543,0.236-0.916,0.729-1,1.316c-0.082,0.588,0.143,1.164,0.6,1.543L318.997,163.026z"/>
	<path class="fil3" d="M299.477,146.658c0.45,0.388,1.057,0.512,1.621,0.331c0.565-0.182,0.987-0.633,1.131-1.207
		l0.648-2.608l8.422-11.489c0.713-0.976,0.555-2.354-0.359-3.14l-9.367-8.064c-0.914-0.786-2.3-0.737-3.157,0.11l-10.11,10.034
		l-2.483,1.029c-0.547,0.227-0.932,0.712-1.023,1.297c-0.096,0.586,0.116,1.167,0.566,1.555L299.477,146.658z"/>
	<path class="fil3" d="M280.282,129.921c0.442,0.396,1.046,0.53,1.614,0.361c0.567-0.169,1-0.611,1.152-1.184
		l0.699-2.599l8.644-11.325c0.729-0.959,0.602-2.341-0.298-3.146l-9.211-8.245c-0.896-0.805-2.284-0.782-3.157,0.05l-10.306,9.838
		l-2.504,0.98c-0.552,0.216-0.942,0.693-1.05,1.276c-0.104,0.584,0.097,1.169,0.538,1.563L280.282,129.921z"/>
	<path class="fil3" d="M273.572,95.164l-9.051-8.423c-0.882-0.82-2.269-0.825-3.156-0.01l-10.494,9.635
		l-2.521,0.933c-0.555,0.206-0.957,0.678-1.073,1.259c-0.115,0.58,0.072,1.17,0.508,1.573l13.634,12.689
		c0.436,0.404,1.035,0.551,1.605,0.394c0.572-0.156,1.014-0.594,1.179-1.161l0.749-2.581l8.858-11.156
		C274.557,97.368,274.453,95.986,273.572,95.164z"/>
	<path class="fil3" d="M246.495,69.349c-0.866-0.84-2.254-0.87-3.157-0.072l-10.679,9.431l-2.539,0.884
		c-0.561,0.194-0.972,0.656-1.1,1.235c-0.129,0.58,0.051,1.171,0.478,1.584l13.386,12.952c0.428,0.412,1.023,0.571,1.601,0.424
		c0.573-0.146,1.021-0.572,1.197-1.138l0.8-2.568l9.073-10.979c0.77-0.934,0.69-2.315-0.177-3.154L246.495,69.349z"/>
	<path class="fil3" d="M212.237,61.534c-0.563,0.184-0.982,0.638-1.122,1.214c-0.141,0.576,0.026,1.173,0.444,1.594
		l13.135,13.208c0.418,0.421,1.012,0.592,1.59,0.455c0.577-0.137,1.034-0.555,1.222-1.115l0.848-2.551l9.285-10.807
		c0.786-0.914,0.734-2.301-0.115-3.155l-8.716-8.768c-0.851-0.854-2.234-0.913-3.154-0.133l-10.858,9.223L212.237,61.534z"/>
	<path class="fil3" d="M211.464,33.535c-0.834-0.872-2.219-0.957-3.152-0.193l-11.034,9.012l-2.571,0.783
		c-0.566,0.174-0.995,0.618-1.146,1.191c-0.148,0.574,0.007,1.174,0.415,1.603l12.875,13.459c0.41,0.431,1.001,0.609,1.581,0.485
		c0.58-0.125,1.044-0.532,1.242-1.091l0.897-2.534l9.49-10.623c0.805-0.898,0.78-2.287-0.054-3.158L211.464,33.535z"/>
	<path class="fil3" d="M189.354,40.888c0.402,0.438,0.989,0.631,1.572,0.518c0.582-0.112,1.054-0.513,1.263-1.066
		l0.946-2.518l9.695-10.438c0.82-0.886,0.824-2.271,0.008-3.157l-8.37-9.1c-0.815-0.887-2.199-0.998-3.147-0.255l-11.206,8.796
		l-2.587,0.734c-0.568,0.162-1.009,0.6-1.169,1.17c-0.16,0.571-0.019,1.172,0.385,1.607L189.354,40.888z"/>
	<path class="fil3" d="M590.79,352.799l-11.152-5.33c-1.088-0.521-2.414-0.108-3.02,0.935l-7.131,12.334
		l-2.127,1.645c-0.471,0.361-0.713,0.931-0.65,1.521c0.064,0.592,0.422,1.096,0.955,1.354l16.807,8.031
		c0.535,0.256,1.15,0.217,1.65-0.104c0.498-0.322,0.787-0.869,0.773-1.461l-0.057-2.688l5.117-13.295
		C592.39,354.608,591.878,353.318,590.79,352.799z"/>
	<path class="fil3" d="M568.327,342.056l-11.047-5.548c-1.078-0.541-2.41-0.155-3.035,0.875l-7.371,12.191
		l-2.158,1.602c-0.477,0.354-0.729,0.918-0.68,1.511c0.053,0.59,0.396,1.104,0.93,1.366l16.646,8.359
		c0.529,0.266,1.146,0.236,1.652-0.074c0.504-0.313,0.805-0.854,0.803-1.442l-0.006-2.689l5.377-13.193
		C569.892,343.896,569.406,342.596,568.327,342.056z"/>
	<path class="fil3" d="M522.509,342.445l16.48,8.68c0.523,0.277,1.145,0.263,1.652-0.041
		c0.51-0.303,0.822-0.838,0.832-1.43l0.047-2.688l5.631-13.086c0.479-1.106,0.016-2.416-1.053-2.979l-10.938-5.76
		c-1.066-0.564-2.406-0.205-3.053,0.813L524.505,338l-2.189,1.563c-0.482,0.342-0.748,0.901-0.709,1.494
		S521.984,342.168,522.509,342.445z"/>
	<path class="fil3" d="M500.3,330.433l16.309,8.998c0.521,0.286,1.139,0.282,1.654-0.011
		c0.516-0.291,0.838-0.817,0.857-1.412l0.102-2.688l5.883-12.976c0.498-1.1,0.063-2.416-0.996-2.997l-10.822-5.973
		c-1.057-0.582-2.4-0.25-3.064,0.759l-7.838,11.896l-2.221,1.518c-0.488,0.334-0.766,0.89-0.736,1.48
		C499.452,329.621,499.781,330.147,500.3,330.433z"/>
	<path class="fil3" d="M478.345,318.02l16.131,9.311c0.514,0.299,1.131,0.307,1.654,0.023
		c0.52-0.281,0.852-0.806,0.885-1.396l0.15-2.686l6.135-12.857c0.52-1.089,0.105-2.414-0.938-3.018l-10.705-6.18
		c-1.045-0.604-2.396-0.297-3.082,0.696l-8.064,11.743l-2.248,1.474c-0.496,0.324-0.781,0.873-0.766,1.466
		C477.513,317.19,477.827,317.722,478.345,318.02z"/>
	<path class="fil3" d="M456.644,305.211l15.949,9.62c0.508,0.307,1.125,0.327,1.652,0.057
		c0.525-0.271,0.869-0.788,0.914-1.38l0.203-2.681l6.379-12.737c0.541-1.078,0.154-2.411-0.877-3.034l-10.586-6.386
		c-1.031-0.623-2.393-0.343-3.094,0.64l-8.293,11.585l-2.273,1.43c-0.502,0.313-0.799,0.856-0.795,1.45
		C455.831,304.367,456.138,304.904,456.644,305.211z"/>
	<path class="fil3" d="M435.208,292.011l15.762,9.927c0.502,0.315,1.119,0.35,1.65,0.088
		c0.533-0.263,0.885-0.771,0.939-1.361l0.254-2.676l6.625-12.611c0.563-1.067,0.201-2.408-0.818-3.051l-10.459-6.588
		c-1.021-0.645-2.385-0.391-3.105,0.578l-8.514,11.422l-2.305,1.386c-0.508,0.306-0.814,0.843-0.82,1.436
		C434.411,291.153,434.706,291.695,435.208,292.011z"/>
	<path class="fil3" d="M414.04,278.425l15.566,10.229c0.496,0.326,1.111,0.37,1.648,0.119s0.896-0.754,0.967-1.342
		l0.307-2.673l6.865-12.48c0.582-1.057,0.248-2.403-0.762-3.065l-10.33-6.788c-1.008-0.662-2.375-0.435-3.115,0.521l-8.73,11.256
		l-2.33,1.341c-0.514,0.297-0.832,0.826-0.85,1.419C413.261,277.552,413.546,278.101,414.04,278.425z"/>
	<path class="fil3" d="M393.146,264.461l15.365,10.524c0.488,0.336,1.105,0.392,1.646,0.15
		c0.543-0.241,0.914-0.736,0.99-1.323l0.357-2.664l7.105-12.349c0.602-1.046,0.293-2.397-0.703-3.08l-10.197-6.984
		c-0.994-0.683-2.367-0.479-3.125,0.458l-8.945,11.087l-2.355,1.296c-0.52,0.285-0.848,0.812-0.875,1.402
		C392.382,263.572,392.657,264.125,393.146,264.461z"/>
	<path class="fil3" d="M372.529,250.119l15.16,10.818c0.482,0.345,1.1,0.413,1.646,0.182
		c0.547-0.229,0.926-0.719,1.016-1.304l0.41-2.657l7.34-12.209c0.621-1.033,0.34-2.392-0.643-3.093l-10.064-7.181
		c-0.98-0.699-2.355-0.525-3.133,0.396l-9.158,10.913l-2.379,1.251c-0.525,0.274-0.861,0.793-0.902,1.386
		C371.781,249.216,372.046,249.775,372.529,250.119z"/>
	<path class="fil3" d="M352.191,235.407l14.951,11.107c0.479,0.354,1.09,0.433,1.643,0.214
		c0.549-0.222,0.939-0.701,1.041-1.285l0.459-2.647l7.572-12.065c0.643-1.021,0.387-2.386-0.582-3.104l-9.924-7.371
		c-0.967-0.72-2.346-0.57-3.141,0.338l-9.363,10.733l-2.404,1.205c-0.529,0.268-0.877,0.777-0.93,1.368
		C351.464,234.49,351.716,235.054,352.191,235.407z"/>
	<path class="fil3" d="M346.88,231.722c0.469,0.363,1.08,0.454,1.635,0.245c0.557-0.21,0.953-0.685,1.066-1.266
		l0.51-2.64l7.803-11.919c0.66-1.01,0.432-2.378-0.521-3.115l-9.779-7.561c-0.955-0.737-2.336-0.615-3.146,0.277l-9.568,10.555
		l-2.426,1.158c-0.533,0.256-0.893,0.76-0.955,1.351c-0.063,0.59,0.182,1.158,0.648,1.521L346.88,231.722z"/>
	<path class="fil3" d="M326.902,216.564c0.463,0.372,1.07,0.475,1.631,0.275c0.561-0.198,0.967-0.664,1.09-1.244
		l0.563-2.629l8.029-11.77c0.68-0.996,0.477-2.368-0.465-3.124l-9.633-7.746c-0.939-0.755-2.324-0.66-3.15,0.219l-9.771,10.368
		l-2.447,1.112c-0.539,0.245-0.904,0.742-0.979,1.331s0.156,1.161,0.619,1.533L326.902,216.564z"/>
	<path class="fil3" d="M307.216,201.045c0.455,0.381,1.064,0.495,1.627,0.309c0.563-0.188,0.979-0.646,1.111-1.225
		l0.609-2.617l8.254-11.61c0.697-0.983,0.521-2.359-0.404-3.133l-9.482-7.931c-0.926-0.771-2.313-0.703-3.154,0.157l-9.965,10.181
		l-2.469,1.065c-0.544,0.232-0.92,0.725-1.007,1.312c-0.085,0.589,0.136,1.166,0.592,1.547L307.216,201.045z"/>
	<path class="fil3" d="M287.827,185.17c0.448,0.393,1.054,0.519,1.619,0.34c0.564-0.179,0.989-0.629,1.136-1.2
		l0.661-2.606l8.474-11.452c0.718-0.97,0.565-2.349-0.345-3.14l-9.331-8.108c-0.909-0.791-2.296-0.748-3.156,0.1l-10.158,9.986
		l-2.486,1.02c-0.549,0.224-0.936,0.708-1.03,1.293c-0.097,0.586,0.112,1.167,0.561,1.556L287.827,185.17z"/>
	<path class="fil3" d="M268.74,168.947c0.439,0.396,1.043,0.535,1.612,0.369c0.567-0.167,1.002-0.607,1.158-1.181
		l0.71-2.594l8.689-11.288c0.736-0.956,0.611-2.337-0.283-3.146l-9.175-8.284c-0.896-0.81-2.281-0.793-3.159,0.036l-10.346,9.793
		l-2.508,0.97c-0.554,0.215-0.947,0.69-1.057,1.273c-0.106,0.584,0.092,1.169,0.53,1.565L268.74,168.947z"/>
	<path class="fil3" d="M249.959,152.377c0.435,0.404,1.032,0.556,1.604,0.398c0.571-0.156,1.015-0.589,1.182-1.157
		l0.761-2.578l8.903-11.12c0.754-0.941,0.655-2.325-0.225-3.149l-9.016-8.459c-0.88-0.825-2.267-0.835-3.158-0.023l-10.531,9.596
		l-2.525,0.922c-0.557,0.203-0.96,0.672-1.079,1.253c-0.118,0.581,0.068,1.171,0.502,1.576L249.959,152.377z"/>
	<path class="fil3" d="M231.49,135.465c0.425,0.414,1.021,0.574,1.599,0.431c0.574-0.146,1.024-0.569,1.202-1.135
		l0.81-2.563l9.114-10.949c0.771-0.927,0.698-2.313-0.164-3.151l-8.853-8.63c-0.863-0.844-2.25-0.878-3.158-0.083l-10.712,9.392
		l-2.543,0.873c-0.561,0.192-0.974,0.652-1.104,1.23c-0.13,0.579,0.046,1.173,0.472,1.587L231.49,135.465z"/>
	<path class="fil3" d="M226.224,101.089l-8.687-8.797c-0.847-0.856-2.232-0.921-3.154-0.145l-10.891,9.188
		l-2.561,0.824c-0.563,0.182-0.983,0.635-1.126,1.21c-0.142,0.577,0.023,1.173,0.44,1.596l13.087,13.253
		c0.417,0.422,1.011,0.595,1.59,0.46c0.576-0.134,1.034-0.549,1.225-1.11l0.856-2.548l9.321-10.772
		C227.118,103.333,227.073,101.948,226.224,101.089z"/>
	<path class="fil3" d="M183.412,84.349c-0.566,0.171-0.997,0.615-1.148,1.188c-0.15,0.573,0.001,1.172,0.41,1.604
		l12.832,13.5c0.408,0.431,0.999,0.613,1.58,0.491c0.579-0.123,1.046-0.529,1.245-1.088l0.905-2.531l9.523-10.594
		c0.809-0.896,0.788-2.284-0.043-3.158l-8.518-8.96c-0.831-0.874-2.216-0.964-3.151-0.204l-11.063,8.977L183.412,84.349z"/>
	<path class="fil3" d="M183.188,56.991c-0.813-0.891-2.196-1.007-3.147-0.265l-11.23,8.764l-2.588,0.728
		c-0.569,0.161-1.011,0.598-1.173,1.167c-0.163,0.57-0.021,1.173,0.381,1.609l12.57,13.741c0.401,0.438,0.987,0.634,1.57,0.521
		c0.583-0.112,1.057-0.511,1.266-1.063l0.954-2.515l9.727-10.409c0.823-0.883,0.831-2.271,0.018-3.159L183.188,56.991z"/>
	<path class="fil3" d="M160.826,64.51c0.394,0.444,0.977,0.65,1.562,0.552c0.585-0.1,1.064-0.489,1.286-1.039
		l1.002-2.495l9.922-10.225c0.84-0.864,0.873-2.252,0.076-3.156l-8.168-9.277c-0.799-0.905-2.179-1.048-3.144-0.323l-11.396,8.547
		l-2.604,0.68c-0.573,0.147-1.021,0.575-1.193,1.145c-0.174,0.567-0.044,1.172,0.35,1.616L160.826,64.51z"/>
	<path class="fil3" d="M576.777,389.252c0.434-1.127-0.082-2.414-1.17-2.934l-11.158-5.322
		c-1.088-0.521-2.412-0.107-3.018,0.938l-7.121,12.34l-2.125,1.646c-0.469,0.361-0.713,0.931-0.646,1.521
		c0.063,0.592,0.42,1.096,0.955,1.352l16.813,8.019c0.535,0.256,1.152,0.217,1.65-0.105s0.787-0.869,0.773-1.461l-0.061-2.688
		L576.777,389.252z"/>
	<path class="fil3" d="M553.472,375.746l-11.061-5.521c-1.078-0.539-2.41-0.152-3.033,0.881l-7.342,12.209
		l-2.156,1.606c-0.475,0.354-0.729,0.918-0.676,1.508c0.053,0.593,0.4,1.103,0.934,1.367l16.662,8.32
		c0.531,0.266,1.148,0.236,1.652-0.078c0.504-0.313,0.803-0.854,0.801-1.443l-0.01-2.688l5.346-13.205
		C555.042,377.582,554.552,376.283,553.472,375.746z"/>
	<path class="fil3" d="M508.013,376.418l16.51,8.619c0.527,0.273,1.146,0.258,1.654-0.047s0.816-0.84,0.826-1.435
		l0.037-2.688l5.584-13.105c0.473-1.108,0.006-2.416-1.063-2.975l-10.959-5.723c-1.066-0.56-2.406-0.193-3.047,0.828l-7.563,12.071
		l-2.186,1.566c-0.48,0.348-0.746,0.906-0.703,1.498C507.146,375.621,507.488,376.144,508.013,376.418z"/>
	<path class="fil3" d="M486.118,364.654l16.354,8.918c0.521,0.283,1.141,0.277,1.654-0.019
		c0.516-0.295,0.834-0.823,0.854-1.416l0.086-2.688l5.818-13.004c0.492-1.101,0.049-2.414-1.01-2.992l-10.854-5.918
		c-1.061-0.576-2.404-0.236-3.063,0.771l-7.779,11.937l-2.213,1.526c-0.486,0.339-0.76,0.894-0.729,1.484
		C485.271,363.846,485.599,364.369,486.118,364.654z"/>
	<path class="fil3" d="M464.464,352.515l16.189,9.209c0.516,0.295,1.133,0.299,1.652,0.014
		c0.521-0.285,0.85-0.812,0.879-1.4l0.133-2.686l6.055-12.896c0.514-1.092,0.094-2.414-0.957-3.012l-10.742-6.111
		c-1.051-0.598-2.4-0.281-3.076,0.717l-7.992,11.793l-2.24,1.488c-0.492,0.326-0.773,0.877-0.756,1.471
		C463.63,351.691,463.948,352.221,464.464,352.515z"/>
	<path class="fil3" d="M443.052,340l16.021,9.498c0.51,0.303,1.127,0.316,1.652,0.043
		c0.523-0.276,0.861-0.795,0.9-1.387l0.184-2.683l6.285-12.786c0.529-1.082,0.135-2.412-0.9-3.025l-10.635-6.307
		c-1.035-0.613-2.395-0.322-3.09,0.661l-8.203,11.646l-2.266,1.447c-0.5,0.317-0.793,0.862-0.781,1.457
		C442.232,339.159,442.54,339.697,443.052,340z"/>
	<path class="fil3" d="M421.884,327.115l15.85,9.785c0.506,0.313,1.123,0.338,1.652,0.069
		c0.529-0.266,0.877-0.776,0.928-1.368l0.229-2.679l6.514-12.67c0.551-1.074,0.18-2.411-0.848-3.043l-10.52-6.494
		c-1.025-0.635-2.389-0.367-3.1,0.605l-8.412,11.499l-2.289,1.406c-0.506,0.311-0.811,0.85-0.811,1.44
		C421.079,326.265,421.38,326.803,421.884,327.115z"/>
	<path class="fil3" d="M400.97,313.866l15.67,10.066c0.5,0.321,1.117,0.358,1.65,0.102
		c0.533-0.258,0.891-0.764,0.951-1.352l0.277-2.675l6.738-12.553c0.568-1.063,0.223-2.405-0.793-3.059l-10.4-6.682
		c-1.014-0.651-2.379-0.41-3.109,0.55l-8.613,11.347l-2.316,1.364c-0.51,0.302-0.822,0.836-0.834,1.429
		C400.179,313,400.47,313.545,400.97,313.866z"/>
	<path class="fil3" d="M380.308,300.256l15.488,10.347c0.492,0.33,1.107,0.378,1.648,0.131
		c0.537-0.247,0.902-0.747,0.977-1.335l0.324-2.668l6.961-12.431c0.59-1.054,0.268-2.401-0.736-3.071l-10.279-6.866
		c-1.002-0.67-2.371-0.453-3.117,0.495l-8.816,11.188l-2.342,1.323c-0.516,0.291-0.838,0.819-0.857,1.412
		C379.534,299.377,379.814,299.927,380.308,300.256z"/>
	<path class="fil3" d="M359.907,286.291l15.303,10.62c0.486,0.339,1.102,0.396,1.645,0.161
		c0.543-0.238,0.918-0.73,1-1.317l0.373-2.662l7.184-12.304c0.607-1.043,0.309-2.396-0.684-3.084l-10.154-7.049
		c-0.99-0.688-2.363-0.494-3.129,0.438l-9.016,11.031l-2.363,1.28c-0.52,0.281-0.852,0.806-0.885,1.396
		C359.148,285.398,359.421,285.952,359.907,286.291z"/>
	<path class="fil3" d="M339.771,271.975l15.109,10.892c0.479,0.348,1.094,0.418,1.643,0.19
		c0.549-0.229,0.932-0.715,1.023-1.3l0.422-2.655l7.398-12.173c0.627-1.031,0.352-2.394-0.627-3.099l-10.027-7.229
		c-0.979-0.705-2.355-0.537-3.137,0.383l-9.211,10.869l-2.387,1.238c-0.523,0.271-0.863,0.79-0.908,1.382
		C339.029,271.067,339.288,271.627,339.771,271.975z"/>
	<path class="fil3" d="M319.904,257.311l14.912,11.157c0.475,0.355,1.088,0.438,1.641,0.222
		c0.551-0.221,0.941-0.698,1.045-1.281l0.471-2.647l7.613-12.039c0.645-1.021,0.395-2.385-0.57-3.105l-9.896-7.406
		c-0.967-0.723-2.348-0.578-3.143,0.327l-9.402,10.703l-2.408,1.197c-0.527,0.263-0.879,0.771-0.934,1.362
		C319.177,256.39,319.429,256.954,319.904,257.311z"/>
	<path class="fil3" d="M315.019,253.727c0.471,0.363,1.08,0.456,1.637,0.247s0.955-0.682,1.066-1.262l0.518-2.64
		l7.828-11.901c0.664-1.009,0.438-2.377-0.518-3.116l-9.766-7.581c-0.953-0.739-2.334-0.62-3.146,0.271l-9.59,10.533l-2.43,1.152
		c-0.534,0.255-0.895,0.759-0.958,1.35c-0.063,0.59,0.178,1.158,0.646,1.521L315.019,253.727z"/>
	<path class="fil3" d="M295.495,238.64c0.463,0.373,1.072,0.478,1.631,0.277c0.561-0.198,0.968-0.663,1.092-1.242
		l0.563-2.629l8.039-11.763c0.682-0.996,0.479-2.368-0.461-3.124l-9.628-7.754c-0.938-0.757-2.322-0.662-3.151,0.216l-9.776,10.36
		l-2.448,1.11c-0.538,0.243-0.905,0.741-0.98,1.329c-0.073,0.589,0.156,1.162,0.619,1.534L295.495,238.64z"/>
	<path class="fil3" d="M276.249,223.218c0.456,0.381,1.063,0.494,1.626,0.307c0.563-0.188,0.979-0.646,1.113-1.224
		l0.607-2.618l8.246-11.617c0.697-0.983,0.521-2.358-0.405-3.133l-9.489-7.923c-0.925-0.772-2.312-0.702-3.153,0.159l-9.96,10.188
		l-2.469,1.065c-0.543,0.235-0.92,0.727-1.005,1.313s0.137,1.165,0.592,1.546L276.249,223.218z"/>
	<path class="fil3" d="M257.285,207.462c0.449,0.389,1.056,0.514,1.62,0.335c0.565-0.18,0.989-0.63,1.134-1.203
		l0.655-2.606l8.451-11.47c0.716-0.972,0.562-2.351-0.352-3.14l-9.348-8.091c-0.911-0.788-2.298-0.743-3.156,0.104l-10.139,10.01
		l-2.486,1.021c-0.548,0.227-0.933,0.71-1.027,1.295c-0.096,0.587,0.114,1.167,0.563,1.556L257.285,207.462z"/>
	<path class="fil3" d="M238.607,191.379c0.441,0.396,1.046,0.53,1.614,0.362c0.566-0.168,1-0.61,1.153-1.184
		l0.701-2.596l8.653-11.316c0.73-0.959,0.604-2.341-0.295-3.146l-9.202-8.255c-0.897-0.806-2.283-0.783-3.157,0.048l-10.313,9.826
		l-2.506,0.979c-0.552,0.216-0.943,0.692-1.051,1.276c-0.104,0.584,0.094,1.169,0.536,1.563L238.607,191.379z"/>
	<path class="fil3" d="M220.22,174.968c0.436,0.404,1.035,0.552,1.606,0.395c0.571-0.159,1.012-0.595,1.175-1.163
		l0.748-2.582l8.854-11.162c0.75-0.945,0.646-2.328-0.238-3.149l-9.055-8.416c-0.884-0.819-2.271-0.824-3.157-0.009l-10.487,9.644
		l-2.521,0.935c-0.557,0.205-0.958,0.676-1.073,1.258c-0.116,0.582,0.073,1.17,0.508,1.573L220.22,174.968z"/>
	<path class="fil3" d="M202.129,158.24c0.427,0.412,1.023,0.569,1.6,0.421c0.574-0.146,1.021-0.574,1.196-1.142
		l0.793-2.569l9.049-11.003c0.767-0.932,0.686-2.315-0.183-3.151l-8.904-8.576c-0.868-0.836-2.255-0.864-3.158-0.064l-10.655,9.456
		l-2.536,0.891c-0.561,0.194-0.97,0.657-1.098,1.236c-0.125,0.58,0.054,1.171,0.481,1.583L202.129,158.24z"/>
	<path class="fil3" d="M184.336,141.196c0.42,0.419,1.015,0.587,1.592,0.449c0.576-0.139,1.03-0.559,1.216-1.12
		l0.841-2.556l9.24-10.842c0.782-0.918,0.728-2.305-0.127-3.154l-8.75-8.732c-0.854-0.852-2.238-0.905-3.156-0.121l-10.821,9.268
		l-2.552,0.844c-0.563,0.186-0.98,0.642-1.118,1.219c-0.138,0.578,0.031,1.172,0.452,1.591L184.336,141.196z"/>
	<path class="fil3" d="M166.845,123.84c0.413,0.428,1.005,0.604,1.584,0.478s1.042-0.539,1.235-1.099l0.885-2.539
		l9.433-10.677c0.799-0.904,0.769-2.291-0.071-3.157l-8.595-8.887c-0.838-0.866-2.223-0.942-3.152-0.176l-10.983,9.071l-2.566,0.798
		c-0.565,0.177-0.992,0.624-1.14,1.198c-0.146,0.575,0.012,1.173,0.424,1.601L166.845,123.84z"/>
	<path class="fil3" d="M163.031,89.418l-8.438-9.036c-0.822-0.882-2.206-0.981-3.149-0.23l-11.144,8.876
		l-2.581,0.753c-0.568,0.166-1.003,0.604-1.16,1.178c-0.155,0.572-0.009,1.172,0.396,1.606l12.709,13.614
		c0.406,0.436,0.994,0.622,1.576,0.506c0.581-0.117,1.051-0.521,1.255-1.075l0.93-2.524l9.62-10.507
		C163.86,91.688,163.852,90.299,163.031,89.418z"/>
	<path class="fil3" d="M132.799,88.213c0.396,0.44,0.981,0.641,1.565,0.532c0.583-0.106,1.061-0.501,1.273-1.054
		l0.974-2.507l9.805-10.336c0.83-0.875,0.85-2.263,0.041-3.157l-8.272-9.186c-0.808-0.896-2.188-1.021-3.146-0.288l-11.298,8.678
		l-2.595,0.708c-0.571,0.154-1.015,0.588-1.182,1.156c-0.167,0.569-0.029,1.173,0.366,1.612L132.799,88.213z"/>
	<path class="fil3" d="M560.447,419.867l-11.145-5.352c-1.086-0.521-2.412-0.115-3.02,0.928l-7.156,12.319
		l-2.131,1.64c-0.469,0.36-0.713,0.93-0.65,1.521c0.063,0.59,0.416,1.097,0.953,1.353l16.787,8.063
		c0.535,0.258,1.152,0.22,1.652-0.104c0.498-0.318,0.789-0.865,0.775-1.457l-0.051-2.688l5.143-13.286
		C562.042,421.683,561.532,420.392,560.447,419.867z"/>
	<path class="fil3" d="M538.738,411.933c0.455-1.117-0.033-2.416-1.109-2.957l-11.047-5.55
		c-1.076-0.543-2.41-0.157-3.035,0.873l-7.373,12.189l-2.158,1.604c-0.479,0.353-0.73,0.916-0.682,1.507
		c0.053,0.592,0.398,1.104,0.93,1.37l16.645,8.359c0.529,0.269,1.146,0.24,1.652-0.07c0.504-0.313,0.805-0.854,0.805-1.444
		l-0.004-2.689L538.738,411.933z"/>
	<path class="fil3" d="M515.036,397.685l-10.945-5.746c-1.068-0.562-2.406-0.199-3.051,0.821l-7.588,12.058
		l-2.189,1.563c-0.48,0.347-0.744,0.902-0.705,1.496c0.041,0.592,0.379,1.109,0.904,1.385l16.49,8.656
		c0.525,0.275,1.145,0.26,1.654-0.043c0.51-0.305,0.818-0.84,0.828-1.432l0.045-2.688l5.609-13.094
		C516.57,399.551,516.105,398.242,515.036,397.685z"/>
	<path class="fil3" d="M492.679,385.996l-10.844-5.938c-1.057-0.578-2.4-0.242-3.063,0.768l-7.801,11.92
		l-2.217,1.525c-0.486,0.334-0.762,0.889-0.73,1.479c0.029,0.594,0.357,1.115,0.879,1.4l16.336,8.947
		c0.521,0.284,1.141,0.278,1.654-0.015c0.516-0.295,0.834-0.821,0.855-1.416l0.09-2.688l5.846-12.992
		C494.179,387.894,493.738,386.576,492.679,385.996z"/>
	<path class="fil3" d="M470.558,373.926l-10.734-6.129c-1.047-0.6-2.396-0.285-3.076,0.711l-8.01,11.779
		l-2.242,1.486c-0.492,0.325-0.777,0.875-0.758,1.469s0.338,1.121,0.854,1.416l16.176,9.234c0.516,0.295,1.133,0.299,1.654,0.016
		c0.52-0.285,0.848-0.81,0.879-1.398l0.139-2.688l6.072-12.887C472.025,375.846,471.605,374.522,470.558,373.926z"/>
	<path class="fil3" d="M448.681,361.467l-10.625-6.315c-1.037-0.617-2.395-0.328-3.09,0.658l-8.217,11.637
		l-2.27,1.445c-0.5,0.315-0.793,0.86-0.783,1.455c0.01,0.594,0.318,1.129,0.828,1.432l16.012,9.518
		c0.51,0.306,1.127,0.32,1.652,0.047c0.525-0.276,0.863-0.795,0.904-1.387l0.188-2.682l6.297-12.779
		C450.113,363.412,449.718,362.082,448.681,361.467z"/>
	<path class="fil3" d="M427.052,348.629l-10.514-6.502c-1.025-0.635-2.389-0.369-3.102,0.604l-8.422,11.489
		l-2.291,1.404c-0.506,0.31-0.809,0.849-0.811,1.441c-0.002,0.594,0.299,1.133,0.805,1.444l15.84,9.8
		c0.504,0.313,1.121,0.34,1.652,0.071c0.527-0.266,0.877-0.776,0.928-1.367l0.232-2.68l6.521-12.664
		C428.447,350.601,428.075,349.265,427.052,348.629z"/>
	<path class="fil3" d="M405.671,335.418l-10.396-6.688c-1.014-0.654-2.381-0.412-3.109,0.547l-8.619,11.342
		l-2.318,1.365c-0.51,0.299-0.82,0.834-0.834,1.426c-0.012,0.596,0.279,1.141,0.777,1.463l15.666,10.072
		c0.5,0.322,1.115,0.358,1.65,0.104c0.533-0.258,0.891-0.766,0.951-1.354l0.279-2.674l6.744-12.549
		C407.034,337.412,406.685,336.07,405.671,335.418z"/>
	<path class="fil3" d="M384.548,321.834l-10.277-6.868c-1.002-0.67-2.373-0.453-3.119,0.494l-8.818,11.188
		l-2.34,1.321c-0.518,0.291-0.838,0.818-0.859,1.412c-0.021,0.595,0.26,1.146,0.752,1.476l15.484,10.348
		c0.494,0.33,1.109,0.381,1.65,0.133c0.539-0.248,0.902-0.746,0.975-1.334l0.328-2.67l6.963-12.428
		C385.874,323.854,385.55,322.504,384.548,321.834z"/>
	<path class="fil3" d="M363.685,307.886l-10.154-7.047c-0.992-0.688-2.365-0.495-3.131,0.438l-9.012,11.031
		l-2.365,1.281c-0.52,0.281-0.852,0.807-0.883,1.396c-0.033,0.593,0.238,1.146,0.729,1.484l15.303,10.619
		c0.486,0.338,1.102,0.398,1.645,0.16c0.545-0.238,0.918-0.729,1-1.315l0.373-2.662l7.182-12.306
		C364.976,309.928,364.677,308.574,363.685,307.886z"/>
	<path class="fil3" d="M343.089,293.576l-10.031-7.225c-0.979-0.705-2.355-0.536-3.137,0.386l-9.205,10.871
		l-2.387,1.241c-0.523,0.271-0.863,0.79-0.906,1.381c-0.045,0.593,0.219,1.151,0.697,1.499l15.115,10.885
		c0.482,0.347,1.098,0.418,1.646,0.188c0.547-0.229,0.93-0.716,1.021-1.301l0.42-2.655l7.395-12.178
		C344.343,295.64,344.066,294.282,343.089,293.576z"/>
	<path class="fil3" d="M322.759,278.909l-9.902-7.396c-0.967-0.724-2.346-0.576-3.143,0.329l-9.394,10.71
		l-2.406,1.197c-0.529,0.267-0.879,0.774-0.935,1.365c-0.053,0.591,0.199,1.156,0.675,1.511l14.923,11.147
		c0.475,0.354,1.088,0.436,1.641,0.218c0.551-0.219,0.939-0.698,1.043-1.282l0.467-2.646l7.605-12.046
		C323.978,280.994,323.724,279.63,322.759,278.909z"/>
	<path class="fil3" d="M302.704,263.892l-9.771-7.57c-0.953-0.739-2.335-0.618-3.146,0.275l-9.577,10.544
		l-2.43,1.154c-0.534,0.255-0.893,0.761-0.956,1.351s0.18,1.158,0.647,1.521l14.725,11.406c0.47,0.364,1.081,0.456,1.636,0.247
		c0.557-0.209,0.954-0.682,1.066-1.263l0.514-2.642l7.814-11.911C303.888,265.996,303.659,264.629,302.704,263.892z"/>
	<path class="fil3" d="M282.929,248.523l-9.64-7.738c-0.94-0.756-2.323-0.659-3.15,0.221l-9.763,10.375
		l-2.446,1.113c-0.539,0.246-0.905,0.744-0.979,1.332c-0.074,0.589,0.158,1.162,0.621,1.533l14.521,11.661
		c0.463,0.371,1.072,0.475,1.632,0.273c0.56-0.199,0.967-0.664,1.088-1.244l0.561-2.631l8.021-11.771
		C284.076,250.65,283.87,249.279,282.929,248.523z"/>
	<path class="fil3" d="M263.437,232.814l-9.502-7.906c-0.927-0.771-2.313-0.699-3.154,0.165l-9.939,10.204
		l-2.467,1.069c-0.543,0.234-0.919,0.729-1.003,1.313c-0.084,0.588,0.139,1.164,0.595,1.544l14.316,11.912
		c0.456,0.38,1.063,0.493,1.626,0.304c0.563-0.188,0.979-0.646,1.11-1.225l0.604-2.62l8.227-11.632
		C264.547,234.959,264.365,233.584,263.437,232.814z"/>
	<path class="fil3" d="M244.235,216.765l-9.364-8.07c-0.913-0.787-2.299-0.739-3.155,0.109l-10.118,10.027
		l-2.482,1.028c-0.548,0.226-0.933,0.712-1.025,1.297c-0.095,0.586,0.117,1.167,0.566,1.554l14.107,12.16
		c0.448,0.39,1.057,0.512,1.62,0.332c0.565-0.18,0.988-0.631,1.132-1.206l0.649-2.607l8.428-11.485
		C245.304,218.931,245.147,217.552,244.235,216.765z"/>
	<path class="fil3" d="M225.323,200.38l-9.222-8.23c-0.899-0.803-2.287-0.779-3.158,0.056l-10.29,9.854
		l-2.502,0.982c-0.552,0.218-0.943,0.694-1.049,1.278c-0.104,0.585,0.098,1.169,0.54,1.563l13.896,12.403
		c0.442,0.396,1.047,0.528,1.614,0.358c0.568-0.17,0.999-0.613,1.152-1.188l0.693-2.598l8.626-11.338
		C226.355,202.565,226.222,201.185,225.323,200.38z"/>
	<path class="fil3" d="M206.708,183.668l-9.075-8.392c-0.888-0.818-2.272-0.818-3.159,0l-10.46,9.672l-2.521,0.939
		c-0.556,0.207-0.955,0.679-1.068,1.261c-0.114,0.582,0.075,1.17,0.513,1.572l13.677,12.645c0.438,0.401,1.037,0.548,1.608,0.389
		c0.57-0.16,1.01-0.597,1.172-1.166l0.741-2.584l8.819-11.188C207.702,185.869,207.594,184.488,206.708,183.668z"/>
	<path class="fil3" d="M188.395,166.63l-8.93-8.549c-0.871-0.834-2.259-0.855-3.159-0.055l-10.627,9.488
		l-2.533,0.896c-0.559,0.198-0.968,0.662-1.093,1.242c-0.124,0.58,0.059,1.171,0.484,1.582l13.455,12.879
		c0.43,0.411,1.026,0.565,1.602,0.416c0.573-0.149,1.021-0.579,1.192-1.146l0.785-2.569l9.016-11.032
		C189.351,168.85,189.267,167.463,188.395,166.63z"/>
	<path class="fil3" d="M170.388,149.272l-8.778-8.702c-0.855-0.851-2.242-0.896-3.156-0.109l-10.791,9.302
		l-2.55,0.854c-0.563,0.188-0.979,0.645-1.113,1.223c-0.134,0.577,0.036,1.172,0.458,1.591l13.229,13.109
		c0.423,0.418,1.019,0.584,1.595,0.444c0.577-0.142,1.028-0.563,1.213-1.124l0.83-2.559l9.205-10.873
		C171.305,151.506,171.246,150.12,170.388,149.272z"/>
	<path class="fil3" d="M152.694,131.597l-8.628-8.854c-0.842-0.863-2.227-0.936-3.153-0.165l-10.949,9.113
		l-2.565,0.808c-0.563,0.18-0.988,0.628-1.134,1.203c-0.146,0.576,0.017,1.172,0.431,1.599l12.999,13.341
		c0.414,0.425,1.007,0.601,1.586,0.471c0.578-0.13,1.039-0.542,1.231-1.104l0.874-2.542l9.394-10.711
		C153.572,133.849,153.535,132.461,152.694,131.597z"/>
	<path class="fil3" d="M135.312,113.611l-8.472-9.002c-0.826-0.878-2.21-0.976-3.151-0.22l-11.105,8.922
		l-2.577,0.763c-0.568,0.168-1,0.61-1.155,1.185c-0.153,0.571-0.005,1.172,0.401,1.604l12.766,13.563
		c0.407,0.434,0.996,0.617,1.578,0.498c0.58-0.119,1.048-0.523,1.25-1.08l0.919-2.526l9.577-10.546
		C136.152,115.875,136.139,114.489,135.312,113.611z"/>
	<path class="fil3" d="M118.254,95.318l-8.314-9.146c-0.811-0.895-2.192-1.015-3.146-0.274l-11.262,8.729
		l-2.591,0.718c-0.57,0.158-1.011,0.594-1.176,1.163c-0.164,0.568-0.024,1.172,0.374,1.61l12.526,13.783
		c0.398,0.438,0.984,0.638,1.567,0.525c0.583-0.111,1.059-0.506,1.271-1.061l0.963-2.511l9.76-10.378
		C119.052,97.597,119.063,96.211,118.254,95.318z"/>
</g>
<text transform="matrix(0.9113 0.4117 -0.4117 0.9113 611.1917 335.3848)" class="fil2">5</text>
<text transform="matrix(0.9113 0.4117 -0.4117 0.9113 596.1477 368.6816)" class="fil2">6</text>
<text transform="matrix(0.9113 0.4117 -0.4117 0.9113 581.1038 401.9795)" class="fil2">7</text>
<text transform="matrix(0.9113 0.4117 -0.4117 0.9113 566.0598 435.2764)" class="fil2">8</text>
<text transform="matrix(0.6416 0.767 -0.767 0.6416 173.9514 11.5981)" class="fil2">5</text>
<text transform="matrix(0.6416 0.767 -0.767 0.6416 145.928 35.0435)" class="fil2">6</text>
<text transform="matrix(0.6416 0.767 -0.767 0.6416 117.9026 58.4878)" class="fil2">7</text>
<text transform="matrix(0.6416 0.767 -0.767 0.6416 89.8792 81.9321)" class="fil2">8</text>
<text transform="matrix(1 0 0 1 274.2859 120.6211)" class="fil1">7</text>
<text transform="matrix(1 0 0 1 280.4382 120.6211)" class="fil1">3</text>
<text transform="matrix(1 0 0 1 255.8542 103.0381)" class="fil1">7</text>
<text transform="matrix(1 0 0 1 262.0066 103.0381)" class="fil1">4</text>
<text transform="matrix(1 0 0 1 237.7419 86.083)" class="fil1">7</text>
<text transform="matrix(1 0 0 1 243.8948 86.083)" class="fil1">5</text>
<text transform="matrix(1 0 0 1 219.7664 68.3652)" class="fil1">7</text>
<text transform="matrix(1 0 0 1 225.9187 68.3652)" class="fil1">6</text>
<text transform="matrix(1 0 0 1 202.1707 50.3516)" class="fil1">7</text>
<text transform="matrix(1 0 0 1 208.3235 50.3516)" class="fil1">7</text>
<text transform="matrix(1 0 0 1 173.5769 73.2246)" class="fil1">7</text>
<text transform="matrix(1 0 0 1 179.7283 73.2246)" class="fil1">9</text>
<text transform="matrix(1 0 0 1 185.0564 31.0957)" class="fil1">7</text>
<text transform="matrix(1 0 0 1 191.2078 31.0957)" class="fil1">8</text>
<text transform="matrix(1 0 0 1 244.4734 142.8301)" class="fil1">7</text>
<text transform="matrix(1 0 0 1 250.6248 142.8301)" class="fil1">5</text>
<text transform="matrix(1 0 0 1 226.4841 126.084)" class="fil1">7</text>
<text transform="matrix(1 0 0 1 232.6365 126.084)" class="fil1">6</text>
<text transform="matrix(1 0 0 1 208.6433 109.1045)" class="fil1">7</text>
<text transform="matrix(1 0 0 1 214.7947 109.1045)" class="fil1">7</text>
<text transform="matrix(1 0 0 1 190.9128 90.9805)" class="fil1">7</text>
<text transform="matrix(1 0 0 1 197.0642 90.9805)" class="fil1">8</text>
<text transform="matrix(1 0 0 1 156.5105 54.9043)" class="fil1">8</text>
<text transform="matrix(1 0 0 1 162.6619 54.9043)" class="fil1">0</text>
<text transform="matrix(1 0 0 1 214.8074 165.3838)" class="fil1">7</text>
<text transform="matrix(1 0 0 1 220.9597 165.3838)" class="fil1">9</text>
<text transform="matrix(1 0 0 1 289.0271 229.1318)" class="fil1">7</text>
<text transform="matrix(1 0 0 1 295.1785 229.1318)" class="fil1">5</text>
<text transform="matrix(1 0 0 1 270.0408 213.543)" class="fil1">7</text>
<text transform="matrix(1 0 0 1 276.1931 213.543)" class="fil1">6</text>
<text transform="matrix(1 0 0 1 251.5847 198.0264)" class="fil1">7</text>
<text transform="matrix(1 0 0 1 257.7371 198.0264)" class="fil1">7</text>
<text transform="matrix(1 0 0 1 233.116 181.5762)" class="fil1">7</text>
<text transform="matrix(1 0 0 1 239.2683 181.5762)" class="fil1">8</text>
<text transform="matrix(1 0 0 1 196.6462 148.3418)" class="fil1">8</text>
<text transform="matrix(1 0 0 1 202.7986 148.3418)" class="fil1">0</text>
<text transform="matrix(1 0 0 1 207.991 208.5098)" class="fil1">7</text>
<text transform="matrix(1 0 0 1 214.1433 208.5098)" class="fil1">9</text>
<text transform="matrix(1 0 0 1 246.3923 241.8301)" class="fil1">7</text>
<text transform="matrix(1 0 0 1 252.5447 241.8301)" class="fil1">7</text>
<text transform="matrix(1 0 0 1 226.6941 225.1943)" class="fil1">7</text>
<text transform="matrix(1 0 0 1 232.8455 225.1943)" class="fil1">8</text>
<text transform="matrix(1 0 0 1 188.9319 191.4434)" class="fil1">8</text>
<text transform="matrix(1 0 0 1 195.0837 191.4434)" class="fil1">0</text>
<text transform="matrix(1 0 0 1 179.4207 131.3623)" class="fil1">8</text>
<text transform="matrix(1 0 0 1 185.573 131.3623)" class="fil1">1</text>
<text transform="matrix(1 0 0 1 161.7644 114.0996)" class="fil1">8</text>
<text transform="matrix(1 0 0 1 167.9158 114.0996)" class="fil1">2</text>
<text transform="matrix(1 0 0 1 145.0671 96.6279)" class="fil1">8</text>
<text transform="matrix(1 0 0 1 151.2195 96.6279)" class="fil1">3</text>
<text transform="matrix(1 0 0 1 128.2605 78.4541)" class="fil1">8</text>
<text transform="matrix(1 0 0 1 134.4119 78.4541)" class="fil1">4</text>
<text transform="matrix(1 0 0 1 171.1892 174.0332)" class="fil1">8</text>
<text transform="matrix(1 0 0 1 177.3406 174.0332)" class="fil1">1</text>
<text transform="matrix(1 0 0 1 152.3757 156.4385)" class="fil1">8</text>
<text transform="matrix(1 0 0 1 158.5281 156.4385)" class="fil1">2</text>
<text transform="matrix(1 0 0 1 134.8181 138.9785)" class="fil1">8</text>
<text transform="matrix(1 0 0 1 140.97 138.9785)" class="fil1">3</text>
<text transform="matrix(1 0 0 1 117.4319 120.6455)" class="fil1">8</text>
<text transform="matrix(1 0 0 1 123.5837 120.6455)" class="fil1">4</text>
<text transform="matrix(1 0 0 1 100.071 101.8818)" class="fil1">8</text>
<text transform="matrix(1 0 0 1 106.2234 101.8818)" class="fil1">5</text>
<text transform="matrix(1 0 0 1 499.2551 283.1719)" class="fil1">6</text>
<text transform="matrix(1 0 0 1 505.4075 283.1719)" class="fil1">2</text>
<text transform="matrix(1 0 0 1 477.6614 270.5967)" class="fil1">6</text>
<text transform="matrix(1 0 0 1 483.8137 270.5967)" class="fil1">3</text>
<text transform="matrix(1 0 0 1 455.8352 257.21)" class="fil1">6</text>
<text transform="matrix(1 0 0 1 461.9866 257.21)" class="fil1">4</text>
<text transform="matrix(1 0 0 1 434.7454 243.7852)" class="fil1">6</text>
<text transform="matrix(1 0 0 1 440.8977 243.7852)" class="fil1">5</text>
<text transform="matrix(1 0 0 1 413.6321 229.3535)" class="fil1">6</text>
<text transform="matrix(1 0 0 1 419.7825 229.3535)" class="fil1">6</text>
<text transform="matrix(1 0 0 1 393.0579 215.2773)" class="fil1">6</text>
<text transform="matrix(1 0 0 1 399.2102 215.2773)" class="fil1">7</text>
<text transform="matrix(1 0 0 1 372.2766 200.1426)" class="fil1">6</text>
<text transform="matrix(1 0 0 1 378.429 200.1426)" class="fil1">8</text>
<text transform="matrix(1 0 0 1 313.0813 153.4111)" class="fil1">7</text>
<text transform="matrix(1 0 0 1 319.2336 153.4111)" class="fil1">1</text>
<text transform="matrix(1 0 0 1 293.4812 137.0098)" class="fil1">7</text>
<text transform="matrix(1 0 0 1 299.6326 137.0098)" class="fil1">2</text>
<text transform="matrix(1 0 0 1 332.4231 169.2471)" class="fil1">7</text>
<text transform="matrix(1 0 0 1 338.5754 169.2471)" class="fil1">0</text>
<text transform="matrix(1 0 0 1 281.9646 175.7676)" class="fil1">7</text>
<text transform="matrix(1 0 0 1 288.116 175.7676)" class="fil1">3</text>
<text transform="matrix(1 0 0 1 262.8191 159.3047)" class="fil1">7</text>
<text transform="matrix(1 0 0 1 268.9705 159.3047)" class="fil1">4</text>
<text transform="matrix(1 0 0 1 321.0286 207.0332)" class="fil1">7</text>
<text transform="matrix(1 0 0 1 327.1819 207.0332)" class="fil1">1</text>
<text transform="matrix(1 0 0 1 300.9001 191.3086)" class="fil1">7</text>
<text transform="matrix(1 0 0 1 307.0525 191.3086)" class="fil1">2</text>
<text transform="matrix(1 0 0 1 340.0403 222.168)" class="fil1">7</text>
<text transform="matrix(1 0 0 1 346.1907 222.168)" class="fil1">0</text>
<text transform="matrix(1 0 0 1 328.1282 258.7852)" class="fil1">7</text>
<text transform="matrix(1 0 0 1 334.2805 258.7852)" class="fil1">3</text>
<text transform="matrix(1 0 0 1 308.3435 243.7734)" class="fil1">7</text>
<text transform="matrix(1 0 0 1 314.4954 243.7734)" class="fil1">4</text>
<text transform="matrix(1 0 0 1 368.2532 287.3926)" class="fil1">7</text>
<text transform="matrix(1 0 0 1 374.4055 287.3926)" class="fil1">1</text>
<text transform="matrix(1 0 0 1 347.5696 272.959)" class="fil1">7</text>
<text transform="matrix(1 0 0 1 353.7219 272.959)" class="fil1">2</text>
<text transform="matrix(1 0 0 1 285.3591 272.959)" class="fil1">7</text>
<text transform="matrix(1 0 0 1 291.5115 272.959)" class="fil1">5</text>
<text transform="matrix(1 0 0 1 265.636 257.4316)" class="fil1">7</text>
<text transform="matrix(1 0 0 1 271.7878 257.4316)" class="fil1">6</text>
<text transform="matrix(1 0 0 1 326.2219 302.8711)" class="fil1">7</text>
<text transform="matrix(1 0 0 1 332.3743 302.8711)" class="fil1">3</text>
<text transform="matrix(1 0 0 1 305.2058 288.167)" class="fil1">7</text>
<text transform="matrix(1 0 0 1 311.3582 288.167)" class="fil1">4</text>
<text transform="matrix(1 0 0 1 346.8069 317.082)" class="fil1">7</text>
<text transform="matrix(1 0 0 1 352.9583 317.082)" class="fil1">2</text>
<text transform="matrix(1 0 0 1 388.1848 301.1113)" class="fil1">7</text>
<text transform="matrix(1 0 0 1 394.3372 301.1113)" class="fil1">0</text>
<text transform="matrix(1 0 0 1 352.0598 185.1074)" class="fil1">6</text>
<text transform="matrix(1 0 0 1 358.2122 185.1074)" class="fil1">9</text>
<text transform="matrix(1 0 0 1 463.7825 305.1465)" class="fil1">6</text>
<text transform="matrix(1 0 0 1 469.9348 305.1465)" class="fil1">4</text>
<text transform="matrix(1 0 0 1 515.4114 375.4043)" class="fil1">6</text>
<text transform="matrix(1 0 0 1 521.5637 375.4043)" class="fil1">4</text>
<text transform="matrix(1 0 0 1 442.4836 292.5098)" class="fil1">6</text>
<text transform="matrix(1 0 0 1 448.636 292.5098)" class="fil1">5</text>
<text transform="matrix(1 0 0 1 421.5911 279.0996)" class="fil1">6</text>
<text transform="matrix(1 0 0 1 427.7434 279.0996)" class="fil1">6</text>
<text transform="matrix(1 0 0 1 401.0559 265.9336)" class="fil1">6</text>
<text transform="matrix(1 0 0 1 407.2083 265.9336)" class="fil1">7</text>
<text transform="matrix(1 0 0 1 380.1145 251.3037)" class="fil1">6</text>
<text transform="matrix(1 0 0 1 386.2668 251.3037)" class="fil1">8</text>
<text transform="matrix(1 0 0 1 359.9348 236.6621)" class="fil1">6</text>
<text transform="matrix(1 0 0 1 366.0872 236.6621)" class="fil1">9</text>
<text transform="matrix(1 0 0 1 429.6399 327.0117)" class="fil1">6</text>
<text transform="matrix(1 0 0 1 435.7903 327.0117)" class="fil1">8</text>
<text transform="matrix(1 0 0 1 408.6848 314.1904)" class="fil1">6</text>
<text transform="matrix(1 0 0 1 414.8372 314.1904)" class="fil1">9</text>
<text transform="matrix(1.0103 0 0 1 368.177 331.5039)" class="fil1">7</text>
<text transform="matrix(1.0103 0 0 1 374.3958 331.5039)" class="fil1">1</text>
<text transform="matrix(1.0103 0 0 1 388.7122 345.666)" class="fil1">7</text>
<text transform="matrix(1.0103 0 0 1 394.929 345.666)" class="fil1">0</text>
<text transform="matrix(1.0103 0 0 1 431.7493 371.8379)" class="fil1">6</text>
<text transform="matrix(1.0103 0 0 1 437.9622 371.8379)" class="fil1">8</text>
<text transform="matrix(1.0103 0 0 1 409.9329 358.8066)" class="fil1">6</text>
<text transform="matrix(1.0103 0 0 1 416.1477 358.8066)" class="fil1">9</text>
<text transform="matrix(1 0 0 1 544.2278 308.0059)" class="fil1">6</text>
<text transform="matrix(1 0 0 1 550.3801 308.0059)" class="fil1">0</text>
<text transform="matrix(1 0 0 1 590.011 330.9395)" class="fil1">5</text>
<text transform="matrix(1 0 0 1 596.1633 330.9395)" class="fil1">8</text>
<text transform="matrix(1 0 0 1 574.927 364.125)" class="fil1">5</text>
<text transform="matrix(1 0 0 1 581.0793 364.125)" class="fil1">9</text>
<text transform="matrix(1 0 0 1 567.1262 319.5469)" class="fil1">5</text>
<text transform="matrix(1 0 0 1 573.2786 319.5469)" class="fil1">9</text>
<text transform="matrix(1 0 0 1 559.509 397.4941)" class="fil1">6</text>
<text transform="matrix(1 0 0 1 565.6614 397.4941)" class="fil1">2</text>
<text transform="matrix(1 0 0 1 544.2278 431.1582)" class="fil1">6</text>
<text transform="matrix(1 0 0 1 550.3801 431.1582)" class="fil1">3</text>
<text transform="matrix(1 0 0 1 522.1165 296.0088)" class="fil1">6</text>
<text transform="matrix(1 0 0 1 528.2698 296.0088)" class="fil1">1</text>
<text transform="matrix(1 0 0 1 507.3391 329.9063)" class="fil1">6</text>
<text transform="matrix(1 0 0 1 513.4915 329.9063)" class="fil1">2</text>
<text transform="matrix(1 0 0 1 486.0403 317.8359)" class="fil1">6</text>
<text transform="matrix(1 0 0 1 492.1926 317.8359)" class="fil1">3</text>
<text transform="matrix(1 0 0 1 493.7922 363.9277)" class="fil1">6</text>
<text transform="matrix(1 0 0 1 499.9446 363.9277)" class="fil1">5</text>
<text transform="matrix(1 0 0 1 472.0637 352.043)" class="fil1">6</text>
<text transform="matrix(1 0 0 1 478.2161 352.043)" class="fil1">6</text>
<text transform="matrix(1 0 0 1 450.8508 340.2051)" class="fil1">6</text>
<text transform="matrix(1 0 0 1 457.0032 340.2051)" class="fil1">7</text>
<text transform="matrix(1 0 0 1 521.2317 419.752)" class="fil1">6</text>
<text transform="matrix(1 0 0 1 527.384 419.752)" class="fil1">4</text>
<text transform="matrix(1 0 0 1 498.5168 408.6035)" class="fil1">6</text>
<text transform="matrix(1 0 0 1 504.6692 408.6035)" class="fil1">5</text>
<text transform="matrix(1 0 0 1 476.4075 396.5957)" class="fil1">6</text>
<text transform="matrix(1 0 0 1 482.5598 396.5957)" class="fil1">6</text>
<text transform="matrix(1 0 0 1 454.1848 384.7949)" class="fil1">6</text>
<text transform="matrix(1 0 0 1 460.3372 384.7949)" class="fil1">7</text>
<text transform="matrix(1 0 0 1 537.6321 386.8496)" class="fil1">6</text>
<text transform="matrix(1 0 0 1 543.7844 386.8496)" class="fil1">3</text>
<text transform="matrix(1 0 0 1 551.9309 353.2363)" class="fil1">6</text>
<text transform="matrix(1 0 0 1 558.0833 353.2363)" class="fil1">0</text>
<text transform="matrix(1 0 0 1 530.1516 341.7188)" class="fil1">6</text>
<text transform="matrix(1 0 0 1 536.304 341.7188)" class="fil1">1</text>
<g>
<path class="fil0" d="M605.911,319.197l-11.197-5.234c-1.094-0.512-2.412-0.091-3.01,0.96l-7.023,12.394   l-2.115,1.662c-0.465,0.364-0.701,0.938-0.635,1.524c0.066,0.59,0.428,1.092,0.967,1.344l16.871,7.89   c0.539,0.25,1.156,0.205,1.65-0.121s0.779-0.875,0.764-1.467l-0.08-2.688l5.004-13.338   C607.529,320.992,607.005,319.709,605.911,319.197z" id="e1z8r5m58" />
<path class="fil0" d="M583.081,308.25l-11.092-5.455c-1.082-0.533-2.412-0.138-3.027,0.899l-7.271,12.252   l-2.145,1.62c-0.473,0.355-0.723,0.922-0.666,1.512c0.057,0.592,0.406,1.103,0.939,1.363l16.713,8.219   c0.531,0.264,1.148,0.229,1.652-0.086c0.5-0.316,0.797-0.859,0.791-1.453l-0.027-2.688l5.268-13.237   C584.661,310.076,584.163,308.782,583.081,308.25z" id="e1z8r5m59" />
<path class="fil0" d="M555.204,317.094c0.51-0.308,0.814-0.845,0.82-1.438l0.025-2.688l5.525-13.131   c0.469-1.111-0.006-2.416-1.076-2.97l-10.982-5.675c-1.07-0.553-2.408-0.185-3.045,0.842l-7.51,12.105l-2.178,1.576   c-0.48,0.349-0.74,0.909-0.697,1.5c0.047,0.593,0.387,1.106,0.914,1.381l16.547,8.548   C554.079,317.42,554.697,317.4,555.204,317.094z" id="e1z8r5m60" />
<path class="fil0" d="M514.45,296.327l16.377,8.873c0.521,0.282,1.141,0.273,1.654-0.021   c0.514-0.296,0.83-0.826,0.85-1.419l0.078-2.688l5.783-13.02c0.488-1.104,0.043-2.416-1.018-2.989l-10.869-5.889   c-1.063-0.574-2.406-0.231-3.063,0.78l-7.746,11.956l-2.207,1.532c-0.486,0.339-0.76,0.896-0.729,1.485   C513.597,295.524,513.929,296.046,514.45,296.327z" id="e1z8r5m61" />
<path class="fil0" d="M492.167,283.632l16.199,9.191c0.518,0.293,1.135,0.296,1.654,0.012   c0.52-0.286,0.848-0.812,0.875-1.402l0.133-2.687l6.037-12.902c0.512-1.093,0.092-2.415-0.959-3.011l-10.752-6.1   c-1.047-0.598-2.398-0.279-3.074,0.72l-7.979,11.803l-2.236,1.489c-0.492,0.328-0.775,0.879-0.756,1.472   C491.329,282.811,491.652,283.339,492.167,283.632z" id="e1z8r5m62" />
<path class="fil0" d="M470.159,270.517l16.018,9.508c0.512,0.303,1.127,0.318,1.652,0.043   c0.525-0.274,0.863-0.794,0.904-1.384l0.184-2.685l6.291-12.781c0.531-1.083,0.137-2.411-0.898-3.027l-10.631-6.311   c-1.037-0.615-2.395-0.326-3.09,0.658l-8.209,11.646l-2.268,1.445c-0.498,0.316-0.791,0.862-0.783,1.456   C469.339,269.678,469.65,270.213,470.159,270.517z" id="e1z8r5m63" />
<path class="fil0" d="M448.431,256.986l15.828,9.819c0.504,0.313,1.121,0.342,1.65,0.074   c0.531-0.266,0.879-0.775,0.932-1.366l0.236-2.679l6.539-12.655c0.555-1.071,0.186-2.408-0.84-3.045l-10.506-6.519   c-1.023-0.636-2.387-0.373-3.102,0.601l-8.438,11.479l-2.293,1.401c-0.508,0.309-0.811,0.848-0.813,1.438   C447.628,256.133,447.927,256.673,448.431,256.986z" id="e1z8r5m64" />
<path class="fil0" d="M426.991,243.048l15.633,10.126c0.498,0.322,1.113,0.362,1.648,0.107   c0.535-0.256,0.896-0.76,0.957-1.349l0.289-2.674l6.785-12.526c0.574-1.062,0.23-2.404-0.781-3.061l-10.375-6.722   c-1.012-0.655-2.379-0.421-3.111,0.538l-8.656,11.313l-2.322,1.356c-0.512,0.299-0.824,0.83-0.84,1.424   C426.204,242.178,426.493,242.726,426.991,243.048z" id="e1z8r5m65" />
<path class="fil0" d="M405.841,228.706l15.432,10.432c0.492,0.331,1.107,0.385,1.648,0.14   c0.539-0.243,0.906-0.741,0.982-1.329l0.34-2.666l7.027-12.393c0.596-1.051,0.279-2.4-0.721-3.075l-10.242-6.922   c-0.998-0.677-2.369-0.467-3.121,0.478l-8.877,11.144l-2.348,1.311c-0.52,0.289-0.842,0.815-0.867,1.408   C405.072,227.822,405.349,228.375,405.841,228.706z" id="e1z8r5m66" />
<path class="fil0" d="M384.988,213.968l15.227,10.729c0.484,0.342,1.1,0.405,1.646,0.172   c0.545-0.233,0.922-0.725,1.008-1.311l0.395-2.66l7.27-12.252c0.615-1.038,0.324-2.396-0.66-3.089l-10.105-7.12   c-0.984-0.694-2.359-0.513-3.131,0.416l-9.094,10.969l-2.373,1.265c-0.521,0.278-0.855,0.799-0.895,1.392   C384.236,213.068,384.501,213.627,384.988,213.968z" id="e1z8r5m67" />
<path class="fil0" d="M364.437,198.837l15.014,11.021c0.479,0.354,1.094,0.429,1.645,0.205   c0.549-0.225,0.936-0.706,1.033-1.291l0.443-2.65l7.504-12.107c0.637-1.026,0.373-2.388-0.6-3.103l-9.965-7.315   c-0.973-0.713-2.354-0.558-3.141,0.355l-9.305,10.788l-2.396,1.219c-0.527,0.27-0.871,0.781-0.922,1.373   C363.7,197.924,363.958,198.486,364.437,198.837z" id="e1z8r5m68" />
<path class="fil0" d="M344.193,183.32l14.799,11.313c0.473,0.359,1.084,0.447,1.639,0.234   c0.553-0.212,0.949-0.688,1.059-1.271l0.496-2.644l7.738-11.961c0.654-1.013,0.418-2.38-0.541-3.11l-9.82-7.51   c-0.957-0.729-2.338-0.603-3.145,0.296l-9.514,10.605l-2.42,1.171c-0.531,0.258-0.889,0.767-0.947,1.354   C343.476,182.394,343.722,182.961,344.193,183.32z" id="e1z8r5m69" />
<path class="fil0" d="M338.839,179.021c0.463,0.367,1.072,0.469,1.631,0.267c0.561-0.201,0.965-0.669,1.084-1.249   l0.549-2.632l7.969-11.811c0.676-1,0.465-2.369-0.479-3.122l-9.674-7.694c-0.941-0.751-2.326-0.648-3.148,0.231l-9.717,10.419   l-2.441,1.125c-0.537,0.247-0.902,0.747-0.975,1.337c-0.07,0.59,0.162,1.16,0.627,1.53L338.839,179.021z" id="e1z8r5m70" />
<path class="fil0" d="M318.997,163.026c0.459,0.378,1.064,0.49,1.627,0.3s0.979-0.649,1.107-1.229l0.6-2.62   l8.197-11.652c0.693-0.985,0.508-2.359-0.42-3.13l-9.521-7.883c-0.93-0.77-2.313-0.692-3.154,0.172l-9.916,10.229l-2.463,1.076   c-0.543,0.236-0.916,0.729-1,1.316c-0.082,0.588,0.143,1.164,0.6,1.543L318.997,163.026z" id="e1z8r5m71" />
<path class="fil0" d="M299.477,146.658c0.45,0.388,1.057,0.512,1.621,0.331c0.565-0.182,0.987-0.633,1.131-1.207   l0.648-2.608l8.422-11.489c0.713-0.976,0.555-2.354-0.359-3.14l-9.367-8.064c-0.914-0.786-2.3-0.737-3.157,0.11l-10.11,10.034   l-2.483,1.029c-0.547,0.227-0.932,0.712-1.023,1.297c-0.096,0.586,0.116,1.167,0.566,1.555L299.477,146.658z" id="e1z8r5m72" />
<path class="fil0" d="M280.282,129.921c0.442,0.396,1.046,0.53,1.614,0.361c0.567-0.169,1-0.611,1.152-1.184   l0.699-2.599l8.644-11.325c0.729-0.959,0.602-2.341-0.298-3.146l-9.211-8.245c-0.896-0.805-2.284-0.782-3.157,0.05l-10.306,9.838   l-2.504,0.98c-0.552,0.216-0.942,0.693-1.05,1.276c-0.104,0.584,0.097,1.169,0.538,1.563L280.282,129.921z" id="e1z8r5m73" />
<path class="fil0" d="M273.572,95.164l-9.051-8.423c-0.882-0.82-2.269-0.825-3.156-0.01l-10.494,9.635   l-2.521,0.933c-0.555,0.206-0.957,0.678-1.073,1.259c-0.115,0.58,0.072,1.17,0.508,1.573l13.634,12.689   c0.436,0.404,1.035,0.551,1.605,0.394c0.572-0.156,1.014-0.594,1.179-1.161l0.749-2.581l8.858-11.156   C274.557,97.368,274.453,95.986,273.572,95.164z" id="e1z8r5m74" />
<path class="fil0" d="M246.495,69.349c-0.866-0.84-2.254-0.87-3.157-0.072l-10.679,9.431l-2.539,0.884   c-0.561,0.194-0.972,0.656-1.1,1.235c-0.129,0.58,0.051,1.171,0.478,1.584l13.386,12.952c0.428,0.412,1.023,0.571,1.601,0.424   c0.573-0.146,1.021-0.572,1.197-1.138l0.8-2.568l9.073-10.979c0.77-0.934,0.69-2.315-0.177-3.154L246.495,69.349z" id="e1z8r5m75" />
<path class="fil0" d="M212.237,61.534c-0.563,0.184-0.982,0.638-1.122,1.214c-0.141,0.576,0.026,1.173,0.444,1.594   l13.135,13.208c0.418,0.421,1.012,0.592,1.59,0.455c0.577-0.137,1.034-0.555,1.222-1.115l0.848-2.551l9.285-10.807   c0.786-0.914,0.734-2.301-0.115-3.155l-8.716-8.768c-0.851-0.854-2.234-0.913-3.154-0.133l-10.858,9.223L212.237,61.534z" id="e1z8r5m76" />
<path class="fil0" d="M211.464,33.535c-0.834-0.872-2.219-0.957-3.152-0.193l-11.034,9.012l-2.571,0.783   c-0.566,0.174-0.995,0.618-1.146,1.191c-0.148,0.574,0.007,1.174,0.415,1.603l12.875,13.459c0.41,0.431,1.001,0.609,1.581,0.485   c0.58-0.125,1.044-0.532,1.242-1.091l0.897-2.534l9.49-10.623c0.805-0.898,0.78-2.287-0.054-3.158L211.464,33.535z" id="e1z8r5m77" />
<path class="fil0" d="M189.354,40.888c0.402,0.438,0.989,0.631,1.572,0.518c0.582-0.112,1.054-0.513,1.263-1.066   l0.946-2.518l9.695-10.438c0.82-0.886,0.824-2.271,0.008-3.157l-8.37-9.1c-0.815-0.887-2.199-0.998-3.147-0.255l-11.206,8.796   l-2.587,0.734c-0.568,0.162-1.009,0.6-1.169,1.17c-0.16,0.571-0.019,1.172,0.385,1.607L189.354,40.888z" id="e1z8r5m78" />
<path class="fil0" d="M590.79,352.799l-11.152-5.33c-1.088-0.521-2.414-0.108-3.02,0.935l-7.131,12.334   l-2.127,1.645c-0.471,0.361-0.713,0.931-0.65,1.521c0.064,0.592,0.422,1.096,0.955,1.354l16.807,8.031   c0.535,0.256,1.15,0.217,1.65-0.104c0.498-0.322,0.787-0.869,0.773-1.461l-0.057-2.688l5.117-13.295   C592.39,354.608,591.878,353.318,590.79,352.799z" id="e1z8r6m59" />
<path class="fil0" d="M568.327,342.056l-11.047-5.548c-1.078-0.541-2.41-0.155-3.035,0.875l-7.371,12.191   l-2.158,1.602c-0.477,0.354-0.729,0.918-0.68,1.511c0.053,0.59,0.396,1.104,0.93,1.366l16.646,8.359   c0.529,0.266,1.146,0.236,1.652-0.074c0.504-0.313,0.805-0.854,0.803-1.442l-0.006-2.689l5.377-13.193   C569.892,343.896,569.406,342.596,568.327,342.056z" id="e1z8r6m60" />
<path class="fil0" d="M522.509,342.445l16.48,8.68c0.523,0.277,1.145,0.263,1.652-0.041   c0.51-0.303,0.822-0.838,0.832-1.43l0.047-2.688l5.631-13.086c0.479-1.106,0.016-2.416-1.053-2.979l-10.938-5.76   c-1.066-0.564-2.406-0.205-3.053,0.813L524.505,338l-2.189,1.563c-0.482,0.342-0.748,0.901-0.709,1.494   S521.984,342.168,522.509,342.445z" id="e1z8r6m61" />
<path class="fil0" d="M500.3,330.433l16.309,8.998c0.521,0.286,1.139,0.282,1.654-0.011   c0.516-0.291,0.838-0.817,0.857-1.412l0.102-2.688l5.883-12.976c0.498-1.1,0.063-2.416-0.996-2.997l-10.822-5.973   c-1.057-0.582-2.4-0.25-3.064,0.759l-7.838,11.896l-2.221,1.518c-0.488,0.334-0.766,0.89-0.736,1.48   C499.452,329.621,499.781,330.147,500.3,330.433z" id="e1z8r6m62" />
<path class="fil0" d="M478.345,318.02l16.131,9.311c0.514,0.299,1.131,0.307,1.654,0.023   c0.52-0.281,0.852-0.806,0.885-1.396l0.15-2.686l6.135-12.857c0.52-1.089,0.105-2.414-0.938-3.018l-10.705-6.18   c-1.045-0.604-2.396-0.297-3.082,0.696l-8.064,11.743l-2.248,1.474c-0.496,0.324-0.781,0.873-0.766,1.466   C477.513,317.19,477.827,317.722,478.345,318.02z" id="e1z8r6m63" />
<path class="fil0" d="M456.644,305.211l15.949,9.62c0.508,0.307,1.125,0.327,1.652,0.057   c0.525-0.271,0.869-0.788,0.914-1.38l0.203-2.681l6.379-12.737c0.541-1.078,0.154-2.411-0.877-3.034l-10.586-6.386   c-1.031-0.623-2.393-0.343-3.094,0.64l-8.293,11.585l-2.273,1.43c-0.502,0.313-0.799,0.856-0.795,1.45   C455.831,304.367,456.138,304.904,456.644,305.211z" id="e1z8r6m64" />
<path class="fil0" d="M435.208,292.011l15.762,9.927c0.502,0.315,1.119,0.35,1.65,0.088   c0.533-0.263,0.885-0.771,0.939-1.361l0.254-2.676l6.625-12.611c0.563-1.067,0.201-2.408-0.818-3.051l-10.459-6.588   c-1.021-0.645-2.385-0.391-3.105,0.578l-8.514,11.422l-2.305,1.386c-0.508,0.306-0.814,0.843-0.82,1.436   C434.411,291.153,434.706,291.695,435.208,292.011z" id="e1z8r6m65" />
<path class="fil0" d="M414.04,278.425l15.566,10.229c0.496,0.326,1.111,0.37,1.648,0.119s0.896-0.754,0.967-1.342   l0.307-2.673l6.865-12.48c0.582-1.057,0.248-2.403-0.762-3.065l-10.33-6.788c-1.008-0.662-2.375-0.435-3.115,0.521l-8.73,11.256   l-2.33,1.341c-0.514,0.297-0.832,0.826-0.85,1.419C413.261,277.552,413.546,278.101,414.04,278.425z" id="e1z8r6m66" />
<path class="fil0" d="M393.146,264.461l15.365,10.524c0.488,0.336,1.105,0.392,1.646,0.15   c0.543-0.241,0.914-0.736,0.99-1.323l0.357-2.664l7.105-12.349c0.602-1.046,0.293-2.397-0.703-3.08l-10.197-6.984   c-0.994-0.683-2.367-0.479-3.125,0.458l-8.945,11.087l-2.355,1.296c-0.52,0.285-0.848,0.812-0.875,1.402   C392.382,263.572,392.657,264.125,393.146,264.461z" id="e1z8r6m67" />
<path class="fil0" d="M372.529,250.119l15.16,10.818c0.482,0.345,1.1,0.413,1.646,0.182   c0.547-0.229,0.926-0.719,1.016-1.304l0.41-2.657l7.34-12.209c0.621-1.033,0.34-2.392-0.643-3.093l-10.064-7.181   c-0.98-0.699-2.355-0.525-3.133,0.396l-9.158,10.913l-2.379,1.251c-0.525,0.274-0.861,0.793-0.902,1.386   C371.781,249.216,372.046,249.775,372.529,250.119z" id="e1z8r6m68" />
<path class="fil0" d="M352.191,235.407l14.951,11.107c0.479,0.354,1.09,0.433,1.643,0.214   c0.549-0.222,0.939-0.701,1.041-1.285l0.459-2.647l7.572-12.065c0.643-1.021,0.387-2.386-0.582-3.104l-9.924-7.371   c-0.967-0.72-2.346-0.57-3.141,0.338l-9.363,10.733l-2.404,1.205c-0.529,0.268-0.877,0.777-0.93,1.368   C351.464,234.49,351.716,235.054,352.191,235.407z" id="e1z8r6m69" />
<path class="fil0" d="M346.88,231.722c0.469,0.363,1.08,0.454,1.635,0.245c0.557-0.21,0.953-0.685,1.066-1.266   l0.51-2.64l7.803-11.919c0.66-1.01,0.432-2.378-0.521-3.115l-9.779-7.561c-0.955-0.737-2.336-0.615-3.146,0.277l-9.568,10.555   l-2.426,1.158c-0.533,0.256-0.893,0.76-0.955,1.351c-0.063,0.59,0.182,1.158,0.648,1.521L346.88,231.722z" id="e1z8r6m70" />
<path class="fil0" d="M326.902,216.564c0.463,0.372,1.07,0.475,1.631,0.275c0.561-0.198,0.967-0.664,1.09-1.244   l0.563-2.629l8.029-11.77c0.68-0.996,0.477-2.368-0.465-3.124l-9.633-7.746c-0.939-0.755-2.324-0.66-3.15,0.219l-9.771,10.368   l-2.447,1.112c-0.539,0.245-0.904,0.742-0.979,1.331s0.156,1.161,0.619,1.533L326.902,216.564z" id="e1z8r6m71" />
<path class="fil0" d="M307.216,201.045c0.455,0.381,1.064,0.495,1.627,0.309c0.563-0.188,0.979-0.646,1.111-1.225   l0.609-2.617l8.254-11.61c0.697-0.983,0.521-2.359-0.404-3.133l-9.482-7.931c-0.926-0.771-2.313-0.703-3.154,0.157l-9.965,10.181   l-2.469,1.065c-0.544,0.232-0.92,0.725-1.007,1.312c-0.085,0.589,0.136,1.166,0.592,1.547L307.216,201.045z" id="e1z8r6m72" />
<path class="fil0" d="M287.827,185.17c0.448,0.393,1.054,0.519,1.619,0.34c0.564-0.179,0.989-0.629,1.136-1.2   l0.661-2.606l8.474-11.452c0.718-0.97,0.565-2.349-0.345-3.14l-9.331-8.108c-0.909-0.791-2.296-0.748-3.156,0.1l-10.158,9.986   l-2.486,1.02c-0.549,0.224-0.936,0.708-1.03,1.293c-0.097,0.586,0.112,1.167,0.561,1.556L287.827,185.17z" id="e1z8r6m73" />
<path class="fil0" d="M268.74,168.947c0.439,0.396,1.043,0.535,1.612,0.369c0.567-0.167,1.002-0.607,1.158-1.181   l0.71-2.594l8.689-11.288c0.736-0.956,0.611-2.337-0.283-3.146l-9.175-8.284c-0.896-0.81-2.281-0.793-3.159,0.036l-10.346,9.793   l-2.508,0.97c-0.554,0.215-0.947,0.69-1.057,1.273c-0.106,0.584,0.092,1.169,0.53,1.565L268.74,168.947z" id="e1z8r6m74" />
<path class="fil0" d="M249.959,152.377c0.435,0.404,1.032,0.556,1.604,0.398c0.571-0.156,1.015-0.589,1.182-1.157   l0.761-2.578l8.903-11.12c0.754-0.941,0.655-2.325-0.225-3.149l-9.016-8.459c-0.88-0.825-2.267-0.835-3.158-0.023l-10.531,9.596   l-2.525,0.922c-0.557,0.203-0.96,0.672-1.079,1.253c-0.118,0.581,0.068,1.171,0.502,1.576L249.959,152.377z" id="e1z8r6m75" />
<path class="fil0" d="M231.49,135.465c0.425,0.414,1.021,0.574,1.599,0.431c0.574-0.146,1.024-0.569,1.202-1.135   l0.81-2.563l9.114-10.949c0.771-0.927,0.698-2.313-0.164-3.151l-8.853-8.63c-0.863-0.844-2.25-0.878-3.158-0.083l-10.712,9.392   l-2.543,0.873c-0.561,0.192-0.974,0.652-1.104,1.23c-0.13,0.579,0.046,1.173,0.472,1.587L231.49,135.465z" id="e1z8r6m76" />
<path class="fil0" d="M226.224,101.089l-8.687-8.797c-0.847-0.856-2.232-0.921-3.154-0.145l-10.891,9.188   l-2.561,0.824c-0.563,0.182-0.983,0.635-1.126,1.21c-0.142,0.577,0.023,1.173,0.44,1.596l13.087,13.253   c0.417,0.422,1.011,0.595,1.59,0.46c0.576-0.134,1.034-0.549,1.225-1.11l0.856-2.548l9.321-10.772   C227.118,103.333,227.073,101.948,226.224,101.089z" id="e1z8r6m77" />
<path class="fil0" d="M183.412,84.349c-0.566,0.171-0.997,0.615-1.148,1.188c-0.15,0.573,0.001,1.172,0.41,1.604   l12.832,13.5c0.408,0.431,0.999,0.613,1.58,0.491c0.579-0.123,1.046-0.529,1.245-1.088l0.905-2.531l9.523-10.594   c0.809-0.896,0.788-2.284-0.043-3.158l-8.518-8.96c-0.831-0.874-2.216-0.964-3.151-0.204l-11.063,8.977L183.412,84.349z" id="e1z8r6m78" />
<path class="fil0" d="M183.188,56.991c-0.813-0.891-2.196-1.007-3.147-0.265l-11.23,8.764l-2.588,0.728   c-0.569,0.161-1.011,0.598-1.173,1.167c-0.163,0.57-0.021,1.173,0.381,1.609l12.57,13.741c0.401,0.438,0.987,0.634,1.57,0.521   c0.583-0.112,1.057-0.511,1.266-1.063l0.954-2.515l9.727-10.409c0.823-0.883,0.831-2.271,0.018-3.159L183.188,56.991z" id="e1z8r6m79" />
<path class="fil0" d="M160.826,64.51c0.394,0.444,0.977,0.65,1.562,0.552c0.585-0.1,1.064-0.489,1.286-1.039   l1.002-2.495l9.922-10.225c0.84-0.864,0.873-2.252,0.076-3.156l-8.168-9.277c-0.799-0.905-2.179-1.048-3.144-0.323l-11.396,8.547   l-2.604,0.68c-0.573,0.147-1.021,0.575-1.193,1.145c-0.174,0.567-0.044,1.172,0.35,1.616L160.826,64.51z" id="e1z8r6m80" />
<path class="fil0" d="M576.777,389.252c0.434-1.127-0.082-2.414-1.17-2.934l-11.158-5.322   c-1.088-0.521-2.412-0.107-3.018,0.938l-7.121,12.34l-2.125,1.646c-0.469,0.361-0.713,0.931-0.646,1.521   c0.063,0.592,0.42,1.096,0.955,1.352l16.813,8.019c0.535,0.256,1.152,0.217,1.65-0.105s0.787-0.869,0.773-1.461l-0.061-2.688   L576.777,389.252z" id="e1z8r7m62" />
<path class="fil0" d="M553.472,375.746l-11.061-5.521c-1.078-0.539-2.41-0.152-3.033,0.881l-7.342,12.209   l-2.156,1.606c-0.475,0.354-0.729,0.918-0.676,1.508c0.053,0.593,0.4,1.103,0.934,1.367l16.662,8.32   c0.531,0.266,1.148,0.236,1.652-0.078c0.504-0.313,0.803-0.854,0.801-1.443l-0.01-2.688l5.346-13.205   C555.042,377.582,554.552,376.283,553.472,375.746z" id="e1z8r7m63" />
<path class="fil0" d="M508.013,376.418l16.51,8.619c0.527,0.273,1.146,0.258,1.654-0.047s0.816-0.84,0.826-1.435   l0.037-2.688l5.584-13.105c0.473-1.108,0.006-2.416-1.063-2.975l-10.959-5.723c-1.066-0.56-2.406-0.193-3.047,0.828l-7.563,12.071   l-2.186,1.566c-0.48,0.348-0.746,0.906-0.703,1.498C507.146,375.621,507.488,376.144,508.013,376.418z" id="e1z8r7m64" />
<path class="fil0" d="M486.118,364.654l16.354,8.918c0.521,0.283,1.141,0.277,1.654-0.019   c0.516-0.295,0.834-0.823,0.854-1.416l0.086-2.688l5.818-13.004c0.492-1.101,0.049-2.414-1.01-2.992l-10.854-5.918   c-1.061-0.576-2.404-0.236-3.063,0.771l-7.779,11.937l-2.213,1.526c-0.486,0.339-0.76,0.894-0.729,1.484   C485.271,363.846,485.599,364.369,486.118,364.654z" id="e1z8r7m65" />
<path class="fil0" d="M464.464,352.515l16.189,9.209c0.516,0.295,1.133,0.299,1.652,0.014   c0.521-0.285,0.85-0.812,0.879-1.4l0.133-2.686l6.055-12.896c0.514-1.092,0.094-2.414-0.957-3.012l-10.742-6.111   c-1.051-0.598-2.4-0.281-3.076,0.717l-7.992,11.793l-2.24,1.488c-0.492,0.326-0.773,0.877-0.756,1.471   C463.63,351.691,463.948,352.221,464.464,352.515z" id="e1z8r7m66" />
<path class="fil0" d="M443.052,340l16.021,9.498c0.51,0.303,1.127,0.316,1.652,0.043   c0.523-0.276,0.861-0.795,0.9-1.387l0.184-2.683l6.285-12.786c0.529-1.082,0.135-2.412-0.9-3.025l-10.635-6.307   c-1.035-0.613-2.395-0.322-3.09,0.661l-8.203,11.646l-2.266,1.447c-0.5,0.317-0.793,0.862-0.781,1.457   C442.232,339.159,442.54,339.697,443.052,340z" id="e1z8r7m67" />
<path class="fil0" d="M421.884,327.115l15.85,9.785c0.506,0.313,1.123,0.338,1.652,0.069   c0.529-0.266,0.877-0.776,0.928-1.368l0.229-2.679l6.514-12.67c0.551-1.074,0.18-2.411-0.848-3.043l-10.52-6.494   c-1.025-0.635-2.389-0.367-3.1,0.605l-8.412,11.499l-2.289,1.406c-0.506,0.311-0.811,0.85-0.811,1.44   C421.079,326.265,421.38,326.803,421.884,327.115z" id="e1z8r7m68" />
<path class="fil0" d="M400.97,313.866l15.67,10.066c0.5,0.321,1.117,0.358,1.65,0.102   c0.533-0.258,0.891-0.764,0.951-1.352l0.277-2.675l6.738-12.553c0.568-1.063,0.223-2.405-0.793-3.059l-10.4-6.682   c-1.014-0.651-2.379-0.41-3.109,0.55l-8.613,11.347l-2.316,1.364c-0.51,0.302-0.822,0.836-0.834,1.429   C400.179,313,400.47,313.545,400.97,313.866z" id="e1z8r7m69" />
<path class="fil0" d="M380.308,300.256l15.488,10.347c0.492,0.33,1.107,0.378,1.648,0.131   c0.537-0.247,0.902-0.747,0.977-1.335l0.324-2.668l6.961-12.431c0.59-1.054,0.268-2.401-0.736-3.071l-10.279-6.866   c-1.002-0.67-2.371-0.453-3.117,0.495l-8.816,11.188l-2.342,1.323c-0.516,0.291-0.838,0.819-0.857,1.412   C379.534,299.377,379.814,299.927,380.308,300.256z" id="e1z8r7m70" />
<path class="fil0" d="M359.907,286.291l15.303,10.62c0.486,0.339,1.102,0.396,1.645,0.161   c0.543-0.238,0.918-0.73,1-1.317l0.373-2.662l7.184-12.304c0.607-1.043,0.309-2.396-0.684-3.084l-10.154-7.049   c-0.99-0.688-2.363-0.494-3.129,0.438l-9.016,11.031l-2.363,1.28c-0.52,0.281-0.852,0.806-0.885,1.396   C359.148,285.398,359.421,285.952,359.907,286.291z" id="e1z8r7m71" />
<path class="fil0" d="M339.771,271.975l15.109,10.892c0.479,0.348,1.094,0.418,1.643,0.19   c0.549-0.229,0.932-0.715,1.023-1.3l0.422-2.655l7.398-12.173c0.627-1.031,0.352-2.394-0.627-3.099l-10.027-7.229   c-0.979-0.705-2.355-0.537-3.137,0.383l-9.211,10.869l-2.387,1.238c-0.523,0.271-0.863,0.79-0.908,1.382   C339.029,271.067,339.288,271.627,339.771,271.975z" id="e1z8r7m72" />
<path class="fil0" d="M319.904,257.311l14.912,11.157c0.475,0.355,1.088,0.438,1.641,0.222   c0.551-0.221,0.941-0.698,1.045-1.281l0.471-2.647l7.613-12.039c0.645-1.021,0.395-2.385-0.57-3.105l-9.896-7.406   c-0.967-0.723-2.348-0.578-3.143,0.327l-9.402,10.703l-2.408,1.197c-0.527,0.263-0.879,0.771-0.934,1.362   C319.177,256.39,319.429,256.954,319.904,257.311z" id="e1z8r7m73" />
<path class="fil0" d="M315.019,253.727c0.471,0.363,1.08,0.456,1.637,0.247s0.955-0.682,1.066-1.262l0.518-2.64   l7.828-11.901c0.664-1.009,0.438-2.377-0.518-3.116l-9.766-7.581c-0.953-0.739-2.334-0.62-3.146,0.271l-9.59,10.533l-2.43,1.152   c-0.534,0.255-0.895,0.759-0.958,1.35c-0.063,0.59,0.178,1.158,0.646,1.521L315.019,253.727z" id="e1z8r7m74" />
<path class="fil0" d="M295.495,238.64c0.463,0.373,1.072,0.478,1.631,0.277c0.561-0.198,0.968-0.663,1.092-1.242   l0.563-2.629l8.039-11.763c0.682-0.996,0.479-2.368-0.461-3.124l-9.628-7.754c-0.938-0.757-2.322-0.662-3.151,0.216l-9.776,10.36   l-2.448,1.11c-0.538,0.243-0.905,0.741-0.98,1.329c-0.073,0.589,0.156,1.162,0.619,1.534L295.495,238.64z" id="e1z8r7m75" />
<path class="fil0" d="M276.249,223.218c0.456,0.381,1.063,0.494,1.626,0.307c0.563-0.188,0.979-0.646,1.113-1.224   l0.607-2.618l8.246-11.617c0.697-0.983,0.521-2.358-0.405-3.133l-9.489-7.923c-0.925-0.772-2.312-0.702-3.153,0.159l-9.96,10.188   l-2.469,1.065c-0.543,0.235-0.92,0.727-1.005,1.313s0.137,1.165,0.592,1.546L276.249,223.218z" id="e1z8r7m76" />
<path class="fil0" d="M257.285,207.462c0.449,0.389,1.056,0.514,1.62,0.335c0.565-0.18,0.989-0.63,1.134-1.203   l0.655-2.606l8.451-11.47c0.716-0.972,0.562-2.351-0.352-3.14l-9.348-8.091c-0.911-0.788-2.298-0.743-3.156,0.104l-10.139,10.01   l-2.486,1.021c-0.548,0.227-0.933,0.71-1.027,1.295c-0.096,0.587,0.114,1.167,0.563,1.556L257.285,207.462z" id="e1z8r7m77" />
<path class="fil0" d="M238.607,191.379c0.441,0.396,1.046,0.53,1.614,0.362c0.566-0.168,1-0.61,1.153-1.184   l0.701-2.596l8.653-11.316c0.73-0.959,0.604-2.341-0.295-3.146l-9.202-8.255c-0.897-0.806-2.283-0.783-3.157,0.048l-10.313,9.826   l-2.506,0.979c-0.552,0.216-0.943,0.692-1.051,1.276c-0.104,0.584,0.094,1.169,0.536,1.563L238.607,191.379z" id="e1z8r7m78" />
<path class="fil0" d="M220.22,174.968c0.436,0.404,1.035,0.552,1.606,0.395c0.571-0.159,1.012-0.595,1.175-1.163   l0.748-2.582l8.854-11.162c0.75-0.945,0.646-2.328-0.238-3.149l-9.055-8.416c-0.884-0.819-2.271-0.824-3.157-0.009l-10.487,9.644   l-2.521,0.935c-0.557,0.205-0.958,0.676-1.073,1.258c-0.116,0.582,0.073,1.17,0.508,1.573L220.22,174.968z" id="e1z8r7m79" />
<path class="fil0" d="M202.129,158.24c0.427,0.412,1.023,0.569,1.6,0.421c0.574-0.146,1.021-0.574,1.196-1.142   l0.793-2.569l9.049-11.003c0.767-0.932,0.686-2.315-0.183-3.151l-8.904-8.576c-0.868-0.836-2.255-0.864-3.158-0.064l-10.655,9.456   l-2.536,0.891c-0.561,0.194-0.97,0.657-1.098,1.236c-0.125,0.58,0.054,1.171,0.481,1.583L202.129,158.24z" id="e1z8r7m80" />
<path class="fil0" d="M184.336,141.196c0.42,0.419,1.015,0.587,1.592,0.449c0.576-0.139,1.03-0.559,1.216-1.12   l0.841-2.556l9.24-10.842c0.782-0.918,0.728-2.305-0.127-3.154l-8.75-8.732c-0.854-0.852-2.238-0.905-3.156-0.121l-10.821,9.268   l-2.552,0.844c-0.563,0.186-0.98,0.642-1.118,1.219c-0.138,0.578,0.031,1.172,0.452,1.591L184.336,141.196z" id="e1z8r7m81" />
<path class="fil0" d="M166.845,123.84c0.413,0.428,1.005,0.604,1.584,0.478s1.042-0.539,1.235-1.099l0.885-2.539   l9.433-10.677c0.799-0.904,0.769-2.291-0.071-3.157l-8.595-8.887c-0.838-0.866-2.223-0.942-3.152-0.176l-10.983,9.071l-2.566,0.798   c-0.565,0.177-0.992,0.624-1.14,1.198c-0.146,0.575,0.012,1.173,0.424,1.601L166.845,123.84z" id="e1z8r7m82" />
<path class="fil0" d="M163.031,89.418l-8.438-9.036c-0.822-0.882-2.206-0.981-3.149-0.23l-11.144,8.876   l-2.581,0.753c-0.568,0.166-1.003,0.604-1.16,1.178c-0.155,0.572-0.009,1.172,0.396,1.606l12.709,13.614   c0.406,0.436,0.994,0.622,1.576,0.506c0.581-0.117,1.051-0.521,1.255-1.075l0.93-2.524l9.62-10.507   C163.86,91.688,163.852,90.299,163.031,89.418z" id="e1z8r7m83" />
<path class="fil0" d="M132.799,88.213c0.396,0.44,0.981,0.641,1.565,0.532c0.583-0.106,1.061-0.501,1.273-1.054   l0.974-2.507l9.805-10.336c0.83-0.875,0.85-2.263,0.041-3.157l-8.272-9.186c-0.808-0.896-2.188-1.021-3.146-0.288l-11.298,8.678   l-2.595,0.708c-0.571,0.154-1.015,0.588-1.182,1.156c-0.167,0.569-0.029,1.173,0.366,1.612L132.799,88.213z" id="e1z8r7m84" />
<path class="fil0" d="M560.447,419.867l-11.145-5.352c-1.086-0.521-2.412-0.115-3.02,0.928l-7.156,12.319   l-2.131,1.64c-0.469,0.36-0.713,0.93-0.65,1.521c0.063,0.59,0.416,1.097,0.953,1.353l16.787,8.063   c0.535,0.258,1.152,0.22,1.652-0.104c0.498-0.318,0.789-0.865,0.775-1.457l-0.051-2.688l5.143-13.286   C562.042,421.683,561.532,420.392,560.447,419.867z" id="e1z8r8m63" />
<path class="fil0" d="M538.738,411.933c0.455-1.117-0.033-2.416-1.109-2.957l-11.047-5.55   c-1.076-0.543-2.41-0.157-3.035,0.873l-7.373,12.189l-2.158,1.604c-0.479,0.353-0.73,0.916-0.682,1.507   c0.053,0.592,0.398,1.104,0.93,1.37l16.645,8.359c0.529,0.269,1.146,0.24,1.652-0.07c0.504-0.313,0.805-0.854,0.805-1.444   l-0.004-2.689L538.738,411.933z" id="e1z8r8m64" />
<path class="fil0" d="M515.036,397.685l-10.945-5.746c-1.068-0.562-2.406-0.199-3.051,0.821l-7.588,12.058   l-2.189,1.563c-0.48,0.347-0.744,0.902-0.705,1.496c0.041,0.592,0.379,1.109,0.904,1.385l16.49,8.656   c0.525,0.275,1.145,0.26,1.654-0.043c0.51-0.305,0.818-0.84,0.828-1.432l0.045-2.688l5.609-13.094   C516.57,399.551,516.105,398.242,515.036,397.685z" id="e1z8r8m65" />
<path class="fil0" d="M492.679,385.996l-10.844-5.938c-1.057-0.578-2.4-0.242-3.063,0.768l-7.801,11.92   l-2.217,1.525c-0.486,0.334-0.762,0.889-0.73,1.479c0.029,0.594,0.357,1.115,0.879,1.4l16.336,8.947   c0.521,0.284,1.141,0.278,1.654-0.015c0.516-0.295,0.834-0.821,0.855-1.416l0.09-2.688l5.846-12.992   C494.179,387.894,493.738,386.576,492.679,385.996z" id="e1z8r8m66" />
<path class="fil0" d="M470.558,373.926l-10.734-6.129c-1.047-0.6-2.396-0.285-3.076,0.711l-8.01,11.779   l-2.242,1.486c-0.492,0.325-0.777,0.875-0.758,1.469s0.338,1.121,0.854,1.416l16.176,9.234c0.516,0.295,1.133,0.299,1.654,0.016   c0.52-0.285,0.848-0.81,0.879-1.398l0.139-2.688l6.072-12.887C472.025,375.846,471.605,374.522,470.558,373.926z" id="e1z8r8m67" />
<path class="fil0" d="M448.681,361.467l-10.625-6.315c-1.037-0.617-2.395-0.328-3.09,0.658l-8.217,11.637   l-2.27,1.445c-0.5,0.315-0.793,0.86-0.783,1.455c0.01,0.594,0.318,1.129,0.828,1.432l16.012,9.518   c0.51,0.306,1.127,0.32,1.652,0.047c0.525-0.276,0.863-0.795,0.904-1.387l0.188-2.682l6.297-12.779   C450.113,363.412,449.718,362.082,448.681,361.467z" id="e1z8r8m68" />
<path class="fil0" d="M427.052,348.629l-10.514-6.502c-1.025-0.635-2.389-0.369-3.102,0.604l-8.422,11.489   l-2.291,1.404c-0.506,0.31-0.809,0.849-0.811,1.441c-0.002,0.594,0.299,1.133,0.805,1.444l15.84,9.8   c0.504,0.313,1.121,0.34,1.652,0.071c0.527-0.266,0.877-0.776,0.928-1.367l0.232-2.68l6.521-12.664   C428.447,350.601,428.075,349.265,427.052,348.629z" id="e1z8r8m69" />
<path class="fil0" d="M405.671,335.418l-10.396-6.688c-1.014-0.654-2.381-0.412-3.109,0.547l-8.619,11.342   l-2.318,1.365c-0.51,0.299-0.82,0.834-0.834,1.426c-0.012,0.596,0.279,1.141,0.777,1.463l15.666,10.072   c0.5,0.322,1.115,0.358,1.65,0.104c0.533-0.258,0.891-0.766,0.951-1.354l0.279-2.674l6.744-12.549   C407.034,337.412,406.685,336.07,405.671,335.418z" id="e1z8r8m70" />
<path class="fil0" d="M384.548,321.834l-10.277-6.868c-1.002-0.67-2.373-0.453-3.119,0.494l-8.818,11.188   l-2.34,1.321c-0.518,0.291-0.838,0.818-0.859,1.412c-0.021,0.595,0.26,1.146,0.752,1.476l15.484,10.348   c0.494,0.33,1.109,0.381,1.65,0.133c0.539-0.248,0.902-0.746,0.975-1.334l0.328-2.67l6.963-12.428   C385.874,323.854,385.55,322.504,384.548,321.834z" id="e1z8r8m71" />
<path class="fil0" d="M363.685,307.886l-10.154-7.047c-0.992-0.688-2.365-0.495-3.131,0.438l-9.012,11.031   l-2.365,1.281c-0.52,0.281-0.852,0.807-0.883,1.396c-0.033,0.593,0.238,1.146,0.729,1.484l15.303,10.619   c0.486,0.338,1.102,0.398,1.645,0.16c0.545-0.238,0.918-0.729,1-1.315l0.373-2.662l7.182-12.306   C364.976,309.928,364.677,308.574,363.685,307.886z" id="e1z8r8m72" />
<path class="fil0" d="M343.089,293.576l-10.031-7.225c-0.979-0.705-2.355-0.536-3.137,0.386l-9.205,10.871   l-2.387,1.241c-0.523,0.271-0.863,0.79-0.906,1.381c-0.045,0.593,0.219,1.151,0.697,1.499l15.115,10.885   c0.482,0.347,1.098,0.418,1.646,0.188c0.547-0.229,0.93-0.716,1.021-1.301l0.42-2.655l7.395-12.178   C344.343,295.64,344.066,294.282,343.089,293.576z" id="e1z8r8m73" />
<path class="fil0" d="M322.759,278.909l-9.902-7.396c-0.967-0.724-2.346-0.576-3.143,0.329l-9.394,10.71   l-2.406,1.197c-0.529,0.267-0.879,0.774-0.935,1.365c-0.053,0.591,0.199,1.156,0.675,1.511l14.923,11.147   c0.475,0.354,1.088,0.436,1.641,0.218c0.551-0.219,0.939-0.698,1.043-1.282l0.467-2.646l7.605-12.046   C323.978,280.994,323.724,279.63,322.759,278.909z" id="e1z8r8m74" />
<path class="fil0" d="M302.704,263.892l-9.771-7.57c-0.953-0.739-2.335-0.618-3.146,0.275l-9.577,10.544   l-2.43,1.154c-0.534,0.255-0.893,0.761-0.956,1.351s0.18,1.158,0.647,1.521l14.725,11.406c0.47,0.364,1.081,0.456,1.636,0.247   c0.557-0.209,0.954-0.682,1.066-1.263l0.514-2.642l7.814-11.911C303.888,265.996,303.659,264.629,302.704,263.892z" id="e1z8r8m75" />
<path class="fil0" d="M282.929,248.523l-9.64-7.738c-0.94-0.756-2.323-0.659-3.15,0.221l-9.763,10.375   l-2.446,1.113c-0.539,0.246-0.905,0.744-0.979,1.332c-0.074,0.589,0.158,1.162,0.621,1.533l14.521,11.661   c0.463,0.371,1.072,0.475,1.632,0.273c0.56-0.199,0.967-0.664,1.088-1.244l0.561-2.631l8.021-11.771   C284.076,250.65,283.87,249.279,282.929,248.523z" id="e1z8r8m76" />
<path class="fil0" d="M263.437,232.814l-9.502-7.906c-0.927-0.771-2.313-0.699-3.154,0.165l-9.939,10.204   l-2.467,1.069c-0.543,0.234-0.919,0.729-1.003,1.313c-0.084,0.588,0.139,1.164,0.595,1.544l14.316,11.912   c0.456,0.38,1.063,0.493,1.626,0.304c0.563-0.188,0.979-0.646,1.11-1.225l0.604-2.62l8.227-11.632   C264.547,234.959,264.365,233.584,263.437,232.814z" id="e1z8r8m77" />
<path class="fil0" d="M244.235,216.765l-9.364-8.07c-0.913-0.787-2.299-0.739-3.155,0.109l-10.118,10.027   l-2.482,1.028c-0.548,0.226-0.933,0.712-1.025,1.297c-0.095,0.586,0.117,1.167,0.566,1.554l14.107,12.16   c0.448,0.39,1.057,0.512,1.62,0.332c0.565-0.18,0.988-0.631,1.132-1.206l0.649-2.607l8.428-11.485   C245.304,218.931,245.147,217.552,244.235,216.765z" id="e1z8r8m78" />
<path class="fil0" d="M225.323,200.38l-9.222-8.23c-0.899-0.803-2.287-0.779-3.158,0.056l-10.29,9.854   l-2.502,0.982c-0.552,0.218-0.943,0.694-1.049,1.278c-0.104,0.585,0.098,1.169,0.54,1.563l13.896,12.403   c0.442,0.396,1.047,0.528,1.614,0.358c0.568-0.17,0.999-0.613,1.152-1.188l0.693-2.598l8.626-11.338   C226.355,202.565,226.222,201.185,225.323,200.38z" id="e1z8r8m79" />
<path class="fil0" d="M206.708,183.668l-9.075-8.392c-0.888-0.818-2.272-0.818-3.159,0l-10.46,9.672l-2.521,0.939   c-0.556,0.207-0.955,0.679-1.068,1.261c-0.114,0.582,0.075,1.17,0.513,1.572l13.677,12.645c0.438,0.401,1.037,0.548,1.608,0.389   c0.57-0.16,1.01-0.597,1.172-1.166l0.741-2.584l8.819-11.188C207.702,185.869,207.594,184.488,206.708,183.668z" id="e1z8r8m80" />
<path class="fil0" d="M188.395,166.63l-8.93-8.549c-0.871-0.834-2.259-0.855-3.159-0.055l-10.627,9.488   l-2.533,0.896c-0.559,0.198-0.968,0.662-1.093,1.242c-0.124,0.58,0.059,1.171,0.484,1.582l13.455,12.879   c0.43,0.411,1.026,0.565,1.602,0.416c0.573-0.149,1.021-0.579,1.192-1.146l0.785-2.569l9.016-11.032   C189.351,168.85,189.267,167.463,188.395,166.63z" id="e1z8r8m81" />
<path class="fil0" d="M170.388,149.272l-8.778-8.702c-0.855-0.851-2.242-0.896-3.156-0.109l-10.791,9.302   l-2.55,0.854c-0.563,0.188-0.979,0.645-1.113,1.223c-0.134,0.577,0.036,1.172,0.458,1.591l13.229,13.109   c0.423,0.418,1.019,0.584,1.595,0.444c0.577-0.142,1.028-0.563,1.213-1.124l0.83-2.559l9.205-10.873   C171.305,151.506,171.246,150.12,170.388,149.272z" id="e1z8r8m82" />
<path class="fil0" d="M152.694,131.597l-8.628-8.854c-0.842-0.863-2.227-0.936-3.153-0.165l-10.949,9.113   l-2.565,0.808c-0.563,0.18-0.988,0.628-1.134,1.203c-0.146,0.576,0.017,1.172,0.431,1.599l12.999,13.341   c0.414,0.425,1.007,0.601,1.586,0.471c0.578-0.13,1.039-0.542,1.231-1.104l0.874-2.542l9.394-10.711   C153.572,133.849,153.535,132.461,152.694,131.597z" id="e1z8r8m83" />
<path class="fil0" d="M135.312,113.611l-8.472-9.002c-0.826-0.878-2.21-0.976-3.151-0.22l-11.105,8.922   l-2.577,0.763c-0.568,0.168-1,0.61-1.155,1.185c-0.153,0.571-0.005,1.172,0.401,1.604l12.766,13.563   c0.407,0.434,0.996,0.617,1.578,0.498c0.58-0.119,1.048-0.523,1.25-1.08l0.919-2.526l9.577-10.546   C136.152,115.875,136.139,114.489,135.312,113.611z" id="e1z8r8m84" />
<path class="fil0" d="M118.254,95.318l-8.314-9.146c-0.811-0.895-2.192-1.015-3.146-0.274l-11.262,8.729   l-2.591,0.718c-0.57,0.158-1.011,0.594-1.176,1.163c-0.164,0.568-0.024,1.172,0.374,1.61l12.526,13.783   c0.398,0.438,0.984,0.638,1.567,0.525c0.583-0.111,1.059-0.506,1.271-1.061l0.963-2.511l9.76-10.378   C119.052,97.597,119.063,96.211,118.254,95.318z" id="e1z8r8m85" />

</g>

</svg>
