<svg width="15" height="15" viewBox="0 0 15 15" fill="none" xmlns="http://www.w3.org/2000/svg">
<path d="M6.4 13.5L8.5 11.4L10.6 13.5L12 12.1L9.9 10L12 7.9L10.6 6.5L8.5 8.6L6.4 6.5L5 7.9L7.1 10L5 12.1L6.4 13.5ZM8.5 20C6.18333 19.4167 4.271 18.0873 2.763 16.012C1.25433 13.9373 0.5 11.6333 0.5 9.1V3L8.5 0L16.5 3V9.1C16.5 11.6333 15.746 13.9373 14.238 16.012C12.7293 18.0873 10.8167 19.4167 8.5 20ZM8.5 17.9C10.2333 17.35 11.6667 16.25 12.8 14.6C13.9333 12.95 14.5 11.1167 14.5 9.1V4.375L8.5 2.125L2.5 4.375V9.1C2.5 11.1167 3.06667 12.95 4.2 14.6C5.33333 16.25 6.76667 17.35 8.5 17.9Z" fill="#C9382B"/>
</svg>
