<svg width="316" height="154" viewBox="0 0 316 154" fill="none" xmlns="http://www.w3.org/2000/svg">
<g filter="url(#filter0_d_363_6136)">
<rect x="35" y="27" width="246" height="83.5974" rx="19.1688" fill="url(#paint0_linear_363_6136)" fill-opacity="0.5" shape-rendering="crispEdges"/>
<rect x="34.7338" y="26.7338" width="246.532" height="84.1299" rx="19.4351" stroke="url(#paint1_angular_363_6136)" stroke-width="0.532468" shape-rendering="crispEdges"/>
</g>
<path d="M53.4661 60.7793V51.5783H54.5012L57.9771 58.9071L61.4339 51.5783H62.4818V60.7729H61.402V54.0766L58.2775 60.7793H57.6704L54.5459 54.0766V60.7793H53.4661ZM67.2638 60.971C66.5865 60.971 65.9944 60.8219 65.4875 60.5237C64.9849 60.2213 64.593 59.8017 64.3118 59.265C64.0307 58.724 63.8901 58.0935 63.8901 57.3736C63.8901 56.6197 64.0286 55.9679 64.3055 55.4184C64.5823 54.8646 64.9678 54.4387 65.462 54.1405C65.9604 53.8381 66.5439 53.6868 67.2127 53.6868C67.9071 53.6868 68.497 53.8466 68.9826 54.166C69.4725 54.4855 69.8389 54.9413 70.0817 55.5334C70.3287 56.1255 70.4352 56.8305 70.4011 57.6484H69.251V57.2395C69.2382 56.3918 69.0657 55.7592 68.7335 55.3417C68.4012 54.92 67.9071 54.7092 67.2511 54.7092C66.5482 54.7092 66.0136 54.9349 65.6473 55.3865C65.2809 55.838 65.0978 56.4855 65.0978 57.3289C65.0978 58.1425 65.2809 58.773 65.6473 59.2202C66.0136 59.6675 66.5354 59.8911 67.2127 59.8911C67.6685 59.8911 68.0647 59.7868 68.4012 59.5781C68.7377 59.3693 69.0018 59.069 69.1935 58.6771L70.2861 59.0541C70.0178 59.6632 69.6131 60.1361 69.0721 60.4726C68.5354 60.8049 67.9326 60.971 67.2638 60.971ZM64.7144 57.6484V56.7347H69.8133V57.6484H64.7144ZM74.731 60.971C74.0324 60.971 73.4382 60.8155 72.9483 60.5045C72.4627 60.1893 72.0921 59.757 71.8365 59.2075C71.5809 58.6579 71.4489 58.0318 71.4404 57.3289C71.4489 56.609 71.5831 55.9764 71.8429 55.4312C72.107 54.8817 72.484 54.4536 72.9739 54.1469C73.4637 53.8402 74.0537 53.6868 74.7438 53.6868C75.4722 53.6868 76.0984 53.8657 76.6223 54.2236C77.1505 54.5814 77.5041 55.0712 77.683 55.6932L76.5584 56.0318C76.4136 55.6314 76.1772 55.3204 75.8492 55.0989C75.5254 54.8774 75.1527 54.7667 74.731 54.7667C74.2582 54.7667 73.8684 54.8774 73.5617 55.0989C73.255 55.3162 73.0271 55.6186 72.878 56.0063C72.7289 56.3896 72.6522 56.8305 72.648 57.3289C72.6565 58.0957 72.8333 58.7155 73.1783 59.1883C73.5276 59.6569 74.0452 59.8911 74.731 59.8911C75.1825 59.8911 75.5574 59.7889 75.8556 59.5844C76.1538 59.3757 76.3795 59.0754 76.5329 58.6835L77.683 58.9838C77.4445 59.627 77.0717 60.119 76.5648 60.4598C76.0579 60.8006 75.4466 60.971 74.731 60.971ZM80.6897 60.7793V54.9136H78.2872V53.8785H84.2296V54.9136H81.8271V60.7793H80.6897ZM88.2535 60.971C87.5677 60.971 86.9756 60.8155 86.4772 60.5045C85.9831 60.1936 85.6018 59.7633 85.3335 59.2138C85.0651 58.6643 84.9309 58.0339 84.9309 57.3225C84.9309 56.5984 85.0672 55.9637 85.3399 55.4184C85.6125 54.8732 85.998 54.4493 86.4964 54.1469C86.9948 53.8402 87.5805 53.6868 88.2535 53.6868C88.9436 53.6868 89.5378 53.8423 90.0362 54.1533C90.5346 54.46 90.9159 54.8881 91.18 55.4376C91.4483 55.9828 91.5825 56.6111 91.5825 57.3225C91.5825 58.0424 91.4483 58.6771 91.18 59.2266C90.9116 59.7719 90.5282 60.2 90.0298 60.5109C89.5314 60.8176 88.9393 60.971 88.2535 60.971ZM88.2535 59.8911C88.9691 59.8911 89.5016 59.6526 89.8509 59.1755C90.2002 58.6984 90.3749 58.0808 90.3749 57.3225C90.3749 56.543 90.1981 55.9232 89.8445 55.4631C89.491 54.9988 88.9606 54.7667 88.2535 54.7667C87.7722 54.7667 87.376 54.8753 87.065 55.0925C86.7541 55.3098 86.5219 55.6101 86.3686 55.9935C86.2152 56.3769 86.1386 56.8199 86.1386 57.3225C86.1386 58.0978 86.3175 58.7197 86.6753 59.1883C87.0331 59.6569 87.5592 59.8911 88.2535 59.8911ZM101.112 60.7793V46.9777H112.297V60.7793H109.987V49.1438H103.421V60.7793H101.112ZM117.877 61.0668C117.13 61.0668 116.497 60.9263 115.98 60.6451C115.462 60.3576 115.069 59.9774 114.801 59.5046C114.539 59.0317 114.408 58.511 114.408 57.9423C114.408 57.4439 114.491 56.9966 114.657 56.6005C114.823 56.1979 115.079 55.8529 115.424 55.5654C115.769 55.2715 116.216 55.0318 116.766 54.8465C117.181 54.7124 117.666 54.591 118.222 54.4823C118.785 54.3737 119.392 54.2747 120.043 54.1852C120.702 54.0894 121.388 53.9871 122.104 53.8785L121.28 54.3482C121.286 53.6325 121.126 53.1054 120.801 52.7667C120.475 52.4281 119.925 52.2588 119.152 52.2588C118.686 52.2588 118.235 52.3674 117.801 52.5846C117.366 52.8019 117.063 53.1757 116.89 53.706L114.782 53.0447C115.037 52.1693 115.523 51.4664 116.238 50.9361C116.96 50.4058 117.932 50.1406 119.152 50.1406C120.072 50.1406 120.88 50.2908 121.577 50.5911C122.28 50.8914 122.8 51.3834 123.139 52.0671C123.324 52.4313 123.436 52.8051 123.475 53.1884C123.513 53.5654 123.532 53.9776 123.532 54.4248V60.7793H121.51V58.5365L121.845 58.9008C121.379 59.6483 120.832 60.1978 120.206 60.5493C119.587 60.8943 118.81 61.0668 117.877 61.0668ZM118.337 59.2266C118.861 59.2266 119.309 59.134 119.679 58.9487C120.05 58.7634 120.344 58.5365 120.561 58.2682C120.785 57.9998 120.935 57.7474 121.011 57.511C121.133 57.2171 121.2 56.8816 121.213 56.5046C121.232 56.1213 121.241 55.8114 121.241 55.575L121.951 55.7858C121.254 55.8944 120.657 55.9903 120.158 56.0733C119.66 56.1564 119.232 56.2363 118.874 56.313C118.516 56.3832 118.2 56.4631 117.925 56.5526C117.657 56.6484 117.43 56.7602 117.245 56.888C117.059 57.0158 116.916 57.1628 116.813 57.3289C116.718 57.495 116.67 57.6899 116.67 57.9136C116.67 58.1691 116.734 58.396 116.861 58.5941C116.989 58.7857 117.174 58.9391 117.417 59.0541C117.666 59.1691 117.973 59.2266 118.337 59.2266ZM131.002 61.0668C129.992 61.0668 129.145 60.8272 128.462 60.348C127.778 59.8688 127.264 59.217 126.919 58.3928C126.574 57.5621 126.401 56.6324 126.401 55.6037C126.401 54.5622 126.574 53.6293 126.919 52.8051C127.264 51.9808 127.769 51.3323 128.433 50.8594C129.104 50.3802 129.931 50.1406 130.915 50.1406C131.893 50.1406 132.74 50.3802 133.455 50.8594C134.177 51.3323 134.736 51.9808 135.133 52.8051C135.529 53.6229 135.727 54.5558 135.727 55.6037C135.727 56.6388 135.532 57.5685 135.142 58.3928C134.752 59.217 134.203 59.8688 133.494 60.348C132.784 60.8272 131.954 61.0668 131.002 61.0668ZM126.008 65.3798V50.4281H128.05V57.6931H128.337V65.3798H126.008ZM130.647 58.9966C131.248 58.9966 131.743 58.8464 132.133 58.5461C132.522 58.2458 132.81 57.8401 132.995 57.3289C133.187 56.8113 133.283 56.2363 133.283 55.6037C133.283 54.9775 133.187 54.4089 132.995 53.8977C132.804 53.3801 132.506 52.9712 132.104 52.6709C131.701 52.3642 131.19 52.2108 130.57 52.2108C129.983 52.2108 129.503 52.3546 129.133 52.6421C128.762 52.9233 128.487 53.3194 128.308 53.8306C128.136 54.3354 128.05 54.9264 128.05 55.6037C128.05 56.2746 128.136 56.8657 128.308 57.3768C128.487 57.888 128.765 58.2873 129.142 58.5749C129.526 58.856 130.027 58.9966 130.647 58.9966ZM140.437 60.7793V52.4792H136.977V50.4281H146.207V52.4792H142.747V60.7793H140.437ZM152.729 61.0668C151.681 61.0668 150.761 60.84 149.968 60.3863C149.176 59.9327 148.556 59.3033 148.109 58.4982C147.668 57.6931 147.448 56.7666 147.448 55.7187C147.448 54.5878 147.665 53.607 148.1 52.7763C148.534 51.9393 149.138 51.2907 149.911 50.8307C150.684 50.3706 151.579 50.1406 152.595 50.1406C153.668 50.1406 154.579 50.393 155.326 50.8978C156.08 51.3962 156.639 52.1022 157.003 53.0159C157.368 53.9296 157.505 55.0063 157.416 56.2459H155.125V55.4024C155.118 54.2779 154.92 53.4568 154.531 52.9392C154.141 52.4217 153.527 52.1629 152.69 52.1629C151.745 52.1629 151.042 52.4568 150.582 53.0447C150.122 53.6261 149.892 54.4791 149.892 55.6037C149.892 56.6516 150.122 57.4631 150.582 58.0382C151.042 58.6132 151.713 58.9008 152.595 58.9008C153.163 58.9008 153.652 58.7762 154.061 58.527C154.476 58.2714 154.796 57.904 155.019 57.4248L157.301 58.1148C156.904 59.0477 156.291 59.7729 155.46 60.2905C154.636 60.8081 153.726 61.0668 152.729 61.0668ZM149.163 56.2459V54.5015H156.285V56.2459H149.163ZM164.528 61.0668C163.519 61.0668 162.672 60.8272 161.989 60.348C161.305 59.8688 160.79 59.217 160.445 58.3928C160.1 57.5621 159.928 56.6324 159.928 55.6037C159.928 54.5622 160.1 53.6293 160.445 52.8051C160.79 51.9808 161.295 51.3323 161.96 50.8594C162.631 50.3802 163.458 50.1406 164.442 50.1406C165.42 50.1406 166.266 50.3802 166.982 50.8594C167.704 51.3323 168.263 51.9808 168.659 52.8051C169.055 53.6229 169.254 54.5558 169.254 55.6037C169.254 56.6388 169.059 57.5685 168.669 58.3928C168.279 59.217 167.73 59.8688 167.02 60.348C166.311 60.8272 165.48 61.0668 164.528 61.0668ZM159.535 65.3798V50.4281H161.576V57.6931H161.864V65.3798H159.535ZM164.174 58.9966C164.774 58.9966 165.27 58.8464 165.659 58.5461C166.049 58.2458 166.337 57.8401 166.522 57.3289C166.714 56.8113 166.809 56.2363 166.809 55.6037C166.809 54.9775 166.714 54.4089 166.522 53.8977C166.33 53.3801 166.033 52.9712 165.631 52.6709C165.228 52.3642 164.717 52.2108 164.097 52.2108C163.509 52.2108 163.03 52.3546 162.659 52.6421C162.289 52.9233 162.014 53.3194 161.835 53.8306C161.663 54.3354 161.576 54.9264 161.576 55.6037C161.576 56.2746 161.663 56.8657 161.835 57.3768C162.014 57.888 162.292 58.2873 162.669 58.5749C163.052 58.856 163.554 58.9966 164.174 58.9966Z" fill="white"/>
<path d="M57.7812 91.8538C56.8654 91.8538 56.088 91.6515 55.449 91.2468C54.81 90.8421 54.3223 90.2798 53.9858 89.5599C53.6535 88.84 53.4874 88.0073 53.4874 87.0616C53.4874 86.1159 53.6535 85.2831 53.9858 84.5633C54.3223 83.8434 54.81 83.2811 55.449 82.8764C56.088 82.4717 56.8654 82.2694 57.7812 82.2694C58.8461 82.2694 59.7215 82.5399 60.4073 83.0809C61.0974 83.6218 61.5724 84.3503 61.8322 85.2661L60.6757 85.5728C60.4883 84.887 60.1539 84.346 59.6725 83.9498C59.1912 83.5537 58.5607 83.3556 57.7812 83.3556C57.0954 83.3556 56.5246 83.5111 56.0688 83.8221C55.613 84.133 55.2701 84.5675 55.0401 85.1255C54.81 85.6793 54.6929 86.3247 54.6886 87.0616C54.6844 87.7943 54.7973 88.4396 55.0273 88.9976C55.2573 89.5514 55.6023 89.9859 56.0624 90.3011C56.5224 90.6121 57.0954 90.7676 57.7812 90.7676C58.5607 90.7676 59.1912 90.5695 59.6725 90.1733C60.1539 89.7729 60.4883 89.2319 60.6757 88.5504L61.8322 88.8571C61.5724 89.7687 61.0974 90.4971 60.4073 91.0423C59.7215 91.5833 58.8461 91.8538 57.7812 91.8538ZM65.061 91.6621V85.7964H62.6585V84.7613H68.6008V85.7964H66.1983V91.6621H65.061ZM72.6248 91.8538C71.9389 91.8538 71.3468 91.6983 70.8485 91.3874C70.3543 91.0764 69.9731 90.6462 69.7047 90.0967C69.4363 89.5471 69.3022 88.9167 69.3022 88.2053C69.3022 87.4812 69.4385 86.8465 69.7111 86.3012C69.9837 85.756 70.3692 85.3321 70.8676 85.0297C71.366 84.723 71.9517 84.5696 72.6248 84.5696C73.3148 84.5696 73.9091 84.7251 74.4075 85.0361C74.9059 85.3428 75.2871 85.7709 75.5512 86.3204C75.8196 86.8656 75.9538 87.494 75.9538 88.2053C75.9538 88.9252 75.8196 89.5599 75.5512 90.1094C75.2828 90.6547 74.8995 91.0828 74.4011 91.3937C73.9027 91.7004 73.3106 91.8538 72.6248 91.8538ZM72.6248 90.774C73.3404 90.774 73.8729 90.5354 74.2222 90.0583C74.5715 89.5812 74.7461 88.9636 74.7461 88.2053C74.7461 87.4258 74.5693 86.806 74.2158 86.346C73.8622 85.8816 73.3319 85.6495 72.6248 85.6495C72.1434 85.6495 71.7473 85.7581 71.4363 85.9754C71.1253 86.1926 70.8932 86.4929 70.7398 86.8763C70.5865 87.2597 70.5098 87.7027 70.5098 88.2053C70.5098 88.9806 70.6887 89.6025 71.0465 90.0711C71.4043 90.5397 71.9304 90.774 72.6248 90.774ZM83.009 84.7613V91.6621H81.91V86.576L78.2934 91.6621H77.3542V84.7613H78.4532V89.7772L82.0761 84.7613H83.009ZM84.7921 91.6621V84.7613H85.7697L88.3894 90.1158L91.0092 84.7613H91.9868V91.6621H90.8878V87.1319L88.6897 91.6621H88.0891L85.8911 87.1319V91.6621H84.7921ZM96.7106 91.8538C96.0248 91.8538 95.4327 91.6983 94.9343 91.3874C94.4402 91.0764 94.0589 90.6462 93.7905 90.0967C93.5222 89.5471 93.388 88.9167 93.388 88.2053C93.388 87.4812 93.5243 86.8465 93.7969 86.3012C94.0696 85.756 94.4551 85.3321 94.9535 85.0297C95.4518 84.723 96.0376 84.5696 96.7106 84.5696C97.4007 84.5696 97.9949 84.7251 98.4933 85.0361C98.9917 85.3428 99.3729 85.7709 99.637 86.3204C99.9054 86.8656 100.04 87.494 100.04 88.2053C100.04 88.9252 99.9054 89.5599 99.637 90.1094C99.3687 90.6547 98.9853 91.0828 98.4869 91.3937C97.9885 91.7004 97.3964 91.8538 96.7106 91.8538ZM96.7106 90.774C97.4262 90.774 97.9587 90.5354 98.308 90.0583C98.6573 89.5812 98.8319 88.9636 98.8319 88.2053C98.8319 87.4258 98.6552 86.806 98.3016 86.346C97.9481 85.8816 97.4177 85.6495 96.7106 85.6495C96.2292 85.6495 95.8331 85.7581 95.5221 85.9754C95.2112 86.1926 94.979 86.4929 94.8257 86.8763C94.6723 87.2597 94.5956 87.7027 94.5956 88.2053C94.5956 88.9806 94.7745 89.6025 95.1324 90.0711C95.4902 90.5397 96.0163 90.774 96.7106 90.774ZM104.354 91.8538C103.655 91.8538 103.061 91.6983 102.571 91.3874C102.085 91.0721 101.715 90.6398 101.459 90.0903C101.204 89.5408 101.072 88.9146 101.063 88.2117C101.072 87.4918 101.206 86.8593 101.466 86.314C101.73 85.7645 102.107 85.3364 102.597 85.0297C103.086 84.723 103.676 84.5696 104.366 84.5696C105.095 84.5696 105.721 84.7486 106.245 85.1064C106.773 85.4642 107.127 85.9541 107.306 86.576L106.181 86.9146C106.036 86.5142 105.8 86.2033 105.472 85.9817C105.148 85.7602 104.775 85.6495 104.354 85.6495C103.881 85.6495 103.491 85.7602 103.184 85.9817C102.878 86.199 102.65 86.5014 102.501 86.8891C102.352 87.2724 102.275 87.7133 102.271 88.2117C102.279 88.9785 102.456 89.5983 102.801 90.0711C103.15 90.5397 103.668 90.774 104.354 90.774C104.805 90.774 105.18 90.6717 105.478 90.4673C105.776 90.2585 106.002 89.9582 106.156 89.5663L107.306 89.8666C107.067 90.5098 106.694 91.0018 106.187 91.3426C105.681 91.6834 105.069 91.8538 104.354 91.8538ZM110.312 91.6621V85.7964H107.91V84.7613H113.852V85.7964H111.45V91.6621H110.312ZM115.062 91.6621L115.055 84.7613H116.199V87.2597H117.688C117.888 87.2597 118.093 87.2639 118.301 87.2724C118.51 87.281 118.691 87.3001 118.844 87.33C119.202 87.3981 119.515 87.5174 119.784 87.6878C120.052 87.8582 120.261 88.0903 120.41 88.3842C120.559 88.6739 120.633 89.0338 120.633 89.4641C120.633 90.0604 120.478 90.5333 120.167 90.8826C119.86 91.2276 119.458 91.4576 118.959 91.5727C118.789 91.611 118.593 91.6366 118.372 91.6493C118.154 91.6578 117.948 91.6621 117.752 91.6621H115.062ZM116.199 90.7228H117.771C117.899 90.7228 118.041 90.7186 118.199 90.7101C118.357 90.7015 118.497 90.6802 118.621 90.6462C118.838 90.5823 119.032 90.4566 119.202 90.2692C119.377 90.0817 119.464 89.8134 119.464 89.4641C119.464 89.1105 119.379 88.8379 119.209 88.6462C119.042 88.4545 118.823 88.3289 118.55 88.2692C118.427 88.2394 118.297 88.2202 118.161 88.2117C118.024 88.2032 117.894 88.1989 117.771 88.1989H116.199V90.7228ZM134.732 91.9496C133.697 91.9496 132.793 91.7164 132.02 91.25C131.246 90.7835 130.646 90.1414 130.218 89.3235C129.796 88.4993 129.585 87.5536 129.585 86.4865C129.585 85.4003 129.802 84.4482 130.237 83.6304C130.671 82.8125 131.275 82.1735 132.048 81.7135C132.821 81.2534 133.716 81.0234 134.732 81.0234C135.773 81.0234 136.681 81.2566 137.454 81.7231C138.227 82.1895 138.828 82.8349 139.256 83.6591C139.684 84.477 139.898 85.4195 139.898 86.4865C139.898 87.56 139.681 88.5088 139.246 89.3331C138.818 90.151 138.218 90.7931 137.444 91.2596C136.671 91.7196 135.767 91.9496 134.732 91.9496ZM134.732 89.7836C135.652 89.7836 136.336 89.4769 136.783 88.8635C137.23 88.2501 137.454 87.4577 137.454 86.4865C137.454 85.4834 137.227 84.6847 136.773 84.0904C136.32 83.4898 135.639 83.1895 134.732 83.1895C134.112 83.1895 133.601 83.3301 133.198 83.6112C132.802 83.886 132.508 84.2725 132.317 84.7709C132.125 85.2629 132.029 85.8348 132.029 86.4865C132.029 87.4897 132.256 88.2916 132.71 88.8922C133.17 89.4864 133.844 89.7836 134.732 89.7836ZM144.401 91.6621V83.362H140.941V81.3109H150.171V83.362H146.711V91.6621H144.401ZM159.917 91.9496C159.214 91.9496 158.559 91.8059 157.952 91.5183C157.345 91.2244 156.822 90.8219 156.381 90.3107C155.946 89.7995 155.633 89.2053 155.441 88.528L157.665 87.9338C157.754 88.3044 157.917 88.6238 158.154 88.8922C158.397 89.1606 158.678 89.3682 158.997 89.5152C159.323 89.6622 159.658 89.7356 160.004 89.7356C160.451 89.7356 160.86 89.627 161.23 89.4098C161.601 89.1925 161.895 88.9018 162.112 88.5376C162.329 88.167 162.438 87.7581 162.438 87.3108C162.438 86.8635 162.326 86.4578 162.103 86.0936C161.885 85.723 161.591 85.4322 161.221 85.2214C160.85 85.0041 160.444 84.8955 160.004 84.8955C159.473 84.8955 159.032 84.9914 158.681 85.183C158.336 85.3747 158.071 85.5792 157.885 85.7964L155.911 85.1639L156.333 77.8606H163.828V80.0266H157.569L158.432 79.212L158.125 84.2917L157.703 83.7741C158.061 83.4483 158.476 83.2055 158.949 83.0457C159.422 82.886 159.879 82.8061 160.32 82.8061C161.182 82.8061 161.946 83.0042 162.61 83.4003C163.281 83.7901 163.805 84.3236 164.182 85.0009C164.566 85.6782 164.757 86.4482 164.757 87.3108C164.757 88.1734 164.534 88.9561 164.086 89.659C163.639 90.3554 163.048 90.9113 162.313 91.3267C161.585 91.742 160.786 91.9496 159.917 91.9496ZM172.021 91.9496C171.044 91.9496 170.181 91.742 169.433 91.3267C168.686 90.9049 168.101 90.3203 167.679 89.5727C167.264 88.8251 167.056 87.9625 167.056 86.9849V82.5377C167.056 81.5601 167.264 80.6975 167.679 79.95C168.101 79.2024 168.686 78.6209 169.433 78.2056C170.181 77.7839 171.044 77.573 172.021 77.573C172.999 77.573 173.858 77.7839 174.599 78.2056C175.347 78.6209 175.932 79.2024 176.353 79.95C176.775 80.6975 176.986 81.5601 176.986 82.5377V86.9849C176.986 87.9625 176.775 88.8251 176.353 89.5727C175.932 90.3203 175.347 90.9049 174.599 91.3267C173.858 91.742 172.999 91.9496 172.021 91.9496ZM172.021 89.7548C172.507 89.7548 172.948 89.6398 173.344 89.4098C173.74 89.1734 174.053 88.8603 174.283 88.4705C174.513 88.0743 174.628 87.6335 174.628 87.1478V82.3652C174.628 81.8732 174.513 81.4323 174.283 81.0426C174.053 80.6464 173.74 80.3333 173.344 80.1033C172.948 79.8669 172.507 79.7487 172.021 79.7487C171.536 79.7487 171.095 79.8669 170.699 80.1033C170.302 80.3333 169.989 80.6464 169.759 81.0426C169.529 81.4323 169.414 81.8732 169.414 82.3652V87.1478C169.414 87.6335 169.529 88.0743 169.759 88.4705C169.989 88.8603 170.302 89.1734 170.699 89.4098C171.095 89.6398 171.536 89.7548 172.021 89.7548ZM188.476 91.9496C187.498 91.9496 186.635 91.742 185.888 91.3267C185.14 90.9049 184.556 90.3203 184.134 89.5727C183.719 88.8251 183.511 87.9625 183.511 86.9849V82.5377C183.511 81.5601 183.719 80.6975 184.134 79.95C184.556 79.2024 185.14 78.6209 185.888 78.2056C186.635 77.7839 187.498 77.573 188.476 77.573C189.453 77.573 190.313 77.7839 191.054 78.2056C191.801 78.6209 192.386 79.2024 192.808 79.95C193.23 80.6975 193.44 81.5601 193.44 82.5377V86.9849C193.44 87.9625 193.23 88.8251 192.808 89.5727C192.386 90.3203 191.801 90.9049 191.054 91.3267C190.313 91.742 189.453 91.9496 188.476 91.9496ZM188.476 89.7548C188.961 89.7548 189.402 89.6398 189.798 89.4098C190.194 89.1734 190.508 88.8603 190.738 88.4705C190.968 88.0743 191.083 87.6335 191.083 87.1478V82.3652C191.083 81.8732 190.968 81.4323 190.738 81.0426C190.508 80.6464 190.194 80.3333 189.798 80.1033C189.402 79.8669 188.961 79.7487 188.476 79.7487C187.99 79.7487 187.549 79.8669 187.153 80.1033C186.757 80.3333 186.444 80.6464 186.214 81.0426C185.984 81.4323 185.869 81.8732 185.869 82.3652V87.1478C185.869 87.6335 185.984 88.0743 186.214 88.4705C186.444 88.8603 186.757 89.1734 187.153 89.4098C187.549 89.6398 187.99 89.7548 188.476 89.7548ZM201.093 91.9496C200.115 91.9496 199.252 91.742 198.505 91.3267C197.757 90.9049 197.173 90.3203 196.751 89.5727C196.336 88.8251 196.128 87.9625 196.128 86.9849V82.5377C196.128 81.5601 196.336 80.6975 196.751 79.95C197.173 79.2024 197.757 78.6209 198.505 78.2056C199.252 77.7839 200.115 77.573 201.093 77.573C202.07 77.573 202.93 77.7839 203.671 78.2056C204.418 78.6209 205.003 79.2024 205.425 79.95C205.847 80.6975 206.057 81.5601 206.057 82.5377V86.9849C206.057 87.9625 205.847 88.8251 205.425 89.5727C205.003 90.3203 204.418 90.9049 203.671 91.3267C202.93 91.742 202.07 91.9496 201.093 91.9496ZM201.093 89.7548C201.578 89.7548 202.019 89.6398 202.415 89.4098C202.811 89.1734 203.125 88.8603 203.355 88.4705C203.585 88.0743 203.7 87.6335 203.7 87.1478V82.3652C203.7 81.8732 203.585 81.4323 203.355 81.0426C203.125 80.6464 202.811 80.3333 202.415 80.1033C202.019 79.8669 201.578 79.7487 201.093 79.7487C200.607 79.7487 200.166 79.8669 199.77 80.1033C199.374 80.3333 199.061 80.6464 198.831 81.0426C198.601 81.4323 198.486 81.8732 198.486 82.3652V87.1478C198.486 87.6335 198.601 88.0743 198.831 88.4705C199.061 88.8603 199.374 89.1734 199.77 89.4098C200.166 89.6398 200.607 89.7548 201.093 89.7548ZM213.71 91.9496C212.732 91.9496 211.869 91.742 211.122 91.3267C210.374 90.9049 209.79 90.3203 209.368 89.5727C208.953 88.8251 208.745 87.9625 208.745 86.9849V82.5377C208.745 81.5601 208.953 80.6975 209.368 79.95C209.79 79.2024 210.374 78.6209 211.122 78.2056C211.869 77.7839 212.732 77.573 213.71 77.573C214.687 77.573 215.547 77.7839 216.288 78.2056C217.035 78.6209 217.62 79.2024 218.042 79.95C218.464 80.6975 218.674 81.5601 218.674 82.5377V86.9849C218.674 87.9625 218.464 88.8251 218.042 89.5727C217.62 90.3203 217.035 90.9049 216.288 91.3267C215.547 91.742 214.687 91.9496 213.71 91.9496ZM213.71 89.7548C214.195 89.7548 214.636 89.6398 215.032 89.4098C215.428 89.1734 215.742 88.8603 215.972 88.4705C216.202 88.0743 216.317 87.6335 216.317 87.1478V82.3652C216.317 81.8732 216.202 81.4323 215.972 81.0426C215.742 80.6464 215.428 80.3333 215.032 80.1033C214.636 79.8669 214.195 79.7487 213.71 79.7487C213.224 79.7487 212.783 79.8669 212.387 80.1033C211.991 80.3333 211.678 80.6464 211.448 81.0426C211.218 81.4323 211.103 81.8732 211.103 82.3652V87.1478C211.103 87.6335 211.218 88.0743 211.448 88.4705C211.678 88.8603 211.991 89.1734 212.387 89.4098C212.783 89.6398 213.224 89.7548 213.71 89.7548ZM225.199 86.6399V84.6655H231.698C231.8 84.6655 231.924 84.6623 232.071 84.6559C232.225 84.6431 232.394 84.6112 232.579 84.5601C233.11 84.4131 233.493 84.1479 233.73 83.7646C233.966 83.3748 234.084 82.9211 234.084 82.4036C234.084 82.0905 234.036 81.7774 233.94 81.4643C233.851 81.1448 233.694 80.8637 233.471 80.6209C233.254 80.3781 232.956 80.2087 232.579 80.1129C232.413 80.0682 232.244 80.0426 232.071 80.0362C231.905 80.0298 231.781 80.0266 231.698 80.0266H228.084V77.8606H231.794C231.864 77.8606 232.001 77.8637 232.206 77.8701C232.416 77.8765 232.65 77.8989 232.905 77.9372C233.698 78.0586 234.353 78.3238 234.87 78.7327C235.394 79.1417 235.781 79.6592 236.03 80.2854C236.285 80.9052 236.413 81.5889 236.413 82.3365C236.413 83.4802 236.122 84.4259 235.541 85.1735C234.96 85.921 234.081 86.3843 232.905 86.5632C232.65 86.5951 232.416 86.6175 232.206 86.6303C232.001 86.6367 231.864 86.6399 231.794 86.6399H225.199ZM225.199 89.7836V87.9721H233.375V89.7836H225.199ZM226.57 91.6621V77.8606H228.88V91.6621H226.57Z" fill="white"/>
<defs>
<filter id="filter0_d_363_6136" x="0.389606" y="0.909331" width="315.221" height="152.818" filterUnits="userSpaceOnUse" color-interpolation-filters="sRGB">
<feFlood flood-opacity="0" result="BackgroundImageFix"/>
<feColorMatrix in="SourceAlpha" type="matrix" values="0 0 0 0 0 0 0 0 0 0 0 0 0 0 0 0 0 0 127 0" result="hardAlpha"/>
<feOffset dy="8.51948"/>
<feGaussianBlur stdDeviation="17.039"/>
<feComposite in2="hardAlpha" operator="out"/>
<feColorMatrix type="matrix" values="0 0 0 0 0.407843 0 0 0 0 0.00392157 0 0 0 0 1 0 0 0 0.12 0"/>
<feBlend mode="normal" in2="BackgroundImageFix" result="effect1_dropShadow_363_6136"/>
<feBlend mode="normal" in="SourceGraphic" in2="effect1_dropShadow_363_6136" result="shape"/>
</filter>
<linearGradient id="paint0_linear_363_6136" x1="44.2507" y1="115.966" x2="278.284" y2="57.2443" gradientUnits="userSpaceOnUse">
<stop stop-color="#6801FE" stop-opacity="0.06"/>
<stop offset="1" stop-color="#D9D9D9" stop-opacity="0.06"/>
</linearGradient>
<radialGradient id="paint1_angular_363_6136" cx="0" cy="0" r="1" gradientUnits="userSpaceOnUse" gradientTransform="translate(158 68.7987) rotate(89.352) scale(30.2964 89.1554)">
<stop offset="0.144806" stop-color="#6700FF"/>
<stop offset="0.347377" stop-color="white" stop-opacity="0.04"/>
<stop offset="0.653019" stop-color="white"/>
<stop offset="0.847291" stop-color="white" stop-opacity="0.07"/>
</radialGradient>
</defs>
</svg>
