<svg width="363" height="96" viewBox="0 0 363 96" fill="none" xmlns="http://www.w3.org/2000/svg">
<path d="M0.576 39H30.996C43.528 39 47.064 33.54 47.064 27.716V27.196C47.064 20.696 41.916 18.304 37.704 17.628C40.616 17.212 45.036 14.924 45.036 9.88V9.412C45.036 4.836 41.968 0.311999 30.892 0.311999H0.576V39ZM28.084 8.892C31.204 8.892 32.14 10.14 32.14 11.96V12.064C32.14 13.78 31.204 15.132 28.084 15.132H13.004V8.892H28.084ZM29.072 23.14C32.816 23.14 33.648 24.596 33.648 26.312V26.52C33.648 28.184 32.816 30.004 29.072 30.004H13.004V23.14H29.072ZM66.5274 0.311999H54.0994V39H81.6074C94.5034 39 98.5074 33.228 98.5074 25.896V25.324C98.5074 17.68 94.7114 12.324 81.6074 12.324H66.5274V0.311999ZM66.5274 29.796V21.528H80.5674C83.8954 21.528 85.5594 23.088 85.5594 25.428V25.792C85.5594 28.236 83.8954 29.796 80.5674 29.796H66.5274ZM114.939 0.311999H102.511V39H114.939V0.311999ZM124.076 39H152.884C164.532 39 168.64 33.54 168.64 26.676V26.052C168.64 19.136 164.688 13.832 152.884 13.832H136.504V9.256H165.832V0.311999H124.076V39ZM136.504 30.056V22.776H150.752C154.08 22.776 155.692 24.128 155.692 26.208V26.52C155.692 28.652 154.08 30.056 150.752 30.056H136.504ZM202.816 27.04C216.024 27.04 219.924 21.424 219.924 13.884V13.26C219.924 5.668 216.128 0.311999 202.816 0.311999H175.568V39H187.996V27.04H202.816ZM187.996 9.62H201.776C205.676 9.62 207.028 11.284 207.028 13.572V13.728C207.028 16.172 205.676 17.784 201.776 17.784H187.996V9.62ZM250.508 23.764H237.664L244.008 9.308L250.508 23.764ZM257.32 39H270.58L252.432 0.311999H236.052L218.476 39H230.904L233.868 32.292H254.304L257.32 39ZM283.937 39H296.313V10.088H311.549V0.311999H268.701V10.088H283.937V39ZM330.945 0.311999H318.517V39H346.025C358.921 39 362.925 33.228 362.925 25.896V25.324C362.925 17.68 359.129 12.324 346.025 12.324H330.945V0.311999ZM330.945 29.796V21.528H344.985C348.313 21.528 349.977 23.088 349.977 25.428V25.792C349.977 28.236 348.313 29.796 344.985 29.796H330.945ZM0.576 96H29.384C41.032 96 45.14 90.54 45.14 83.676V83.052C45.14 76.136 41.188 70.832 29.384 70.832H13.004V66.256H42.332V57.312H0.576V96ZM13.004 87.056V79.776H27.252C30.58 79.776 32.192 81.128 32.192 83.208V83.52C32.192 85.652 30.58 87.056 27.252 87.056H13.004ZM85.4002 96H97.7762V57.312H85.4002L64.4962 81.96V57.312H52.0682V96H64.4962L85.4002 71.352V96ZM137.332 96H149.76V57.312H110.552C110.552 76.552 110.344 80.296 109.252 82.948C108.472 84.612 107.276 85.912 104.416 85.912H103.792V96H107.952C115.856 96 118.716 92.776 120.38 88.512C121.836 84.404 122.408 77.124 122.408 66.516H137.332V96ZM158.912 57.312V96H196.3V87.004H171.236V81.024H195.208V71.82H171.236V66.204H195.988V57.312H158.912ZM217.312 96H229.688V67.088H244.924V57.312H202.076V67.088H217.312V96ZM264.32 57.312H251.892V96H279.4C292.296 96 296.3 90.228 296.3 82.896V82.324C296.3 74.68 292.504 69.324 279.4 69.324H264.32V57.312ZM264.32 86.796V78.528H278.36C281.688 78.528 283.352 80.088 283.352 82.428V82.792C283.352 85.236 281.688 86.796 278.36 86.796H264.32ZM312.732 57.312H300.304V96H312.732V57.312Z" fill="white"/>
</svg>
