<svg width="471" height="54" viewBox="0 0 471 54" fill="none" xmlns="http://www.w3.org/2000/svg">
<path d="M1.86145 0.280483V17.6704H6.62285V11.2193H17.2837V7.24579H6.62285V4.13711H17.6089V0.280483H1.86145Z" fill="white"/>
<path d="M29.3124 0C21.2297 0 18.9302 4.79157 18.9302 8.57808V9.27928C18.9302 13.019 21.2297 17.9509 29.3124 17.9509H30.3344C38.4171 17.9509 40.7165 13.019 40.7165 9.27928V8.57808C40.7165 4.7682 38.4171 0 30.3344 0H29.3124ZM35.7461 9.0923C35.7461 11.1959 34.6777 13.954 29.8234 13.954C25.062 13.954 23.9007 11.1959 23.9007 9.0923V8.76507C23.9007 6.6147 24.9923 3.9735 29.8234 3.9735C34.7009 3.9735 35.7461 6.6147 35.7461 8.76507V9.0923Z" fill="white"/>
<path d="M47.3747 4.11374H54.0406C55.9916 4.11374 56.5258 4.90844 56.5258 5.9135V5.96024C56.5258 6.96531 55.9916 7.80675 54.0406 7.80675H47.3747V4.11374ZM57.8962 9.30266C60.0562 8.81181 61.5427 7.33928 61.5427 5.16555V4.93181C61.5427 3.03856 60.7995 0.280483 54.2264 0.280483H42.5901V17.6704H47.3747V11.7569H53.5993C56.0149 11.7569 56.8278 12.7853 56.8278 15.0292V16.455C56.8278 17.2263 56.9207 17.5535 56.9904 17.6704H61.9376V17.5535C61.775 17.273 61.6589 16.9224 61.6589 15.6135V13.8137C61.6589 11.266 60.2421 9.84025 57.8962 9.30266Z" fill="white"/>
<path d="M69.1535 17.6704H73.9149V4.25398H80.6041V0.280483H62.4643V4.25398H69.1535V17.6704Z" fill="white"/>
<path d="M92.1951 17.9275C100.371 17.9275 101.579 12.5983 101.579 9.11567V0.280483H96.8171V8.9988C96.8171 10.9855 96.3062 13.8371 91.9164 13.8371H91.8003C87.4105 13.8371 86.8531 10.9855 86.8531 8.9988V0.280483H82.0684V9.11567C82.0684 12.5749 83.0439 17.9275 91.5215 17.9275H92.1951Z" fill="white"/>
<path d="M119.084 17.6704H123.775V0.280483H119.13V11.4764L109.027 0.280483H104.103V17.6704H108.771V6.40434L119.084 17.6704Z" fill="white"/>
<path d="M126.429 0.280483V17.6704H142.385V13.8371H131.144V10.8219H141.898V6.89518H131.144V4.06699H142.246V0.280483H126.429Z" fill="white"/>
<path d="M32.4007 53.4938V45.9856H7.75436C7.75436 45.3107 8.84417 44.2562 15.0057 42.6955C16.4728 42.3158 18.3171 41.894 19.9937 41.5144C28.6702 39.4897 31.6881 37.2119 31.6881 31.7705V31.4331C31.6881 26.0761 28.251 21.7314 17.1015 21.7314H15.2153C2.64068 21.7314 0.544901 28.86 0.544901 33.1203V33.4156H9.55673C9.68248 31.8971 10.1855 28.4382 16.3051 28.4382C21.4607 28.4382 22.5505 29.788 22.5505 31.4753C22.5505 33.036 21.4607 33.8796 17.3111 35.1029L12.3232 36.6214C0.586817 40.3333 0 44.4671 0 48.9383V53.4938H32.4007Z" fill="white"/>
<path d="M51.7928 21.6049C37.2062 21.6049 34.356 31.3909 34.356 37.0854V38.3508C34.356 43.8344 37.2062 54 51.7928 54H53.5533C68.0979 54 70.9901 43.8344 70.9901 38.3508V37.0854C70.9901 31.5175 68.1818 21.6049 53.5533 21.6049H51.7928ZM62.0202 37.9712C62.0202 40.8395 60.7627 46.787 52.7149 46.787C44.6672 46.787 43.3259 40.8395 43.3259 37.9712V37.3806C43.3259 34.5545 44.4157 28.7757 52.673 28.7757C60.8466 28.7757 62.0202 34.5545 62.0202 37.3806V37.9712Z" fill="white"/>
<path d="M90.357 53.9578C102.345 53.9578 105.321 47.6306 105.321 42.8642V42.358C105.321 37.7181 102.764 32.6142 91.9079 32.6142H91.4887C85.8721 32.6142 83.0637 34.7232 82.7284 35.0607V29.2397H103.141V22.1111H74.1776V41.5144H82.7284C82.8541 40.7129 84.0278 39.0679 89.6025 39.0679C95.1354 39.0679 96.7282 40.5864 96.7282 42.822V43.0751C96.7282 45.1841 95.0096 46.9557 89.6025 46.9557C83.8601 46.9557 82.938 44.8467 82.8122 44.1296H73.7166V44.7201C73.7166 47.3354 75.6447 53.9578 88.6804 53.9578H90.357Z" fill="white"/>
<path d="M124.803 21.6049C110.216 21.6049 107.366 31.3909 107.366 37.0854V38.3508C107.366 43.8344 110.216 54 124.803 54H126.563C141.108 54 144 43.8344 144 38.3508V37.0854C144 31.5175 141.192 21.6049 126.563 21.6049H124.803ZM135.03 37.9712C135.03 40.8395 133.773 46.787 125.725 46.787C117.677 46.787 116.336 40.8395 116.336 37.9712V37.3806C116.336 34.5545 117.426 28.7757 125.683 28.7757C133.856 28.7757 135.03 34.5545 135.03 37.3806V37.9712Z" fill="white"/>
<path d="M183.286 40.1634C179.419 40.1634 175.08 38.2515 175.08 33.9497V20.9201C175.08 16.6617 179.183 13.8311 183.404 13.8311C186.552 13.8311 188.985 15.1471 190.375 16.5003L188.544 20.2434C186.992 18.6543 184.72 18.0522 183.522 18.0522C181.492 18.0522 179.736 19.3247 179.736 21.7581V32.9937C179.736 35.0236 181.927 36.1037 183.678 36.1037C184.876 36.1037 187.265 35.5823 189.73 33.9124L190.884 38.0156C188.495 39.5303 186.545 40.1696 183.274 40.1696L183.286 40.1634Z" fill="white"/>
<path d="M206.391 39.8839L200.06 29.8836H197.751V39.8839H193.529L193.492 14.2282L201.339 14.1909C205.243 14.1537 209.39 16.3015 209.346 20.8454V22.9559C209.309 25.5445 207.912 28.6917 204.566 29.3683L211.537 39.8901H206.398L206.391 39.8839ZM204.958 21.0813C204.958 18.89 203.164 18.0954 200.854 18.0954H197.707L197.744 26.0225H200.892C203.039 25.9852 204.958 25.1472 204.958 22.6766V21.0813Z" fill="white"/>
<path d="M221.774 40.1634C217.87 40.1634 213.127 38.1708 213.127 33.751V20.2434C213.127 15.8237 217.87 13.8311 221.774 13.8311C225.679 13.8311 230.34 15.8609 230.34 20.2434V33.751C230.34 38.1336 225.641 40.1634 221.774 40.1634ZM225.679 20.8456C225.679 19.2502 224.245 17.897 221.811 17.897C219.378 17.897 217.789 19.2937 217.789 20.8456V33.1924C217.789 34.7815 219.701 36.1409 221.811 36.1409C224.083 36.1409 225.679 34.7877 225.679 33.1924V20.8456Z" fill="white"/>
<path d="M241.73 40.1634C237.863 40.1634 233.523 38.2515 233.523 33.9497V20.9201C233.523 16.6617 237.627 13.8311 241.854 13.8311C245.001 13.8311 247.428 15.1471 248.825 16.5003L246.994 20.2434C245.442 18.6543 243.17 18.0522 241.972 18.0522C239.942 18.0522 238.185 19.3247 238.185 21.7581V32.9937C238.185 35.0236 240.377 36.1037 242.127 36.1037C243.325 36.1037 245.715 35.5823 248.179 33.9124L249.334 38.0156C246.944 39.5303 244.995 40.1696 241.724 40.1696L241.73 40.1634Z" fill="white"/>
<path d="M268.54 33.7512C268.54 38.1337 263.921 40.1636 260.017 40.1636C256.112 40.1636 251.531 38.1337 251.531 33.7512V14.2285H256.23V33.3105C256.23 35.421 258.422 36.2591 260.135 36.2591C261.848 36.2591 263.959 35.421 263.959 33.3105V14.2285H268.54V33.7512Z" fill="white"/>
<path d="M278.977 40.1634C275.469 40.1634 273.16 39.1268 270.932 37.0534L273.719 33.7076C275.271 35.5016 277.586 36.1782 278.902 36.1782C281.211 36.1782 282.689 35.1788 283.005 33.3103C283.44 30.4424 279.219 29.0085 277.152 27.9718C274.166 26.4572 271.776 24.3094 271.776 20.6842C271.776 16.7796 274.88 13.8311 279.74 13.8311C283.247 13.8311 285.439 15.3829 286.711 16.941L284.16 20.2434C282.844 18.7288 281.41 17.9715 279.821 17.9715C277.63 17.9715 276.394 19.244 276.475 20.6407C276.593 23.2665 280.938 24.7439 282.887 25.8178C286.196 27.6863 288.865 30.9142 287.469 34.9429C286.233 38.4874 282.726 40.1634 278.983 40.1634H278.977Z" fill="white"/>
<path d="M303.048 40.1634C299.187 40.1634 294.842 38.2515 294.842 33.9497V20.9201C294.842 16.6555 298.945 13.8311 303.166 13.8311C306.313 13.8311 308.747 15.1471 310.137 16.5003L308.306 20.2434C306.754 18.6481 304.482 18.0522 303.284 18.0522C301.254 18.0522 299.497 19.3247 299.497 21.7581V32.9937C299.497 35.0236 301.689 36.1037 303.439 36.1037C304.637 36.1037 307.027 35.5823 309.492 33.9124L310.646 38.0156C308.256 39.5303 306.301 40.1696 303.036 40.1696L303.048 40.1634Z" fill="white"/>
<path d="M313.248 39.8843V14.2285H317.749V39.8843H313.248Z" fill="white"/>
<path d="M336.11 18.3753H330.654V39.8844H325.992V18.3753H319.939V14.1914H336.793L336.116 18.3753H336.11Z" fill="white"/>
<path d="M349.102 30.324V39.8836H344.484V30.324L337.389 14.2279H342.411L346.47 24.0668C346.712 24.7 346.83 25.538 346.83 25.538C346.83 25.538 346.948 24.6628 347.184 24.0234L351.25 14.2217H356.191L349.102 30.3178V30.324Z" fill="white"/>
<path d="M381.754 39.8032L377.173 39.8405L377.21 28.6048H367.731V39.797L363.188 39.8342V14.1475H367.731V24.5078H377.21V14.1475H381.754V39.8032Z" fill="white"/>
<path d="M400.196 39.8032L398.123 32.5156H391.233L389.159 39.8032H384.336L392.188 14.1475H397.409L405.255 39.8032H400.196ZM395.056 21.7144C394.777 20.6778 394.696 19.2066 394.696 19.2066C394.696 19.2066 394.616 20.6778 394.293 21.7144L392.424 28.3255H396.925L395.056 21.7144Z" fill="white"/>
<path d="M421.594 39.8032H407.453V14.1475H412.072V35.6255H422.631L421.594 39.8094V39.8032Z" fill="white"/>
<path d="M438.963 39.8032H424.822V14.1475H429.441V35.6255H440L438.963 39.8094V39.8032Z" fill="white"/>
</svg>
