<svg width="138" height="50" viewBox="0 0 138 50" fill="none" xmlns="http://www.w3.org/2000/svg">
<path d="M1.78389 0.259706V16.3615H6.34689V10.3882H16.5636V6.70906H6.34689V3.83066H16.8752V0.259706H1.78389Z" fill="url(#paint0_linear_325_171)"/>
<path d="M28.0911 0C20.3451 0 18.1415 4.43664 18.1415 7.94267V8.59193C18.1415 12.0547 20.3451 16.6212 28.0911 16.6212H29.0704C36.8164 16.6212 39.02 12.0547 39.02 8.59193V7.94267C39.02 4.415 36.8164 0 29.0704 0H28.0911ZM34.2567 8.41879C34.2567 10.3666 33.2328 12.9204 28.5807 12.9204C24.0177 12.9204 22.9048 10.3666 22.9048 8.41879V8.1158C22.9048 6.12473 23.951 3.67916 28.5807 3.67916C33.255 3.67916 34.2567 6.12473 34.2567 8.1158V8.41879Z" fill="url(#paint1_linear_325_171)"/>
<path d="M45.4007 3.80902H51.7889C53.6586 3.80902 54.1706 4.54485 54.1706 5.47546V5.51875C54.1706 6.44936 53.6586 7.22847 51.7889 7.22847H45.4007V3.80902ZM55.4839 8.61357C57.5539 8.15909 58.9785 6.79563 58.9785 4.78291V4.56649C58.9785 2.81348 58.2662 0.259706 51.967 0.259706H40.8155V16.3615H45.4007V10.886H51.366C53.6809 10.886 54.46 11.8382 54.46 13.9159V15.2361C54.46 15.9503 54.549 16.2532 54.6158 16.3615H59.3568V16.2532C59.201 15.9935 59.0897 15.6689 59.0897 14.4569V12.7905C59.0897 10.4315 57.732 9.11134 55.4839 8.61357Z" fill="url(#paint2_linear_325_171)"/>
<path d="M66.2721 16.3615H70.8351V3.93887H77.2456V0.259706H59.8617V3.93887H66.2721V16.3615Z" fill="url(#paint3_linear_325_171)"/>
<path d="M88.3536 16.5995C96.1887 16.5995 97.3461 11.6651 97.3461 8.44043V0.259706H92.7831V8.33222C92.7831 10.1718 92.2934 12.8121 88.0865 12.8121H87.9752C83.7684 12.8121 83.2342 10.1718 83.2342 8.33222V0.259706H78.6489V8.44043C78.6489 11.6435 79.5838 16.5995 87.7082 16.5995H88.3536Z" fill="url(#paint4_linear_325_171)"/>
<path d="M114.122 16.3615H118.618V0.259706H114.166V10.6263L104.484 0.259706H99.765V16.3615H104.239V5.92995L114.122 16.3615Z" fill="url(#paint5_linear_325_171)"/>
<path d="M121.161 0.259706V16.3615H136.453V12.8121H125.679V10.0203H135.985V6.38443H125.679V3.76573H136.319V0.259706H121.161Z" fill="url(#paint6_linear_325_171)"/>
<path d="M31.0506 49.5313V42.5793H7.43127C7.43127 41.9543 8.47566 40.9779 14.3805 39.5328C15.7864 39.1813 17.5539 38.7908 19.1606 38.4393C27.4756 36.5645 30.3678 34.4555 30.3678 29.4172V29.1047C30.3678 24.1445 27.0739 20.1217 16.389 20.1217H14.5813C2.53065 20.1217 0.522197 26.7223 0.522197 30.667V30.9404H9.15853C9.27904 29.5343 9.76107 26.3317 15.6257 26.3317C20.5665 26.3317 21.6109 27.5815 21.6109 29.1438C21.6109 30.5889 20.5665 31.37 16.5898 32.5026L11.8097 33.9087C0.562367 37.3457 0 41.1732 0 45.3132V49.5313H31.0506Z" fill="url(#paint7_linear_325_171)"/>
<path d="M49.6348 20.0045C35.656 20.0045 32.9245 29.0657 32.9245 34.3383V35.51C32.9245 40.5874 35.656 50 49.6348 50H51.3219C65.2605 50 68.0322 40.5874 68.0322 35.51V34.3383C68.0322 29.1828 65.3409 20.0045 51.3219 20.0045H49.6348ZM59.436 35.1585C59.436 37.8143 58.2309 43.3213 50.5185 43.3213C42.806 43.3213 41.5206 37.8143 41.5206 35.1585V34.6117C41.5206 31.9949 42.565 26.6442 50.4783 26.6442C58.3113 26.6442 59.436 31.9949 59.436 34.6117V35.1585Z" fill="url(#paint8_linear_325_171)"/>
<path d="M86.5921 49.9609C98.0805 49.9609 100.932 44.1025 100.932 39.6891V39.2204C100.932 34.9242 98.4822 30.1983 88.0784 30.1983H87.6767C82.2941 30.1983 79.6027 32.1511 79.2814 32.4636V27.0738H98.8437V20.4732H71.0869V38.4393H79.2814C79.4019 37.6972 80.5266 36.174 85.8691 36.174C91.1714 36.174 92.6978 37.58 92.6978 39.65V39.8843C92.6978 41.8372 91.0509 43.4776 85.8691 43.4776C80.3659 43.4776 79.4822 41.5247 79.3617 40.8608H70.6451V41.4075C70.6451 43.8291 72.4928 49.9609 84.9854 49.9609H86.5921Z" fill="url(#paint9_linear_325_171)"/>
<path d="M119.603 20.0045C105.624 20.0045 102.892 29.0657 102.892 34.3383V35.51C102.892 40.5874 105.624 50 119.603 50H121.29C135.228 50 138 40.5874 138 35.51V34.3383C138 29.1828 135.309 20.0045 121.29 20.0045H119.603ZM129.404 35.1585C129.404 37.8143 128.199 43.3213 120.486 43.3213C112.774 43.3213 111.488 37.8143 111.488 35.1585V34.6117C111.488 31.9949 112.533 26.6442 120.446 26.6442C128.279 26.6442 129.404 31.9949 129.404 34.6117V35.1585Z" fill="url(#paint10_linear_325_171)"/>
<defs>
<linearGradient id="paint0_linear_325_171" x1="-34.5" y1="73.2759" x2="147.342" y2="62.6837" gradientUnits="userSpaceOnUse">
<stop offset="0.166742" stop-color="white"/>
<stop offset="0.338313" stop-color="#FC91AA"/>
<stop offset="0.568755" stop-color="#8849AB"/>
</linearGradient>
<linearGradient id="paint1_linear_325_171" x1="-34.5" y1="73.2759" x2="147.342" y2="62.6837" gradientUnits="userSpaceOnUse">
<stop offset="0.166742" stop-color="white"/>
<stop offset="0.338313" stop-color="#FC91AA"/>
<stop offset="0.568755" stop-color="#8849AB"/>
</linearGradient>
<linearGradient id="paint2_linear_325_171" x1="-34.5" y1="73.2759" x2="147.342" y2="62.6837" gradientUnits="userSpaceOnUse">
<stop offset="0.166742" stop-color="white"/>
<stop offset="0.338313" stop-color="#FC91AA"/>
<stop offset="0.568755" stop-color="#8849AB"/>
</linearGradient>
<linearGradient id="paint3_linear_325_171" x1="-34.5" y1="73.2759" x2="147.342" y2="62.6837" gradientUnits="userSpaceOnUse">
<stop offset="0.166742" stop-color="white"/>
<stop offset="0.338313" stop-color="#FC91AA"/>
<stop offset="0.568755" stop-color="#8849AB"/>
</linearGradient>
<linearGradient id="paint4_linear_325_171" x1="-34.5" y1="73.2759" x2="147.342" y2="62.6837" gradientUnits="userSpaceOnUse">
<stop offset="0.166742" stop-color="white"/>
<stop offset="0.338313" stop-color="#FC91AA"/>
<stop offset="0.568755" stop-color="#8849AB"/>
</linearGradient>
<linearGradient id="paint5_linear_325_171" x1="-34.5" y1="73.2759" x2="147.342" y2="62.6837" gradientUnits="userSpaceOnUse">
<stop offset="0.166742" stop-color="white"/>
<stop offset="0.338313" stop-color="#FC91AA"/>
<stop offset="0.568755" stop-color="#8849AB"/>
</linearGradient>
<linearGradient id="paint6_linear_325_171" x1="-34.5" y1="73.2759" x2="147.342" y2="62.6837" gradientUnits="userSpaceOnUse">
<stop offset="0.166742" stop-color="white"/>
<stop offset="0.338313" stop-color="#FC91AA"/>
<stop offset="0.568755" stop-color="#8849AB"/>
</linearGradient>
<linearGradient id="paint7_linear_325_171" x1="-34.5" y1="73.2759" x2="147.342" y2="62.6837" gradientUnits="userSpaceOnUse">
<stop offset="0.166742" stop-color="white"/>
<stop offset="0.338313" stop-color="#FC91AA"/>
<stop offset="0.568755" stop-color="#8849AB"/>
</linearGradient>
<linearGradient id="paint8_linear_325_171" x1="-34.5" y1="73.2759" x2="147.342" y2="62.6837" gradientUnits="userSpaceOnUse">
<stop offset="0.166742" stop-color="white"/>
<stop offset="0.338313" stop-color="#FC91AA"/>
<stop offset="0.568755" stop-color="#8849AB"/>
</linearGradient>
<linearGradient id="paint9_linear_325_171" x1="-34.5" y1="73.2759" x2="147.342" y2="62.6837" gradientUnits="userSpaceOnUse">
<stop offset="0.166742" stop-color="white"/>
<stop offset="0.338313" stop-color="#FC91AA"/>
<stop offset="0.568755" stop-color="#8849AB"/>
</linearGradient>
<linearGradient id="paint10_linear_325_171" x1="-34.5" y1="73.2759" x2="147.342" y2="62.6837" gradientUnits="userSpaceOnUse">
<stop offset="0.166742" stop-color="white"/>
<stop offset="0.338313" stop-color="#FC91AA"/>
<stop offset="0.568755" stop-color="#8849AB"/>
</linearGradient>
</defs>
</svg>
