<svg width="327" height="40" viewBox="0 0 327 40" fill="none" xmlns="http://www.w3.org/2000/svg">
<path d="M1.38307 0.272518V13.112H4.92083V8.34896H12.842V5.41521H4.92083V3.11998H13.0836V0.272518H1.38307Z" fill="white"/>
<path d="M21.7794 0.0654297C15.7738 0.0654297 14.0653 3.60319 14.0653 6.39888V6.9166C14.0653 9.67778 15.7738 13.3191 21.7794 13.3191H22.5387C28.5443 13.3191 30.2527 9.67778 30.2527 6.9166V6.39888C30.2527 3.58593 28.5443 0.0654297 22.5387 0.0654297H21.7794ZM26.5597 6.77854C26.5597 8.3317 25.7658 10.3681 22.159 10.3681C18.6213 10.3681 17.7584 8.3317 17.7584 6.77854V6.53694C17.7584 4.94926 18.5695 2.99918 22.159 2.99918C25.7831 2.99918 26.5597 4.94926 26.5597 6.53694V6.77854Z" fill="white"/>
<path d="M35.1998 3.10272H40.1527C41.6023 3.10272 41.9992 3.68947 41.9992 4.43154V4.46605C41.9992 5.20812 41.6023 5.82939 40.1527 5.82939H35.1998V3.10272ZM43.0174 6.93386C44.6223 6.57145 45.7268 5.48424 45.7268 3.8793V3.70673C45.7268 2.30889 45.1745 0.272518 40.2907 0.272518H31.6448V13.112H35.1998V8.74588H39.8248C41.6195 8.74588 42.2235 9.5052 42.2235 11.1619V12.2146C42.2235 12.7841 42.2926 13.0257 42.3443 13.112H46.0202V13.0257C45.8994 12.8186 45.8131 12.5598 45.8131 11.5933V10.2645C45.8131 8.38347 44.7604 7.33078 43.0174 6.93386Z" fill="white"/>
<path d="M51.3817 13.112H54.9194V3.20627H59.8895V0.272518H46.4115V3.20627H51.3817V13.112Z" fill="white"/>
<path d="M68.5018 13.3018C74.5763 13.3018 75.4737 9.36714 75.4737 6.7958V0.272518H71.936V6.70951C71.936 8.17639 71.5563 10.2818 68.2947 10.2818H68.2084C64.9467 10.2818 64.5326 8.17639 64.5326 6.70951V0.272518H60.9776V6.7958C60.9776 9.34989 61.7024 13.3018 68.0013 13.3018H68.5018Z" fill="white"/>
<path d="M88.4801 13.112H91.9661V0.272518H88.5146V8.53879L81.0077 0.272518H77.3491V13.112H80.8178V4.79394L88.4801 13.112Z" fill="white"/>
<path d="M93.9377 0.272518V13.112H105.794V10.2818H97.441V8.05558H105.431V5.15635H97.441V3.06821H105.69V0.272518H93.9377Z" fill="white"/>
<path d="M24.074 39.5615V34.0179H5.76156C5.76156 33.5196 6.57129 32.7411 11.1494 31.5887C12.2394 31.3085 13.6097 30.997 14.8555 30.7167C21.3022 29.2218 23.5445 27.5401 23.5445 23.5226V23.2734C23.5445 19.3182 20.9908 16.1104 12.7066 16.1104H11.3051C1.96204 16.1104 0.404866 21.3737 0.404866 24.5192V24.7372H7.10073C7.19416 23.616 7.56789 21.0622 12.1148 21.0622C15.9455 21.0622 16.7552 22.0588 16.7552 23.3046C16.7552 24.4569 15.9455 25.0797 12.8623 25.9829L9.15621 27.1041C0.43601 29.8447 0 32.8968 0 36.198V39.5615H24.074Z" fill="white"/>
<path d="M38.4825 16.017C27.6445 16.017 25.5268 23.2423 25.5268 27.4467V28.381C25.5268 32.4296 27.6445 39.9352 38.4825 39.9352H39.7905C50.5974 39.9352 52.7463 32.4296 52.7463 28.381V27.4467C52.7463 23.3357 50.6596 16.017 39.7905 16.017H38.4825ZM46.0815 28.1007C46.0815 30.2184 45.1472 34.6097 39.1677 34.6097C33.1881 34.6097 32.1915 30.2184 32.1915 28.1007V27.6647C32.1915 25.578 33.0012 21.3114 39.1365 21.3114C45.2095 21.3114 46.0815 25.578 46.0815 27.6647V28.1007Z" fill="white"/>
<path d="M67.136 39.9041C76.0431 39.9041 78.2543 35.2325 78.2543 31.7133V31.3396C78.2543 27.9138 76.3545 24.1454 68.2884 24.1454H67.9769C63.8037 24.1454 61.7171 25.7026 61.4679 25.9518V21.6539H76.6348V16.3907H55.1146V30.7167H61.4679C61.5613 30.125 62.4334 28.9104 66.5755 28.9104C70.6864 28.9104 71.8699 30.0316 71.8699 31.6822V31.869C71.8699 33.4262 70.593 34.7342 66.5755 34.7342C62.3088 34.7342 61.6236 33.1771 61.5302 32.6476H54.772V33.0836C54.772 35.0145 56.2047 39.9041 65.8903 39.9041H67.136Z" fill="white"/>
<path d="M92.7295 16.017C81.8915 16.017 79.7738 23.2423 79.7738 27.4467V28.381C79.7738 32.4296 81.8915 39.9352 92.7295 39.9352H94.0375C104.844 39.9352 106.993 32.4296 106.993 28.381V27.4467C106.993 23.3357 104.907 16.017 94.0375 16.017H92.7295ZM100.329 28.1007C100.329 30.2184 99.3942 34.6097 93.4146 34.6097C87.4351 34.6097 86.4385 30.2184 86.4385 28.1007V27.6647C86.4385 25.578 87.2482 21.3114 93.3835 21.3114C99.4565 21.3114 100.329 25.578 100.329 27.6647V28.1007Z" fill="white"/>
<path d="M143.923 29.3822C141.167 29.3822 138.074 28.0195 138.074 24.9535V15.6668C138.074 12.6317 140.999 10.6143 144.007 10.6143C146.25 10.6143 147.985 11.5522 148.976 12.5167L147.671 15.1846C146.564 14.052 144.945 13.6228 144.091 13.6228C142.645 13.6228 141.392 14.5298 141.392 16.2641V24.2721C141.392 25.7189 142.954 26.4887 144.202 26.4887C145.056 26.4887 146.759 26.1171 148.516 24.9269L149.339 27.8514C147.635 28.9309 146.246 29.3866 143.914 29.3866L143.923 29.3822Z" fill="white"/>
<path d="M160.391 29.1837L155.878 22.0561H154.232V29.1837H151.223L151.197 10.898L156.789 10.8714C159.572 10.8449 162.527 12.3757 162.496 15.6143V17.1186C162.47 18.9635 161.474 21.2066 159.09 21.6889L164.058 29.1881H160.395L160.391 29.1837ZM159.368 15.7824C159.368 14.2206 158.09 13.6543 156.444 13.6543H154.201L154.227 19.3042H156.471C158.001 19.2776 159.368 18.6804 159.368 16.9195V15.7824Z" fill="white"/>
<path d="M171.354 29.3822C168.571 29.3822 165.191 27.962 165.191 24.8119V15.1846C165.191 12.0345 168.571 10.6143 171.354 10.6143C174.137 10.6143 177.46 12.061 177.46 15.1846V24.8119C177.46 27.9355 174.11 29.3822 171.354 29.3822ZM174.137 15.6137C174.137 14.4767 173.115 13.5122 171.381 13.5122C169.646 13.5122 168.514 14.5077 168.514 15.6137V24.4137C168.514 25.5463 169.876 26.5153 171.381 26.5153C173 26.5153 174.137 25.5508 174.137 24.4137V15.6137Z" fill="white"/>
<path d="M185.578 29.3822C182.822 29.3822 179.729 28.0195 179.729 24.9535V15.6668C179.729 12.6317 182.654 10.6143 185.667 10.6143C187.91 10.6143 189.64 11.5522 190.635 12.5167L189.33 15.1846C188.224 14.052 186.605 13.6228 185.751 13.6228C184.304 13.6228 183.052 14.5298 183.052 16.2641V24.2721C183.052 25.7189 184.614 26.4887 185.861 26.4887C186.715 26.4887 188.419 26.1171 190.175 24.9269L190.998 27.8514C189.295 28.9309 187.905 29.3866 185.574 29.3866L185.578 29.3822Z" fill="white"/>
<path d="M204.687 24.8119C204.687 27.9355 201.395 29.3823 198.612 29.3823C195.829 29.3823 192.564 27.9355 192.564 24.8119V10.8975H195.913V24.4978C195.913 26.0021 197.475 26.5994 198.696 26.5994C199.917 26.5994 201.422 26.0021 201.422 24.4978V10.8975H204.687V24.8119Z" fill="white"/>
<path d="M212.124 29.3822C209.625 29.3822 207.979 28.6434 206.39 27.1656L208.377 24.7809C209.483 26.0596 211.133 26.5418 212.071 26.5418C213.717 26.5418 214.77 25.8295 214.996 24.4978C215.305 22.4537 212.297 21.4317 210.824 20.6929C208.695 19.6133 206.992 18.0825 206.992 15.4987C206.992 12.7158 209.204 10.6143 212.668 10.6143C215.168 10.6143 216.73 11.7203 217.637 12.8308L215.819 15.1846C214.881 14.105 213.859 13.5653 212.726 13.5653C211.164 13.5653 210.284 14.4723 210.341 15.4677C210.425 17.3392 213.522 18.3922 214.912 19.1576C217.27 20.4893 219.172 22.79 218.177 25.6614C217.296 28.1877 214.797 29.3822 212.129 29.3822H212.124Z" fill="white"/>
<path d="M229.282 29.3822C226.53 29.3822 223.433 28.0195 223.433 24.9535V15.6668C223.433 12.6273 226.357 10.6143 229.366 10.6143C231.609 10.6143 233.343 11.5522 234.334 12.5167L233.029 15.1846C231.923 14.0475 230.304 13.6228 229.45 13.6228C228.003 13.6228 226.751 14.5298 226.751 16.2641V24.2721C226.751 25.7189 228.313 26.4887 229.56 26.4887C230.414 26.4887 232.118 26.1171 233.874 24.9269L234.697 27.8514C232.994 28.9309 231.6 29.3866 229.273 29.3866L229.282 29.3822Z" fill="white"/>
<path d="M236.551 29.1832V10.8975H239.758V29.1832H236.551Z" fill="white"/>
<path d="M252.846 13.8531H248.957V29.1834H245.634V13.8531H241.32V10.8711H253.332L252.85 13.8531H252.846Z" fill="white"/>
<path d="M262.106 22.3693V29.1827H258.814V22.3693L253.757 10.897H257.336L260.23 17.9095C260.402 18.3608 260.486 18.9581 260.486 18.9581C260.486 18.9581 260.571 18.3343 260.739 17.8786L263.637 10.8926H267.158L262.106 22.3648V22.3693Z" fill="white"/>
<path d="M285.378 29.1256L282.113 29.1521L282.139 21.1441H275.383V29.1211L272.145 29.1477V10.8398H275.383V18.224H282.139V10.8398H285.378V29.1256Z" fill="white"/>
<path d="M298.522 29.1256L297.044 23.9314H292.133L290.656 29.1256H287.218L292.815 10.8398H296.536L302.128 29.1256H298.522ZM294.859 16.2331C294.66 15.4942 294.602 14.4457 294.602 14.4457C294.602 14.4457 294.545 15.4942 294.315 16.2331L292.983 20.945H296.191L294.859 16.2331Z" fill="white"/>
<path d="M313.773 29.1256H303.694V10.8398H306.986V26.148H314.512L313.773 29.13V29.1256Z" fill="white"/>
<path d="M326.152 29.1256H316.074V10.8398H319.365V26.148H326.891L326.152 29.13V29.1256Z" fill="white"/>
</svg>
