<?xml version="1.0" encoding="UTF-8"?> <svg xmlns="http://www.w3.org/2000/svg" width="160" height="27" viewBox="0 0 160 27" fill="none"> <path d="M32.0269 4.39425C32.0269 2.64773 31.155 0.77063 28.7172 0.77063H24.2935V12.882H25.1168V8.00154H27.4579L30.8806 12.8657H31.8816L28.4911 8.00154H28.6203C30.7514 8.01787 32.0269 6.66309 32.0269 4.39425ZM25.1168 7.20173V1.61941H28.7172C31.0259 1.61941 31.2035 3.77399 31.2035 4.42689C31.2035 5.25935 30.9613 7.20173 28.6364 7.20173H25.1168Z" fill="white"></path> <path d="M38.0007 12.8815V7.11963L42.5213 0.770142H41.5203L37.5809 6.33614L33.6739 0.770142H32.6567L37.1612 7.1033V12.8815H38.0007Z" fill="white"></path> <path d="M51.4495 3.69197C51.4495 1.88016 50.2386 0.753906 48.3012 0.753906H44.1035V12.8816H48.8017C50.6906 12.8816 52.1114 11.4615 52.1114 9.5681C52.1275 8.19701 51.3042 6.94016 50.0771 6.41785C50.9167 5.89552 51.4495 4.85088 51.4495 3.69197ZM50.4646 7.60939C50.9813 8.11539 51.2719 8.78462 51.2719 9.50281V9.58443C51.288 10.2373 51.0458 10.8576 50.5938 11.3146C50.1417 11.788 49.5444 12.0491 48.8986 12.0655H44.9108V6.87488H48.5434C49.286 6.84223 49.948 7.10339 50.4646 7.60939ZM48.7371 6.07507H44.943V1.60268H48.3173C49.7704 1.60268 50.6422 2.38617 50.6422 3.7083C50.6261 5.34055 49.6735 6.07507 48.7371 6.07507Z" fill="white"></path> <path d="M58.3269 0.770142H57.5681L52.9829 12.8815H53.8547L55.3239 9.02937L57.9394 2.09227L60.5549 9.02937L62.0241 12.8815H62.8959L58.3592 0.868076L58.3269 0.770142Z" fill="white"></path> <path d="M64.5913 0.770142V12.8815H65.4308V7.75621L70.8878 12.8815H72.0987L65.9959 7.16859L71.2753 0.770142H70.1936L65.4308 6.58098V0.770142H64.5913Z" fill="white"></path> <path d="M77.8463 13.0611C81.1721 13.0611 83.8683 10.27 83.8683 6.85855C83.8683 3.43081 81.156 0.639648 77.8463 0.639648C74.472 0.639648 71.8242 3.36552 71.8242 6.85855C71.8242 10.3353 74.472 13.0611 77.8463 13.0611ZM77.8463 1.4721C80.7201 1.4721 83.045 3.88784 83.045 6.85855C83.045 9.87823 80.7524 12.2287 77.8463 12.2287C74.9886 12.2287 72.6638 9.81294 72.6638 6.85855C72.6638 3.88785 74.9886 1.4721 77.8463 1.4721Z" fill="white"></path> <path d="M88.3566 12.8815H89.1316L93.7167 0.770142H92.8449L88.7441 11.5594L86.1286 4.62227L84.6594 0.770142H83.7876L88.3243 12.7836L88.3566 12.8815Z" fill="white"></path> <path d="M24.4619 16.3711V18.4384V21.5574H25.1469V19.3292H26.9986V18.6894H25.1469V18.4492V17.0033H27.4804V16.3711H27.3584H24.4619Z" fill="white"></path> <path d="M33.1483 16.3104C31.673 16.3104 30.5288 17.4997 30.5288 18.9751C30.5288 20.4429 31.673 21.6322 33.1483 21.6322C34.6312 21.6322 35.7829 20.4429 35.7829 18.9751C35.7829 17.4997 34.6312 16.3104 33.1483 16.3104ZM33.1483 21C32.0569 21 31.2138 20.0816 31.2138 18.9751C31.2138 17.8611 32.0569 16.9428 33.1483 16.9428C34.2549 16.9428 35.0979 17.8611 35.0979 18.9751C35.0979 20.0816 34.2549 21 33.1483 21Z" fill="white"></path> <path d="M42.4678 19.781C42.4678 20.5939 41.9108 20.9778 41.2634 20.9778C40.616 20.9778 40.059 20.5939 40.059 19.781V16.3711H39.374V19.781C39.374 20.9552 40.2397 21.6326 41.2634 21.6326C42.2871 21.6326 43.1528 20.9552 43.1528 19.781V16.3711H42.4678V19.781Z" fill="white"></path> <path d="M64.0572 16.3711L62.085 21.5574H62.8001L64.4185 17.2743L66.0369 21.5574H66.7519L64.7798 16.3711H64.0572Z" fill="white"></path> <path d="M69.0332 17.0033H70.614V21.5574H71.2988V17.0033H72.8796V16.3711H69.0332V17.0033Z" fill="white"></path> <path d="M76.9975 16.3711H76.3125V21.5574H76.9975V16.3711Z" fill="white"></path> <path d="M83.2528 16.3104C81.7775 16.3104 80.6333 17.4997 80.6333 18.9751C80.6333 20.4429 81.7775 21.6322 83.2528 21.6322C84.7357 21.6322 85.8874 20.4429 85.8874 18.9751C85.8874 17.4997 84.7357 16.3104 83.2528 16.3104ZM83.2528 21C82.1614 21 81.3183 20.0816 81.3183 18.9751C81.3183 17.8611 82.1614 16.9428 83.2528 16.9428C84.3594 16.9428 85.2025 17.8611 85.2025 18.9751C85.2025 20.0816 84.3594 21 83.2528 21Z" fill="white"></path> <path d="M48.987 16.2957C47.9633 16.2957 47.0977 16.9731 47.0977 18.1473V21.5572H47.7826V18.1473C47.7826 17.3344 48.3396 16.9505 48.987 16.9505C49.6344 16.9505 50.1914 17.3344 50.1914 18.1473V21.5572H50.8764V18.1473C50.8764 16.9731 50.0107 16.2957 48.987 16.2957Z" fill="white"></path> <path d="M91.0456 16.3409C90.0219 16.3409 89.1562 17.0184 89.1562 18.1926V21.6025H89.8412V18.1926C89.8412 17.3797 90.3982 16.9958 91.0456 16.9958C91.693 16.9958 92.25 17.3797 92.25 18.1926V21.6025H92.935V18.1926C92.935 17.0184 92.0693 16.3409 91.0456 16.3409Z" fill="white"></path> <path d="M56.8458 16.3711H55.5208H54.8359V17.0033V20.9251V21.5574H55.5208H56.8458C58.3211 21.5574 59.1868 20.4433 59.1868 18.9755C59.1868 17.5001 58.3211 16.3711 56.8458 16.3711ZM56.8458 20.9251H55.8271H55.5209H55.5208V17.0033H55.5209H55.8271H56.8458C57.9372 17.0033 58.5018 17.869 58.5018 18.9755C58.5018 20.082 57.9372 20.9251 56.8458 20.9251Z" fill="white"></path> <path d="M116.663 3.24217H116.443L116.89 0.70874H117.11L116.663 3.24217Z" fill="white"></path> <path d="M116.724 3.31434H116.357L116.83 0.636108H117.196L116.724 3.31434ZM116.53 3.16947H116.602L117.024 0.780985H116.951L116.53 3.16947Z" fill="white"></path> <path d="M117.646 3.24192H117.423L117.87 0.708496H118.028L119.345 2.88051V2.88243L119.727 0.708496H119.951L119.504 3.24192H119.334L118.026 1.08111L118.024 1.07919L117.646 3.24192Z" fill="white"></path> <path d="M119.565 3.31434H119.294L118.064 1.28089L117.708 3.31434H117.337L117.81 0.636108H118.07L119.308 2.6787L119.667 0.636108H120.038L119.565 3.31434ZM119.376 3.16947H119.444L119.865 0.780985H119.789L119.417 2.89495L119.334 2.88772L119.284 2.91813L117.988 0.780985H117.932L117.51 3.16947H117.586L117.977 0.935501L118.089 1.04359L119.376 3.16947Z" fill="white"></path> <path d="M121.144 2.11697C121.144 1.4315 121.701 0.654663 122.649 0.654663C123.291 0.654663 123.656 1.0552 123.711 1.51159H123.492C123.429 1.09617 123.073 0.859574 122.63 0.859574C121.853 0.859574 121.365 1.49111 121.365 2.09833C121.365 2.62368 121.747 3.08191 122.323 3.08191C122.74 3.08191 123.133 2.85092 123.319 2.43181H123.548C123.327 2.99991 122.835 3.28867 122.317 3.28867C121.613 3.28867 121.144 2.75034 121.144 2.11697Z" fill="white"></path> <path d="M122.317 3.36165C121.607 3.36165 121.071 2.82672 121.071 2.11744C121.071 1.37937 121.674 0.582764 122.649 0.582764C123.357 0.582764 123.728 1.04525 123.783 1.50362L123.792 1.58457H123.43L123.421 1.52304C123.366 1.15873 123.063 0.932481 122.63 0.932481C121.894 0.932481 121.438 1.53793 121.438 2.09887C121.438 2.61827 121.818 3.00994 122.323 3.00994C122.73 3.00994 123.087 2.77732 123.253 2.40287L123.272 2.35984H123.655L123.616 2.45858C123.399 3.01561 122.901 3.36165 122.317 3.36165ZM122.649 0.72764C121.764 0.72764 121.216 1.44905 121.216 2.11744C121.216 2.74415 121.689 3.21677 122.317 3.21677C122.813 3.21677 123.225 2.95274 123.439 2.50472H123.366C123.168 2.90696 122.773 3.15482 122.323 3.15482C121.736 3.15482 121.293 2.70084 121.293 2.09887C121.293 1.46825 121.804 0.787604 122.63 0.787604C123.108 0.787604 123.463 1.04142 123.553 1.43969H123.625C123.552 1.09472 123.262 0.72764 122.649 0.72764Z" fill="white"></path> <path d="M123.947 2.11857C123.947 1.42565 124.535 0.654419 125.448 0.654419C126.171 0.654419 126.674 1.15738 126.674 1.82803C126.674 2.51726 126.082 3.28842 125.171 3.28842C124.448 3.28842 123.947 2.78547 123.947 2.11857ZM126.452 1.84107C126.452 1.28219 126.037 0.85933 125.431 0.85933C124.699 0.85933 124.167 1.48526 124.167 2.10552C124.167 2.66065 124.58 3.08167 125.184 3.08167C125.914 3.08167 126.452 2.46509 126.452 1.84107Z" fill="white"></path> <path d="M125.171 3.36165C124.42 3.36165 123.875 2.83913 123.875 2.11928C123.875 1.37725 124.507 0.582764 125.448 0.582764C126.2 0.582764 126.747 1.10684 126.747 1.82882C126.747 2.56908 126.113 3.36165 125.171 3.36165ZM125.448 0.72764C124.594 0.72764 124.019 1.4472 124.019 2.11928C124.019 2.7552 124.504 3.21677 125.171 3.21677C126.027 3.21677 126.602 2.49912 126.602 1.82882C126.602 1.19076 126.117 0.72764 125.448 0.72764ZM125.184 3.15482C124.553 3.15482 124.094 2.71381 124.094 2.10624C124.094 1.46946 124.632 0.787604 125.432 0.787604C126.065 0.787604 126.525 1.23102 126.525 1.84186C126.525 2.47594 125.986 3.15482 125.184 3.15482ZM125.432 0.932481C124.718 0.932481 124.239 1.53935 124.239 2.10624C124.239 2.62989 124.636 3.00994 125.184 3.00994C125.899 3.00994 126.38 2.40598 126.38 1.84186C126.38 1.31494 125.981 0.932481 125.432 0.932481Z" fill="white"></path> <path d="M126.985 3.24217L127.432 0.70874H127.652L127.242 3.0391H128.542L128.507 3.24217H126.985Z" fill="white"></path> <path d="M128.567 3.31434H126.898L127.371 0.636108H127.737L127.327 2.96647H128.628L128.567 3.31434ZM127.071 3.16947H128.445L128.455 3.11134H127.155L127.565 0.780985H127.492L127.071 3.16947Z" fill="white"></path> <path d="M128.962 3.24217L129.41 0.70874H129.629L129.219 3.0391H130.52L130.484 3.24217H128.962Z" fill="white"></path> <path d="M130.545 3.31434H128.875L129.348 0.636108H129.715L129.305 2.96647H130.605L130.545 3.31434ZM129.048 3.16947H130.423L130.433 3.11134H129.133L129.542 0.780985H129.47L129.048 3.16947Z" fill="white"></path> <path d="M132.979 3.24217H132.759L132.596 2.60135H131.225L130.839 3.24217H130.591L132.124 0.70874H132.34L132.979 3.24217ZM132.176 1.0143L131.338 2.40948H132.547L132.193 1.0143L132.189 0.986302H132.188L132.176 1.0143Z" fill="white"></path> <path d="M133.072 3.31434H132.703L132.539 2.6736H131.266L130.88 3.31434H130.463L132.083 0.636108H132.397L133.072 3.31434ZM132.816 3.16947H132.886L132.284 0.780985H132.165L130.72 3.16947H130.798L131.184 2.52872H132.652L132.816 3.16947ZM132.64 2.48166H131.21L132.12 0.959175L132.139 0.913671H132.251L132.265 1.00418L132.64 2.48166ZM131.466 2.33678H132.454L132.161 1.1806L131.466 2.33678Z" fill="white"></path> <path d="M133.391 3.24217L133.838 0.70874H134.833C135.25 0.70874 135.481 0.926693 135.481 1.24154C135.481 1.49862 135.313 1.78731 135.025 1.90468C135.259 1.96989 135.422 2.17664 135.422 2.43188C135.422 2.80626 135.083 3.24217 134.533 3.24217H133.391ZM133.65 3.04101H134.554C134.937 3.04101 135.196 2.71688 135.196 2.44116C135.196 2.20273 135.021 2.02206 134.768 2.02206H133.829L133.65 3.04101ZM133.862 1.84139H134.695C135.021 1.84139 135.252 1.54327 135.252 1.28811C135.252 1.07015 135.105 0.904366 134.803 0.904366H134.026L133.862 1.84139Z" fill="white"></path> <path d="M134.532 3.31434H133.304L133.777 0.636108H134.832C135.27 0.636108 135.553 0.873695 135.553 1.24127C135.553 1.49941 135.41 1.75082 135.191 1.89705C135.377 2.00549 135.493 2.20487 135.493 2.43161C135.493 2.85788 135.107 3.31434 134.532 3.31434ZM133.477 3.16947H134.532C135.021 3.16947 135.348 2.78799 135.348 2.43161C135.348 2.21175 135.214 2.03221 135.005 1.97416L134.8 1.91732L134.883 1.88386C134.824 1.903 134.761 1.91363 134.694 1.91363H133.776L133.965 0.831734H134.803C135.119 0.831734 135.324 1.01077 135.324 1.28791C135.324 1.50629 135.183 1.7431 134.96 1.85218L134.997 1.83737C135.279 1.72247 135.408 1.44781 135.408 1.24127C135.408 0.953008 135.193 0.780985 134.832 0.780985H133.898L133.477 3.16947ZM133.948 1.76875H134.694C134.972 1.76875 135.179 1.51494 135.179 1.28791C135.179 1.09009 135.042 0.976611 134.803 0.976611H134.087L133.948 1.76875ZM134.553 3.11319H133.563L133.767 1.94935H134.767C135.057 1.94935 135.268 2.15611 135.268 2.44097C135.268 2.75893 134.974 3.11319 134.553 3.11319ZM133.736 2.96831H134.553C134.879 2.96831 135.123 2.6899 135.123 2.44097C135.123 2.23677 134.977 2.09423 134.767 2.09423H133.889L133.736 2.96831Z" fill="white"></path> <path d="M135.841 2.11857C135.841 1.42565 136.429 0.654419 137.342 0.654419C138.065 0.654419 138.568 1.15738 138.568 1.82803C138.568 2.51726 137.976 3.28842 137.065 3.28842C136.342 3.28842 135.841 2.78547 135.841 2.11857ZM138.346 1.84107C138.346 1.28219 137.931 0.85933 137.325 0.85933C136.593 0.85933 136.061 1.48526 136.061 2.10552C136.061 2.66065 136.474 3.08167 137.078 3.08167C137.808 3.08167 138.346 2.46509 138.346 1.84107Z" fill="white"></path> <path d="M137.065 3.36165C136.314 3.36165 135.769 2.83913 135.769 2.11928C135.769 1.37725 136.401 0.582764 137.342 0.582764C138.095 0.582764 138.641 1.10684 138.641 1.82882C138.641 2.56908 138.007 3.36165 137.065 3.36165ZM137.342 0.72764C136.488 0.72764 135.913 1.4472 135.913 2.11928C135.913 2.7552 136.398 3.21677 137.065 3.21677C137.921 3.21677 138.496 2.49912 138.496 1.82882C138.496 1.19076 138.011 0.72764 137.342 0.72764ZM137.078 3.15482C136.447 3.15482 135.988 2.71381 135.988 2.10624C135.988 1.46946 136.526 0.787604 137.326 0.787604C137.959 0.787604 138.419 1.23102 138.419 1.84186C138.419 2.47594 137.88 3.15482 137.078 3.15482ZM137.326 0.932481C136.612 0.932481 136.133 1.53935 136.133 2.10624C136.133 2.62989 136.531 3.00994 137.078 3.00994C137.793 3.00994 138.274 2.40598 138.274 1.84186C138.274 1.31494 137.875 0.932481 137.326 0.932481Z" fill="white"></path> <path d="M138.878 3.24192L139.326 0.708496H140.378C140.806 0.708496 141.077 0.946933 141.077 1.32514C141.077 1.70513 140.823 2.11495 140.346 2.21177L140.804 3.24192H140.564L140.134 2.24345C140.11 2.24537 140.067 2.24537 140.045 2.24537H139.275L139.098 3.24192H138.878ZM139.309 2.0535H140.132C140.577 2.0535 140.851 1.70513 140.851 1.37171C140.851 1.09599 140.678 0.909722 140.369 0.909722H139.512L139.309 2.0535Z" fill="white"></path> <path d="M140.917 3.31434H140.517L140.088 2.3175C140.072 2.31771 140.056 2.31778 140.045 2.31778H139.337L139.16 3.31434H138.793L139.266 0.636108H140.379C140.847 0.636108 141.15 0.906583 141.15 1.32519C141.15 1.68809 140.93 2.12187 140.449 2.26136L140.917 3.31434ZM140.613 3.16947H140.694L140.244 2.15873L140.333 2.1408C140.795 2.04703 141.005 1.6523 141.005 1.32519C141.005 0.989511 140.765 0.780985 140.379 0.780985H139.387L138.966 3.16947H139.038L139.215 2.17291H140.045C140.067 2.17291 140.107 2.17298 140.129 2.17128L140.181 2.16738L140.613 3.16947ZM140.133 2.12598H139.223L139.452 0.837263H140.37C140.707 0.837263 140.924 1.04706 140.924 1.37169C140.924 1.73445 140.622 2.12598 140.133 2.12598ZM139.396 1.98111H140.133C140.538 1.98111 140.78 1.6713 140.78 1.37169C140.78 1.12411 140.63 0.98214 140.37 0.98214H139.573L139.396 1.98111Z" fill="white"></path> <path d="M143.371 3.24217H143.151L142.987 2.60135H141.616L141.231 3.24217H140.983L142.516 0.70874H142.732L143.371 3.24217ZM142.568 1.0143L141.73 2.40948H142.939L142.585 1.0143L142.581 0.986302H142.579L142.568 1.0143Z" fill="white"></path> <path d="M143.463 3.31434H143.094L142.93 2.6736H141.656L141.271 3.31434H140.854L142.474 0.636108H142.788L143.463 3.31434ZM143.206 3.16947H143.277L142.675 0.780985H142.556L141.11 3.16947H141.189L141.574 2.52872H143.043L143.206 3.16947ZM143.031 2.48166H141.601L142.511 0.959175L142.529 0.913671H142.642L142.656 1.00418L143.031 2.48166ZM141.857 2.33678H142.845L142.551 1.1806L141.857 2.33678Z" fill="white"></path> <path d="M144.025 3.24217L144.437 0.909966H143.597L143.63 0.70874H145.536L145.5 0.909966H144.658L144.245 3.24217H144.025Z" fill="white"></path> <path d="M144.305 3.31434H143.938L144.35 0.98214H143.511L143.568 0.636108H145.622L145.561 0.98214H144.719L144.305 3.31434ZM144.111 3.16947H144.184L144.597 0.837263H145.439L145.449 0.780985H143.691L143.682 0.837263H144.523L144.111 3.16947Z" fill="white"></path> <path d="M145.79 3.24192H145.57L146.017 0.708496H146.237L145.79 3.24192Z" fill="white"></path> <path d="M145.851 3.31434H145.484L145.957 0.636108H146.323L145.851 3.31434ZM145.657 3.16947H145.729L146.151 0.780985H146.078L145.657 3.16947Z" fill="white"></path> <path d="M146.55 2.11857C146.55 1.42565 147.139 0.654419 148.052 0.654419C148.774 0.654419 149.277 1.15738 149.277 1.82803C149.277 2.51726 148.685 3.28842 147.774 3.28842C147.051 3.28842 146.55 2.78547 146.55 2.11857ZM149.056 1.84107C149.056 1.28219 148.64 0.85933 148.035 0.85933C147.303 0.85933 146.77 1.48526 146.77 2.10552C146.77 2.66065 147.184 3.08167 147.787 3.08167C148.517 3.08167 149.056 2.46509 149.056 1.84107Z" fill="white"></path> <path d="M147.775 3.36165C147.024 3.36165 146.479 2.83913 146.479 2.11928C146.479 1.37725 147.111 0.582764 148.052 0.582764C148.804 0.582764 149.351 1.10684 149.351 1.82882C149.351 2.56908 148.717 3.36165 147.775 3.36165ZM148.052 0.72764C147.198 0.72764 146.623 1.4472 146.623 2.11928C146.623 2.7552 147.108 3.21677 147.775 3.21677C148.631 3.21677 149.206 2.49912 149.206 1.82882C149.206 1.19076 148.721 0.72764 148.052 0.72764ZM147.788 3.15482C147.157 3.15482 146.698 2.71381 146.698 2.10624C146.698 1.46946 147.236 0.787604 148.036 0.787604C148.669 0.787604 149.129 1.23102 149.129 1.84186C149.129 2.47594 148.59 3.15482 147.788 3.15482ZM148.036 0.932481C147.322 0.932481 146.843 1.53935 146.843 2.10624C146.843 2.62989 147.24 3.00994 147.788 3.00994C148.503 3.00994 148.984 2.40598 148.984 1.84186C148.984 1.31494 148.585 0.932481 148.036 0.932481Z" fill="white"></path> <path d="M149.812 3.24217H149.589L150.036 0.70874H150.194L151.511 2.88076V2.88267L151.893 0.70874H152.117L151.67 3.24217H151.5L150.192 1.08135L150.19 1.07944L149.812 3.24217Z" fill="white"></path> <path d="M151.73 3.31434H151.459L150.229 1.28089L149.873 3.31434H149.502L149.975 0.636108H150.235L151.473 2.6787L151.832 0.636108H152.203L151.73 3.31434ZM151.541 3.16947H151.609L152.03 0.780985H151.954L151.582 2.89495L151.499 2.88772L151.449 2.91813L150.153 0.780985H150.097L149.675 3.16947H149.752L150.142 0.935501L150.254 1.04359L151.541 3.16947Z" fill="white"></path> <path d="M116.644 7.30052L116.21 4.76709H116.432L116.797 6.90374L116.808 7.00991H116.812L116.853 6.90189L117.933 4.76709H118.166L118.486 6.90189L118.492 7.00991H118.496L118.538 6.89445L119.641 4.76709H119.887L118.563 7.30052H118.335L117.996 5.07633L116.869 7.30052H116.644Z" fill="white"></path> <path d="M118.606 7.37269H118.273L117.958 5.31033L116.913 7.37269H116.582L116.124 4.69446H116.492L116.845 6.75682L117.888 4.69446H118.228L118.535 6.74329L119.597 4.69446H120.006L118.606 7.37269ZM118.397 7.22781H118.518L119.767 4.83933H119.685L118.602 6.92757L118.545 7.08209H118.426L118.413 6.90546L118.103 4.83933H117.977L116.917 6.9343L116.861 7.08209H116.746L116.724 6.91106L116.37 4.83933H116.295L116.704 7.22781H116.824L118.033 4.84182L118.397 7.22781Z" fill="white"></path> <path d="M120.086 7.30052H119.866L120.313 4.76709H120.533L120.086 7.30052Z" fill="white"></path> <path d="M120.147 7.37269H119.78L120.253 4.69446H120.62L120.147 7.37269ZM119.953 7.22781H120.026L120.447 4.83933H120.375L119.953 7.22781Z" fill="white"></path> <path d="M121.409 7.30052L121.821 4.96832H120.981L121.015 4.76709H122.92L122.885 4.96832H122.043L121.629 7.30052H121.409Z" fill="white"></path> <path d="M121.689 7.37269H121.323L121.734 5.04049H120.895L120.953 4.69446H123.006L122.945 5.04049H122.103L121.689 7.37269ZM121.495 7.22781H121.568L121.982 4.89561H122.823L122.833 4.83933H121.075L121.066 4.89561H121.907L121.495 7.22781Z" fill="white"></path> <path d="M122.955 7.30027L123.402 4.76685H123.621L123.417 5.9367H125.032L125.236 4.76685H125.458L125.011 7.30027H124.79L124.996 6.13793H123.381L123.174 7.30027H122.955Z" fill="white"></path> <path d="M125.072 7.37269H124.703L124.91 6.21042H123.442L123.236 7.37269H122.869L123.341 4.69446H123.708L123.503 5.86424H124.971L125.176 4.69446H125.545L125.072 7.37269ZM124.876 7.22781H124.951L125.372 4.83933H125.298L125.093 6.00912H123.331L123.536 4.83933H123.463L123.041 7.22781H123.114L123.321 6.06554H125.083L124.876 7.22781Z" fill="white"></path> <path d="M107.684 0.359375L104.519 21.846H104.152L107.318 0.359375H107.684Z" fill="#808080"></path> <path d="M119.83 9.61923L119.499 11.6821C119.497 11.6963 119.485 11.7068 119.47 11.7068H117.172C117.158 11.7068 117.145 11.7173 117.143 11.7315L116.731 14.2964C116.728 14.3142 116.742 14.3304 116.76 14.3304H118.57C118.588 14.3304 118.602 14.3467 118.599 14.3645L118.252 16.476C118.25 16.4902 118.238 16.5006 118.223 16.5006H116.395C116.38 16.5006 116.368 16.5111 116.366 16.5254L115.905 19.4304C115.902 19.4482 115.916 19.4643 115.934 19.4643H118.359C118.377 19.4643 118.391 19.4806 118.388 19.4985L118.042 21.6098C118.039 21.624 118.027 21.6345 118.013 21.6345H113.505C113.487 21.6345 113.473 21.6183 113.476 21.6005L115.378 9.60998C115.38 9.59571 115.392 9.58521 115.407 9.58521H119.801C119.819 9.58521 119.833 9.60138 119.83 9.61923Z" fill="white"></path> <path d="M120.447 9.60998C120.449 9.59571 120.461 9.58521 120.476 9.58521H123.236C124.013 9.58521 124.591 9.78516 124.969 10.1844C125.347 10.584 125.46 11.2427 125.309 12.1603L124.24 18.9137C124.175 19.3565 124.092 19.7452 123.989 20.0797C123.886 20.4145 123.743 20.698 123.56 20.93C123.376 21.1623 123.141 21.3376 122.855 21.4563C122.569 21.5753 122.21 21.6345 121.778 21.6345H118.574C118.556 21.6345 118.542 21.6183 118.545 21.6005L120.447 9.60998ZM120.942 19.5923C120.939 19.6101 120.953 19.6263 120.971 19.6263H121.374C121.622 19.6263 121.792 19.5643 121.884 19.44C121.975 19.316 122.048 19.0812 122.102 18.7355L123.123 12.306C123.209 11.7662 123.069 11.4962 122.702 11.4962H122.257C122.243 11.4962 122.23 11.5067 122.228 11.521L120.942 19.5923Z" fill="white"></path> <path d="M126.515 21.6346H124.485C124.467 21.6346 124.453 21.6185 124.456 21.6006L126.361 9.59059C126.361 9.58713 126.362 9.58379 126.364 9.58073L129.184 4.59448C129.2 4.566 129.244 4.58122 129.239 4.61354L127.727 14.1509C127.725 14.1687 127.738 14.1848 127.756 14.1848H128.814C128.829 14.1848 128.841 14.1743 128.843 14.16L129.564 9.61013C129.567 9.59586 129.579 9.58535 129.593 9.58535H131.623C131.641 9.58535 131.655 9.60149 131.652 9.61933L129.747 21.6294C129.747 21.6328 129.746 21.6362 129.744 21.6392L126.92 26.6255C126.904 26.6539 126.86 26.6387 126.866 26.6064L128.462 16.5833C128.464 16.5655 128.451 16.5493 128.433 16.5493H127.375C127.36 16.5493 127.348 16.5598 127.346 16.5741L126.544 21.6099C126.541 21.6241 126.529 21.6346 126.515 21.6346Z" fill="white"></path> <path d="M136.77 9.61923L136.439 11.6821C136.437 11.6963 136.425 11.7068 136.41 11.7068H134.112C134.097 11.7068 134.085 11.7173 134.083 11.7315L133.671 14.2964C133.668 14.3142 133.682 14.3304 133.7 14.3304H135.51C135.528 14.3304 135.542 14.3467 135.539 14.3645L135.192 16.476C135.19 16.4902 135.178 16.5006 135.163 16.5006H133.335C133.32 16.5006 133.308 16.5111 133.306 16.5254L132.845 19.4304C132.842 19.4482 132.856 19.4643 132.874 19.4643H135.299C135.317 19.4643 135.331 19.4806 135.328 19.4985L134.982 21.6098C134.979 21.624 134.967 21.6345 134.953 21.6345H130.445C130.427 21.6345 130.413 21.6183 130.416 21.6005L132.318 9.60998C132.32 9.59571 132.332 9.58521 132.347 9.58521H136.741C136.759 9.58521 136.773 9.60138 136.77 9.61923Z" fill="white"></path> <path d="M137.543 21.6345H135.514C135.496 21.6345 135.482 21.6183 135.485 21.6005L137.386 9.60998C137.389 9.59571 137.401 9.58521 137.415 9.58521H140.532C141.18 9.58521 141.663 9.75805 141.982 10.1035C142.3 10.4491 142.405 10.9456 142.298 11.5935L141.99 13.5206C141.914 14.0065 141.766 14.3765 141.544 14.6301C141.323 14.8838 141.072 15.0539 140.791 15.1402C140.856 15.1726 140.937 15.2239 141.034 15.294C141.131 15.3644 141.221 15.456 141.302 15.5693C141.383 15.6827 141.442 15.8204 141.48 15.9824C141.517 16.1443 141.52 16.3387 141.488 16.5654L140.74 21.6345H138.671C138.659 21.6345 138.648 21.6284 138.643 21.6178C138.615 21.5518 139.269 17.2456 139.269 17.2456C139.323 16.9541 139.315 16.7544 139.245 16.6463C139.174 16.5386 139.031 16.4844 138.816 16.4844H138.403C138.389 16.4844 138.377 16.4949 138.374 16.5092L137.572 21.6097C137.57 21.6239 137.558 21.6345 137.543 21.6345ZM138.708 14.4583C138.705 14.4762 138.719 14.4923 138.737 14.4923H139.156C139.35 14.4923 139.498 14.4438 139.601 14.3466C139.704 14.2495 139.776 14.0607 139.82 13.7798L140.079 12.0955C140.154 11.6638 140.008 11.4477 139.642 11.4477H139.213C139.199 11.4477 139.186 11.4582 139.184 11.4724L138.708 14.4583Z" fill="white"></path> <path d="M145.827 9.43982C146.788 9.43982 147.463 9.72072 147.852 10.2819C148.24 10.8435 148.364 11.5831 148.224 12.5007L147.22 18.8492C147.069 19.767 146.78 20.4905 146.354 21.0194C145.927 21.5485 145.33 21.813 144.564 21.813H144.127C143.22 21.813 142.553 21.5432 142.127 21.0032C141.7 20.4634 141.563 19.7185 141.714 18.7683L142.702 12.5169C142.777 12.0528 142.877 11.6289 143.001 11.2456C143.125 10.8624 143.293 10.5386 143.503 10.2739C143.714 10.0094 143.97 9.8042 144.272 9.65847C144.575 9.51269 144.947 9.43982 145.39 9.43982H145.827ZM145.568 11.5452C145.352 11.5452 145.201 11.6128 145.115 11.7474C145.028 11.882 144.963 12.0786 144.92 12.3372L143.868 18.9639C143.846 19.1255 143.865 19.2792 143.924 19.4247C143.983 19.5702 144.132 19.6428 144.37 19.6428C144.596 19.6428 144.753 19.5674 144.839 19.4166C144.926 19.2657 144.979 19.1149 145.001 18.9639L146.054 12.3372C146.14 11.8094 145.978 11.5452 145.568 11.5452Z" fill="white"></path> <path d="M153.758 9.61923L153.427 11.6821C153.425 11.6963 153.412 11.7068 153.398 11.7068H151.1C151.085 11.7068 151.073 11.7173 151.071 11.7315L150.659 14.2964C150.656 14.3142 150.67 14.3304 150.688 14.3304H152.498C152.516 14.3304 152.53 14.3467 152.527 14.3645L152.18 16.476C152.178 16.4902 152.165 16.5006 152.151 16.5006H150.322C150.308 16.5006 150.296 16.5111 150.293 16.5254L149.833 19.4304C149.83 19.4482 149.844 19.4643 149.862 19.4643H152.287C152.305 19.4643 152.319 19.4806 152.316 19.4985L151.969 21.6098C151.967 21.624 151.955 21.6345 151.94 21.6345H147.433C147.415 21.6345 147.401 21.6183 147.404 21.6005L149.305 9.60998C149.308 9.59571 149.32 9.58521 149.334 9.58521H153.729C153.747 9.58521 153.76 9.60138 153.758 9.61923Z" fill="white"></path> <path d="M155.383 21.7805H154.913C154.146 21.7805 153.555 21.5594 153.14 21.1166C152.724 20.674 152.581 20.0315 152.711 19.1893L153.047 17.0763C153.049 17.062 153.061 17.0515 153.076 17.0515H155.089C155.107 17.0515 155.121 17.0677 155.118 17.0855L154.816 19.0112C154.773 19.2703 154.784 19.4621 154.848 19.5861C154.913 19.7104 155.043 19.7723 155.237 19.7723C155.41 19.7723 155.547 19.7051 155.65 19.5699C155.753 19.435 155.831 19.2111 155.885 18.8978L155.95 18.5091C155.982 18.3148 155.998 18.1422 155.998 17.9909C155.998 17.8398 155.977 17.6913 155.934 17.5455C155.89 17.3998 155.825 17.2459 155.739 17.084C155.653 16.922 155.545 16.7385 155.415 16.5333L154.784 15.5292C154.589 15.227 154.425 14.9409 154.29 14.6708C154.155 14.4011 154.052 14.1364 153.982 13.8773C153.912 13.6182 153.869 13.3537 153.852 13.0837C153.836 12.814 153.855 12.5225 153.909 12.2092L153.99 11.7072C154.12 10.9082 154.392 10.3305 154.808 9.97428C155.223 9.61797 155.798 9.43982 156.533 9.43982H157.002C157.812 9.43982 158.384 9.64226 158.719 10.0471C159.054 10.452 159.156 11.0756 159.027 11.9177L158.804 13.3342C158.802 13.3485 158.789 13.359 158.775 13.359H156.826C156.808 13.359 156.794 13.3429 156.797 13.3251L157.019 11.9177C157.051 11.7342 157.04 11.5831 156.986 11.4642C156.932 11.3455 156.808 11.2861 156.614 11.2861C156.43 11.2861 156.309 11.3402 156.249 11.448C156.19 11.5561 156.149 11.6965 156.128 11.8691L156.063 12.2902C156.041 12.4521 156.031 12.5953 156.031 12.7194C156.031 12.8436 156.049 12.9622 156.087 13.0756C156.125 13.189 156.182 13.3105 156.257 13.44C156.333 13.5696 156.43 13.7316 156.549 13.9259L157.213 14.9948C157.418 15.3296 157.596 15.6401 157.747 15.926C157.898 16.2122 158.02 16.4903 158.112 16.76C158.203 17.03 158.26 17.3001 158.282 17.5698C158.303 17.8398 158.293 18.1205 158.249 18.412L158.152 19.0274C157.861 20.863 156.938 21.7805 155.383 21.7805Z" fill="white"></path> <path d="M3.52863 16.0636C4.18208 16.7171 4.95751 17.2311 5.78521 17.5709C6.3951 17.8236 7.03984 17.9891 7.702 18.0588V15.3579H2.91003C3.10171 15.6106 3.31082 15.8458 3.52863 16.0636ZM12.2152 7.00246C11.8754 6.66266 11.3265 6.66266 10.9867 7.00246C10.6469 7.34225 10.6469 7.89115 10.9867 8.22223C11.3265 8.56202 11.8754 8.56202 12.2152 8.22223C12.555 7.89115 12.555 7.34225 12.2152 7.00246ZM7.71071 4.24054C6.18599 4.40608 4.70484 5.06824 3.52863 6.23574C2.5441 7.21156 1.91679 8.41391 1.64669 9.66853L7.71071 9.67725V4.24054ZM9.19187 9.67725L15.2907 9.68596C15.1775 9.1632 15.0119 8.66657 14.7854 8.18738C14.4456 7.47294 13.9838 6.81078 13.4001 6.22703C12.2239 5.05082 10.7253 4.38865 9.19187 4.23182V9.67725ZM1.48987 11.1497C1.48987 12.0819 1.68154 13.0142 2.05619 13.8855H9.20058L9.19187 19.5748H8.45129C7.33607 19.5748 6.23827 19.3483 5.2276 18.9301C4.20822 18.5119 3.27596 17.8933 2.49182 17.1092C0.827703 15.4625 0 13.3017 0 11.1497C0 8.98894 0.827703 6.8282 2.48311 5.18151C4.12981 3.53481 6.29926 2.71582 8.46871 2.71582C10.6382 2.71582 12.8076 3.53481 14.4543 5.18151C15.1513 5.86981 15.7089 6.68009 16.1272 7.56007C16.5454 8.44005 16.8067 9.38973 16.8939 10.3568L16.9723 11.1671L1.48987 11.1497Z" fill="#FBFCFC"></path> </svg> 