<?xml version="1.0" encoding="UTF-8"?> <svg xmlns="http://www.w3.org/2000/svg" width="144" height="39" viewBox="0 0 144 39" fill="none"> <g clip-path="url(#clip0_256_695)"> <path d="M141.412 19.4777H25.8758H25.9245C21.8925 19.4777 19.8765 17.4876 19.8765 13.5075V4.36565C19.8765 3.45508 19.1281 2.71631 18.2057 2.71631H4.56778C3.64535 2.71631 2.89697 3.45508 2.89697 4.36565V17.8284C2.89697 18.739 3.64535 19.4777 4.56778 19.4777H13.8599C17.8698 19.4777 19.8754 21.4678 19.8765 25.448V34.5881C19.8765 35.4986 20.6249 36.2374 21.5473 36.2374H141.412C142.334 36.2374 143.083 35.4986 143.083 34.5881V21.1271C143.083 20.2165 142.334 19.4777 141.412 19.4777Z" fill="#FFA42B"></path> <path d="M25.8027 32.0522V31.3255C25.8863 31.3495 26.0464 31.3787 26.2483 31.3787C26.9497 31.3787 27.3761 30.9269 27.7625 30.1658L24.7881 23.6062H25.6618L28.1506 29.2621H28.2219L30.615 23.6062H31.4643L28.7737 29.7259C28.0427 31.3959 27.444 32.1226 26.25 32.1226C26.036 32.1226 25.8706 32.0814 25.8045 32.0522H25.8027Z" fill="#F9F9F9"></path> <path d="M36.2367 29.2277H32.8585V32.0642H32.0684V25.9685H32.8585V28.5834H36.2367V25.9685H37.0199V32.0642H36.2367V29.2277Z" fill="#F9F9F9"></path> <path d="M38.4888 32.0642V25.9685H39.2789V30.8684H39.3155L42.7476 25.9685H43.5255V32.0642H42.7354V27.1694H42.6988L39.2667 32.0642H38.4888Z" fill="#F9F9F9"></path> <path d="M44.9858 32.0642V25.9685H47.4799C48.6372 25.9685 49.3439 26.5612 49.3439 27.5165C49.3439 28.1848 48.8931 28.7586 48.2631 28.8823V28.9184C49.0584 29.0129 49.6415 29.5404 49.6415 30.3375C49.6415 31.4285 48.8391 32.0676 47.5095 32.0676H44.9858V32.0642ZM45.776 28.6178H47.2606C48.1099 28.6178 48.5676 28.2484 48.5676 27.5869C48.5676 26.965 48.1395 26.6076 47.3807 26.6076H45.7777V28.6178H45.776ZM45.776 31.4251H47.4677C48.371 31.4251 48.8635 31.0437 48.8635 30.3169C48.8635 29.5902 48.3118 29.2552 47.3197 29.2552H45.776V31.4234V31.4251Z" fill="#F9F9F9"></path> <path d="M55.8648 30.3341C55.6803 31.389 54.6779 32.1639 53.3169 32.1639C51.5834 32.1639 50.5078 30.9681 50.5078 29.0336C50.5078 27.099 51.5938 25.8689 53.2699 25.8689C54.9459 25.8689 55.9414 27.0595 55.9414 28.8755V29.2037H51.3154V29.25C51.3154 30.6279 52.1055 31.4835 53.3343 31.4835C54.2671 31.4835 54.9146 31.0025 55.0869 30.3341H55.8648ZM51.3223 28.5869H55.1339C55.1165 27.3859 54.3733 26.5475 53.2577 26.5475C52.1421 26.5475 51.3867 27.3859 51.3223 28.5869Z" fill="#F9F9F9"></path> <path d="M62.6352 29.0164C62.6352 30.9148 61.5718 32.1639 60.0228 32.1639C59.0255 32.1639 58.2475 31.6003 57.9203 30.81H57.896V34.0812H57.1128V25.9685H57.856V27.2588H57.8803C58.2197 26.4496 59.0029 25.8689 60.0054 25.8689C61.5665 25.8689 62.6352 27.1231 62.6352 29.0164ZM61.8328 29.0164C61.8328 27.5337 61.0601 26.5544 59.8679 26.5544C58.6757 26.5544 57.896 27.5509 57.896 29.0164C57.896 30.4819 58.6983 31.4784 59.8679 31.4784C61.0374 31.4784 61.8328 30.5059 61.8328 29.0164Z" fill="#F9F9F9"></path> <path d="M68.0586 27.8962C67.8916 27.1454 67.2685 26.5544 66.2956 26.5544C65.0895 26.5544 64.3011 27.5096 64.3011 29.0164C64.3011 30.5231 65.0965 31.4784 66.3026 31.4784C67.2354 31.4784 67.8829 30.9681 68.0604 30.1778H68.8384C68.6661 31.3443 67.6618 32.1656 66.2973 32.1656C64.6109 32.1656 63.5005 30.9698 63.5005 29.0181C63.5005 27.0664 64.6109 25.8706 66.2921 25.8706C67.7471 25.8706 68.68 26.8087 68.8331 27.8979H68.0604L68.0586 27.8962Z" fill="#F9F9F9"></path> <path d="M69.9292 32.0642V25.9685H70.7194V30.8684H70.7559L74.188 25.9685H74.966V32.0642H74.1758V27.1694H74.1393L70.7072 32.0642H69.9292Z" fill="#F9F9F9"></path> <path d="M80.9098 26.6128H78.8074V32.0642H78.0242V26.6128H75.9287V25.9685H80.9098V26.6128Z" fill="#F9F9F9"></path> <path d="M86.735 30.3341C86.5505 31.389 85.548 32.1639 84.187 32.1639C82.4535 32.1639 81.3779 30.9681 81.3779 29.0336C81.3779 27.099 82.464 25.8689 84.14 25.8689C85.816 25.8689 86.8115 27.0595 86.8115 28.8755V29.2037H82.1855V29.25C82.1855 30.6279 82.9756 31.4835 84.2044 31.4835C85.1372 31.4835 85.7847 31.0025 85.9552 30.3341H86.7332H86.735ZM82.1925 28.5869H86.004C85.9866 27.3859 85.2434 26.5475 84.1278 26.5475C83.0122 26.5475 82.2568 27.3859 82.1925 28.5869Z" fill="#F9F9F9"></path> <path d="M92.2589 26.6128H90.1565V32.0642H89.3733V26.6128H87.2778V25.9685H92.2589V26.6128Z" fill="#F9F9F9"></path> <path d="M94.7772 33.7342H94.0166L94.5335 31.3375H95.1444C95.8266 31.0214 96.2426 30.2173 96.5576 29.0868L98.0718 23.6062H103.262L101.593 31.3375H102.679L102.162 33.7342H101.408L101.77 32.0642H95.1374L94.7754 33.7342H94.7772ZM96.22 31.2773L96.2078 31.3358H100.768L102.277 24.3312H98.66L97.3304 29.1143C97.0623 30.0867 96.7717 30.7963 96.22 31.2773Z" fill="#F9F9F9"></path> <path d="M103.746 29.561C103.746 27.4976 105.041 25.8672 106.846 25.8672C108.335 25.8672 109.263 26.8224 109.263 28.3635C109.263 28.6212 109.239 28.9322 109.192 29.1779H104.566C104.553 29.3119 104.541 29.4356 104.541 29.5301C104.541 30.7379 105.206 31.4818 106.252 31.4818C107.178 31.4818 107.855 31.0076 108.158 30.2448H108.941C108.603 31.3701 107.552 32.1742 106.233 32.1742C104.623 32.1742 103.744 31.0901 103.744 29.5593L103.746 29.561ZM108.443 28.5525C108.461 28.458 108.468 28.3824 108.468 28.2656C108.468 27.3224 107.933 26.5475 106.835 26.5475C105.737 26.5475 104.922 27.4031 104.674 28.5525H108.445H108.443Z" fill="#F9F9F9"></path> <path d="M115.105 26.6179H113.039L111.858 32.0642H111.067L112.242 26.6179H110.169L110.307 25.9668H115.241L115.104 26.6179H115.105Z" fill="#F9F9F9"></path> <path d="M120.516 27.9254V27.9546H119.751C119.684 27.1626 119.074 26.5544 118.101 26.5544C116.752 26.5544 115.762 27.8034 115.762 29.5095C115.762 30.7173 116.444 31.4784 117.472 31.4784C118.351 31.4784 119.034 30.9922 119.331 30.2465H120.109C119.771 31.3667 118.725 32.1639 117.467 32.1639C115.864 32.1639 114.961 31.0798 114.961 29.537C114.961 27.4684 116.278 25.8672 118.115 25.8672C119.624 25.8672 120.478 26.8173 120.52 27.9254H120.516Z" fill="#F9F9F9"></path> <path d="M126.116 26.6179H124.05L122.868 32.0642H122.078L123.253 26.6179H121.18L121.317 25.9668H126.251L126.114 26.6179H126.116Z" fill="#F9F9F9"></path> <path d="M127.102 25.9685H129.424C130.517 25.9685 131.152 26.496 131.152 27.3344C131.152 28.1075 130.559 28.683 129.751 28.8411L129.734 28.9115C130.428 28.9992 130.903 29.4218 130.903 30.0833C130.903 31.2911 129.847 32.0642 128.326 32.0642H125.79L127.102 25.9685ZM127.191 29.2397L126.721 31.4148H128.442C129.447 31.4148 130.087 30.9114 130.087 30.1365C130.087 29.5215 129.649 29.2397 128.763 29.2397H127.189H127.191ZM127.755 26.6197L127.327 28.5954H128.817C129.72 28.5954 130.336 28.1264 130.336 27.4237C130.336 26.8894 129.979 26.6214 129.285 26.6214H127.753L127.755 26.6197Z" fill="#F9F9F9"></path> <path d="M131.752 30.5163C131.752 29.3445 132.685 28.6693 134.283 28.5817L136.248 28.4769L136.344 28.044C136.373 27.9151 136.385 27.7914 136.385 27.6746C136.385 26.9822 135.881 26.5544 134.99 26.5544C134.052 26.5544 133.446 27.0183 133.298 27.721H132.473C132.675 26.6248 133.66 25.8689 135.056 25.8689C136.333 25.8689 137.176 26.5613 137.176 27.5681C137.176 27.7502 137.158 27.9323 137.129 28.0903L136.274 32.0642H135.513L135.703 31.1674H135.686C135.258 31.7773 134.516 32.1639 133.684 32.1639C132.598 32.1639 131.754 31.4835 131.754 30.5163H131.752ZM135.933 29.9304L136.117 29.104L134.276 29.2037C133.178 29.2621 132.543 29.707 132.543 30.4355C132.543 31.0798 133.089 31.4973 133.872 31.4973C134.864 31.4973 135.731 30.853 135.933 29.9321V29.9304Z" fill="#F9F9F9"></path> <path d="M11.5176 3.07533C12.3779 3.07533 13.0753 2.38689 13.0753 1.53767C13.0753 0.688436 12.3779 0 11.5176 0C10.6574 0 9.95996 0.688436 9.95996 1.53767C9.95996 2.38689 10.6574 3.07533 11.5176 3.07533Z" fill="#FFA42B"></path> <path d="M13.0752 3.07709V1.53943L9.95984 1.53943V3.07709H13.0752Z" fill="#FFA42B"></path> <path d="M1.65778 12.2807C2.51806 12.2807 3.21545 11.5922 3.21545 10.743C3.21545 9.89376 2.51806 9.20532 1.65778 9.20532C0.797494 9.20532 0.100098 9.89376 0.100098 10.743C0.100098 11.5922 0.797494 12.2807 1.65778 12.2807Z" fill="#FFA42B"></path> <path d="M3.21588 9.20532H1.6582V12.2807H3.21588V9.20532Z" fill="#FFA42B"></path> <path d="M18.2771 2.71631H4.49642C3.61307 2.71631 2.89697 3.42321 2.89697 4.29521V17.8988C2.89697 18.7708 3.61307 19.4777 4.49642 19.4777H18.2771C19.1604 19.4777 19.8765 18.7708 19.8765 17.8988V4.29521C19.8765 3.42321 19.1604 2.71631 18.2771 2.71631Z" fill="#FFA42B"></path> <path d="M21.2584 12.2807C22.1186 12.2807 22.816 11.5922 22.816 10.743C22.816 9.89376 22.1186 9.20532 21.2584 9.20532C20.3981 9.20532 19.7007 9.89376 19.7007 10.743C19.7007 11.5922 20.3981 12.2807 21.2584 12.2807Z" fill="#FFA42B"></path> <path d="M19.7006 12.2823H21.2583V9.20702H19.7006V12.2823Z" fill="#FFA42B"></path> <path d="M10.9796 22.3537C11.8398 22.3537 12.5372 21.6652 12.5372 20.816C12.5372 19.9668 11.8398 19.2783 10.9796 19.2783C10.1193 19.2783 9.42188 19.9668 9.42188 20.816C9.42188 21.6652 10.1193 22.3537 10.9796 22.3537Z" fill="#FFA42B"></path> <path d="M9.42188 19.2784V20.816H12.5372V19.2784H9.42188Z" fill="#FFA42B"></path> <path d="M21.2375 12.2824C22.0972 12.2824 22.7952 11.5935 22.7952 10.7448C22.7952 9.89604 22.0972 9.20709 21.2375 9.20709H19.8765V4.29515C19.8765 3.42238 20.5935 2.71626 21.4759 2.71626H26.6763V1.53767C26.6763 0.688943 27.3742 0 28.234 0C29.0937 0 29.7916 0.688943 29.7916 1.53767V2.71626H35.2531C36.1372 2.71626 36.8525 3.4241 36.8525 4.29515V9.20537H38.0935C38.9532 9.20537 39.6511 9.89432 39.6511 10.743C39.6511 11.5918 38.9532 12.2807 38.0935 12.2807H36.8525V17.897C36.8525 18.7698 36.1355 19.4759 35.2531 19.4759H21.4759C20.5918 19.4759 19.8765 18.7681 19.8765 17.897V12.2807H21.2375V12.2824Z" fill="#823EF0"></path> <path d="M12.5231 20.8212C12.5231 21.6699 11.8251 22.3588 10.9654 22.3588C10.1056 22.3588 9.4077 21.6699 9.4077 20.8212V19.4777H4.43357C3.54944 19.4777 2.83413 20.1855 2.83413 21.0566V26.1901H1.6402C0.780429 26.1901 0.0825195 26.8791 0.0825195 27.7278C0.0825195 28.5765 0.780429 29.2655 1.6402 29.2655H2.83413V34.6567C2.83413 35.5295 3.55118 36.2356 4.43357 36.2356H9.4077V37.4606C9.4077 38.3093 10.1056 38.9983 10.9654 38.9983C11.8251 38.9983 12.5231 38.3093 12.5231 37.4606V36.2356H18.2125C19.0966 36.2356 19.8119 35.5278 19.8119 34.6567V21.0566C19.8119 20.1838 19.0949 19.4777 18.2125 19.4777H12.5231V20.8212Z" fill="#D8FF48"></path> <path d="M11.0092 7.68834L13.176 9.82733C14.3716 11.0076 14.3716 12.9233 13.176 14.1036C11.9803 15.2839 10.0397 15.2839 8.84407 14.1036L6.67725 11.9646L8.70136 11.4818L10.8682 13.6208C12.0638 14.8011 14.0044 14.8011 15.2001 13.6208C16.3958 12.4405 16.3958 10.5249 15.2001 9.34455L13.0333 7.20557L11.0092 7.68834Z" fill="#F9F9F9"></path> </g> <defs> <clipPath id="clip0_256_695"> <rect width="143" height="39" fill="white" transform="translate(0.0810547)"></rect> </clipPath> </defs> </svg> 