<?xml version="1.0" encoding="UTF-8"?> <svg xmlns="http://www.w3.org/2000/svg" width="328" height="41" viewBox="0 0 328 41" fill="none"> <path d="M1.78676 0.560604V13.4001H5.32452V8.63705H13.2456V5.7033H5.32452V3.40807H13.4872V0.560604H1.78676Z" fill="white"></path> <path d="M22.1831 0.353516C16.1775 0.353516 14.469 3.89127 14.469 6.68696V7.20468C14.469 9.96586 16.1775 13.6072 22.1831 13.6072H22.9424C28.9479 13.6072 30.6564 9.96586 30.6564 7.20468V6.68696C30.6564 3.87402 28.9479 0.353516 22.9424 0.353516H22.1831ZM26.9633 7.06663C26.9633 8.61979 26.1695 10.6562 22.5627 10.6562C19.025 10.6562 18.1621 8.61979 18.1621 7.06663V6.82502C18.1621 5.23735 18.9732 3.28727 22.5627 3.28727C26.1868 3.28727 26.9633 5.23735 26.9633 6.82502V7.06663Z" fill="white"></path> <path d="M35.6035 3.39081H40.5563C42.006 3.39081 42.4029 3.97756 42.4029 4.71963V4.75414C42.4029 5.49621 42.006 6.11747 40.5563 6.11747H35.6035V3.39081ZM43.4211 7.22194C45.026 6.85954 46.1305 5.77232 46.1305 4.16739V3.99482C46.1305 2.59697 45.5782 0.560604 40.6944 0.560604H32.0485V13.4001H35.6035V9.03396H40.2285C42.0232 9.03396 42.6272 9.79329 42.6272 11.45V12.5027C42.6272 13.0722 42.6963 13.3138 42.748 13.4001H46.4238V13.3138C46.303 13.1067 46.2168 12.8478 46.2168 11.8814V10.5526C46.2168 8.67156 45.1641 7.61886 43.4211 7.22194Z" fill="white"></path> <path d="M51.7853 13.4001H55.3231V3.49435H60.2932V0.560604H46.8152V3.49435H51.7853V13.4001Z" fill="white"></path> <path d="M68.9054 13.5899C74.98 13.5899 75.8774 9.65523 75.8774 7.08388V0.560604H72.3397V6.9976C72.3397 8.46447 71.96 10.5699 68.6984 10.5699H68.6121C65.3504 10.5699 64.9363 8.46447 64.9363 6.9976V0.560604H61.3812V7.08388C61.3812 9.63797 62.1061 13.5899 68.405 13.5899H68.9054Z" fill="white"></path> <path d="M88.8838 13.4001H92.3698V0.560604H88.9183V8.82688L81.4114 0.560604H77.7528V13.4001H81.2215V5.08203L88.8838 13.4001Z" fill="white"></path> <path d="M94.3414 0.560604V13.4001H106.197V10.5699H97.8447V8.34367H105.835V5.44443H97.8447V3.3563H106.094V0.560604H94.3414Z" fill="white"></path> <path d="M24.4777 39.8496V34.306H6.16525C6.16525 33.8077 6.97498 33.0291 11.5531 31.8768C12.6431 31.5965 14.0134 31.2851 15.2592 31.0048C21.7059 29.5099 23.9482 27.8282 23.9482 23.8106V23.5615C23.9482 19.6063 21.3945 16.3985 13.1103 16.3985H11.7088C2.36573 16.3985 0.808553 21.6617 0.808553 24.8072V25.0252H7.50442C7.59785 23.9041 7.97157 21.3503 12.5185 21.3503C16.3492 21.3503 17.1589 22.3469 17.1589 23.5926C17.1589 24.745 16.3492 25.3678 13.266 26.271L9.5599 27.3922C0.839697 30.1328 0.403687 33.1849 0.403687 36.4861V39.8496H24.4777Z" fill="white"></path> <path d="M38.8862 16.305C28.0482 16.305 25.9305 23.5304 25.9305 27.7347V28.669C25.9305 32.7177 28.0482 40.2233 38.8862 40.2233H40.1942C51.001 40.2233 53.1499 32.7177 53.1499 28.669V27.7347C53.1499 23.6238 51.0633 16.305 40.1942 16.305H38.8862ZM46.4852 28.3888C46.4852 30.5065 45.5509 34.8978 39.5713 34.8978C33.5918 34.8978 32.5952 30.5065 32.5952 28.3888V27.9527C32.5952 25.8661 33.4049 21.5995 39.5402 21.5995C45.6132 21.5995 46.4852 25.8661 46.4852 27.9527V28.3888Z" fill="white"></path> <path d="M67.5397 40.1922C76.4468 40.1922 78.658 35.5206 78.658 32.0014V31.6277C78.658 28.2019 76.7582 24.4335 68.692 24.4335H68.3806C64.2074 24.4335 62.1207 25.9907 61.8716 26.2398V21.942H77.0385V16.6788H55.5183V31.0048H61.8716C61.965 30.4131 62.837 29.1985 66.9791 29.1985C71.0901 29.1985 72.2736 30.3197 72.2736 31.9703V32.1571C72.2736 33.7143 70.9967 35.0223 66.9791 35.0223C62.7125 35.0223 62.0273 33.4652 61.9339 32.9357H55.1757V33.3717C55.1757 35.3026 56.6083 40.1922 66.294 40.1922H67.5397Z" fill="white"></path> <path d="M93.1332 16.305C82.2952 16.305 80.1775 23.5304 80.1775 27.7347V28.669C80.1775 32.7177 82.2952 40.2233 93.1332 40.2233H94.4412C105.248 40.2233 107.397 32.7177 107.397 28.669V27.7347C107.397 23.6238 105.31 16.305 94.4412 16.305H93.1332ZM100.732 28.3888C100.732 30.5065 99.7979 34.8978 93.8183 34.8978C87.8388 34.8978 86.8422 30.5065 86.8422 28.3888V27.9527C86.8422 25.8661 87.6519 21.5995 93.7872 21.5995C99.8602 21.5995 100.732 25.8661 100.732 27.9527V28.3888Z" fill="white"></path> <path d="M144.327 29.6701C141.57 29.6701 138.478 28.3074 138.478 25.2413V15.9547C138.478 12.9196 141.402 10.9021 144.411 10.9021C146.654 10.9021 148.388 11.8401 149.379 12.8046L148.074 15.4724C146.968 14.3398 145.349 13.9106 144.495 13.9106C143.048 13.9106 141.796 14.8176 141.796 16.552V24.56C141.796 26.0067 143.358 26.7766 144.605 26.7766C145.459 26.7766 147.163 26.4049 148.919 25.2148L149.742 28.1392C148.039 29.2188 146.649 29.6745 144.318 29.6745L144.327 29.6701Z" fill="white"></path> <path d="M160.794 29.4713L156.281 22.3437H154.635V29.4713H151.627L151.6 11.1856L157.193 11.159C159.975 11.1325 162.931 12.6633 162.9 15.9019V17.4062C162.873 19.2511 161.878 21.4942 159.493 21.9765L164.462 29.4757H160.798L160.794 29.4713ZM159.772 16.07C159.772 14.5082 158.493 13.9419 156.847 13.9419H154.604L154.631 19.5918H156.874C158.405 19.5652 159.772 18.968 159.772 17.2071V16.07Z" fill="white"></path> <path d="M171.757 29.6701C168.975 29.6701 165.594 28.2499 165.594 25.0997V15.4724C165.594 12.3223 168.975 10.9021 171.757 10.9021C174.54 10.9021 177.863 12.3489 177.863 15.4724V25.0997C177.863 28.2233 174.514 29.6701 171.757 29.6701ZM174.54 15.9016C174.54 14.7645 173.518 13.8 171.784 13.8C170.05 13.8 168.917 14.7955 168.917 15.9016V24.7016C168.917 25.8342 170.28 26.8031 171.784 26.8031C173.403 26.8031 174.54 25.8386 174.54 24.7016V15.9016Z" fill="white"></path> <path d="M185.982 29.6701C183.225 29.6701 180.133 28.3074 180.133 25.2413V15.9547C180.133 12.9196 183.057 10.9021 186.07 10.9021C188.313 10.9021 190.043 11.8401 191.039 12.8046L189.733 15.4724C188.627 14.3398 187.008 13.9106 186.154 13.9106C184.707 13.9106 183.455 14.8176 183.455 16.552V24.56C183.455 26.0067 185.017 26.7766 186.265 26.7766C187.119 26.7766 188.822 26.4049 190.579 25.2148L191.401 28.1392C189.698 29.2188 188.309 29.6745 185.977 29.6745L185.982 29.6701Z" fill="white"></path> <path d="M205.09 25.1C205.09 28.2236 201.799 29.6704 199.016 29.6704C196.233 29.6704 192.968 28.2236 192.968 25.1V11.1855H196.317V24.7859C196.317 26.2902 197.879 26.8875 199.1 26.8875C200.321 26.8875 201.825 26.2902 201.825 24.7859V11.1855H205.09V25.1Z" fill="white"></path> <path d="M212.528 29.6701C210.028 29.6701 208.382 28.9312 206.794 27.4535L208.78 25.0688C209.886 26.3474 211.537 26.8296 212.475 26.8296C214.12 26.8296 215.173 26.1173 215.399 24.7856C215.709 22.7416 212.7 21.7196 211.227 20.9807C209.099 19.9012 207.395 18.3704 207.395 15.7865C207.395 13.0037 209.608 10.9021 213.072 10.9021C215.572 10.9021 217.133 12.0082 218.04 13.1187L216.222 15.4724C215.284 14.3929 214.262 13.8531 213.129 13.8531C211.568 13.8531 210.687 14.7601 210.745 15.7556C210.829 17.6271 213.926 18.6801 215.315 19.4455C217.673 20.7772 219.576 23.0778 218.58 25.9492C217.7 28.4755 215.2 29.6701 212.532 29.6701H212.528Z" fill="white"></path> <path d="M229.685 29.6701C226.933 29.6701 223.836 28.3074 223.836 25.2413V15.9547C223.836 12.9152 226.761 10.9021 229.769 10.9021C232.012 10.9021 233.747 11.8401 234.738 12.8046L233.433 15.4724C232.326 14.3354 230.707 13.9106 229.853 13.9106C228.407 13.9106 227.154 14.8176 227.154 16.552V24.56C227.154 26.0067 228.716 26.7766 229.964 26.7766C230.818 26.7766 232.521 26.4049 234.278 25.2148L235.101 28.1392C233.397 29.2188 232.003 29.6745 229.676 29.6745L229.685 29.6701Z" fill="white"></path> <path d="M236.954 29.4713V11.1855H240.162V29.4713H236.954Z" fill="white"></path> <path d="M253.249 14.1412H249.36V29.4714H246.037V14.1412H241.724V11.1592H253.736L253.253 14.1412H253.249Z" fill="white"></path> <path d="M262.509 22.6576V29.471H259.217V22.6576L254.16 11.1853H257.74L260.633 18.1979C260.806 18.6492 260.89 19.2464 260.89 19.2464C260.89 19.2464 260.974 18.6226 261.142 18.1669L264.04 11.1809H267.562L262.509 22.6532V22.6576Z" fill="white"></path> <path d="M285.781 29.4129L282.516 29.4395L282.543 21.4314H275.787V29.4085L272.548 29.435V11.1272H275.787V18.5114H282.543V11.1272H285.781V29.4129Z" fill="white"></path> <path d="M298.926 29.4129L297.448 24.2188H292.537L291.059 29.4129H287.621L293.218 11.1272H296.939L302.531 29.4129H298.926ZM295.262 16.5204C295.063 15.7816 295.006 14.733 295.006 14.733C295.006 14.733 294.948 15.7816 294.718 16.5204L293.386 21.2323H296.594L295.262 16.5204Z" fill="white"></path> <path d="M314.176 29.4129H304.098V11.1272H307.389V26.4353H314.915L314.176 29.4173V29.4129Z" fill="white"></path> <path d="M326.556 29.4129H316.477V11.1272H319.769V26.4353H327.295L326.556 29.4173V29.4129Z" fill="white"></path> </svg> 