<?xml version="1.0" encoding="UTF-8"?> <svg xmlns="http://www.w3.org/2000/svg" width="436" height="204" viewBox="0 0 436 204" fill="none"> <path d="M62.4219 33.493C57.5557 33.493 52.0959 31.0872 52.0959 25.6743V9.27936C52.0959 3.92112 57.2589 0.359375 62.5703 0.359375C66.5304 0.359375 69.5922 2.01527 71.3419 3.71804L69.0377 8.42797C67.0849 6.4284 64.2262 5.67075 62.7187 5.67075C60.1645 5.67075 57.9541 7.27197 57.9541 10.3338V24.4714C57.9541 27.0256 60.7113 28.3847 62.914 28.3847C64.4215 28.3847 67.4286 27.7286 70.5295 25.6274L71.9823 30.7904C68.9752 32.6963 66.5226 33.5008 62.4063 33.5008L62.4219 33.493Z" fill="white"></path> <path d="M91.4939 33.1407L83.5268 20.5574H80.6212V33.1407H75.3098L75.2629 0.858499L85.1358 0.811634C90.0489 0.764769 95.2665 3.46732 95.2118 9.18485V11.8405C95.165 15.0977 93.4075 19.0578 89.1975 19.9091L97.969 33.1485H91.5017L91.4939 33.1407ZM89.6896 9.48167C89.6896 6.72444 87.4322 5.72465 84.5266 5.72465H80.5665L80.6134 15.6991H84.5735C87.276 15.6522 89.6896 14.5978 89.6896 11.4891V9.48167Z" fill="white"></path> <path d="M110.85 33.493C105.937 33.493 99.9692 30.9857 99.9692 25.4244V8.42797C99.9692 2.86665 105.937 0.359375 110.85 0.359375C115.763 0.359375 121.629 2.91352 121.629 8.42797V25.4244C121.629 30.9388 115.716 33.493 110.85 33.493ZM115.763 9.18562C115.763 7.17824 113.958 5.47547 110.897 5.47547C107.835 5.47547 105.835 7.23291 105.835 9.18562V24.7214C105.835 26.721 108.241 28.4315 110.897 28.4315C113.755 28.4315 115.763 26.7288 115.763 24.7214V9.18562Z" fill="white"></path> <path d="M135.961 33.493C131.095 33.493 125.635 31.0872 125.635 25.6743V9.27936C125.635 3.92112 130.798 0.359375 136.117 0.359375C140.077 0.359375 143.132 2.01527 144.889 3.71804L142.585 8.42797C140.632 6.4284 137.773 5.67075 136.266 5.67075C133.712 5.67075 131.501 7.27197 131.501 10.3338V24.4714C131.501 27.0256 134.258 28.3847 136.461 28.3847C137.969 28.3847 140.976 27.7286 144.077 25.6274L145.529 30.7904C142.522 32.6963 140.07 33.5008 135.953 33.5008L135.961 33.493Z" fill="white"></path> <path d="M169.696 25.4245C169.696 30.9389 163.885 33.4931 158.972 33.4931C154.059 33.4931 148.294 30.9389 148.294 25.4245V0.859375H154.207V24.8699C154.207 27.5256 156.964 28.58 159.12 28.58C161.276 28.58 163.932 27.5256 163.932 24.8699V0.859375H169.696V25.4245Z" fill="white"></path> <path d="M182.826 33.493C178.413 33.493 175.507 32.1885 172.703 29.5797L176.21 25.3697C178.163 27.627 181.076 28.4784 182.732 28.4784C185.638 28.4784 187.497 27.2208 187.895 24.8698C188.442 21.2612 183.131 19.4569 180.53 18.1525C176.773 16.2466 173.765 13.5441 173.765 8.98254C173.765 4.06952 177.671 0.359375 183.787 0.359375C188.2 0.359375 190.957 2.31208 192.558 4.27261L189.348 8.42797C187.692 6.52213 185.888 5.5692 183.888 5.5692C181.131 5.5692 179.577 7.17043 179.678 8.92787C179.827 12.2318 185.294 14.0908 187.747 15.4421C191.91 17.7932 195.269 21.8548 193.511 26.924C191.957 31.384 187.544 33.493 182.834 33.493H182.826Z" fill="white"></path> <path d="M213.117 33.493C208.258 33.493 202.791 31.0872 202.791 25.6743V9.27936C202.791 3.91331 207.954 0.359375 213.265 0.359375C217.225 0.359375 220.287 2.01527 222.037 3.71804L219.732 8.42797C217.78 6.42059 214.921 5.67075 213.414 5.67075C210.859 5.67075 208.649 7.27197 208.649 10.3338V24.4714C208.649 27.0256 211.406 28.3847 213.609 28.3847C215.116 28.3847 218.123 27.7286 221.224 25.6274L222.677 30.7904C219.67 32.6963 217.21 33.5008 213.101 33.5008L213.117 33.493Z" fill="white"></path> <path d="M225.95 33.1416V0.859375H231.613V33.1416H225.95Z" fill="white"></path> <path d="M254.717 6.07652H247.851V33.1411H241.985V6.07652H234.37V0.812012H255.576L254.725 6.07652H254.717Z" fill="white"></path> <path d="M271.065 21.1124V33.1411H265.254V21.1124L256.326 0.858885H262.645L267.753 13.2391C268.058 14.0358 268.206 15.0902 268.206 15.0902C268.206 15.0902 268.355 13.9889 268.652 13.1844L273.768 0.851074H279.985L271.065 21.1046V21.1124Z" fill="white"></path> <path d="M312.151 33.0395L306.386 33.0864L306.433 18.9488H294.506V33.0317L288.788 33.0786V0.757324H294.506V13.7936H306.433V0.757324H312.151V33.0395Z" fill="white"></path> <path d="M335.356 33.0395L332.747 23.8696H324.077L321.468 33.0395H315.399L325.28 0.757324H331.849L341.722 33.0395H335.356ZM328.889 10.2787C328.537 8.97433 328.436 7.12316 328.436 7.12316C328.436 7.12316 328.334 8.97433 327.928 10.2787L325.577 18.5973H331.24L328.889 10.2787Z" fill="white"></path> <path d="M362.28 33.0395H344.487V0.757324H350.299V27.7828H363.585L362.28 33.0473V33.0395Z" fill="white"></path> <path d="M384.135 33.0395H366.342V0.757324H372.153V27.7828H385.439L384.135 33.0473V33.0395Z" fill="white"></path> <g filter="url(#filter0_d_273_1416)"> <rect x="50.5422" y="53.1963" width="334.897" height="87.0266" rx="11.6554" fill="#8655FF" shape-rendering="crispEdges"></rect> <rect x="50.1537" y="52.8078" width="335.674" height="87.8036" rx="12.0439" stroke="url(#paint0_angular_273_1416)" stroke-width="0.777023" shape-rendering="crispEdges"></rect> </g> <path d="M115.403 90.2915V76.8645H116.914L121.986 87.5595L127.03 76.8645H128.56V90.2822H126.984V80.5103L122.424 90.2915H121.538L116.979 80.5103V90.2915H115.403ZM135.538 90.5712C134.55 90.5712 133.686 90.3537 132.946 89.9185C132.212 89.4772 131.64 88.8649 131.23 88.0816C130.82 87.2922 130.615 86.3722 130.615 85.3217C130.615 84.2214 130.817 83.2703 131.221 82.4684C131.625 81.6603 132.187 81.0387 132.908 80.6036C133.636 80.1622 134.487 79.9416 135.463 79.9416C136.477 79.9416 137.338 80.1747 138.046 80.6409C138.761 81.1071 139.296 81.7722 139.65 82.6363C140.01 83.5003 140.166 84.5291 140.116 85.7226H138.438V85.1259C138.419 83.8888 138.167 82.9657 137.683 82.3565C137.198 81.7411 136.477 81.4334 135.519 81.4334C134.494 81.4334 133.713 81.7629 133.179 82.4218C132.644 83.0807 132.377 84.0256 132.377 85.2564C132.377 86.4437 132.644 87.3637 133.179 88.0164C133.713 88.6691 134.475 88.9954 135.463 88.9954C136.128 88.9954 136.707 88.8431 137.198 88.5385C137.689 88.2339 138.074 87.7957 138.354 87.2238L139.948 87.7739C139.557 88.6629 138.966 89.3529 138.177 89.8439C137.393 90.3288 136.514 90.5712 135.538 90.5712ZM131.818 85.7226V84.3892H139.258V85.7226H131.818ZM140.709 90.2915L144.774 85.2564L140.905 80.2213H142.751L146.49 85.1631V80.2213H148.001V85.1631L151.74 80.2213H153.586L149.716 85.2564L153.782 90.2915H151.852L148.001 85.3496V90.2915H146.49V85.3496L142.639 90.2915H140.709ZM154.158 92.5293V88.9208C154.723 88.9208 155.128 88.7375 155.37 88.3707C155.612 87.9977 155.808 87.3854 155.957 86.5338C156.057 85.9992 156.138 85.4273 156.2 84.8182C156.262 84.209 156.315 83.5314 156.358 82.7855C156.408 82.0333 156.455 81.1786 156.498 80.2213H163.435V88.9208H164.415V92.5293H162.829V90.2915H155.743V92.5293H154.158ZM156.713 88.9208H161.776V81.5919H157.999C157.981 82.0333 157.956 82.4964 157.925 82.9813C157.894 83.4599 157.856 83.9386 157.813 84.4172C157.776 84.8959 157.729 85.3496 157.673 85.7786C157.623 86.2013 157.564 86.5804 157.496 86.9161C157.415 87.3823 157.322 87.7771 157.216 88.1003C157.11 88.4235 156.943 88.6971 156.713 88.9208ZM167.685 94.7672L169.633 89.471L169.661 91.0374L165.26 80.2213H167.004L170.454 88.9208H169.857L173.093 80.2213H174.78L169.298 94.7672H167.685ZM176.311 90.2915V80.2213H177.971V84.4638H183.267V80.2213H184.927V90.2915H183.267V86.0396H177.971V90.2915H176.311ZM190.401 90.5712C189.649 90.5712 189.018 90.4345 188.508 90.161C188.005 89.8812 187.623 89.5145 187.362 89.0607C187.107 88.6069 186.979 88.1096 186.979 87.5688C186.979 87.0404 187.079 86.5835 187.278 86.1981C187.483 85.8065 187.769 85.4833 188.135 85.2284C188.502 84.9673 188.94 84.7622 189.45 84.613C189.929 84.4825 190.463 84.3706 191.054 84.2773C191.651 84.1779 192.254 84.0877 192.863 84.0069C193.472 83.9261 194.041 83.8484 194.569 83.7738L193.972 84.1188C193.991 83.2237 193.811 82.5617 193.432 82.1328C193.059 81.7038 192.412 81.4894 191.492 81.4894C190.883 81.4894 190.348 81.6292 189.888 81.909C189.435 82.1825 189.115 82.6301 188.928 83.2517L187.352 82.7761C187.595 81.8934 188.064 81.2003 188.76 80.6968C189.456 80.1933 190.373 79.9416 191.511 79.9416C192.425 79.9416 193.208 80.1063 193.861 80.4357C194.52 80.759 194.992 81.2501 195.278 81.909C195.421 82.2198 195.511 82.5586 195.548 82.9253C195.586 83.2859 195.604 83.665 195.604 84.0629V90.2915H194.131V87.8765L194.476 88.1003C194.097 88.9146 193.565 89.53 192.882 89.9465C192.204 90.363 191.377 90.5712 190.401 90.5712ZM190.653 89.1819C191.25 89.1819 191.766 89.0762 192.201 88.8649C192.642 88.6473 192.997 88.3645 193.264 88.0164C193.531 87.6621 193.705 87.2767 193.786 86.8602C193.879 86.5494 193.929 86.2044 193.935 85.8252C193.948 85.4398 193.954 85.1445 193.954 84.9394L194.532 85.1911C193.991 85.2657 193.46 85.3372 192.937 85.4056C192.415 85.474 191.921 85.5486 191.455 85.6294C190.989 85.704 190.569 85.7941 190.196 85.8998C189.923 85.9868 189.665 86.0987 189.422 86.2354C189.186 86.3722 188.993 86.5494 188.844 86.7669C188.701 86.9783 188.63 87.2425 188.63 87.5595C188.63 87.833 188.698 88.0941 188.835 88.3427C188.978 88.5914 189.195 88.7934 189.488 88.9488C189.786 89.1042 190.174 89.1819 190.653 89.1819ZM202.653 90.5712C201.709 90.5712 200.913 90.3381 200.266 89.8719C199.62 89.3995 199.129 88.7623 198.793 87.9604C198.464 87.1523 198.299 86.2479 198.299 85.2471C198.299 84.2338 198.464 83.3263 198.793 82.5244C199.129 81.7225 199.62 81.0915 200.266 80.6315C200.919 80.1716 201.718 79.9416 202.663 79.9416C203.595 79.9416 204.397 80.1747 205.068 80.6409C205.746 81.1009 206.265 81.7318 206.626 82.5337C206.986 83.3356 207.166 84.24 207.166 85.2471C207.166 86.2541 206.986 87.1585 206.626 87.9604C206.265 88.7623 205.746 89.3995 205.068 89.8719C204.397 90.3381 203.592 90.5712 202.653 90.5712ZM198.019 94.7672V80.2213H199.502V87.6341H199.688V94.7672H198.019ZM202.448 89.0514C203.113 89.0514 203.664 88.8835 204.099 88.5479C204.534 88.2122 204.86 87.7584 205.078 87.1865C205.295 86.6084 205.404 85.9619 205.404 85.2471C205.404 84.5384 205.295 83.8982 205.078 83.3263C204.866 82.7544 204.537 82.3006 204.089 81.9649C203.648 81.6292 203.085 81.4614 202.402 81.4614C201.749 81.4614 201.208 81.623 200.779 81.9463C200.35 82.2633 200.03 82.7078 199.819 83.2796C199.607 83.8453 199.502 84.5011 199.502 85.2471C199.502 85.9806 199.604 86.6364 199.809 87.2145C200.021 87.7864 200.344 88.2371 200.779 88.5665C201.214 88.8898 201.771 89.0514 202.448 89.0514ZM213.5 90.5712C212.499 90.5712 211.635 90.3443 210.907 89.8906C210.186 89.4368 209.63 88.8089 209.238 88.0071C208.847 87.2052 208.651 86.2852 208.651 85.2471C208.651 84.1903 208.85 83.2641 209.248 82.4684C209.646 81.6728 210.208 81.0542 210.935 80.6129C211.663 80.1653 212.517 79.9416 213.5 79.9416C214.507 79.9416 215.374 80.1684 216.101 80.6222C216.828 81.0698 217.385 81.6945 217.77 82.4964C218.162 83.2921 218.358 84.209 218.358 85.2471C218.358 86.2976 218.162 87.2238 217.77 88.0257C217.378 88.8214 216.819 89.4461 216.092 89.8999C215.364 90.3474 214.5 90.5712 213.5 90.5712ZM213.5 88.9954C214.544 88.9954 215.321 88.6473 215.831 87.9511C216.34 87.2549 216.595 86.3535 216.595 85.2471C216.595 84.1095 216.337 83.2051 215.821 82.5337C215.305 81.8561 214.531 81.5174 213.5 81.5174C212.797 81.5174 212.219 81.6759 211.765 81.9929C211.311 82.3099 210.973 82.7482 210.749 83.3076C210.525 83.8671 210.413 84.5136 210.413 85.2471C210.413 86.3784 210.674 87.286 211.196 87.9698C211.719 88.6535 212.486 88.9954 213.5 88.9954ZM219.665 92.5293V88.9208C220.23 88.9208 220.634 88.7375 220.877 88.3707C221.119 87.9977 221.315 87.3854 221.464 86.5338C221.564 85.9992 221.644 85.4273 221.707 84.8182C221.769 84.209 221.822 83.5314 221.865 82.7855C221.915 82.0333 221.961 81.1786 222.005 80.2213H228.942V88.9208H229.921V92.5293H228.336V90.2915H221.25V92.5293H219.665ZM222.219 88.9208H227.282V81.5919H223.506C223.487 82.0333 223.463 82.4964 223.432 82.9813C223.4 83.4599 223.363 83.9386 223.32 84.4172C223.282 84.8959 223.236 85.3496 223.18 85.7786C223.13 86.2013 223.071 86.5804 223.003 86.9161C222.922 87.3823 222.829 87.7771 222.723 88.1003C222.617 88.4235 222.449 88.6971 222.219 88.9208ZM231.783 90.2915V80.2213H233.443V84.4638H238.739V80.2213H240.399V90.2915H238.739V86.0396H233.443V90.2915H231.783ZM245.873 90.5712C245.121 90.5712 244.49 90.4345 243.981 90.161C243.477 89.8812 243.095 89.5145 242.834 89.0607C242.579 88.6069 242.451 88.1096 242.451 87.5688C242.451 87.0404 242.551 86.5835 242.75 86.1981C242.955 85.8065 243.241 85.4833 243.608 85.2284C243.974 84.9673 244.413 84.7622 244.922 84.613C245.401 84.4825 245.936 84.3706 246.526 84.2773C247.123 84.1779 247.726 84.0877 248.335 84.0069C248.944 83.9261 249.513 83.8484 250.041 83.7738L249.445 84.1188C249.463 83.2237 249.283 82.5617 248.904 82.1328C248.531 81.7038 247.884 81.4894 246.964 81.4894C246.355 81.4894 245.821 81.6292 245.361 81.909C244.907 82.1825 244.587 82.6301 244.4 83.2517L242.824 82.7761C243.067 81.8934 243.536 81.2003 244.232 80.6968C244.929 80.1933 245.845 79.9416 246.983 79.9416C247.897 79.9416 248.68 80.1063 249.333 80.4357C249.992 80.759 250.464 81.2501 250.75 81.909C250.893 82.2198 250.983 82.5586 251.02 82.9253C251.058 83.2859 251.076 83.665 251.076 84.0629V90.2915H249.603V87.8765L249.948 88.1003C249.569 88.9146 249.037 89.53 248.354 89.9465C247.676 90.363 246.849 90.5712 245.873 90.5712ZM246.125 89.1819C246.722 89.1819 247.238 89.0762 247.673 88.8649C248.114 88.6473 248.469 88.3645 248.736 88.0164C249.003 87.6621 249.177 87.2767 249.258 86.8602C249.351 86.5494 249.401 86.2044 249.407 85.8252C249.42 85.4398 249.426 85.1445 249.426 84.9394L250.004 85.1911C249.463 85.2657 248.932 85.3372 248.41 85.4056C247.888 85.474 247.393 85.5486 246.927 85.6294C246.461 85.704 246.041 85.7941 245.668 85.8998C245.395 85.9868 245.137 86.0987 244.894 86.2354C244.658 86.3722 244.465 86.5494 244.316 86.7669C244.173 86.9783 244.102 87.2425 244.102 87.5595C244.102 87.833 244.17 88.0941 244.307 88.3427C244.45 88.5914 244.668 88.7934 244.96 88.9488C245.258 89.1042 245.647 89.1819 246.125 89.1819ZM259.72 90.2915V86.6457H257.547C257.293 86.6457 257.01 86.6364 256.699 86.6177C256.394 86.5929 256.108 86.5587 255.841 86.5152C255.114 86.3784 254.498 86.0583 253.995 85.5548C253.498 85.0513 253.249 84.355 253.249 83.4661C253.249 82.6021 253.482 81.909 253.948 81.3868C254.421 80.8584 255.002 80.5165 255.692 80.3611C256.003 80.2866 256.317 80.2461 256.634 80.2399C256.957 80.2275 257.23 80.2213 257.454 80.2213H261.38L261.389 90.2915H259.72ZM252.941 90.2915L255.617 86.1888H257.408L254.732 90.2915H252.941ZM257.426 85.275H259.72V81.5919H257.426C257.283 81.5919 257.094 81.5982 256.857 81.6106C256.627 81.623 256.407 81.6603 256.195 81.7225C255.997 81.7784 255.801 81.881 255.608 82.0302C255.422 82.1794 255.266 82.3721 255.142 82.6083C255.017 82.8445 254.955 83.1242 254.955 83.4475C254.955 83.9137 255.086 84.2929 255.347 84.585C255.608 84.871 255.925 85.0637 256.298 85.1631C256.503 85.2129 256.705 85.244 256.904 85.2564C257.109 85.2688 257.283 85.275 257.426 85.275ZM269.141 94.7672L271.09 89.471L271.117 91.0374L266.716 80.2213H268.46L271.91 88.9208H271.313L274.549 80.2213H276.237L270.754 94.7672H269.141ZM276.48 90.2915V88.8649C276.853 88.9333 277.136 88.9208 277.328 88.8276C277.527 88.7281 277.673 88.5572 277.767 88.3148C277.866 88.0661 277.947 87.7553 278.009 87.3823C278.115 86.7918 278.205 86.1329 278.28 85.4056C278.36 84.6783 278.432 83.8826 278.494 83.0186C278.562 82.1483 278.625 81.2159 278.68 80.2213H285.72V90.2915H284.061V81.7971H280.191C280.154 82.369 280.107 82.9564 280.051 83.5594C280.001 84.1623 279.949 84.7498 279.893 85.3217C279.837 85.8873 279.775 86.4157 279.706 86.9068C279.644 87.3917 279.576 87.8112 279.501 88.1656C279.383 88.7748 279.218 89.2627 279.007 89.6295C278.795 89.99 278.491 90.2231 278.093 90.3288C277.695 90.4407 277.158 90.4283 276.48 90.2915ZM288.638 90.2915V88.4639H290.465V90.2915H288.638ZM296.726 90.2822L296.735 88.7903L302.694 83.4288C303.191 82.9813 303.523 82.5586 303.691 82.1607C303.865 81.7567 303.952 81.3433 303.952 80.9206C303.952 80.4047 303.834 79.9384 303.598 79.522C303.362 79.1055 303.039 78.776 302.628 78.5336C302.224 78.2912 301.764 78.1699 301.248 78.1699C300.714 78.1699 300.238 78.2974 299.822 78.5522C299.405 78.8009 299.076 79.1334 298.833 79.5499C298.597 79.9664 298.482 80.4202 298.488 80.9113H296.791C296.791 80.0659 296.987 79.3199 297.379 78.6734C297.77 78.0207 298.302 77.511 298.973 77.1443C299.651 76.7713 300.418 76.5848 301.276 76.5848C302.109 76.5848 302.855 76.7775 303.514 77.1629C304.173 77.5421 304.692 78.0612 305.071 78.7201C305.457 79.3728 305.649 80.1125 305.649 80.9393C305.649 81.5236 305.575 82.0302 305.426 82.4591C305.283 82.888 305.059 83.2859 304.754 83.6526C304.45 84.0132 304.067 84.3986 303.607 84.8088L298.656 89.2565L298.442 88.6971H305.649V90.2822H296.726ZM312.412 90.5712C311.542 90.5712 310.765 90.3754 310.081 89.9838C309.403 89.586 308.865 89.0483 308.468 88.3707C308.076 87.6869 307.88 86.9099 307.88 86.0396V81.1164C307.88 80.2461 308.076 79.4691 308.468 78.7853C308.865 78.1016 309.403 77.5639 310.081 77.1722C310.765 76.7806 311.542 76.5848 312.412 76.5848C313.282 76.5848 314.059 76.7806 314.743 77.1722C315.427 77.5639 315.964 78.1016 316.356 78.7853C316.748 79.4691 316.943 80.2461 316.943 81.1164V86.0396C316.943 86.9099 316.748 87.6869 316.356 88.3707C315.964 89.0483 315.427 89.586 314.743 89.9838C314.059 90.3754 313.282 90.5712 312.412 90.5712ZM312.412 88.9768C312.94 88.9768 313.419 88.8493 313.848 88.5945C314.277 88.3396 314.619 87.9977 314.873 87.5688C315.128 87.1337 315.256 86.655 315.256 86.1329V81.0138C315.256 80.4855 315.128 80.0068 314.873 79.5779C314.619 79.149 314.277 78.8071 313.848 78.5522C313.419 78.2974 312.94 78.1699 312.412 78.1699C311.89 78.1699 311.411 78.2974 310.976 78.5522C310.547 78.8071 310.205 79.149 309.95 79.5779C309.695 80.0068 309.568 80.4855 309.568 81.0138V86.1329C309.568 86.655 309.695 87.1337 309.95 87.5688C310.205 87.9977 310.547 88.3396 310.976 88.5945C311.411 88.8493 311.89 88.9768 312.412 88.9768ZM319.367 92.3801L319.47 91.6062C319.731 91.6249 319.927 91.5751 320.057 91.457C320.188 91.3389 320.272 91.1773 320.309 90.9722C320.346 90.767 320.353 90.5402 320.328 90.2915H319.367V88.1842H321.195V90.5712C321.195 91.2239 321.033 91.715 320.71 92.0445C320.393 92.3739 319.945 92.4858 319.367 92.3801ZM122.551 116.292V102.865H124.211V109.168L130.085 102.865H132.174L126.076 109.382L132.649 116.292H130.505L124.211 109.727V116.292H122.551ZM138.576 116.571C137.631 116.571 136.836 116.338 136.189 115.872C135.543 115.399 135.052 114.762 134.716 113.96C134.387 113.152 134.222 112.248 134.222 111.247C134.222 110.234 134.387 109.326 134.716 108.524C135.052 107.722 135.543 107.092 136.189 106.632C136.842 106.172 137.641 105.942 138.586 105.942C139.518 105.942 140.32 106.175 140.991 106.641C141.669 107.101 142.188 107.732 142.548 108.534C142.909 109.336 143.089 110.24 143.089 111.247C143.089 112.254 142.909 113.159 142.548 113.96C142.188 114.762 141.669 115.399 140.991 115.872C140.32 116.338 139.515 116.571 138.576 116.571ZM133.942 120.767V106.221H135.425V113.634H135.611V120.767H133.942ZM138.371 115.051C139.036 115.051 139.586 114.884 140.022 114.548C140.457 114.212 140.783 113.758 141.001 113.187C141.218 112.608 141.327 111.962 141.327 111.247C141.327 110.538 141.218 109.898 141.001 109.326C140.789 108.754 140.46 108.301 140.012 107.965C139.571 107.629 139.008 107.461 138.325 107.461C137.672 107.461 137.131 107.623 136.702 107.946C136.273 108.263 135.953 108.708 135.742 109.28C135.53 109.845 135.425 110.501 135.425 111.247C135.425 111.981 135.527 112.636 135.732 113.214C135.944 113.786 136.267 114.237 136.702 114.567C137.137 114.89 137.694 115.051 138.371 115.051ZM147.996 116.571C147.244 116.571 146.613 116.434 146.103 116.161C145.599 115.881 145.217 115.514 144.956 115.061C144.701 114.607 144.574 114.11 144.574 113.569C144.574 113.04 144.673 112.584 144.872 112.198C145.077 111.807 145.363 111.483 145.73 111.228C146.097 110.967 146.535 110.762 147.045 110.613C147.523 110.482 148.058 110.371 148.649 110.277C149.245 110.178 149.848 110.088 150.457 110.007C151.067 109.926 151.635 109.848 152.164 109.774L151.567 110.119C151.586 109.224 151.405 108.562 151.026 108.133C150.653 107.704 150.007 107.489 149.087 107.489C148.478 107.489 147.943 107.629 147.483 107.909C147.029 108.182 146.709 108.63 146.523 109.252L144.947 108.776C145.189 107.893 145.659 107.2 146.355 106.697C147.051 106.193 147.968 105.942 149.105 105.942C150.019 105.942 150.802 106.106 151.455 106.436C152.114 106.759 152.586 107.25 152.872 107.909C153.015 108.22 153.106 108.559 153.143 108.925C153.18 109.286 153.199 109.665 153.199 110.063V116.292H151.726V113.877L152.071 114.1C151.691 114.915 151.16 115.53 150.476 115.947C149.799 116.363 148.972 116.571 147.996 116.571ZM148.248 115.182C148.844 115.182 149.36 115.076 149.795 114.865C150.237 114.647 150.591 114.364 150.858 114.016C151.126 113.662 151.3 113.277 151.381 112.86C151.474 112.549 151.524 112.204 151.53 111.825C151.542 111.44 151.548 111.145 151.548 110.939L152.126 111.191C151.586 111.266 151.054 111.337 150.532 111.406C150.01 111.474 149.516 111.549 149.049 111.629C148.583 111.704 148.164 111.794 147.791 111.9C147.517 111.987 147.259 112.099 147.017 112.235C146.781 112.372 146.588 112.549 146.439 112.767C146.296 112.978 146.224 113.242 146.224 113.559C146.224 113.833 146.293 114.094 146.429 114.343C146.572 114.591 146.79 114.793 147.082 114.949C147.38 115.104 147.769 115.182 148.248 115.182ZM159.866 116.571C158.846 116.571 157.979 116.344 157.264 115.891C156.556 115.431 156.015 114.8 155.642 113.998C155.269 113.196 155.076 112.282 155.064 111.256C155.076 110.206 155.272 109.283 155.651 108.487C156.036 107.685 156.587 107.06 157.301 106.613C158.016 106.165 158.877 105.942 159.884 105.942C160.947 105.942 161.861 106.203 162.626 106.725C163.396 107.247 163.912 107.962 164.173 108.869L162.532 109.364C162.321 108.779 161.976 108.325 161.497 108.002C161.025 107.679 160.481 107.517 159.866 107.517C159.176 107.517 158.607 107.679 158.159 108.002C157.712 108.319 157.379 108.761 157.162 109.326C156.944 109.886 156.832 110.529 156.826 111.256C156.838 112.375 157.096 113.28 157.6 113.97C158.11 114.654 158.865 114.995 159.866 114.995C160.525 114.995 161.072 114.846 161.507 114.548C161.942 114.243 162.271 113.805 162.495 113.233L164.173 113.671C163.825 114.61 163.281 115.328 162.542 115.825C161.802 116.323 160.91 116.571 159.866 116.571ZM166.067 116.292V106.221H167.727V110.464H173.023V106.221H174.683V116.292H173.023V112.04H167.727V116.292H166.067ZM181.584 116.571C180.583 116.571 179.719 116.344 178.992 115.891C178.271 115.437 177.714 114.809 177.323 114.007C176.931 113.205 176.735 112.285 176.735 111.247C176.735 110.19 176.934 109.264 177.332 108.468C177.73 107.673 178.292 107.054 179.02 106.613C179.747 106.165 180.602 105.942 181.584 105.942C182.591 105.942 183.458 106.168 184.185 106.622C184.913 107.07 185.469 107.695 185.854 108.496C186.246 109.292 186.442 110.209 186.442 111.247C186.442 112.298 186.246 113.224 185.854 114.026C185.463 114.821 184.903 115.446 184.176 115.9C183.449 116.347 182.585 116.571 181.584 116.571ZM181.584 114.995C182.628 114.995 183.405 114.647 183.915 113.951C184.425 113.255 184.68 112.354 184.68 111.247C184.68 110.11 184.422 109.205 183.906 108.534C183.39 107.856 182.616 107.517 181.584 107.517C180.882 107.517 180.303 107.676 179.85 107.993C179.396 108.31 179.057 108.748 178.833 109.308C178.609 109.867 178.498 110.514 178.498 111.247C178.498 112.378 178.759 113.286 179.281 113.97C179.803 114.654 180.571 114.995 181.584 114.995ZM188.495 116.292V106.221H195.488V107.797H190.155V116.292H188.495ZM201.362 116.571C200.361 116.571 199.497 116.344 198.769 115.891C198.048 115.437 197.492 114.809 197.1 114.007C196.709 113.205 196.513 112.285 196.513 111.247C196.513 110.19 196.712 109.264 197.11 108.468C197.508 107.673 198.07 107.054 198.797 106.613C199.525 106.165 200.379 105.942 201.362 105.942C202.369 105.942 203.236 106.168 203.963 106.622C204.69 107.07 205.247 107.695 205.632 108.496C206.024 109.292 206.22 110.209 206.22 111.247C206.22 112.298 206.024 113.224 205.632 114.026C205.241 114.821 204.681 115.446 203.954 115.9C203.226 116.347 202.362 116.571 201.362 116.571ZM201.362 114.995C202.406 114.995 203.183 114.647 203.693 113.951C204.202 113.255 204.457 112.354 204.457 111.247C204.457 110.11 204.199 109.205 203.683 108.534C203.167 107.856 202.393 107.517 201.362 107.517C200.659 107.517 200.081 107.676 199.627 107.993C199.174 108.31 198.835 108.748 198.611 109.308C198.387 109.867 198.275 110.514 198.275 111.247C198.275 112.378 198.536 113.286 199.059 113.97C199.581 114.654 200.348 114.995 201.362 114.995ZM212.897 116.571C211.952 116.571 211.157 116.338 210.51 115.872C209.864 115.399 209.373 114.762 209.037 113.96C208.708 113.152 208.543 112.248 208.543 111.247C208.543 110.234 208.708 109.326 209.037 108.524C209.373 107.722 209.864 107.092 210.51 106.632C211.163 106.172 211.962 105.942 212.907 105.942C213.839 105.942 214.641 106.175 215.312 106.641C215.99 107.101 216.509 107.732 216.869 108.534C217.23 109.336 217.41 110.24 217.41 111.247C217.41 112.254 217.23 113.159 216.869 113.96C216.509 114.762 215.99 115.399 215.312 115.872C214.641 116.338 213.836 116.571 212.897 116.571ZM208.263 120.767V106.221H209.746V113.634H209.932V120.767H208.263ZM212.692 115.051C213.357 115.051 213.907 114.884 214.343 114.548C214.778 114.212 215.104 113.758 215.322 113.187C215.539 112.608 215.648 111.962 215.648 111.247C215.648 110.538 215.539 109.898 215.322 109.326C215.11 108.754 214.781 108.301 214.333 107.965C213.892 107.629 213.329 107.461 212.646 107.461C211.993 107.461 211.452 107.623 211.023 107.946C210.594 108.263 210.274 108.708 210.063 109.28C209.851 109.845 209.746 110.501 209.746 111.247C209.746 111.981 209.848 112.636 210.053 113.214C210.265 113.786 210.588 114.237 211.023 114.567C211.458 114.89 212.015 115.051 212.692 115.051ZM223.697 116.571C222.677 116.571 221.81 116.344 221.095 115.891C220.387 115.431 219.846 114.8 219.473 113.998C219.1 113.196 218.907 112.282 218.895 111.256C218.907 110.206 219.103 109.283 219.482 108.487C219.868 107.685 220.418 107.06 221.133 106.613C221.848 106.165 222.709 105.942 223.716 105.942C224.779 105.942 225.692 106.203 226.457 106.725C227.228 107.247 227.744 107.962 228.005 108.869L226.364 109.364C226.152 108.779 225.807 108.325 225.329 108.002C224.856 107.679 224.312 107.517 223.697 107.517C223.007 107.517 222.438 107.679 221.991 108.002C221.543 108.319 221.21 108.761 220.993 109.326C220.775 109.886 220.663 110.529 220.657 111.256C220.67 112.375 220.928 113.28 221.431 113.97C221.941 114.654 222.696 114.995 223.697 114.995C224.356 114.995 224.903 114.846 225.338 114.548C225.773 114.243 226.103 113.805 226.326 113.233L228.005 113.671C227.657 114.61 227.113 115.328 226.373 115.825C225.633 116.323 224.741 116.571 223.697 116.571ZM229.898 116.292L229.908 106.221H231.586V111.07L235.81 106.221H237.964L233.516 111.256L238.486 116.292H236.164L231.586 111.443V116.292H229.898ZM239.228 118.38L239.33 117.606C239.591 117.625 239.787 117.575 239.918 117.457C240.048 117.339 240.132 117.177 240.169 116.972C240.207 116.767 240.213 116.54 240.188 116.292H239.228V114.184H241.055V116.571C241.055 117.224 240.894 117.715 240.57 118.044C240.253 118.374 239.806 118.486 239.228 118.38ZM253.503 116.571C252.527 116.571 251.645 116.407 250.855 116.077C250.072 115.748 249.41 115.266 248.869 114.632C248.328 113.998 247.934 113.221 247.685 112.301L249.317 111.881C249.603 112.832 250.106 113.591 250.827 114.156C251.548 114.722 252.412 114.999 253.42 114.986C254.11 114.974 254.756 114.843 255.359 114.594C255.968 114.34 256.469 113.945 256.86 113.41C257.221 112.944 257.472 112.456 257.615 111.946C257.758 111.43 257.849 110.902 257.886 110.361H253.019V108.785H257.895C257.821 107.872 257.6 107.067 257.233 106.37C256.873 105.674 256.372 105.133 255.732 104.748C255.098 104.356 254.327 104.167 253.42 104.179C252.35 104.192 251.452 104.49 250.725 105.074C249.998 105.652 249.513 106.445 249.27 107.452L247.592 107.21C247.928 105.736 248.614 104.599 249.653 103.797C250.691 102.989 251.974 102.585 253.503 102.585C254.809 102.585 255.918 102.877 256.832 103.461C257.746 104.046 258.445 104.863 258.93 105.914C259.421 106.964 259.673 108.186 259.685 109.578C259.704 110.883 259.474 112.064 258.995 113.121C258.517 114.178 257.811 115.017 256.879 115.639C255.953 116.26 254.827 116.571 253.503 116.571ZM261.532 116.292L261.541 106.221H263.219V111.07L267.443 106.221H269.597L265.15 111.256L270.119 116.292H267.798L263.219 111.443V116.292H261.532ZM275.108 116.571C274.088 116.571 273.221 116.344 272.506 115.891C271.798 115.431 271.257 114.8 270.884 113.998C270.511 113.196 270.318 112.282 270.306 111.256C270.318 110.206 270.514 109.283 270.893 108.487C271.279 107.685 271.829 107.06 272.544 106.613C273.259 106.165 274.12 105.942 275.127 105.942C276.19 105.942 277.103 106.203 277.868 106.725C278.639 107.247 279.155 107.962 279.416 108.869L277.775 109.364C277.563 108.779 277.218 108.325 276.74 108.002C276.267 107.679 275.723 107.517 275.108 107.517C274.418 107.517 273.849 107.679 273.402 108.002C272.954 108.319 272.621 108.761 272.404 109.326C272.186 109.886 272.074 110.529 272.068 111.256C272.081 112.375 272.339 113.28 272.842 113.97C273.352 114.654 274.107 114.995 275.108 114.995C275.767 114.995 276.314 114.846 276.749 114.548C277.184 114.243 277.514 113.805 277.737 113.233L279.416 113.671C279.068 114.61 278.524 115.328 277.784 115.825C277.044 116.323 276.152 116.571 275.108 116.571ZM281.309 116.292V106.221H289.561V116.292H287.902V107.797H282.969V116.292H281.309ZM296.462 116.571C295.461 116.571 294.597 116.344 293.87 115.891C293.149 115.437 292.592 114.809 292.201 114.007C291.809 113.205 291.613 112.285 291.613 111.247C291.613 110.19 291.812 109.264 292.21 108.468C292.608 107.673 293.171 107.054 293.898 106.613C294.625 106.165 295.48 105.942 296.462 105.942C297.469 105.942 298.336 106.168 299.063 106.622C299.791 107.07 300.347 107.695 300.733 108.496C301.124 109.292 301.32 110.209 301.32 111.247C301.32 112.298 301.124 113.224 300.733 114.026C300.341 114.821 299.781 115.446 299.054 115.9C298.327 116.347 297.463 116.571 296.462 116.571ZM296.462 114.995C297.506 114.995 298.283 114.647 298.793 113.951C299.303 113.255 299.558 112.354 299.558 111.247C299.558 110.11 299.3 109.205 298.784 108.534C298.268 107.856 297.494 107.517 296.462 107.517C295.76 107.517 295.181 107.676 294.728 107.993C294.274 108.31 293.935 108.748 293.711 109.308C293.488 109.867 293.376 110.514 293.376 111.247C293.376 112.378 293.637 113.286 294.159 113.97C294.681 114.654 295.449 114.995 296.462 114.995ZM310.789 116.553C310.124 116.553 309.506 116.431 308.934 116.189C308.362 115.94 307.868 115.592 307.451 115.145C307.041 114.691 306.739 114.153 306.547 113.532L308.141 113.075C308.346 113.696 308.688 114.169 309.167 114.492C309.646 114.815 310.183 114.974 310.78 114.967C311.327 114.955 311.799 114.831 312.197 114.594C312.601 114.352 312.912 114.023 313.13 113.606C313.354 113.19 313.465 112.708 313.465 112.161C313.465 111.328 313.217 110.653 312.719 110.137C312.222 109.615 311.569 109.354 310.761 109.354C310.538 109.354 310.301 109.385 310.053 109.447C309.81 109.51 309.583 109.597 309.372 109.709L308.57 108.394L313.549 103.89L313.764 104.45H307.078V102.865H314.995V104.459L310.752 108.524L310.733 107.937C311.622 107.875 312.399 108.021 313.064 108.375C313.73 108.73 314.246 109.236 314.612 109.895C314.985 110.554 315.172 111.309 315.172 112.161C315.172 113.019 314.979 113.777 314.594 114.436C314.208 115.095 313.686 115.614 313.027 115.993C312.368 116.366 311.622 116.553 310.789 116.553Z" fill="white"></path> <defs> <filter id="filter0_d_273_1416" x="0.0356331" y="15.1223" width="435.91" height="188.04" filterUnits="userSpaceOnUse" color-interpolation-filters="sRGB"> <feFlood flood-opacity="0" result="BackgroundImageFix"></feFlood> <feColorMatrix in="SourceAlpha" type="matrix" values="0 0 0 0 0 0 0 0 0 0 0 0 0 0 0 0 0 0 127 0" result="hardAlpha"></feColorMatrix> <feOffset dy="12.4324"></feOffset> <feGaussianBlur stdDeviation="24.8648"></feGaussianBlur> <feComposite in2="hardAlpha" operator="out"></feComposite> <feColorMatrix type="matrix" values="0 0 0 0 0.407843 0 0 0 0 0.00392157 0 0 0 0 1 0 0 0 0.12 0"></feColorMatrix> <feBlend mode="normal" in2="BackgroundImageFix" result="effect1_dropShadow_273_1416"></feBlend> <feBlend mode="normal" in="SourceGraphic" in2="effect1_dropShadow_273_1416" result="shape"></feBlend> </filter> <radialGradient id="paint0_angular_273_1416" cx="0" cy="0" r="1" gradientUnits="userSpaceOnUse" gradientTransform="translate(217.991 96.7096) rotate(89.1527) scale(31.5406 121.368)"> <stop offset="0.144806" stop-color="#6700FF"></stop> <stop offset="0.347377" stop-color="white" stop-opacity="0.04"></stop> <stop offset="0.653019" stop-color="white"></stop> <stop offset="0.847291" stop-color="white" stop-opacity="0.07"></stop> </radialGradient> </defs> </svg> 