<?xml version="1.0" encoding="UTF-8"?> <svg xmlns="http://www.w3.org/2000/svg" width="1047" height="309" viewBox="0 0 1047 309" fill="none"> <path d="M16.408 9.42919V73H33.9242V49.4173H73.1433V34.8917H33.9242V23.5275H74.3395V9.42919H16.408ZM117.394 8.40385C87.6595 8.40385 79.2005 25.92 79.2005 39.762V42.3254C79.2005 55.9965 87.6595 74.0253 117.394 74.0253H121.154C150.889 74.0253 159.348 55.9965 159.348 42.3254V39.762C159.348 25.8346 150.889 8.40385 121.154 8.40385H117.394ZM141.062 41.6418C141.062 49.3318 137.132 59.4143 119.274 59.4143C101.758 59.4143 97.4856 49.3318 97.4856 41.6418V40.4456C97.4856 32.5847 101.502 22.9294 119.274 22.9294C137.217 22.9294 141.062 32.5847 141.062 40.4456V41.6418ZM183.841 23.4421H208.364C215.541 23.4421 217.507 26.3472 217.507 30.0213V30.1922C217.507 33.8664 215.541 36.9424 208.364 36.9424H183.841V23.4421ZM222.548 42.4108C230.494 40.6165 235.963 35.2335 235.963 27.2871V26.4327C235.963 19.5117 233.228 9.42919 209.048 9.42919H166.24V73H183.841V51.3825H206.741C215.627 51.3825 218.617 55.1421 218.617 63.3448V68.5569C218.617 71.3766 218.959 72.5728 219.216 73H237.415V72.5728C236.817 71.5474 236.39 70.2658 236.39 65.4809V58.9016C236.39 49.5882 231.178 44.376 222.548 42.4108ZM263.961 73H281.477V23.9548H306.085V9.42919H239.353V23.9548H263.961V73ZM348.726 73.9399C378.803 73.9399 383.246 54.4585 383.246 41.7273V9.42919H365.73V41.3C365.73 48.5628 363.85 58.9871 347.701 58.9871H347.274C331.125 58.9871 329.074 48.5628 329.074 41.3V9.42919H311.472V41.7273C311.472 54.3731 315.061 73.9399 346.248 73.9399H348.726ZM447.643 73H464.903V9.42919H447.814V50.3572L410.646 9.42919H392.531V73H409.706V31.8157L447.643 73ZM474.665 9.42919V73H533.365V58.9871H492.01V47.9647H531.571V33.61H492.01V23.2712H532.853V9.42919H474.665Z" fill="white"></path> <path d="M128.755 203.68V176.233H38.0868C38.0868 173.766 42.096 169.911 64.7631 164.205C70.16 162.818 76.9448 161.276 83.1127 159.888C115.032 152.486 126.134 144.16 126.134 124.268V123.035C126.134 103.451 113.49 87.569 72.473 87.569H65.5341C19.2746 87.569 11.5647 113.628 11.5647 129.202V130.282H44.7173C45.1799 124.731 47.0303 112.086 69.5433 112.086C88.5096 112.086 92.5188 117.021 92.5188 123.189C92.5188 128.894 88.5096 131.978 73.244 136.45L54.8944 142.001C11.7189 155.57 9.56016 170.682 9.56016 187.027V203.68H128.755ZM200.095 87.1064C146.434 87.1064 135.948 122.88 135.948 143.697V148.323C135.948 168.369 146.434 205.531 200.095 205.531H206.571C260.078 205.531 270.718 168.369 270.718 148.323V143.697C270.718 123.343 260.386 87.1064 206.571 87.1064H200.095ZM237.719 146.935C237.719 157.421 233.093 179.163 203.487 179.163C173.881 179.163 168.947 157.421 168.947 146.935V144.776C168.947 134.445 172.956 113.32 203.333 113.32C233.402 113.32 237.719 134.445 237.719 144.776V146.935ZM341.964 205.376C386.065 205.376 397.013 182.247 397.013 164.822V162.972C397.013 146.01 387.607 127.352 347.67 127.352H346.128C325.465 127.352 315.134 135.062 313.9 136.296V115.016H388.995V88.9567H282.444V159.888H313.9C314.363 156.958 318.681 150.944 339.189 150.944C359.543 150.944 365.403 156.496 365.403 164.668V165.593C365.403 173.303 359.08 179.779 339.189 179.779C318.064 179.779 314.671 172.07 314.209 169.448H280.748V171.607C280.748 181.167 287.841 205.376 335.797 205.376H341.964ZM468.683 87.1064C415.022 87.1064 404.536 122.88 404.536 143.697V148.323C404.536 168.369 415.022 205.531 468.683 205.531H475.159C528.666 205.531 539.306 168.369 539.306 148.323V143.697C539.306 123.343 528.974 87.1064 475.159 87.1064H468.683ZM506.307 146.935C506.307 157.421 501.681 179.163 472.075 179.163C442.469 179.163 437.535 157.421 437.535 146.935V144.776C437.535 134.445 441.544 113.32 471.921 113.32C501.99 113.32 506.307 134.445 506.307 144.776V146.935Z" fill="white"></path> </svg> 