<?xml version="1.0" encoding="UTF-8"?> <svg xmlns="http://www.w3.org/2000/svg" width="205" height="204" viewBox="0 0 205 204" fill="none"> <path d="M99.1969 5.19186C100.729 2.83372 104.181 2.83372 105.713 5.19186L115.008 19.5003C116.218 21.3623 118.739 21.8336 120.54 20.5343L134.376 10.5499C136.656 8.90443 139.875 10.1515 140.452 12.9038L143.951 29.6039C144.406 31.7771 146.587 33.1274 148.735 32.5663L165.244 28.2544C167.965 27.5437 170.516 29.8694 170.059 32.6442L167.289 49.4805C166.929 51.6714 168.474 53.7183 170.68 53.9711L187.632 55.9141C190.426 56.2343 191.965 59.3245 190.536 61.747L181.871 76.4456C180.744 78.3583 181.446 80.8254 183.411 81.858L198.516 89.7935C201.006 91.1013 201.324 94.5387 199.118 96.2817L185.728 106.858C183.985 108.234 183.749 110.788 185.209 112.461L196.427 125.317C198.276 127.436 197.331 130.756 194.644 131.584L178.338 136.609C176.216 137.263 175.073 139.559 175.83 141.646L181.646 157.687C182.605 160.33 180.525 163.085 177.72 162.887L160.699 161.682C158.485 161.525 156.589 163.253 156.541 165.473L156.17 182.531C156.109 185.343 153.174 187.16 150.63 185.962L135.195 178.69C133.186 177.743 130.794 178.67 129.948 180.723L123.44 196.495C122.367 199.095 118.974 199.729 117.035 197.693L105.268 185.336C103.737 183.728 101.172 183.728 99.6413 185.336L87.875 197.693C85.9359 199.729 82.5425 199.095 81.47 196.495L74.9621 180.723C74.1153 178.67 71.7235 177.743 69.7149 178.69L54.2794 185.962C51.7355 187.16 48.8005 185.343 48.7394 182.531L48.3688 165.473C48.3206 163.253 46.4251 161.525 44.2103 161.682L27.1902 162.887C24.3851 163.085 22.3048 160.33 23.2634 157.687L29.0801 141.646C29.8371 139.559 28.6938 137.263 26.5719 136.609L10.2658 131.584C7.57846 130.756 6.63374 127.436 8.48263 125.317L19.7011 112.461C21.161 110.788 20.9243 108.234 19.1819 106.858L5.79211 96.2817C3.58538 94.5387 3.9039 91.1013 6.39333 89.7935L21.4984 81.858C23.4641 80.8254 24.166 78.3583 23.0384 76.4456L14.3733 61.747C12.9452 59.3245 14.4839 56.2343 17.2777 55.9141L34.2294 53.9711C36.4353 53.7183 37.981 51.6714 37.6206 49.4805L34.8503 32.6442C34.3937 29.8694 36.9449 27.5437 39.6657 28.2544L56.1746 32.5663C58.3229 33.1274 60.5036 31.7771 60.9589 29.6039L64.4577 12.9038C65.0344 10.1515 68.2534 8.90443 70.5337 10.5499L84.3702 20.5343C86.1707 21.8336 88.692 21.3623 89.9016 19.5003L99.1969 5.19186Z" fill="#8655FF"></path> <path d="M62.8476 98.479H104.026V111.379H124.189V98.479H138.2V83.6136H124.189V47.39H98.217L62.8476 86.0912V98.479ZM104.026 83.6136H83.0953L104.026 60.5467V83.6136ZM63.7936 129.593C68.5778 129.593 69.0335 126.973 69.0335 125.563V125.336C69.0335 123.954 68.5778 121.235 63.8078 121.235H63.4518V118.786H60.2196V121.235H59.8637C55.1506 121.235 54.638 123.954 54.638 125.336V125.563C54.638 126.973 55.1506 129.593 59.8779 129.593H60.2196V132.056H63.4518V129.593H63.7936ZM59.9918 127.429C58.3828 127.429 57.9984 126.29 57.9984 125.378C57.9984 124.439 58.3971 123.371 59.9918 123.371H60.2196V127.429H59.9918ZM63.6797 123.371C65.2744 123.371 65.6731 124.453 65.6731 125.378C65.6731 126.29 65.2744 127.429 63.6797 127.429H63.4518V123.371H63.6797ZM75.7175 123.185C77.298 123.185 77.6255 123.883 77.6255 124.481H73.781C73.9377 123.698 74.4218 123.185 75.7175 123.185ZM77.6682 126.845C77.597 126.987 77.3977 127.528 75.9453 127.528C74.436 127.528 73.8949 126.916 73.7383 126.033H81.0713V125.748C81.0713 123.513 80.3167 121.263 75.988 121.263H75.3615C71.3319 121.263 70.4207 123.499 70.4207 125.321V125.521C70.4207 127.343 71.3747 129.579 75.5466 129.579H76.1304C80.4448 129.579 80.9859 127.642 81.0428 126.845H77.6682ZM90.1233 129.379C92.1025 129.379 93.0423 128.596 93.0423 127.158V127.101C93.0423 125.962 92.1737 125.293 91.2055 125.179C92.1595 125.022 92.786 124.439 92.786 123.428V123.356C92.786 122.103 91.6469 121.448 89.8386 121.448H82.8473V129.379H90.1233ZM86.0795 124.581V123.143H88.4859C89.1693 123.143 89.4541 123.385 89.4541 123.826V123.869C89.4541 124.325 89.1693 124.581 88.4859 124.581H86.0795ZM86.0795 127.685V126.104H88.5998C89.3971 126.104 89.7104 126.403 89.7104 126.859V126.945C89.7104 127.443 89.3402 127.685 88.5998 127.685H86.0795ZM102.138 125.435C102.138 126.218 101.739 127.286 100.187 127.286H100.073C98.5495 127.286 98.0796 126.261 98.0796 125.449V125.378C98.0796 124.581 98.5495 123.527 100.073 123.527H100.187C101.739 123.527 102.138 124.595 102.138 125.378V125.435ZM94.8616 132.085H98.0939V128.44C98.4356 128.739 99.3326 129.536 101.169 129.536H101.326C104.501 129.536 105.498 127.286 105.498 125.506V125.264C105.498 123.328 104.53 121.292 101.412 121.292H101.269C99.4608 121.292 98.4214 122.075 98.0796 122.445V121.448H94.8616V132.085ZM111.252 127.671C110.398 127.671 110.042 127.343 110.042 126.902V126.873C110.042 126.375 110.398 126.19 111.651 125.976C112.334 125.862 112.975 125.734 113.246 125.663V126.161C113.246 126.774 112.705 127.671 111.252 127.671ZM113.331 128.34C113.488 128.796 113.858 129.379 114.67 129.379H117.29V127.058H116.919C116.478 127.058 116.407 126.888 116.407 126.503V123.969C116.407 122.83 116.093 121.263 111.95 121.263H111.494C107.408 121.263 107.023 123.029 107.023 123.954V123.969H110.27C110.27 123.698 110.398 123.171 111.722 123.171H111.765C113.089 123.171 113.246 123.513 113.246 123.869V123.883C113.246 124.168 113.103 124.31 112.662 124.353L110.455 124.524C107.678 124.752 106.824 125.506 106.824 126.945V127.002C106.824 128.411 107.821 129.536 110.028 129.536H110.27C112.178 129.536 113.018 128.696 113.331 128.34ZM125.383 129.379H128.616V121.448H119.602C119.602 124.965 119.588 125.677 119.431 126.318C119.275 127.002 118.919 127.172 118.42 127.172H118.25V129.379H119.374C121.539 129.379 121.994 128.411 122.293 127.614C122.564 126.888 122.635 125.663 122.635 123.684H125.383V129.379ZM137.669 126.859V129.379H140.901V121.448H133.967C131.76 121.448 130.649 122.573 130.649 124.054V124.196C130.649 125.393 131.376 126.176 132.671 126.475L130.251 129.379H133.882L135.975 126.859H137.669ZM137.669 123.399V124.98H135.007C134.437 124.98 133.953 124.766 133.953 124.196V124.154C133.953 123.57 134.437 123.399 134.992 123.399H137.669Z" fill="white"></path> <path d="M74.4589 154.956V150.294H59.2901C59.2901 149.9 59.8821 149.308 63.4585 148.568C64.3217 148.371 65.3576 148.173 66.3442 147.976C71.8691 146.989 74.0643 145.608 74.0643 142.328V142.13C74.0643 138.875 72.0418 136.359 64.9383 136.359H63.7051C55.6891 136.359 54.5545 140.503 54.5545 142.969V143.142H60.622C60.696 142.303 60.918 140.527 64.3957 140.527C67.2815 140.527 67.8734 141.242 67.8734 142.13V142.155C67.8734 142.944 67.3555 143.413 64.7164 144.079L61.9293 144.844C54.8751 146.817 54.2339 149.308 54.2339 152.021V154.956H74.4589ZM87.9916 136.31C78.8903 136.31 77.1638 141.908 77.1638 145.361V146.101C77.1638 149.456 78.8903 155.252 87.9916 155.252H89.0768C98.1781 155.252 99.9046 149.456 99.9046 146.101V145.361C99.9046 141.958 98.2274 136.31 89.0768 136.31H87.9916ZM93.7631 145.855C93.7631 147.458 93.0972 150.615 88.5589 150.615C84.0452 150.615 83.3053 147.458 83.3053 145.855V145.534C83.3053 143.956 83.9219 140.897 88.5342 140.897C93.0478 140.897 93.7631 143.956 93.7631 145.534V145.855ZM122.897 154.956V150.294H107.728C107.728 149.9 108.32 149.308 111.897 148.568C112.76 148.371 113.796 148.173 114.782 147.976C120.307 146.989 122.503 145.608 122.503 142.328V142.13C122.503 138.875 120.48 136.359 113.377 136.359H112.143C104.127 136.359 102.993 140.503 102.993 142.969V143.142H109.06C109.134 142.303 109.356 140.527 112.834 140.527C115.72 140.527 116.312 141.242 116.312 142.13V142.155C116.312 142.944 115.794 143.413 113.155 144.079L110.367 144.844C103.313 146.817 102.672 149.308 102.672 152.021V154.956H122.897ZM136.06 155.227C144.52 155.227 146.098 151.725 146.098 148.938V148.79C146.098 146.2 144.298 144.967 142.621 144.572C144.101 144.178 145.506 143.166 145.506 141.218V141.045C145.506 138.998 144.199 136.359 136.035 136.359H134.605C126.416 136.359 125.553 140.404 125.553 142.056V142.352H131.522C131.596 141.958 131.719 140.577 135.517 140.577C139.34 140.577 139.661 141.44 139.661 142.204C139.661 142.87 139.291 143.487 137.614 143.487H131.99V147.433H137.638C139.439 147.433 139.908 148.025 139.908 148.839V148.864C139.908 149.678 139.439 150.788 135.591 150.788C131.768 150.788 131.497 149.111 131.423 148.593H125.306V148.864C125.306 150.837 126.465 155.227 134.901 155.227H136.06Z" fill="white"></path> </svg> 