<svg width="21" height="20" viewBox="0 0 21 20" fill="none" xmlns="http://www.w3.org/2000/svg">
<path d="M10.5 15.5556C10.8148 15.5556 11.0789 15.4489 11.2922 15.2356C11.5048 15.023 11.6111 14.7593 11.6111 14.4444C11.6111 14.1296 11.5048 13.8656 11.2922 13.6522C11.0789 13.4396 10.8148 13.3333 10.5 13.3333C10.1852 13.3333 9.92148 13.4396 9.70889 13.6522C9.49556 13.8656 9.38889 14.1296 9.38889 14.4444C9.38889 14.7593 9.49556 15.023 9.70889 15.2356C9.92148 15.4489 10.1852 15.5556 10.5 15.5556ZM9.38889 11.1111H11.6111V4.44444H9.38889V11.1111ZM6.33333 20L0.5 14.1667V5.83333L6.33333 0H14.6667L20.5 5.83333V14.1667L14.6667 20H6.33333ZM7.27778 17.7778H13.7222L18.2778 13.2222V6.77778L13.7222 2.22222H7.27778L2.72222 6.77778V13.2222L7.27778 17.7778Z" fill="#AF8521"/>
</svg>
