<svg width="20" height="20" viewBox="0 0 20 20" fill="none" xmlns="http://www.w3.org/2000/svg">
<g clip-path="url(#clip0_510_33816)">
<path d="M10 11.6665C11.3807 11.6665 12.5 10.5472 12.5 9.1665C12.5 7.78579 11.3807 6.6665 10 6.6665C8.61929 6.6665 7.5 7.78579 7.5 9.1665C7.5 10.5472 8.61929 11.6665 10 11.6665Z" fill="#8655FF"/>
<path d="M14.7141 13.8806L11.1783 17.4164C10.8657 17.7286 10.4421 17.904 10.0003 17.904C9.5586 17.904 9.13493 17.7286 8.82242 17.4164L5.28576 13.8806C4.35344 12.9482 3.71853 11.7603 3.46133 10.4671C3.20412 9.17394 3.33616 7.83352 3.84076 6.61536C4.34535 5.39721 5.19984 4.35604 6.29616 3.62351C7.39248 2.89098 8.68139 2.5 9.99992 2.5C11.3184 2.5 12.6074 2.89098 13.7037 3.62351C14.8 4.35604 15.6545 5.39721 16.1591 6.61536C16.6637 7.83352 16.7957 9.17394 16.5385 10.4671C16.2813 11.7603 15.6464 12.9482 14.7141 13.8806V13.8806Z" stroke="#8655FF" stroke-width="2" stroke-linecap="round" stroke-linejoin="round"/>
</g>
<defs>
<clipPath id="clip0_510_33816">
<rect width="20" height="20" fill="white"/>
</clipPath>
</defs>
</svg>
